<svg width="100" height="22" viewBox="0 0 100 22" fill="none" xmlns="http://www.w3.org/2000/svg">
<path d="M2.57692 19.5694H0.921672V18.8612H3.11299V18H0.583098L0 18.488V19.8278L0.583098 20.4306H2.23834V21.1483H0V22H2.57692L3.11299 21.512V20.1722L2.57692 19.5694Z" fill="#222222"/>
<path d="M6.44251 18H4.08189V21.9904H5.12581V20.9378H6.44251L7.25131 20.1148V18.7368L6.44251 18ZM6.24498 19.9139H5.0788V18.8134H6.24498V19.9139Z" fill="#222222"/>
<path d="M11.0975 20.8038L11.6995 20.1148V18.7368L11.0975 18H8.21026V21.9904H9.25421V20.8804H9.9972L10.6649 21.9904H11.8311L11.0975 20.8038ZM10.6461 19.9522H9.21658V18.8517H10.6461V19.9522Z" fill="#222222"/>
<path d="M15.8378 18.8612V18H12.6683V22H15.8378V21.1292H13.7123V20.4211H15.4334V19.5789H13.7123V18.8612H15.8378Z" fill="#222222"/>
<path d="M19.7126 18H17.4085L16.816 18.6794V21.9904H17.8599V20.7943H19.2612V21.9904H20.3052V18.6986L19.7126 18ZM19.2612 19.9139H17.8599V18.8708H19.2612V19.9139Z" fill="#222222"/>
<path d="M24.1611 18H21.2644V21.9904H24.1611L24.7535 21.2919V18.6986L24.1611 18ZM23.7002 21.1196H22.3083V18.8517H23.7096L23.7002 21.1196Z" fill="#222222"/>
<path d="M77.4376 18V18.9187H78.5003V21.9904H79.5442V18.9187H80.607V18H77.4376Z" fill="#222222"/>
<path d="M83.9647 18V19.4641H82.5727V18H81.5288V21.9904H82.5727V20.4976H83.9647V21.9904H85.0086V18H83.9647Z" fill="#222222"/>
<path d="M87.0211 18H85.9772V21.9904H87.0211V18Z" fill="#222222"/>
<path d="M94.8647 21.1483H93.4728V18.8612H95.6735V18H93.0214L92.4289 18.7081V21.2919L93.0214 21.9904H95.3161L95.9087 21.2919V19.9234H94.8647V21.1483Z" fill="#222222"/>
<path d="M100 18.8612V18H97.4701L96.8776 18.488V19.8277L97.4701 20.4306H99.1159V21.1483H96.8776V21.9904H99.4545L100 21.5024V20.1722L99.4545 19.5694H97.7993V18.8612H100Z" fill="#222222"/>
<path d="M90.4165 20.4498L89.0998 18H87.9807V21.9904H89.0246V19.5502L90.3319 21.9904H91.4605V18H90.4165V20.4498Z" fill="#222222"/>
<path d="M26.9966 18V18.9091H28.0593V21.9904H29.0939V18.9091H30.166V18H26.9966Z" fill="#222222"/>
<path d="M58.3994 18V18.9091H59.4621V21.9904H60.4967V18.9091H61.5688V18H58.3994Z" fill="#222222"/>
<path d="M33.5141 18V19.4641H32.1222V18H31.0783V21.9904H32.1222V20.488H33.5141V21.9904H34.5675V18H33.5141Z" fill="#222222"/>
<path d="M38.6963 18.8708V18H35.5268V21.9904H38.6963V21.1196H36.5708V20.4115H38.2919V19.5789H36.5708V18.8708H38.6963Z" fill="#222222"/>
<path d="M48.5432 18.8708V18H45.3737V21.9904H48.5432V21.1196H46.4177V20.4115H48.1388V19.5789H46.4177V18.8708H48.5432Z" fill="#222222"/>
<path d="M44.217 18.5455L43.6809 18H40.8595V21.9904H43.6809L44.217 21.512V20.4115L43.9442 20.0287L44.217 19.6172V18.5455ZM43.3235 21.1962H41.7623V20.3923H43.3235V21.1962ZM43.3235 19.5981H41.7623V18.8613H43.3235V19.5981Z" fill="#222222"/>
<path d="M63.5719 18H62.5279V21.9904H63.5719V18Z" fill="#222222"/>
<path d="M67.7104 18.9091V18H64.541V21.9904H65.5755V20.6029H67.2213V19.6842H65.5755V18.9091H67.7104Z" fill="#222222"/>
<path d="M74.1618 21.0813V18H73.1179V21.9904H75.8923V21.0813H74.1618Z" fill="#222222"/>
<path d="M52.4369 18H50.1328L49.5403 18.689V21.9904H50.556V20.8038H51.9573V21.9904H53.0012V18.6986L52.4369 18ZM51.9855 19.9139H50.556V18.8804H51.9573L51.9855 19.9139Z" fill="#222222"/>
<path d="M56.3869 18V21.1483H54.9949V18H53.951V21.2919L54.5435 21.9904H56.8477L57.4308 21.2919V18H56.3869Z" fill="#222222"/>
<path d="M71.1052 18V21.1483H69.7133V18H68.6693V21.2919L69.2618 21.9904H71.5566L72.1491 21.2919V18H71.1052Z" fill="#222222"/>
<path d="M3.42447 11.7898L0 0.00976562H3.05035L5.31413 8.76243L7.59711 0.00976562H10.7242L7.28057 11.7898H3.42447Z" fill="#222222"/>
<path d="M15.0025 0.00976562V11.7898H12.1248V0.00976562H15.0025Z" fill="#222222"/>
<path d="M66.2446 8.51529L67.6354 6.26019V2.19278L66.2446 0.00976562H58.7817V11.7898H61.6594V8.51529H63.1462L64.9975 11.7898H68.2781L66.2446 8.51529ZM64.8249 5.77622H61.5635V2.53259H64.8057L64.8249 5.77622Z" fill="#222222"/>
<path d="M23.1559 7.22868L19.4821 0H16.355V11.7904H19.2615V4.58228L22.9161 11.7904H26.0816V0H23.1559V7.22868Z" fill="#222222"/>
<path d="M34.2348 0V9.29842H30.3403V0H27.4338V9.73091L29.0837 11.7904H35.501L37.1509 9.73091V0H34.2348Z" fill="#222222"/>
<path d="M45.7074 4.63377H41.0935V2.53313H47.223V0H40.1631L38.5132 1.44162V5.39577L40.1631 7.1566H44.7578V9.29842H38.5132V11.7904H45.7074L47.223 10.3487V6.3946L45.7074 4.63377Z" fill="#222222"/>
<path d="M56.0384 0.00976562H48.5852V11.7898H51.4629V8.51529H56.0097L57.4006 6.26019V2.19278L56.0384 0.00976562ZM54.6188 5.77622H51.3766V2.53259H54.6188V5.77622Z" fill="#222222"/>
<path d="M77.8418 2.53313V0H68.988V11.7904H77.8418V9.22634H71.9041V7.12571H76.7195V4.66466H71.9041V2.53313H77.8418Z" fill="#222222"/>
<path d="M87.2615 0.00976562H80.8538L79.1943 2.01773V11.7898H82.072V8.26816H85.9665V11.7898H88.8442V2.06922L87.2615 0.00976562ZM86.0049 5.60117H82.1104V2.51199H86.0049V5.60117Z" fill="#222222"/>
<path d="M98.3502 0.00976562H90.2734V11.7898H98.3502L100 9.73036V2.06922L98.3502 0.00976562ZM97.0744 9.2773H93.2375V2.57377H97.0744V9.2773Z" fill="#222222"/>
</svg>
