<svg width="86" height="44" viewBox="0 0 86 44" fill="none" xmlns="http://www.w3.org/2000/svg">
<g clip-path="url(#clip0_4410_4942)">
<path fill-rule="evenodd" clip-rule="evenodd" d="M24.4759 19.7865L24.2607 3.04082C24.2607 3.04082 43.7762 -1.92717 53.5089 16.2424L34.4315 23.8491C34.4315 23.8491 29.5555 19.3222 24.4759 19.7865" fill="#BBBBBB"/>
<path fill-rule="evenodd" clip-rule="evenodd" d="M31.715 28.8515C31.715 28.8515 34.3509 41.581 21.6711 43.7671C21.6711 43.7671 12.7529 45.5237 5.82129 39.4414L16.9642 31.9043C16.9642 31.9043 19.9651 36.5202 25.0831 35.4252C30.5585 34.2374 31.2309 29.9813 31.7304 28.8477" fill="#BBBBBB"/>
<path fill-rule="evenodd" clip-rule="evenodd" d="M6.55135 37.5848L16.8259 31.0073C16.8259 31.0073 15.531 27.409 17.018 24.4955L0.0308484 16.6914C0.0308484 16.6914 -0.814474 30.0787 6.56288 37.5848" fill="#BBBBBB"/>
<path fill-rule="evenodd" clip-rule="evenodd" d="M3.4007 17.0436L17.5137 23.7875C18.1821 22.7083 19.0804 21.7922 20.1437 21.1056C21.207 20.419 22.4086 19.9791 23.6615 19.8178L22.3513 0C22.3513 0 7.98848 4.80549 3.38916 17.0436" fill="#BBBBBB"/>
<path fill-rule="evenodd" clip-rule="evenodd" d="M44.4329 25.9666L44.4483 34.3434L38.8538 25.986L35.4033 25.9976L35.4533 39.7795L38.9076 39.764L38.8615 31.0894L44.4752 39.7408L47.9256 39.7254L47.8757 25.9512L44.4329 25.9666Z" fill="#BBBBBB"/>
<path fill-rule="evenodd" clip-rule="evenodd" d="M53.2825 37.0165L53.2671 33.6697L59.9029 33.6465L59.8837 31.2322L53.2556 31.2592L53.244 28.4193L60.3678 28.3883L60.3563 25.9082L53.2325 25.9353H52.6715L49.7129 25.943L49.7667 39.7211L52.7253 39.7095H53.294L60.5522 39.6785L60.5407 36.9778L53.2825 37.0165Z" fill="#BBBBBB"/>
<path fill-rule="evenodd" clip-rule="evenodd" d="M71.9102 39.6274L75.5758 39.6197L78.838 28.5268L82.2615 39.6004L85.9963 39.5849L80.9474 25.8262L76.8514 25.8378L71.9102 39.6274Z" fill="#BBBBBB"/>
<path fill-rule="evenodd" clip-rule="evenodd" d="M70.0156 25.8692H68.0944H66.1194H65.9811H62.5229L62.5729 39.6434H66.1655V34.3311H68.1213H70.0232C73.3507 34.3311 73.4814 30.195 73.4814 30.195C73.4737 25.788 70.0156 25.8692 70.0156 25.8692ZM68.2788 32.0599H68.1328H66.1655V28.2875L66.227 28.2217H68.1251H68.275C68.5276 28.2215 68.7775 28.2739 69.0091 28.3754C69.2408 28.4769 69.4491 28.6255 69.6211 28.8118C69.7931 28.9981 69.9251 29.2181 70.0089 29.4581C70.0926 29.6981 70.1263 29.9529 70.1078 30.2066C70.1078 30.2066 69.9848 32.0444 68.2788 32.056V32.0599Z" fill="#BBBBBB"/>
</g>
<defs>
<clipPath id="clip0_4410_4942">
<rect width="86" height="44" fill="white"/>
</clipPath>
</defs>
</svg>
