<svg width="174" height="44" viewBox="0 0 174 44" fill="none" xmlns="http://www.w3.org/2000/svg">
<g clip-path="url(#clip0_4410_5203)">
<path d="M119.034 5.03774C118.162 0.0635239 103.114 -1.49356 85.4231 1.56424C77.995 2.8536 71.2899 4.74887 66.0661 6.8837C66.8671 6.90484 67.4624 7.08802 67.831 7.44031C68.1074 7.72213 68.2492 8.10964 68.2492 8.58874V9.08194H66.5127V8.64511C66.5127 8.28578 66.2929 8.06032 65.9031 8.06032C65.5771 8.06032 65.3786 8.20123 65.3077 8.49715C65.2935 8.57465 65.2865 8.71557 65.3219 8.84239C65.5062 9.59627 68.0791 10.0613 68.3626 11.4563C68.398 11.6325 68.4476 12.0129 68.3697 12.5625C68.2067 13.6898 67.2144 14.1196 65.9527 14.1196C64.1878 14.1196 63.472 13.2882 63.472 12.1397V11.6043H65.329V12.2807C65.329 12.6611 65.6054 12.8654 65.9882 12.8654C66.3426 12.8654 66.5552 12.7245 66.6261 12.4286C66.6544 12.2947 66.6757 12.0975 66.6119 11.9425C66.2717 11.0829 63.8618 10.6813 63.5712 9.30035C63.5003 8.9833 63.5003 8.72261 63.5499 8.38442C63.5783 8.20123 63.635 8.04623 63.7059 7.90532C57.908 10.5967 54.52 13.563 54.9665 16.1205C55.8454 21.1018 70.8859 22.6518 88.5772 19.594C96.3526 18.2413 103.341 16.2333 108.664 13.9716C108.586 13.9716 108.515 13.9857 108.43 13.9857C107.218 13.9857 106.134 13.5348 106.028 12.3088C106.006 12.0834 106.006 11.9918 105.999 11.865V9.03262C105.999 8.91284 106.02 8.70147 106.028 8.58874C106.176 7.39803 107.119 6.91188 108.43 6.91188C109.444 6.91188 110.684 7.20075 110.826 8.59579C110.847 8.77193 110.847 8.95512 110.847 9.01853V9.28626H109.097V8.89171C109.097 8.89171 109.097 8.7367 109.075 8.63806C109.047 8.49715 108.926 8.16601 108.423 8.16601C107.92 8.16601 107.807 8.49715 107.771 8.63806C107.757 8.71557 107.743 8.8283 107.743 8.95512V12.027C107.743 12.1327 107.743 12.2172 107.757 12.2807C107.757 12.33 107.856 12.7527 108.43 12.7527C109.004 12.7527 109.089 12.3229 109.097 12.2807C109.111 12.1961 109.118 12.0975 109.111 12.027V11.0759H108.423V10.0472H110.861V11.872C110.861 11.9988 110.861 12.0904 110.84 12.3159C110.805 12.64 110.706 12.9148 110.55 13.1473C116.192 10.484 119.48 7.56713 119.041 5.04479L119.034 5.03774ZM73.1611 13.8589L72.2751 7.86304H72.2467L71.3395 13.8589H69.4683L70.7299 7.08802H73.7848L75.0323 13.8589H73.1682H73.1611ZM82.1627 13.8589L82.1201 7.98282H82.0918L80.9932 13.8589H79.2354L78.1438 7.98282H78.1155L78.073 13.8589H76.3364L76.4853 7.08802H79.285L80.1001 12.1186H80.1426L80.9577 7.08802H83.7574L83.9063 13.8589H82.1768H82.1627ZM90.3492 12.5484C90.1649 13.8589 88.8678 14.0914 87.9605 14.0914C86.4437 14.0914 85.5081 13.4502 85.5081 12.1327V11.5972H87.351V12.2666C87.351 12.6259 87.6132 12.8514 88.0031 12.8514C88.3575 12.8514 88.563 12.7104 88.6339 12.4216C88.6693 12.2877 88.6835 12.0904 88.6197 11.9425C88.2795 11.104 85.8909 10.6883 85.6074 9.32854C85.5365 9.01148 85.5365 8.75784 85.5932 8.41965C85.7917 7.17962 86.9895 6.92597 87.9535 6.92597C88.8182 6.92597 89.4419 7.10916 89.8176 7.48258C90.094 7.75736 90.2357 8.14487 90.2357 8.61693V9.11012H88.5205V8.68034C88.5205 8.31396 88.2866 8.09555 87.918 8.09555C87.592 8.09555 87.3935 8.24351 87.3226 8.52533C87.3085 8.5817 87.2943 8.72261 87.3297 8.86352C87.514 9.61741 90.0656 10.0754 90.3492 11.4563C90.3846 11.6325 90.4342 12.0129 90.3492 12.5554V12.5484ZM96.7141 11.9354C96.7141 12.0622 96.707 12.3159 96.6999 12.3793C96.5936 13.4925 95.7926 14.0632 94.3184 14.0632C92.8441 14.0632 92.0361 13.4925 91.9368 12.3793C91.9368 12.3159 91.9156 12.0622 91.9227 11.9354V7.08802H93.6804V12.0904C93.6804 12.2032 93.6804 12.2877 93.7017 12.3441C93.723 12.4568 93.8364 12.8161 94.3254 12.8161C94.8145 12.8161 94.935 12.4568 94.9563 12.3441C94.9634 12.2877 94.9704 12.2032 94.9704 12.0904V7.08802H96.7211V11.9354H96.7141ZM104.284 13.7884H101.846L100.201 8.42669H100.173L100.258 13.7884H98.5498V7.09507H101.094L102.611 12.2454H102.647L102.562 7.09507H104.277V13.7955L104.284 13.7884Z" fill="#BBBBBB"/>
<path d="M2.96961 43.9994C0.389626 43.9994 -0.0994365 42.4917 0.0139694 40.7725H2.0978C2.0978 41.7167 2.14033 42.5128 3.28856 42.5128C3.99735 42.5128 4.33757 42.0619 4.33757 41.3855C4.33757 39.603 0.134463 39.4902 0.134463 36.5381C0.134463 34.9881 0.878689 33.748 3.42323 33.748C5.45745 33.748 6.46393 34.6569 6.32217 36.7284H4.28795C4.28795 35.9886 4.16746 35.2347 3.324 35.2347C2.64357 35.2347 2.24665 35.6081 2.24665 36.2915C2.24665 38.1727 6.44975 38.0107 6.44975 41.1248C6.44975 43.6965 4.55729 43.9924 2.96961 43.9924V43.9994Z" fill="#BBBBBB"/>
<path d="M7.11621 43.8312L9.88048 33.918H12.6306L15.3381 43.8312H13.1409L12.588 41.6329H9.74581L9.17878 43.8312H7.11621ZM11.135 35.8273H11.1067L10.1569 40.1111H12.1486L11.1421 35.8273H11.135Z" fill="#BBBBBB"/>
<path d="M16.2026 43.8312V33.918H19.5623L21.1216 40.6606H21.15L22.8085 33.918H26.0548V43.8312H24.0206V36.1796H23.9922L22.0714 43.8312H20.0868L18.2652 36.1796H18.2369V43.8312H16.2026Z" fill="#BBBBBB"/>
<path d="M30.3925 43.9994C27.8125 43.9994 27.3234 42.4917 27.4368 40.7725H29.5277C29.5277 41.7167 29.5703 42.5128 30.7114 42.5128C31.4202 42.5128 31.7604 42.0619 31.7604 41.3855C31.7604 39.603 27.5573 39.4902 27.5573 36.5381C27.5573 34.9881 28.3015 33.748 30.8461 33.748C32.8803 33.748 33.8868 34.6569 33.745 36.7284H31.7108C31.7108 35.9886 31.5903 35.2347 30.7469 35.2347C30.0664 35.2347 29.6695 35.6081 29.6695 36.2915C29.6695 38.1727 33.8726 38.0107 33.8726 41.1248C33.8726 43.6965 31.9801 43.9924 30.3925 43.9924V43.9994Z" fill="#BBBBBB"/>
<path d="M42.038 33.918V40.9495C42.038 42.4361 41.1945 44.0003 38.65 44.0003C36.3606 44.0003 35.2549 42.8166 35.2549 40.9495V33.918H37.3387V40.8086C37.3387 42.0345 37.8632 42.5136 38.6216 42.5136C39.536 42.5136 39.947 41.9077 39.947 40.8086V33.918H42.0309H42.038Z" fill="#BBBBBB"/>
<path d="M43.6824 43.8312V33.918H46.4963L49.1471 40.7875H49.1755V33.918H51.1246V43.8312H48.3745L45.6528 36.5812H45.6245V43.8312H43.6753H43.6824Z" fill="#BBBBBB"/>
<path d="M57.3757 36.9687C57.3899 36.0527 57.234 35.2425 56.1283 35.2425C54.8312 35.2425 54.8312 36.9828 54.8312 38.9062C54.8312 42.0133 55.136 42.5559 56.3267 42.5559C56.674 42.5559 57.0426 42.4713 57.3616 42.3656V40.1674H56.2275V38.6385H59.4454V43.662C58.8784 43.7748 57.4537 43.9932 56.6244 43.9932C53.1159 43.9932 52.7119 42.5488 52.7119 38.7935C52.7119 36.2923 52.8395 33.7559 56.2488 33.7559C58.2901 33.7559 59.5659 34.8973 59.4383 36.9687H57.3686H57.3757Z" fill="#BBBBBB"/>
<path d="M68.7307 37.8905V33.9238H70.8146V43.837H68.7307V39.4194H66.3421V43.837H64.2583V33.9238H66.3421V37.8905H68.7307Z" fill="#BBBBBB"/>
<path d="M72.5586 43.8312V33.918H78.0021V35.4398H74.6495V37.8847H77.7398V39.4065H74.6495V42.3023H78.1155V43.8241H72.5657L72.5586 43.8312Z" fill="#BBBBBB"/>
<path d="M78.6328 43.8312L81.3971 33.918H84.1472L86.8547 43.8312H84.6575L84.1046 41.6329H81.2624L80.6954 43.8312H78.6328ZM82.6516 35.8273H82.6233L81.6735 40.1111H83.6652L82.6587 35.8273H82.6516Z" fill="#BBBBBB"/>
<path d="M86.4573 33.918H88.6262L90.1713 41.1257H90.1997L91.9362 33.918H93.9917L91.355 43.8312H88.9097L86.4502 33.918H86.4573Z" fill="#BBBBBB"/>
<path d="M96.707 40.4L94.0986 33.918H96.3809L97.8765 38.1031L99.4642 33.918H101.591L98.7979 40.4V43.8312H96.7141V40.4H96.707Z" fill="#BBBBBB"/>
<path d="M105.481 43.8312V33.918H107.565V43.8312H105.481Z" fill="#BBBBBB"/>
<path d="M109.266 43.8312V33.918H112.08L114.731 40.7875H114.759V33.918H116.709V43.8312H113.959L111.237 36.5812H111.208V43.8312H109.259H109.266Z" fill="#BBBBBB"/>
<path d="M118.438 33.918H121.918C124.654 33.918 125.164 35.7287 125.164 38.8217C125.164 40.3436 125.398 43.8312 121.833 43.8312H118.438V33.918ZM120.522 42.3093H121.528C122.797 42.3093 123.052 41.3582 123.052 38.8781C123.052 37.0533 123.052 35.4469 121.599 35.4469H120.522V42.3164V42.3093Z" fill="#BBBBBB"/>
<path d="M133.507 33.918V40.9495C133.507 42.4361 132.663 44.0003 130.119 44.0003C127.829 44.0003 126.724 42.8166 126.724 40.9495V33.918H128.807V40.8086C128.807 42.0345 129.332 42.5136 130.09 42.5136C131.005 42.5136 131.416 41.9077 131.416 40.8086V33.918H133.5H133.507Z" fill="#BBBBBB"/>
<path d="M137.845 43.9994C135.265 43.9994 134.776 42.4917 134.889 40.7725H136.973C136.973 41.7167 137.015 42.5128 138.164 42.5128C138.865 42.5128 139.213 42.0619 139.213 41.3855C139.213 39.603 135.009 39.4902 135.009 36.5381C135.009 34.9881 135.754 33.748 138.298 33.748C140.325 33.748 141.339 34.6569 141.197 36.7284H139.163C139.163 35.9886 139.042 35.2347 138.199 35.2347C137.526 35.2347 137.122 35.6081 137.122 36.2915C137.122 38.1727 141.318 38.0107 141.318 41.1248C141.318 43.6965 139.425 43.9924 137.838 43.9924L137.845 43.9994Z" fill="#BBBBBB"/>
<path d="M148.696 33.918V35.5666H146.371V43.8312H144.287V35.5666H141.97V33.918H148.696Z" fill="#BBBBBB"/>
<path d="M151.638 43.8312H149.554V33.918H153.41C154.834 33.918 155.741 34.8269 155.741 36.5108C155.741 37.7719 155.245 38.7231 153.891 38.9415V38.9697C154.345 39.0261 155.699 39.1317 155.699 40.9213C155.699 41.5554 155.741 43.4225 155.933 43.8312H153.891C153.615 43.2253 153.672 42.5559 153.672 41.9077C153.672 40.7241 153.785 39.7236 152.176 39.7236H151.638V43.8312ZM151.638 38.2017H152.559C153.388 38.2017 153.622 37.3774 153.622 36.7433C153.622 35.7992 153.225 35.4398 152.559 35.4398H151.638V38.2017Z" fill="#BBBBBB"/>
<path d="M157.201 43.8312V33.918H159.285V43.8312H157.201Z" fill="#BBBBBB"/>
<path d="M160.972 43.8312V33.918H166.416V35.4398H163.063V37.8847H166.154V39.4065H163.063V42.3023H166.529V43.8241H160.979L160.972 43.8312Z" fill="#BBBBBB"/>
<path d="M170.52 43.9994C167.94 43.9994 167.451 42.4917 167.564 40.7725H169.648C169.648 41.7167 169.69 42.5128 170.832 42.5128C171.54 42.5128 171.881 42.0619 171.881 41.3855C171.881 39.603 167.685 39.4902 167.685 36.5381C167.685 34.9881 168.429 33.748 170.973 33.748C173 33.748 174.014 34.6569 173.872 36.7284H171.845C171.845 35.9886 171.718 35.2347 170.874 35.2347C170.201 35.2347 169.797 35.6081 169.797 36.2915C169.797 38.1727 173.993 38.0107 173.993 41.1248C173.993 43.6965 172.1 43.9924 170.513 43.9924L170.52 43.9994Z" fill="#BBBBBB"/>
</g>
<defs>
<clipPath id="clip0_4410_5203">
<rect width="174" height="44" fill="white"/>
</clipPath>
</defs>
</svg>
