<svg width="140" height="28" viewBox="0 0 140 28" fill="none" xmlns="http://www.w3.org/2000/svg">
<g clip-path="url(#clip0_4410_4740)">
<path d="M6.47356 9.12891H0L7.42116 18.2513L0.00339973 27.3872H6.56865L13.8947 18.2513L6.55847 9.12891H6.47356Z" fill="#BBBBBB"/>
<path d="M31.9264 9.12891L24.5935 18.2513L31.9264 27.3872H38.4916L31.0738 18.2513L38.4916 9.12891H31.9264Z" fill="#BBBBBB"/>
<path d="M24.1144 0H18.5273V27.3874H24.1144V0Z" fill="#BBBBBB"/>
<path d="M133.849 8.71094C132.774 8.73236 131.722 9.01944 130.789 9.54587C129.857 10.0723 129.073 10.8212 128.51 11.7239C127.491 9.90941 125.864 8.71094 123.181 8.71094C122.169 8.73368 121.176 8.98735 120.28 9.45203C119.385 9.91671 118.61 10.5798 118.018 11.3891V9.13609H113.07V27.3943H118.355V17.9639C118.355 14.2815 119.598 12.9424 121.52 12.9424C123.718 12.9424 123.898 15.0816 123.898 16.7989V27.391H129.179V17.9639C129.179 14.2815 130.425 12.9424 132.348 12.9424C134.542 12.9424 134.725 15.0816 134.725 16.7989V27.391H140.003V15.7109C140.003 10.8668 137.626 8.71094 133.849 8.71094Z" fill="#BBBBBB"/>
<path d="M58.0922 18.2649C58.0922 23.6413 53.5614 28 47.9743 28C42.3872 28 37.853 23.648 37.853 18.2649C37.853 12.8818 42.3838 8.5332 47.9743 8.5332C53.5648 8.5332 58.0922 12.8852 58.0922 18.2649ZM47.9743 12.8584C45.1553 12.8584 42.8797 15.2788 42.8797 18.2649C42.8797 21.251 45.1417 23.6881 47.9743 23.6881C50.8069 23.6881 53.0689 21.2678 53.0689 18.2783C53.0689 15.2888 50.7866 12.8718 47.9743 12.8718" fill="#BBBBBB"/>
<path d="M100.198 8.5332C94.6071 8.5332 90.0796 12.8852 90.0796 18.2649C90.0787 18.6667 90.1037 19.0681 90.1544 19.4667C90.1544 19.5638 90.1815 19.6642 90.1951 19.7647C90.2611 20.2167 90.1752 20.6776 89.9506 21.077L89.8453 21.2477C89.4089 21.981 88.7879 22.5908 88.0423 23.0184C87.2968 23.4459 86.452 23.6766 85.5896 23.6882C82.774 23.6882 80.495 21.2678 80.495 18.2783C80.495 15.2888 82.7774 12.8718 85.5896 12.8718C86.6074 12.8748 87.598 13.1959 88.4188 13.7891L90.7453 9.9091C89.1791 9.01381 87.4001 8.54367 85.5896 8.54659C80.0025 8.54659 75.4717 12.8986 75.4717 18.2783C75.4717 23.658 80.0025 28.0134 85.5896 28.0134C86.9491 28.0167 88.2956 27.7519 89.5497 27.2345C90.8038 26.717 91.9402 25.9574 92.8919 25.0004C93.8439 25.9578 94.9809 26.7177 96.2356 27.2351C97.4903 27.7526 98.8374 28.0172 100.198 28.0134C105.785 28.0134 110.319 23.6614 110.319 18.2783C110.319 12.8952 105.785 8.54659 100.198 8.54659M100.198 23.6882C97.3819 23.6882 95.1029 21.2678 95.1029 18.2783C95.1029 15.2888 97.3853 12.8718 100.198 12.8718C103.01 12.8718 105.292 15.2922 105.292 18.2783C105.292 21.2644 103.013 23.6882 100.198 23.6882" fill="#BBBBBB"/>
<path d="M74.4967 10.7159C72.4531 9.33212 70.0372 8.58035 67.5579 8.55664C65.211 8.55664 62.9897 9.27974 61.6108 10.5652C61.0824 11.0605 60.6638 11.6582 60.3815 12.3208C60.0991 12.9834 59.9591 13.6965 59.9703 14.4151C59.9703 18.3017 62.9456 19.132 65.3332 19.7982C67.1028 20.2903 68.6413 20.6819 68.6413 22.0478C68.6502 22.31 68.5988 22.5708 68.4912 22.8108C68.3836 23.0507 68.2225 23.2637 68.0198 23.4337C67.3609 23.9828 66.342 24.1033 65.6151 24.0296C63.9953 23.8395 62.4698 23.1775 61.2338 22.1281L61.0096 21.944L59.1755 25.6265L59.3284 25.7436C60.979 26.989 63.6214 27.8761 65.9004 27.9397C68.4749 28.0201 70.832 27.2903 72.3094 25.9311C72.8851 25.4057 73.34 24.7649 73.6435 24.0518C73.9469 23.3386 74.092 22.5697 74.0688 21.7967C74.0688 17.746 70.8388 16.8254 68.2711 16.0856C66.651 15.6169 65.3672 15.2453 65.3672 14.2343C65.3601 14.0069 65.4039 13.7807 65.4955 13.5718C65.587 13.363 65.7241 13.1766 65.897 13.0258C66.5262 12.5533 67.3146 12.3354 68.1013 12.4165C69.752 12.5169 71.5283 13.3806 72.5166 14.0904L74.4967 10.7159Z" fill="#BBBBBB"/>
</g>
<defs>
<clipPath id="clip0_4410_4740">
<rect width="140" height="28" fill="white"/>
</clipPath>
</defs>
</svg>
