<svg width="109" height="36" viewBox="0 0 109 36" fill="none" xmlns="http://www.w3.org/2000/svg">
<g clip-path="url(#clip0_4410_5032)">
<path d="M54.4985 14.3225C32.8391 14.3225 13.4862 9.00694 0.403347 0.847774C0.306078 0.786843 0.211972 0.720969 0.121397 0.650413C0.0644429 0.597181 0.0255615 0.527366 0.0102242 0.450803C-0.00511318 0.374239 0.00387029 0.294783 0.0359024 0.223608C0.0679346 0.152432 0.121405 0.0931203 0.188791 0.0540319C0.256177 0.0149436 0.334084 -0.00195354 0.411546 0.00570794C0.531363 0.0337564 0.649118 0.0700198 0.763983 0.114251C15.2631 5.04824 34.0554 7.84416 54.5017 7.84416C74.948 7.84416 93.7404 5.04824 108.244 0.114251C108.358 0.0700485 108.476 0.0359292 108.595 0.012283C108.675 0.00275314 108.755 0.0200353 108.824 0.06141C108.893 0.102785 108.946 0.165913 108.976 0.240893C109.007 0.311708 109.014 0.391084 108.996 0.466452C108.977 0.54182 108.935 0.608867 108.874 0.656988C108.787 0.729769 108.694 0.79575 108.597 0.854349C95.514 9.02174 76.1627 14.3291 54.5017 14.3291" fill="#BBBBBB"/>
<path d="M12.0387 19.862H13.4353C14.3976 19.862 15.2205 20.2172 15.7417 20.8587C16.1267 21.3561 16.3309 21.9706 16.3204 22.6003C16.3195 22.8632 16.2898 23.1252 16.2319 23.3816C15.8385 25.3848 13.9189 26.9505 11.8666 26.9505H10.5306C10.588 26.6544 11.9977 20.0561 12.0387 19.862M18.9596 22.4688C18.97 21.6447 18.6986 20.8419 18.1908 20.1942C17.3498 19.1515 15.8958 18.5742 14.0927 18.5742H7.46519L7.32258 19.4179H7.47339C8.45694 19.4179 8.92249 19.5265 9.1569 19.811C9.48475 20.2238 9.37656 21.1086 9.07985 22.4852L7.1816 31.5309C6.59803 34.2396 6.17511 34.682 4.17523 34.682H4.07687L3.88672 35.5225H11.1338L11.3305 34.682H11.1666C10.1945 34.682 9.72899 34.5718 9.4995 34.2873C9.35361 34.1228 9.29623 33.8498 9.29623 33.4913C9.32793 32.8471 9.41681 32.207 9.56179 31.5786C9.56179 31.5786 10.1814 28.7547 10.3076 28.1988H12.1321C15.5057 28.1988 18.2695 26.2383 18.853 23.4293C18.9227 23.1116 18.959 22.7875 18.9612 22.4622" fill="#BBBBBB"/>
<path d="M28.2132 34.631C28.0788 34.631 28.0214 34.5849 27.9985 34.5487C27.9214 34.4533 27.8493 34.2198 27.9722 33.6475L29.5672 26.0047H27.4362L26.5543 30.2545C25.9314 33.0932 24.0954 34.4106 23.0479 34.4106C22.4906 34.4106 22.1086 34.2658 21.871 33.9698C21.5283 33.5356 21.489 32.7593 21.7447 31.5867L22.5791 27.7201C22.7102 27.0836 22.6217 26.5491 22.3103 26.1758C22.0349 25.8287 21.5808 25.6445 21.0235 25.6445C20.3497 25.6445 19.4285 26.0475 18.7695 26.6215L18.7285 26.6626V27.6839L18.9416 27.4783C19.1613 27.2728 19.835 26.8731 20.1891 26.8731C20.2267 26.8703 20.2645 26.8767 20.2991 26.8919C20.3336 26.9071 20.364 26.9306 20.3874 26.9603C20.5022 27.1033 20.5169 27.4323 20.4235 27.8911L19.5957 31.6739C19.2678 33.1968 19.4318 34.3958 20.035 35.149C20.4891 35.7181 21.1825 35.9993 22.0857 35.9993C23.3709 35.9993 24.7396 35.2691 25.7625 34.0701C25.7498 34.1458 25.7411 34.2221 25.7363 34.2987C25.7189 34.6902 25.8448 35.0745 26.0904 35.3793C26.3674 35.7164 26.7985 35.8924 27.346 35.8924C27.9689 35.8924 28.9295 35.473 29.6213 34.8875L29.6672 34.8497V33.8958L29.4705 34.0455C29.1967 34.2445 28.5246 34.631 28.2116 34.631" fill="#BBBBBB"/>
<path d="M36.7273 18.0703L36.542 18.1065L32.4931 18.817L32.3505 19.6393H32.5046C33.2127 19.6393 33.5832 19.7314 33.7619 19.9682C34.0783 20.358 33.9602 21.284 33.6439 22.7428L31.3112 33.79C31.1932 34.4479 31.2981 35.007 31.6161 35.382C31.8899 35.7192 32.3259 35.8952 32.8734 35.8952C33.4914 35.8952 34.4569 35.4741 35.1503 34.8903L35.1995 34.8524V33.8953L34.9897 34.0449C34.7225 34.2439 34.052 34.6288 33.7389 34.6288C33.6984 34.6332 33.6573 34.6282 33.619 34.6142C33.5806 34.6003 33.5459 34.5777 33.5176 34.5482C33.4422 34.4528 33.375 34.2193 33.4914 33.6486L36.7273 18.0703Z" fill="#BBBBBB"/>
<path d="M52.7771 34.6295C52.7386 34.6326 52.7 34.6265 52.6643 34.6116C52.6287 34.5968 52.5971 34.5736 52.5722 34.544C52.4624 34.396 52.4558 34.0736 52.5722 33.6526L53.3344 29.8337C53.7016 28.1298 53.6016 26.972 53.0459 26.2829C52.6427 25.7895 51.9968 25.5312 51.1182 25.5312C49.7117 25.5312 48.202 26.4555 47.2987 27.8107C47.2561 27.0871 47.0594 26.5329 46.6922 26.1546C46.289 25.7401 45.6857 25.5312 44.8891 25.5312C43.6301 25.5312 42.2663 26.2681 41.3516 27.416C41.3516 27.3322 41.3794 27.2516 41.3794 27.1743C41.3918 26.8125 41.2756 26.4581 41.0516 26.1743C40.7696 25.8273 40.3254 25.6431 39.7599 25.6431C39.091 25.6431 38.1616 26.046 37.5059 26.62L37.4666 26.6611V27.6825L37.6829 27.4769C37.896 27.2713 38.5747 26.8717 38.9255 26.8717C38.9636 26.8687 39.0019 26.8751 39.037 26.8903C39.0721 26.9055 39.1031 26.929 39.1271 26.9588C39.2468 27.1019 39.2582 27.4308 39.1615 27.8897L37.537 35.5292H39.6681L40.5877 31.281C41.1942 28.2318 42.9761 27.1003 43.9563 27.1003C44.4481 27.1003 44.7628 27.2039 44.9399 27.4292C45.2431 27.8025 45.2481 28.5212 44.9563 29.9143L43.7891 35.5209H45.8857L46.807 31.2728C47.384 28.4012 49.1216 27.1003 50.1805 27.1003C50.6723 27.1003 51.0002 27.2121 51.1887 27.4456C51.4903 27.8272 51.4903 28.5657 51.1887 29.9126L50.3887 33.7842C50.2559 34.4223 50.351 34.9749 50.6592 35.3581C50.9362 35.7051 51.3805 35.8893 51.9476 35.8893C52.5591 35.8893 53.4836 35.4749 54.1869 34.8844L54.2409 34.8466V33.8598L54.0262 34.0358C53.7803 34.2414 53.1164 34.618 52.7771 34.618" fill="#BBBBBB"/>
<path d="M65.4894 34.631C65.4495 34.6348 65.4092 34.6293 65.3717 34.6151C65.3342 34.6008 65.3005 34.5781 65.2731 34.5487C65.1977 34.4533 65.1272 34.2198 65.2468 33.6475L66.85 26.0047H64.719L63.8273 30.2545C63.2093 33.0932 61.3684 34.4106 60.3226 34.4106C59.7685 34.4106 59.3849 34.2658 59.1488 33.9698C58.8046 33.5356 58.7603 32.7593 59.0177 31.5867L59.8537 27.7201C59.9832 27.0836 59.898 26.5491 59.5914 26.1758C59.3128 25.8287 58.862 25.6445 58.2948 25.6445C57.626 25.6445 56.7031 26.0475 56.0474 26.6215L56.0081 26.6626V27.6839L56.2228 27.4783C56.4392 27.2728 57.1113 26.8731 57.4653 26.8731C57.5031 26.8711 57.5409 26.8779 57.5756 26.893C57.6103 26.9082 57.641 26.9312 57.6653 26.9603C57.7801 27.1033 57.7948 27.4323 57.708 27.8911L56.8703 31.6739C56.5539 33.1968 56.7064 34.3958 57.3113 35.149C57.7653 35.7181 58.4587 35.9993 59.3587 35.9993C60.6504 35.9993 62.0159 35.2691 63.0437 34.0701C63.0297 34.1457 63.0204 34.222 63.0158 34.2987C62.9992 34.6893 63.1231 35.0728 63.365 35.3793C63.642 35.7164 64.0731 35.8924 64.619 35.8924C65.2403 35.8924 66.2042 35.473 66.8992 34.8875L66.9435 34.8497V33.8958L66.7386 34.0455C66.473 34.2445 65.8025 34.631 65.4829 34.631" fill="#BBBBBB"/>
<path d="M72.6791 34.8833C72.0234 34.8833 71.5103 34.6629 71.1694 34.2254C70.6137 33.5363 70.4842 32.3078 70.812 30.7717C71.2349 28.7717 72.4349 26.637 74.5085 26.637C75.1642 26.637 75.656 26.8574 76.0052 27.2751C76.5527 27.9642 76.6805 29.1813 76.356 30.7141C75.7937 33.3143 74.42 34.8702 72.6791 34.8702M74.6806 25.5186C71.8628 25.5186 69.04 27.8458 68.3974 30.7141C68.1056 32.1581 68.3974 33.51 69.217 34.5116C69.9924 35.4655 71.1677 35.9918 72.5119 35.9918C75.3347 35.9918 78.1181 33.6498 78.7312 30.7766C79.0378 29.3441 78.7624 28.002 77.9542 26.9939C77.1854 26.0416 76.0183 25.5137 74.6757 25.5137" fill="#BBBBBB"/>
<path d="M90.1273 34.6295C90.0861 34.6336 90.0445 34.6284 90.0056 34.6141C89.9667 34.5999 89.9316 34.577 89.9027 34.5473C89.8322 34.4519 89.765 34.2184 89.8846 33.646L90.6502 29.8337C90.978 28.3124 90.8272 27.1151 90.2273 26.3799C89.7797 25.8174 89.0798 25.5312 88.1618 25.5312C86.8865 25.5312 85.5554 26.25 84.5161 27.4687C84.5354 27.3716 84.5474 27.2732 84.5522 27.1743C84.5631 26.8127 84.4471 26.4588 84.2243 26.1743C83.9424 25.8273 83.4949 25.6431 82.931 25.6431C82.2589 25.6431 81.3343 26.046 80.6836 26.62L80.6426 26.6611V27.6825L80.854 27.4769C81.0688 27.2713 81.7425 26.8717 82.095 26.8717C82.1331 26.8686 82.1714 26.8749 82.2066 26.8901C82.2417 26.9053 82.2726 26.9289 82.2966 26.9588C82.4162 27.1019 82.4261 27.4308 82.3376 27.8897L80.7114 35.5292H82.8425L83.7604 31.281C84.3292 28.5558 86.1422 27.1003 87.2307 27.1003C87.7782 27.1003 88.1634 27.2368 88.3897 27.5295C88.7323 27.9588 88.77 28.712 88.5044 29.9159L87.7012 33.7875C87.5864 34.4453 87.6897 35.0045 88.0012 35.3795C88.2831 35.7166 88.7191 35.8926 89.2617 35.8926C89.8863 35.8926 90.8452 35.4732 91.537 34.8877L91.5878 34.8499V33.8944L91.3813 34.044C91.1108 34.243 90.442 34.6295 90.1289 34.6295" fill="#BBBBBB"/>
<path d="M98.6464 26.9005C98.7788 26.8908 98.9117 26.9103 99.0358 26.9578C99.1599 27.0052 99.272 27.0794 99.3643 27.1752C99.4901 27.3455 99.5543 27.5538 99.5463 27.7656C99.5462 27.8634 99.5363 27.9609 99.5168 28.0567C99.2824 29.06 97.9825 30.4398 95.1843 31.0549L95.2351 30.8082C95.7269 28.4745 97.0973 26.9005 98.6398 26.9005M101.427 28.0814C101.461 27.9225 101.479 27.7605 101.481 27.5979C101.485 27.1743 101.346 26.7618 101.086 26.4285C100.628 25.8545 99.843 25.5371 98.8775 25.5371C96.6121 25.5371 93.7286 27.6225 93.0237 30.7326C92.709 32.295 92.9844 33.7522 93.7794 34.7209C94.4663 35.563 95.481 36.0054 96.7071 36.0054C98.0759 36.0054 99.7987 35.2538 100.989 34.1403L101.063 34.0696L100.643 33.2917L100.525 33.3871C99.6381 34.0976 98.3775 34.6354 97.5743 34.6354C96.7711 34.6354 96.135 34.4199 95.7121 33.9775C95.2892 33.5351 95.0695 32.9035 95.0695 32.0796C99.2971 31.3164 101.127 29.5172 101.433 28.0798" fill="#BBBBBB"/>
</g>
<defs>
<clipPath id="clip0_4410_5032">
<rect width="109" height="36" fill="white"/>
</clipPath>
</defs>
</svg>
