<svg width="166" height="24" viewBox="0 0 166 24" fill="none" xmlns="http://www.w3.org/2000/svg">
<g clip-path="url(#clip0_4410_4812)">
<path d="M138.985 0.000462659L144.929 5.81239C146.606 7.44554 148.217 7.65627 149.943 7.65627H166.009L163.639 5.33824H156.697C155.834 5.33824 155.032 5.23709 154.191 4.41946L149.662 -0.00585938L138.985 0.000462659Z" fill="#BBBBBB"/>
<path d="M138.985 17.6026L144.929 11.7907C146.606 10.1512 148.207 9.95523 149.936 9.95312H166.002L163.63 12.2606H156.697C155.834 12.2606 155.032 12.3597 154.191 13.1815L149.662 17.6068L138.985 17.6026Z" fill="#BBBBBB"/>
<path d="M63.479 21.1294C63.479 21.2326 63.479 21.3401 63.4941 21.4476C63.4983 21.5472 63.5312 21.6436 63.589 21.7257C63.6544 21.8215 63.7486 21.8952 63.8586 21.9365C64.033 21.9962 64.2173 22.0233 64.402 22.0165H78.5207V23.7698H61.2966C60.9246 23.7918 60.5531 23.7192 60.2184 23.5591C59.9919 23.4325 59.8048 23.2483 59.6771 23.0259C59.555 22.8089 59.4815 22.569 59.4614 22.3221C59.4442 22.065 59.4355 21.8206 59.4355 21.5909V16.1309H63.4682L63.479 21.1294Z" fill="#BBBBBB"/>
<path d="M111.947 9.0024C111.683 9.01049 111.423 8.94323 111.197 8.80886C110.972 8.67449 110.792 8.47884 110.679 8.24588L110.342 7.23438H120.398V9.01083L111.947 9.0024Z" fill="#BBBBBB"/>
<path d="M111.973 2.72824C111.709 2.73551 111.448 2.6672 111.223 2.5317C110.997 2.39619 110.817 2.19937 110.705 1.9654L110.366 0.943359H123.676C123.676 0.943359 124.461 13.7705 110.558 18.0883L109.525 16.7165C109.525 16.7165 119.245 12.6958 119.245 2.73245L111.973 2.72824Z" fill="#BBBBBB"/>
<path d="M78.1932 17.3283H74.4258V0H77.2939C77.5321 -6.6908e-07 77.7605 0.0922919 77.9291 0.256633C78.0976 0.420973 78.1926 0.643944 78.1932 0.876636V17.3283Z" fill="#BBBBBB"/>
<path d="M104.932 23.7619H100.791V16.9005C100.527 16.9978 100.253 17.0685 99.9738 17.1112C99.6676 17.166 99.3463 17.2103 99.0099 17.2419C98.6735 17.2735 98.3414 17.3072 98.0028 17.3241C97.6642 17.3409 97.3558 17.3515 97.0647 17.3515H85.4626C85.0116 17.3587 84.5759 17.1913 84.2507 16.8858C84.0896 16.7432 83.9614 16.5687 83.8748 16.374C83.7882 16.1792 83.745 15.9686 83.7482 15.7563V0.912462H96.6334V2.66573H87.7486V7.72324H95.4408V9.48073H87.7486V14.7932C87.747 14.902 87.768 15.01 87.8102 15.1107C87.8525 15.2114 87.9151 15.3026 87.9944 15.3791C88.0768 15.4573 88.1744 15.5187 88.2814 15.5596C88.3884 15.6005 88.5028 15.6201 88.6176 15.6172H97.0647C97.3192 15.6172 97.606 15.6172 97.9273 15.5919C98.2486 15.5666 98.5743 15.5476 98.9193 15.5118C99.2643 15.476 99.5986 15.4296 99.9264 15.3791C100.217 15.3315 100.505 15.2689 100.789 15.1915V9.4449H98.5398C98.2787 9.45446 98.0204 9.39014 97.7958 9.25967C97.5712 9.12921 97.39 8.93815 97.2739 8.70946L96.9375 7.69163H100.791V2.533e-06H104.026C104.144 -0.000274533 104.261 0.0221807 104.37 0.0660859C104.479 0.109991 104.579 0.174486 104.662 0.255889C104.746 0.337292 104.813 0.43401 104.858 0.540518C104.904 0.647026 104.927 0.76124 104.927 0.876638L104.932 23.7619Z" fill="#BBBBBB"/>
<path d="M65.1658 7.75259H59.8134V10.8714C59.8024 11.101 59.8793 11.3263 60.029 11.5036C60.1182 11.5891 60.2253 11.6547 60.343 11.6959C60.4606 11.737 60.586 11.7526 60.7105 11.7417H65.1205C65.6424 11.7417 66.2549 11.7206 66.9557 11.6722C67.5588 11.6506 68.1529 11.5221 68.709 11.2928V7.65565L67.3849 7.63247C67.1267 7.64505 66.8702 7.58503 66.6459 7.45954C66.4215 7.33405 66.2387 7.14834 66.119 6.92442L65.7826 5.90238H68.709V0.00195313H71.5276C71.6453 0.00195279 71.7618 0.0246429 71.8705 0.0687238C71.9793 0.112805 72.078 0.17741 72.1611 0.258841C72.2443 0.340272 72.3102 0.436928 72.355 0.543274C72.3999 0.64962 72.4228 0.763567 72.4225 0.878588V17.3281H68.7111V13.0777C68.5164 13.1614 68.3112 13.2195 68.1008 13.2505C67.8378 13.2927 67.5445 13.3348 67.2145 13.3685C66.8846 13.4023 66.5438 13.4275 66.1794 13.4444C65.8149 13.4613 65.4656 13.4739 65.1227 13.4739H57.6029C57.3611 13.4868 57.1192 13.451 56.8922 13.3688C56.6651 13.2865 56.4578 13.1594 56.2831 12.9955C56.1269 12.8371 56.0045 12.6499 55.923 12.4447C55.8416 12.2396 55.8027 12.0207 55.8087 11.8007V6.02671H61.2151V2.59814H57.4132C57.1546 2.61113 56.8977 2.55131 56.6729 2.4258C56.4481 2.30028 56.2649 2.11435 56.1451 1.89009L55.8087 0.870159H64.2666C64.5058 0.871274 64.7349 0.965081 64.9035 1.131C65.0721 1.29692 65.1664 1.52141 65.1658 1.75522V7.75259Z" fill="#BBBBBB"/>
<path d="M130.236 2.533e-06C130.354 -0.000274533 130.471 0.0221807 130.581 0.0660859C130.69 0.109991 130.789 0.174486 130.873 0.255889C130.957 0.337292 131.023 0.43401 131.068 0.540518C131.114 0.647026 131.137 0.76124 131.138 0.876638V8.0267H135.302V9.80736H131.138V23.7619H127.083V2.533e-06H130.236Z" fill="#BBBBBB"/>
<path d="M46.898 23.8144H50.5446V0.00195312H46.898V23.8144ZM41.0754 8.59129H36.51V10.7154H41.0732V15.7245C40.1634 16.0903 39.1866 16.2703 38.2029 16.2534H33.0273C32.7945 16.2534 32.5712 16.1631 32.4066 16.0022C32.242 15.8414 32.1496 15.6232 32.1496 15.3958V3.538H38.8089V1.82476H28.3584V16.2619C28.3584 16.7147 28.5424 17.1491 28.8699 17.4696C29.1974 17.79 29.6417 17.9703 30.1052 17.9709H38.1943C39.4235 17.9709 40.4198 17.7601 41.0646 17.3598V23.8144H44.7048V0.00195312H41.0646L41.0754 8.59129Z" fill="#BBBBBB"/>
<path d="M13.7694 12.5744V10.229H21.783V8.52417H6.68736C6.57036 8.5253 6.45431 8.50361 6.34599 8.46038C6.23767 8.41715 6.13927 8.35324 6.05653 8.27239C5.9738 8.19155 5.9084 8.09539 5.86416 7.98954C5.81991 7.8837 5.79772 7.77029 5.79887 7.65597V6.15979H21.4573V0.398438H2.04869V2.11378H17.7007V4.44655H2.04006V8.51785C2.0395 8.74236 2.08426 8.96477 2.17179 9.17235C2.25932 9.37993 2.3879 9.5686 2.55016 9.72754C2.71242 9.88649 2.90517 10.0126 3.11738 10.0986C3.32959 10.1847 3.55709 10.229 3.78684 10.229H9.98467V12.5744H0V14.2876H23.8209V12.5744H13.7694ZM13.8729 15.3855H9.65041C8.53549 19.912 3.04716 22.1942 1.02435 22.4808L2.07457 24.0002C4.13189 23.7557 8.82231 22.1036 11.7552 18.9764C14.6902 22.1099 19.3785 23.7557 21.4358 24.0002L22.486 22.4808C20.4718 22.1942 14.9813 19.912 13.8599 15.3855" fill="#BBBBBB"/>
</g>
<defs>
<clipPath id="clip0_4410_4812">
<rect width="166" height="24" fill="white"/>
</clipPath>
</defs>
</svg>
