<svg width="166" height="26" viewBox="0 0 166 26" fill="none" xmlns="http://www.w3.org/2000/svg">
<g clip-path="url(#clip0_4410_4713)">
<path d="M137.399 19.832L137.078 0.773438H142.953V24.8058H134.502L128.65 5.08946H128.52L128.847 24.8058H123.012V0.773438H131.818L137.27 19.832H137.399Z" fill="#BBBBBB"/>
<path d="M30.6586 3.02377L27.4168 25.0539H21.001L25.3985 0.773438H35.9525L40.3274 25.0539H33.9511L30.7882 3.02377H30.6586Z" fill="#BBBBBB"/>
<path d="M58.3175 19.3416L61.2492 0.773438H70.918L71.4424 25.0539H65.5057L65.3591 3.22572L65.2295 3.23149L61.2661 25.0539H55.2449L51.2815 3.22572H51.1518L50.9996 25.0539H45.063L45.5873 0.773438H55.2618L58.1878 19.3416H58.3175Z" fill="#BBBBBB"/>
<path d="M11.0222 18.1985C11.2077 18.7813 11.2234 19.4069 11.0673 19.9987C10.8756 20.8065 10.3343 21.6259 8.75575 21.6259C7.27301 21.6259 6.37096 20.7546 6.37096 19.4275V17.0791H0.00585938V18.9486C0.00585938 24.3667 4.17221 25.9996 8.63172 25.9996C12.9221 25.9996 16.4514 24.4994 17.0152 20.4488C17.2333 19.1311 17.2333 17.7852 17.0152 16.4674C16.0116 11.3782 7.00803 9.86646 6.34277 7.02181C6.25349 6.60166 6.25349 6.1668 6.34277 5.74665C6.5119 4.97346 7.02494 4.11948 8.50769 4.11948C8.79922 4.09114 9.09329 4.12807 9.36947 4.2277C9.64566 4.32734 9.89736 4.48729 10.1071 4.69645C10.3168 4.90562 10.4796 5.15899 10.584 5.43898C10.6885 5.71897 10.7322 6.01888 10.7121 6.31788V7.81809H16.6318V6.08706C16.6318 0.801665 11.9919 -0.0234375 8.63172 -0.0234375C4.42027 -0.0234375 0.969929 1.40175 0.338493 5.3658C0.146706 6.44952 0.16586 7.56131 0.394866 8.63743C1.36457 13.6228 9.79875 15.0595 11.0222 18.1985Z" fill="#BBBBBB"/>
<path d="M88.1477 18.1531C88.3321 18.73 88.3497 19.3491 88.1984 19.936C88.0067 20.7323 87.4711 21.5459 85.9095 21.5459C84.438 21.5459 83.5472 20.6803 83.5472 19.3705V17.0625H77.2441V18.8974C77.2441 24.2578 81.371 25.8734 85.7854 25.8734C90.0307 25.8734 93.5262 24.3905 94.0843 20.3745C94.3023 19.0723 94.3023 17.7416 94.0843 16.4393C93.0921 11.402 84.1787 9.90184 83.519 7.08604C83.4234 6.67343 83.4138 6.2448 83.4908 5.82813C83.66 5.05494 84.1674 4.21252 85.6332 4.21252C85.9223 4.18403 86.214 4.22047 86.4879 4.31926C86.7618 4.41805 87.0113 4.57681 87.219 4.78449C87.4268 4.99217 87.5878 5.24375 87.6907 5.52167C87.7936 5.79959 87.8361 6.09718 87.8151 6.39363V7.87654H93.6784V6.2032C93.6784 0.969737 89.0836 0.150391 85.7573 0.150391C81.5853 0.150391 78.1687 1.56406 77.5486 5.48772C77.3597 6.56006 77.3788 7.65996 77.605 8.72473C78.5916 13.6235 86.9412 15.043 88.1477 18.1531Z" fill="#BBBBBB"/>
<path d="M108.055 21.4129C108.576 21.4526 109.093 21.2954 109.509 20.9711C109.924 20.6468 110.209 20.1779 110.31 19.6531C110.353 19.3475 110.37 19.0385 110.36 18.7299V0.767578H116.399V18.1759C116.399 18.626 116.365 19.5377 116.342 19.7742C115.925 24.3038 112.43 25.7751 108.066 25.7751C103.702 25.7751 100.201 24.3038 99.7896 19.7742C99.7896 19.5377 99.7219 18.6202 99.7332 18.1759V0.767578H105.732V18.7299C105.721 19.0387 105.74 19.348 105.788 19.6531C105.889 20.18 106.176 20.6506 106.594 20.9751C107.012 21.2997 107.532 21.4555 108.055 21.4129Z" fill="#BBBBBB"/>
<path d="M157.549 21.1644C159.24 21.1644 159.866 20.045 159.973 19.3988C160.018 19.0933 160.037 18.7844 160.029 18.4756V14.9558H157.594V11.3957H166V17.9101C166 18.3601 166 18.6948 165.915 19.5026C165.52 23.9283 161.777 25.5035 157.571 25.5035C153.365 25.5035 149.622 23.9283 149.227 19.5026C149.171 18.9737 149.143 18.4421 149.143 17.9101V7.70857C149.143 7.27581 149.199 6.51418 149.244 6.11028C149.774 1.56922 153.365 0.109375 157.571 0.109375C161.777 0.109375 165.464 1.55768 165.898 6.11028C165.943 6.64172 165.962 7.17516 165.955 7.70857V8.51062H159.973V7.14888C159.973 6.83938 159.946 6.53045 159.894 6.22565C159.787 5.68903 159.33 4.46001 157.526 4.46001C156.989 4.40528 156.451 4.55513 156.015 4.88089C155.579 5.20665 155.276 5.68544 155.164 6.22565C155.095 6.60615 155.063 6.9927 155.068 7.37967V18.4756C155.06 18.7844 155.079 19.0933 155.124 19.3988C155.231 20.0508 155.829 21.1644 157.549 21.1644Z" fill="#BBBBBB"/>
</g>
<defs>
<clipPath id="clip0_4410_4713">
<rect width="166" height="26" fill="white"/>
</clipPath>
</defs>
</svg>
