<svg width="140" height="26" viewBox="0 0 140 26" fill="none" xmlns="http://www.w3.org/2000/svg">
<g clip-path="url(#clip0_4410_4792)">
<path d="M33.0208 10.9153C35.2877 10.9153 35.984 12.9883 35.984 14.1313H29.8698C29.8543 13.7098 29.9247 13.2896 30.0768 12.8963C30.2289 12.503 30.4595 12.1449 30.7544 11.8439C31.0493 11.5429 31.4024 11.3053 31.7921 11.1456C32.1817 10.986 32.5998 10.9076 33.0208 10.9153V10.9153ZM39.535 20.5137C38.8881 20.7377 38.2284 20.9227 37.5595 21.0679C36.758 21.2305 35.9425 21.3134 35.1247 21.3153C32.4429 21.3153 30.3439 20.4247 29.9982 18.2922H41.4365C41.5928 17.4886 41.6722 16.6718 41.6735 15.8531C41.6735 11.0192 39.2683 6.57617 33.1393 6.57617C27.2127 6.57617 24.0173 11.2517 24.0173 16.4962C24.0173 22.5373 28.2301 25.9958 34.1221 25.9958C35.2957 26.0109 36.4676 25.9031 37.6188 25.6742C38.5976 25.4797 39.5529 25.1812 40.4685 24.7836L39.535 20.5137Z" fill="#BBBBBB"/>
<path d="M121.825 10.9153C124.092 10.9153 124.789 12.9883 124.789 14.1313H118.665C118.65 13.7091 118.721 13.2884 118.874 12.8947C119.027 12.5011 119.258 12.1428 119.554 11.8418C119.85 11.5408 120.204 11.3034 120.594 11.1441C120.985 10.9848 121.404 10.9069 121.825 10.9153V10.9153ZM128.335 20.5137C127.688 20.7389 127.028 20.924 126.359 21.0679C125.559 21.2306 124.745 21.3135 123.929 21.3153C121.248 21.3153 119.149 20.4247 118.803 18.2922H130.226C130.38 17.4882 130.46 16.6717 130.463 15.8531C130.463 11.0192 128.058 6.57617 121.929 6.57617C115.973 6.57617 112.802 11.2517 112.802 16.4962C112.802 22.5373 117.02 25.9958 122.907 25.9958C124.082 26.0112 125.256 25.9034 126.409 25.6742C127.387 25.4797 128.343 25.1812 129.258 24.7836L128.335 20.5137Z" fill="#BBBBBB"/>
<path d="M44.459 0.416016V25.5947H50.6621V0.416016H44.459Z" fill="#BBBBBB"/>
<path d="M63.1227 21.3844C61.1077 21.3844 59.7841 19.4053 59.7841 16.3032C59.7841 13.8293 60.6681 11.2219 63.1424 11.2219C65.5279 11.2219 66.3724 13.9431 66.3724 16.2784C66.3724 19.3757 65.0883 21.3844 63.1227 21.3844ZM63.0387 25.9956C67.8788 25.9956 72.778 22.9429 72.778 16.1003C72.778 12.0432 70.3728 6.58594 63.34 6.58594C56.0997 6.58594 53.4624 11.87 53.4624 16.412C53.4575 22.1266 57.4085 25.9956 63.0387 25.9956V25.9956Z" fill="#BBBBBB"/>
<path d="M75.4746 7.01562V25.5941H81.6777V7.01562H75.4746Z" fill="#BBBBBB"/>
<path d="M75.4746 0.445312V5.27424H81.6777V0.445312H75.4746Z" fill="#BBBBBB"/>
<path d="M86.5869 1.9592V7.01077H84.1965V11.617H86.577V19.2464C86.577 23.437 88.4883 25.995 92.8493 25.995C93.7174 25.9861 94.5837 25.9166 95.4422 25.7872C96.0469 25.7058 96.6458 25.5851 97.2349 25.426C97.2349 25.426 97.1905 20.5723 97.1905 20.5525C96.4935 20.7112 95.785 20.8138 95.0718 20.8593C94.7506 20.8816 94.4283 20.8393 94.1238 20.7348C93.8193 20.6302 93.5387 20.4656 93.2987 20.2507C93.062 19.9695 92.883 19.6443 92.7719 19.2936C92.6609 18.943 92.6201 18.5738 92.6517 18.2073V11.617H96.662V7.01077H92.6517V1.27148L86.5869 1.9592Z" fill="#BBBBBB"/>
<path d="M100.939 1.9592V7.01077H98.5586V11.617H100.939V19.2464C100.939 23.437 102.85 25.995 107.211 25.995C108.079 25.9861 108.946 25.9166 109.804 25.7872C110.409 25.7052 111.008 25.5845 111.597 25.426C111.597 25.426 111.553 20.5723 111.553 20.5525C110.854 20.7116 110.144 20.8142 109.429 20.8593C109.108 20.8821 108.787 20.8399 108.483 20.7354C108.179 20.6308 107.9 20.466 107.661 20.2507C107.424 19.9695 107.245 19.6443 107.134 19.2936C107.023 18.943 106.982 18.5738 107.014 18.2073V11.617H111.019V7.01077H107.014V1.27148L100.939 1.9592Z" fill="#BBBBBB"/>
<path d="M133.13 22.5617C133.13 21.8816 133.331 21.2168 133.709 20.6513C134.086 20.0858 134.622 19.6451 135.249 19.3848C135.876 19.1245 136.566 19.0564 137.232 19.1891C137.898 19.3218 138.51 19.6493 138.99 20.1302C139.47 20.6111 139.797 21.2238 139.929 21.8908C140.062 22.5579 139.994 23.2493 139.734 23.8776C139.474 24.5059 139.034 25.0429 138.47 25.4208C137.905 25.7986 137.241 26.0003 136.563 26.0003C135.654 25.9938 134.785 25.6295 134.143 24.986C133.5 24.3425 133.137 23.4717 133.13 22.5617V22.5617Z" fill="#BBBBBB"/>
<path d="M-3.10662e-05 25.624H7.01801C7.51189 25.624 8.06503 25.624 8.49964 25.5893C18.1056 25.0946 22.1011 19.3949 22.1011 12.8194C22.1011 4.60133 16.5696 0 7.02293 0C4.55354 0 2.39529 0.0841037 -0.0197754 0.286958L-3.10662e-05 25.624ZM8.96882 20.607C8.712 20.607 8.32678 20.6367 8.07984 20.6367H6.10433V5.16042C6.78588 5.10104 7.65016 5.06146 8.228 5.06146C11.8333 5.06146 15.6757 7.40666 15.6757 12.8194C15.6807 18.4647 12.0901 20.3498 8.96882 20.607Z" fill="#BBBBBB"/>
</g>
<defs>
<clipPath id="clip0_4410_4792">
<rect width="140" height="26" fill="white"/>
</clipPath>
</defs>
</svg>
