<svg width="136" height="36" viewBox="0 0 136 36" fill="none" xmlns="http://www.w3.org/2000/svg">
<g clip-path="url(#clip0_4410_4841)">
<path d="M13.8242 26.6191C14.8353 27.5748 15.9302 28.4366 17.0955 29.1939H17.4952V26.6191H13.8242Z" fill="#BBBBBB"/>
<path d="M10.9797 23.8906H4.0708C4.91848 24.733 5.85705 25.4774 6.86903 26.11H12.3788C11.861 25.4044 11.3935 24.6627 10.9797 23.8906V23.8906Z" fill="#BBBBBB"/>
<path d="M13.3379 26.0827H17.4952V23.8633H12.0254C12.2906 24.6979 12.7471 25.4582 13.3579 26.0827H13.3379Z" fill="#BBBBBB"/>
<path d="M18.1016 26.6191V29.1939H18.5413C19.7315 28.4665 20.8337 27.6025 21.8259 26.6191H18.1016Z" fill="#BBBBBB"/>
<path d="M12.8117 26.6191H7.70166C10.1101 27.9811 12.7738 28.8237 15.5233 29.0933C14.5007 28.411 13.5865 27.5768 12.8117 26.6191V26.6191Z" fill="#BBBBBB"/>
<path d="M22.3455 26.0827C22.9399 25.4548 23.3782 24.6943 23.6247 23.8633H18.1016V26.0827H22.3455Z" fill="#BBBBBB"/>
<path d="M20.1206 29.0933C22.9008 28.8298 25.5962 27.9872 28.0356 26.6191H22.8322C22.0608 27.5799 21.1461 28.4145 20.1206 29.0933V29.0933Z" fill="#BBBBBB"/>
<path d="M23.2651 26.0827H28.9349C29.9248 25.4363 30.8487 24.6929 31.6931 23.8633H24.7042C24.2903 24.6442 23.8087 25.3869 23.2651 26.0827V26.0827Z" fill="#BBBBBB"/>
<path d="M35.7705 14.6038C35.7705 6.55765 27.7756 0 17.8886 0C8.00156 0 0 6.56435 0 14.6038C0.0418914 17.8943 1.3368 21.0431 3.61769 23.401H32.2128C34.4608 21.0297 35.7403 17.8942 35.7972 14.6172L35.7705 14.6038Z" fill="#BBBBBB"/>
<path d="M8.48124 7.36914H10.4533L6.86227 19.197H4.72363L8.48124 7.36914Z" fill="white"/>
<path d="M21.2996 15.6569V15.61C21.0269 15.9099 20.6956 16.1499 20.3265 16.3149C19.9573 16.4799 19.5582 16.5664 19.1543 16.5688C17.4954 16.5688 16.1829 15.0534 16.1829 13.1827C16.1829 11.312 17.5154 9.69601 19.1543 9.69601C19.8333 9.69707 20.488 9.95014 20.9931 10.4068V10.4068L22.3256 8.43544C21.4546 7.66312 20.3351 7.23439 19.1743 7.22852C16.3361 7.22852 14.0176 9.91058 14.0176 13.1827C14.0176 16.4548 16.3361 19.0966 19.1743 19.0966C20.3995 19.1003 21.577 18.6186 22.4522 17.7556L21.3196 15.6837L21.2996 15.6569Z" fill="white"/>
<path d="M26.0168 16.2594V14.2411H29.4279V12.2228H26.0168V9.50055H29.4279V7.57617H23.7915V18.8945H29.4279V16.2594H26.0168Z" fill="white"/>
<path d="M11.1061 9.89648L8.39453 19.1965H14.0776L11.1061 9.89648Z" fill="white"/>
<path d="M69.2758 27.8535H41.2803V35.9936H69.2758V27.8535Z" fill="#F7F7F7"/>
<path d="M90.5292 27.8535H67.877V35.9936H90.5292V27.8535Z" fill="#EFEFEF"/>
<path d="M113.255 27.8535H90.6025V35.9936H113.255V27.8535Z" fill="#E4E4E4"/>
<path d="M136.007 27.8535H113.128V35.9936H136.007V27.8535Z" fill="#D9D9D9"/>
<path d="M52.8331 12.4716H51.3207C50.7811 8.6899 48.6558 5.90725 46.3506 5.90725C43.5723 5.90725 41.2871 9.54816 41.2871 14.2954C41.2871 18.9421 43.5723 22.6299 46.3506 22.6299C48.9356 22.6299 51.1741 19.4517 51.4206 15.1537H52.8331V23.4882H55.4181V5.55859H52.8331V12.4716V12.4716ZM46.3972 19.2438C45.2313 19.2438 44.2519 17.0244 44.2519 14.2954C44.2519 11.5664 45.2313 9.347 46.3972 9.347C47.5631 9.347 48.4958 11.5664 48.4958 14.2954C48.4958 17.0244 47.5631 19.2438 46.3972 19.2438Z" fill="#BBBBBB"/>
<path d="M56.4375 23.4882H59.0159V5.55859H56.4375V23.4882Z" fill="#BBBBBB"/>
<path d="M74.999 23.4882H78.2636V5.55859H74.999V23.4882Z" fill="#BBBBBB"/>
<path d="M67.157 6.30859C63.939 6.30859 61.2607 9.89585 61.2607 14.3548C61.2607 18.8137 63.9257 22.401 67.157 22.401C70.3883 22.401 73.0999 18.8137 73.0999 14.3548C73.0999 9.89585 70.4349 6.30859 67.157 6.30859ZM67.157 19.4507C65.7446 19.4507 64.5253 17.124 64.5253 14.3481C64.5253 11.5721 65.7446 9.23875 67.157 9.23875C68.5694 9.23875 69.822 11.5185 69.822 14.3481C69.822 17.1777 68.6027 19.4507 67.157 19.4507Z" fill="#BBBBBB"/>
<path d="M80.4087 22.4292H98.8236V19.8008H80.4087V22.4292Z" fill="#BBBBBB"/>
<path d="M89.4694 10.6604C92.4875 15.5618 98.4371 15.1595 98.4371 15.1595V12.5848C91.175 12.4305 91.1084 5.56445 91.1084 5.56445H87.6973C87.3108 12.6853 80.5352 12.4775 80.5352 12.4775V15.1595C87.1576 15.1595 89.4495 10.6604 89.4495 10.6604H89.4694Z" fill="#BBBBBB"/>
<path d="M117.385 5.80664H114.76V14.7446H117.385V5.80664Z" fill="#BBBBBB"/>
<path d="M107.305 11.9225C107.305 11.9225 107.652 14.799 113.595 14.799V12.117C113.595 12.117 109.69 12.07 109.304 8.88507C109.285 8.88325 109.266 8.87756 109.249 8.86836C109.231 8.85915 109.216 8.84659 109.204 8.83142H113.002V6.30358H109.057V4.79492H105.213V6.30358H101.116V8.83142H105.213C105.213 8.83142 104.773 12.117 100.876 12.117V14.799C100.876 14.799 105.846 15.4092 107.305 11.9225Z" fill="#BBBBBB"/>
<path d="M102.888 21.8184C102.888 22.5292 102.934 23.83 104.347 23.83C105.759 23.83 117.452 23.7294 117.452 23.7294V16.2129H102.888V21.8184ZM105.419 18.7877H114.78V21.0138H105.406V18.7877H105.419Z" fill="#BBBBBB"/>
<path d="M133.575 5.80664V12.8336H131.956V5.80664H129.538V19.4986H123.002V8.891H127.825V6.26259H119.977V19.4986C119.977 20.1691 120.17 22.2276 121.629 22.2276C122.849 22.2276 127.819 22.1739 129.531 22.1739V23.8435H131.956V15.2073H133.575V23.8435H136.007V5.80664H133.575Z" fill="#BBBBBB"/>
</g>
<defs>
<clipPath id="clip0_4410_4841">
<rect width="136" height="36" fill="white"/>
</clipPath>
</defs>
</svg>
