<svg width="132" height="24" viewBox="0 0 132 24" fill="none" xmlns="http://www.w3.org/2000/svg">
<g clip-path="url(#clip0_4410_5188)">
<path d="M84.8853 0.178996H89.3607C90.2848 0.120146 91.1947 0.427863 91.8908 1.03464C92.1081 1.24616 92.2796 1.49956 92.3947 1.7793C92.5099 2.05904 92.5663 2.35921 92.5605 2.6614V2.6614C92.5777 3.09867 92.4661 3.53142 92.2396 3.90666C92.013 4.2819 91.6812 4.58334 91.2849 4.77407C91.8149 4.89408 92.2864 5.19385 92.6181 5.62182C92.9499 6.0498 93.1212 6.57924 93.1027 7.11915C93.1027 8.87267 91.6676 9.74943 89.4989 9.74943H84.9065L84.8853 0.178996ZM88.9143 4.05577C89.8604 4.05577 90.4451 3.74943 90.4451 2.99943C90.4451 2.36563 89.9454 2.01703 89.0524 2.01703H86.9263V4.0452L88.9143 4.05577ZM89.467 7.9114C90.4025 7.9114 90.9766 7.57337 90.9766 6.85506C90.9766 6.21069 90.4982 5.79872 89.4139 5.79872H86.9476V7.9114H89.467Z" fill="#BBBBBB"/>
<path d="M94.3574 5.64141V0.159011H96.4835V5.58859C96.4835 7.14141 97.2702 7.95478 98.6097 7.95478C99.9491 7.95478 100.736 7.16254 100.683 5.64141V0.148438H102.809V5.5569C102.809 8.46183 101.172 9.88789 98.5565 9.89845C95.9414 9.90901 94.3787 8.47239 94.368 5.6731" fill="#BBBBBB"/>
<path d="M103.935 8.33435L105.189 6.84493C105.978 7.56296 107.001 7.97213 108.07 7.99633C108.942 7.99633 109.463 7.6583 109.463 7.09844C109.463 6.55971 109.133 6.28506 107.507 5.88366C105.562 5.39774 104.318 4.82731 104.318 2.9576C104.318 1.2252 105.721 0.0632394 107.688 0.0632394C108.991 0.0421791 110.261 0.471572 111.281 1.27802L110.218 2.86253C109.495 2.30585 108.621 1.97824 107.709 1.92239C106.89 1.92239 106.476 2.30267 106.476 2.76746C106.476 3.40127 106.88 3.60197 108.549 4.02451C110.515 4.53155 111.621 5.22872 111.621 6.89773C111.621 8.79914 110.165 9.86605 108.092 9.87661C106.581 9.88272 105.121 9.33769 103.988 8.34493" fill="#BBBBBB"/>
<path d="M116.16 0.0527344H118.17L122.326 9.70766H120.115L119.222 7.59499H115.087L114.215 9.70766H112.089L116.16 0.0527344ZM118.403 5.69358L117.107 2.6302L115.831 5.79922L118.403 5.69358Z" fill="#BBBBBB"/>
<path d="M123.4 0.106267H125.356L129.895 6.00063L129.885 0.0957031H131.979L132 9.67669L130.193 9.68725L125.505 3.59218L125.515 9.69782H123.421L123.4 0.106267Z" fill="#BBBBBB"/>
<path d="M84.917 14.2495H89.3925C89.8496 14.216 90.3088 14.2735 90.7432 14.4186C91.1777 14.5637 91.5786 14.7935 91.9225 15.0946C92.1394 15.3059 92.31 15.5595 92.4234 15.8394C92.5368 16.1194 92.5907 16.4197 92.5816 16.7213V16.7213C92.6048 17.157 92.4982 17.5899 92.2751 17.9656C92.0519 18.3414 91.7222 18.6435 91.3272 18.834C91.8542 18.9619 92.3212 19.2656 92.6501 19.6943C92.979 20.123 93.1499 20.6508 93.1344 21.1897V21.1897C93.1344 22.9537 91.6993 23.8305 89.52 23.8411H84.9382L84.917 14.2495ZM88.946 18.1157C89.8815 18.1157 90.4768 17.8094 90.4768 17.0594C90.4768 16.4256 89.9772 16.0664 89.0842 16.077H86.9581V18.1051L88.946 18.1157ZM89.52 21.9713C90.4555 21.9713 91.0189 21.6439 91.0189 20.915C91.0189 20.2706 90.5406 19.8587 89.4456 19.8587H86.99V21.9713H89.52Z" fill="#BBBBBB"/>
<path d="M97.8332 14.1133H99.7892L103.946 23.7682H101.724L100.842 21.6555H96.7702L95.8878 23.7682H93.7617L97.8332 14.1133ZM100.098 19.7436L98.8112 16.6485L97.5356 19.7541L100.098 19.7436Z" fill="#BBBBBB"/>
<path d="M105.073 14.1657L107.039 14.1551L111.568 20.06L111.557 14.1445H113.652L113.673 23.7361H111.866L107.178 17.6516L107.188 23.7466L105.094 23.7572L105.073 14.1657Z" fill="#BBBBBB"/>
<path d="M115.629 14.1442L117.755 14.1336V18.3273L121.667 14.123H124.229L120.306 18.2005L124.431 23.7146H121.88L118.882 19.6477L117.766 20.7991V23.7252L115.65 23.7357L115.629 14.1442Z" fill="#BBBBBB"/>
<path d="M72.9788 4.42596H74.9774C75.009 4.42739 75.0405 4.42244 75.0701 4.4114C75.0998 4.40036 75.1268 4.38346 75.1497 4.36174C75.1725 4.34002 75.1907 4.31391 75.2031 4.285C75.2155 4.25609 75.2219 4.22499 75.2219 4.19356V0.443558C75.2219 0.41213 75.2155 0.381024 75.2031 0.352118C75.1907 0.323211 75.1725 0.297118 75.1497 0.275394C75.1268 0.25367 75.0998 0.236771 75.0701 0.225733C75.0405 0.214695 75.009 0.209749 74.9774 0.211178H72.1603C68.9711 0.211178 67.2064 1.26751 66.2178 3.45413L60.1371 18.3379C60.0157 18.7492 59.7542 19.1058 59.3974 19.3467C59.0406 19.5876 58.6106 19.6977 58.181 19.6583V0.48582C58.1825 0.454425 58.1775 0.423065 58.1664 0.393639C58.1553 0.364213 58.1383 0.337337 58.1164 0.314626C58.0946 0.291915 58.0683 0.273834 58.0392 0.2615C58.0101 0.249166 57.9788 0.242834 57.9472 0.242867H53.4504C53.4188 0.242834 53.3875 0.249166 53.3584 0.2615C53.3293 0.273834 53.303 0.291915 53.2812 0.314626C53.2593 0.337337 53.2423 0.364213 53.2312 0.393639C53.2201 0.423065 53.2151 0.454425 53.2166 0.48582V23.4612C53.2192 23.5696 53.2638 23.6728 53.341 23.7495C53.4181 23.8262 53.5221 23.8705 53.6312 23.8731H58.6382C61.8911 23.8731 63.3688 22.8168 64.3574 20.6408L70.3531 5.93653C70.5528 5.43252 70.917 5.00969 71.3873 4.7358C71.8576 4.46191 72.4068 4.35281 72.9469 4.42596" fill="#BBBBBB"/>
<path d="M18.1039 12.1382C19.128 11.7198 19.995 10.9941 20.5839 10.0624C21.1728 9.13061 21.4542 8.03938 21.3887 6.94104C21.3887 2.82132 17.8062 0.317802 13.5115 0.328366H0.244515C0.21292 0.326937 0.181345 0.331883 0.151731 0.34292C0.122118 0.353958 0.0950717 0.370858 0.072216 0.392581C0.0493602 0.414305 0.0311639 0.440398 0.0187516 0.469305C0.00633923 0.498212 -3.25661e-05 0.529317 1.25159e-07 0.560745V4.31075C-3.25661e-05 4.34218 0.00633923 4.37328 0.0187516 4.40219C0.0311639 4.4311 0.0493602 4.4572 0.072216 4.47893C0.0950717 4.50065 0.122118 4.51755 0.151731 4.52859C0.181345 4.53963 0.21292 4.54457 0.244515 4.54314H12.5866C14.5852 4.54314 15.9352 5.74737 15.9352 7.23681C15.9352 8.72625 14.5958 9.95159 12.5973 9.95159H5.26215V7.16286C5.26079 7.13094 5.25308 7.09962 5.23951 7.07066C5.22594 7.0417 5.20679 7.01568 5.18309 6.9941C5.15939 6.97251 5.13165 6.95577 5.10144 6.94486C5.07122 6.93394 5.03911 6.92906 5.007 6.93048H0.244515C0.21292 6.92905 0.181345 6.934 0.151731 6.94503C0.122118 6.95607 0.0950717 6.97297 0.072216 6.99469C0.0493602 7.01642 0.0311639 7.04251 0.0187516 7.07142C0.00633923 7.10032 -3.25661e-05 7.13143 1.25159e-07 7.16286V23.7262C-3.25661e-05 23.7577 0.00633923 23.7888 0.0187516 23.8177C0.0311639 23.8466 0.0493602 23.8727 0.072216 23.8944C0.0950717 23.9162 0.122118 23.933 0.151731 23.9441C0.181345 23.9551 0.21292 23.9601 0.244515 23.9586H13.3201C18.2102 23.9586 21.7077 21.6769 21.697 17.0502C21.705 15.9499 21.3541 14.8766 20.6967 13.9911C20.0394 13.1056 19.1111 12.4555 18.0507 12.1382M12.8311 19.8495H5.24087V14.3037H12.9268C14.9785 14.3037 16.3605 15.5396 16.3711 17.0713C16.3817 18.603 14.9891 19.8389 12.9374 19.8495" fill="#BBBBBB"/>
<path d="M77.667 23.566L69.9386 13.7949C69.9386 13.7949 69.8854 13.7949 69.8748 13.7949L67.8125 18.8336C67.8073 18.8651 67.8073 18.8972 67.8125 18.9287L71.193 23.4076C71.2971 23.5496 71.4352 23.6636 71.5949 23.7393C71.7545 23.8149 71.9306 23.8498 72.1072 23.8407H77.5288C77.5604 23.8397 77.5911 23.8301 77.6175 23.8127C77.6439 23.7954 77.6649 23.7711 77.6781 23.7426C77.6914 23.7141 77.6963 23.6824 77.6925 23.6512C77.6887 23.6201 77.6762 23.5906 77.6564 23.566" fill="#BBBBBB"/>
<path d="M30.159 6.9082H25.6836C25.6216 6.9082 25.5621 6.93269 25.5182 6.97627C25.4743 7.01985 25.4497 7.07896 25.4497 7.1406V23.6934C25.4497 23.7579 25.4755 23.8196 25.5213 23.8652C25.5672 23.9108 25.6294 23.9364 25.6942 23.9364H30.1909C30.2226 23.9364 30.2539 23.9301 30.283 23.9177C30.3121 23.9054 30.3383 23.8873 30.3602 23.8646C30.3821 23.8419 30.3991 23.815 30.4102 23.7856C30.4213 23.7562 30.4263 23.7248 30.4248 23.6934V7.1406C30.4248 7.07896 30.4002 7.01985 30.3563 6.97627C30.3125 6.93269 30.253 6.9082 30.1909 6.9082" fill="#BBBBBB"/>
<path d="M48.6456 0.263672H44.1489C44.0868 0.263672 44.0274 0.288158 43.9835 0.33174C43.9397 0.375323 43.915 0.434433 43.915 0.496068V19.6686C43.4865 19.7117 43.0562 19.6058 42.6976 19.3688C42.3389 19.1319 42.0741 18.7786 41.9483 18.3693L35.8039 3.50664C34.8258 1.32002 33.0931 0.284806 29.8401 0.337623H25.5879C25.5259 0.337623 25.4663 0.362109 25.4225 0.405692C25.3786 0.449274 25.354 0.508384 25.354 0.570019V4.32002C25.354 4.38166 25.3786 4.44077 25.4225 4.48435C25.4663 4.52793 25.5259 4.55242 25.5879 4.55242H29.0109C29.5498 4.47905 30.0978 4.58549 30.5692 4.85506C31.0406 5.12462 31.4085 5.54204 31.6154 6.04184L37.6749 20.725C38.6635 22.9116 40.1518 23.9468 43.3941 23.894H48.4436C48.5517 23.8912 48.6545 23.8466 48.7299 23.7696C48.8054 23.6927 48.8476 23.5895 48.8476 23.482V0.506641C48.849 0.475246 48.8441 0.443886 48.8329 0.41446C48.8218 0.385034 48.8048 0.358143 48.783 0.335431C48.7611 0.31272 48.7348 0.294655 48.7057 0.282321C48.6766 0.269987 48.6454 0.26364 48.6137 0.263672" fill="#BBBBBB"/>
</g>
<defs>
<clipPath id="clip0_4410_5188">
<rect width="132" height="24" fill="white"/>
</clipPath>
</defs>
</svg>
