<svg width="134" height="24" viewBox="0 0 134 24" fill="none" xmlns="http://www.w3.org/2000/svg">
<g clip-path="url(#clip0_4410_4830)">
<path d="M67.1476 0.037125H62.5983V9.34607H44.0143V0.037125H39.465C38.9462 0.037125 38.4486 0.235906 38.0818 0.589722C37.7149 0.943538 37.5088 1.42342 37.5088 1.92379V22.1212C37.5088 22.6216 37.7149 23.1015 38.0818 23.4553C38.4486 23.8091 38.9462 24.0079 39.465 24.0079H44.0143V13.9823H62.6058V24.0079H67.1551C67.6739 24.0079 68.1715 23.8091 68.5384 23.4553C68.9052 23.1015 69.1113 22.6216 69.1113 22.1212V1.88724C69.1014 1.39196 68.8899 0.920296 68.5225 0.574145C68.155 0.227995 67.6612 0.035112 67.1476 0.037125V0.037125Z" fill="#BBBBBB"/>
<path d="M30.3136 0.0360614H25.7643V17.7253L11.4491 3.69237C9.17443 1.54977 7.61252 -0.0078125 3.98065 -0.0078125H0V22.1202C0 22.6205 0.206062 23.1004 0.572922 23.4542C0.939781 23.8081 1.43735 24.0068 1.95617 24.0068H6.50548V6.22982L20.6918 20.1238C23.0119 22.3176 25.0818 24.0141 28.4483 24.0141H32.2394V1.88617C32.2278 1.39777 32.0209 0.932574 31.662 0.58781C31.3031 0.243047 30.82 0.0453635 30.3136 0.0360614V0.0360614Z" fill="#BBBBBB"/>
<path d="M87.7638 13.7106C86.3914 13.7106 86.1791 12.4601 86.1791 11.7215C86.1574 11.5072 86.1824 11.291 86.2525 11.0866C86.3227 10.8822 86.4364 10.6943 86.5864 10.5349C86.7363 10.3754 86.9192 10.2479 87.1233 10.1607C87.3274 10.0735 87.5481 10.0285 87.7713 10.0285C87.9945 10.0285 88.2153 10.0735 88.4194 10.1607C88.6235 10.2479 88.8064 10.3754 88.9563 10.5349C89.1063 10.6943 89.22 10.8822 89.2902 11.0866C89.3603 11.291 89.3853 11.5072 89.3636 11.7215C89.3636 12.4674 89.1513 13.7106 87.7638 13.7106ZM87.7638 8.89152C87.3427 8.86592 86.9207 8.92534 86.5248 9.06595C86.1289 9.20656 85.7678 9.42527 85.4646 9.70812C85.1613 9.99098 84.9225 10.3318 84.7635 10.7087C84.6046 11.0856 84.5289 11.4903 84.5414 11.897C84.5301 12.2998 84.6073 12.7004 84.7679 13.0725C84.9285 13.4445 85.1688 13.7796 85.4731 14.0558C85.7773 14.332 86.1387 14.5431 86.5335 14.6751C86.9283 14.8072 87.3475 14.8572 87.7638 14.822C89.7048 14.822 91.0014 13.652 91.0014 11.897C91.014 11.489 90.9379 11.0829 90.778 10.7049C90.6181 10.327 90.378 9.9855 90.0731 9.70241C89.7681 9.41933 89.4051 9.20091 89.0074 9.06126C88.6097 8.92161 88.1861 8.86379 87.7638 8.89152V8.89152Z" fill="#BBBBBB"/>
<path d="M82.9111 6.99827H81.9255V12.8996L79.0291 7.67834C78.9377 7.45164 78.7698 7.26122 78.5524 7.13784C78.3351 7.01446 78.0809 6.9653 77.8311 6.99827H76.6104V14.15C76.6163 14.2961 76.6817 14.4341 76.7924 14.5341C76.9031 14.634 77.0502 14.6878 77.2017 14.6838H78.1799V8.81179L81.0839 14.033C81.1751 14.2578 81.3422 14.4463 81.5581 14.5684C81.7741 14.6904 82.0263 14.7388 82.2742 14.7058H83.495V7.56131C83.4971 7.48682 83.4834 7.41273 83.4548 7.34351C83.4262 7.27428 83.3833 7.21138 83.3286 7.15868C83.274 7.10599 83.2088 7.0646 83.137 7.03701C83.0653 7.00943 82.9884 6.99626 82.9111 6.99827Z" fill="#BBBBBB"/>
<path d="M111.443 6.99824V10.1207H108.008V6.99824H106.954C106.879 6.9963 106.804 7.00879 106.734 7.03502C106.664 7.06125 106.6 7.10067 106.545 7.15102C106.491 7.20137 106.448 7.26164 106.418 7.3283C106.388 7.39496 106.372 7.46672 106.371 7.53937V14.1207C106.373 14.1928 106.389 14.2637 106.42 14.3295C106.45 14.3953 106.494 14.4547 106.548 14.5043C106.602 14.5539 106.666 14.5926 106.736 14.6184C106.805 14.6442 106.88 14.6565 106.954 14.6545H108.008V11.2981H111.443V14.6618H112.482C112.633 14.6658 112.781 14.612 112.891 14.5121C113.002 14.4121 113.067 14.2742 113.073 14.128V7.54669C113.071 7.4737 113.055 7.40179 113.024 7.33509C112.993 7.26838 112.949 7.20819 112.894 7.15794C112.839 7.10769 112.774 7.06835 112.704 7.04221C112.633 7.01606 112.558 7.00362 112.482 7.00556L111.443 6.99824Z" fill="#BBBBBB"/>
<path d="M95.6569 9.02344H92.0781V14.1423C92.0841 14.2884 92.1494 14.4264 92.2601 14.5263C92.3708 14.6263 92.5179 14.6801 92.6695 14.6761H93.6552V10.1057H95.1034C96.18 10.1057 96.1801 11.1075 96.1801 11.773V14.698H97.1582C97.3098 14.702 97.4569 14.6482 97.5676 14.5482C97.6783 14.4483 97.7436 14.3104 97.7495 14.1642V11.2392C97.7495 9.83516 96.9838 9.02344 95.6569 9.02344Z" fill="#BBBBBB"/>
<path d="M125.993 9.02441H125.015V13.5948H123.559C122.49 13.5948 122.49 12.593 122.49 11.9349V9.00982H121.505C121.353 9.00784 121.207 9.0635 121.098 9.16478C120.988 9.26607 120.925 9.40482 120.921 9.55094V12.476C120.921 13.8873 121.679 14.6698 123.006 14.6698H126.585V9.55094C126.575 9.40676 126.508 9.27171 126.398 9.17371C126.288 9.07571 126.143 9.02223 125.993 9.02441Z" fill="#BBBBBB"/>
<path d="M130.959 13.7116C129.89 13.7116 129.511 12.7025 129.511 11.8396C129.511 10.9767 129.974 10.0041 130.982 10.0041C131.991 10.0041 132.355 10.9474 132.355 11.8396C132.355 12.7317 131.983 13.7116 130.959 13.7116ZM131.407 8.89258C130.683 8.90327 129.994 9.18987 129.489 9.68967L129.428 9.76278V9.03152H128.51C128.358 9.0295 128.211 9.08494 128.101 9.18604C127.99 9.28713 127.925 9.42587 127.919 9.57265V16.4758C127.925 16.6225 127.99 16.7613 128.101 16.8624C128.211 16.9635 128.358 17.0189 128.51 17.0169H129.504V14.1358L129.564 14.1796C130.068 14.5976 130.712 14.8261 131.376 14.8231C133.742 14.8231 133.992 12.739 133.992 11.8469C133.992 10.9548 133.712 8.89258 131.437 8.89258H131.407Z" fill="#BBBBBB"/>
<path d="M101.866 13.5787C100.957 13.5787 100.456 12.6792 100.456 11.8237C100.456 11.3995 100.57 10.0028 101.935 10.0028C102.799 10.0028 103.315 10.6683 103.315 11.7944C103.315 12.9206 102.776 13.5787 101.866 13.5787ZM104.293 9.02291H103.383V9.75417L103.322 9.68838C103.087 9.43248 102.793 9.23307 102.464 9.1061C102.135 8.97914 101.78 8.92814 101.427 8.95712C99.6297 8.95712 98.8184 10.4781 98.8184 11.8822C98.8184 12.7451 99.061 14.7414 101.328 14.7414C101.685 14.7739 102.045 14.7246 102.378 14.5975C102.712 14.4704 103.009 14.2692 103.246 14.0101L103.315 13.9297V13.9297C103.315 15.012 103.171 15.9114 101.419 15.9114H99.6297V16.4599C99.6317 16.5329 99.6485 16.6048 99.6793 16.6715C99.7101 16.7382 99.7542 16.7984 99.8091 16.8486C99.864 16.8989 99.9287 16.9382 99.9994 16.9644C100.07 16.9905 100.145 17.0029 100.221 17.001H101.624C103.815 17.001 104.884 16.065 104.884 14.1417V9.54212C104.873 9.40051 104.806 9.26831 104.698 9.17202C104.59 9.07574 104.448 9.02248 104.3 9.02291H104.293Z" fill="#BBBBBB"/>
<path d="M114.817 17.0088C114.742 17.0108 114.667 16.9983 114.597 16.972C114.527 16.9458 114.462 16.9064 114.408 16.856C114.354 16.8057 114.31 16.7454 114.28 16.6787C114.25 16.6121 114.235 16.5403 114.234 16.4677V15.9192H115.181C115.871 15.9192 116.258 15.5902 116.258 14.9979L113.885 9.02344H115.583L117.145 13.2721L118.396 9.89364C118.639 9.24282 118.828 9.02344 119.488 9.02344H120.246C120.246 9.08925 117.858 14.8151 117.858 14.8151C117.38 15.9924 116.963 17.0088 115.363 17.0088H114.817Z" fill="#BBBBBB"/>
</g>
<defs>
<clipPath id="clip0_4410_4830">
<rect width="134" height="24" fill="white"/>
</clipPath>
</defs>
</svg>
