<svg width="198" height="40" viewBox="0 0 198 40" fill="none" xmlns="http://www.w3.org/2000/svg">
<g clip-path="url(#clip0_4410_5153)">
<path d="M57.0876 19.749H58.361V23.9595H60.9433V12.2949H57.7445V12.6576H57.7799C57.9264 12.6576 58.0325 12.7684 58.1791 12.9849C58.2954 13.2093 58.3577 13.4576 58.361 13.7102V14.3246H57.0876V16.3392H58.361V17.7344H57.0876V19.749V19.749ZM57.0876 28.4168V26.4022H61.1656V28.4168H57.0876ZM54.8793 19.749H57.0977V17.7344H55.8242C55.8596 17.6286 55.8596 17.5178 55.9 17.3717V16.6817C55.8596 16.576 55.8596 16.4299 55.8242 16.3191H57.0977V14.3045H54.8793C54.4463 13.7452 53.8847 13.2978 53.242 13C52.5501 12.6674 51.7917 12.4952 51.0236 12.4964V14.3498C51.3306 14.3494 51.6338 14.4174 51.911 14.549C52.1882 14.6806 52.4323 14.8724 52.6255 15.1103C53.0687 15.6387 53.312 16.3053 53.3127 16.994C53.324 17.6863 53.0794 18.3585 52.6255 18.8827C52.4334 19.1244 52.1903 19.321 51.9135 19.4585C51.6366 19.596 51.3328 19.6711 51.0236 19.6784V21.5268C51.7808 21.5322 52.5287 21.3596 53.2066 21.0232C53.8505 20.7248 54.4213 20.2899 54.8793 19.749V19.749ZM57.0977 26.3871V28.4017H51.0337V23.1738H51.3975V26.4022L57.0977 26.3871ZM51.0337 12.4964C50.4021 12.4809 49.7739 12.592 49.1863 12.823C48.5986 13.054 48.0635 13.4002 47.6125 13.8411C47.1755 14.2469 46.8269 14.7381 46.5886 15.284C46.3503 15.8298 46.2273 16.4188 46.2273 17.0141C46.2273 17.6095 46.3503 18.1984 46.5886 18.7443C46.8269 19.2902 47.1755 19.7813 47.6125 20.1871C48.0637 20.6274 48.599 20.9728 49.1867 21.203C49.7744 21.4331 50.4025 21.5432 51.0337 21.5268V21.5268V19.6784C50.7226 19.6812 50.4153 19.6106 50.1368 19.4723C49.8584 19.334 49.6168 19.1319 49.4318 18.8827C48.9867 18.3553 48.7527 17.6827 48.7748 16.994C48.7649 16.3087 48.9975 15.6418 49.4318 15.1103C49.6231 14.8705 49.8669 14.6773 50.1445 14.5455C50.4221 14.4137 50.7262 14.3468 51.0337 14.3498V14.3498V12.4964V12.4964ZM51.0337 23.1587V28.4168H48.7748V24.5739C48.7937 24.319 48.7299 24.0648 48.5929 23.8487C48.4868 23.6321 48.3402 23.5213 48.1937 23.5213V23.1587H51.0337Z" fill="#BBBBBB"/>
<path d="M72.1163 23.5709L72.844 22.629C72.6267 22.3772 72.4043 22.0851 72.1163 21.798V23.5709ZM72.1163 18.7157V16.7564H74.0062V13.7043C74.0029 13.4518 73.9406 13.2035 73.8243 12.9791C73.7908 12.8888 73.7321 12.81 73.6551 12.752C73.5781 12.694 73.486 12.6592 73.3897 12.6517V12.2891H76.447V28.4059H74.0062V18.7408L72.1163 18.7157ZM77.4981 12.2941V28.411H80.0854V12.2941H77.4981ZM68.9478 19.2445C69.4635 18.3288 69.8672 17.3548 70.1505 16.3435C70.491 15.1516 70.6511 13.9158 70.6256 12.6769H66.876V13.0395C67.087 13.1124 67.2752 13.2392 67.4217 13.4072C67.6515 13.7601 67.7415 14.1855 67.6744 14.6008C67.6679 15.2639 67.571 15.923 67.3864 16.56C67.2044 17.1745 66.9871 17.8292 66.7294 18.4789C66.3638 19.3587 65.8866 20.188 65.3094 20.9468C64.7597 21.6671 64.1512 22.3409 63.4902 22.9614L64.6576 24.1198C65.3194 23.6865 65.9298 23.1796 66.4768 22.6089C67.0326 22.0357 67.5397 21.4174 67.9928 20.7605C68.2511 20.946 68.4944 21.1515 68.7204 21.3749C68.9731 21.5915 69.1955 21.8131 69.4128 22.0297C69.7008 22.3571 70.0646 22.7902 70.4689 23.2636C70.8101 23.679 71.1257 24.1146 71.4139 24.5681L72.1416 23.5608V21.7879C72.0918 21.7058 72.0306 21.6312 71.9596 21.5663C71.5958 21.2037 71.232 20.8814 70.7923 20.5187C70.5197 20.2681 70.2292 20.0375 69.9231 19.8287C69.6195 19.6152 69.3021 19.4217 68.9731 19.2495L68.9478 19.2445ZM72.1163 16.7262V18.7408H71.424V16.7816L72.1163 16.7262Z" fill="#BBBBBB"/>
<path d="M91.9101 25.2887V28.4768H94.2953V18.7412H95.4929V28.4567H98.0802V12.3398H95.5081V16.7669H94.2953V12.3398H91.3087V12.6974C91.4553 12.6974 91.6018 12.8082 91.713 13.0248C91.8355 13.2468 91.8982 13.4967 91.8949 13.7501V23.2741H85.7046V14.7624H89.813V12.7478H82.521V13.1104C82.6172 13.1179 82.7093 13.1527 82.7863 13.2108C82.8634 13.2688 82.9221 13.3476 82.9556 13.4378C83.0815 13.6585 83.1444 13.9093 83.1375 14.1631V25.2887H91.9101Z" fill="#BBBBBB"/>
<path d="M105.66 21.7229C106.859 21.7613 108.029 21.3476 108.935 20.5645C109.352 20.2349 109.69 19.8163 109.923 19.3396C110.157 18.8628 110.28 18.34 110.284 17.8095C110.283 17.2255 110.131 16.6517 109.845 16.1424C109.58 15.6205 109.178 15.18 108.682 14.8682H110.83V12.8536H107.192V11.4786H105.676V15.3215C105.955 15.3162 106.232 15.3757 106.485 15.4955C106.737 15.6152 106.959 15.7919 107.131 16.0115C107.507 16.4862 107.712 17.0736 107.712 17.6786C107.712 18.2836 107.507 18.8709 107.131 19.3457C106.96 19.5697 106.74 19.7516 106.488 19.8774C106.236 20.0031 105.958 20.0694 105.676 20.0709V21.738L105.66 21.7229ZM105.66 24.9865V22.9719H115.484V28.4819H112.866V24.9865H105.66ZM112.23 12.3298V12.6572C112.412 12.6572 112.523 12.768 112.669 12.9845C112.772 13.2123 112.822 13.4602 112.816 13.7098V21.5768H115.434V18.7413H117.96V16.7821H115.434V12.355L112.23 12.3298ZM102.588 14.848C102.122 15.1842 101.737 15.6195 101.461 16.1223C101.056 16.8488 100.929 17.6969 101.102 18.5098C101.276 19.3227 101.739 20.0454 102.406 20.5443C103.299 21.3265 104.457 21.7407 105.645 21.7027V21.7027V20.0357C105.363 20.0341 105.085 19.9679 104.833 19.8421C104.58 19.7164 104.36 19.5344 104.19 19.3104C103.814 18.8356 103.609 18.2483 103.609 17.6433C103.609 17.0383 103.814 16.451 104.19 15.9762C104.362 15.7566 104.583 15.58 104.836 15.4602C105.088 15.3405 105.366 15.2809 105.645 15.2862V15.2862V11.4434H103.973V11.806H104.008C104.087 11.8214 104.162 11.8555 104.225 11.9054C104.288 11.9554 104.339 12.0197 104.372 12.0931C104.493 12.277 104.556 12.4926 104.554 12.7126V12.8183H100.713V14.8329L102.588 14.848ZM105.645 22.9367V24.9513H102.042V22.9367H105.645Z" fill="#BBBBBB"/>
<path d="M130.801 25.641H128.729V19.985H126.253V25.641H124.873V19.985H121.962V20.3073C122.109 20.3073 122.25 20.4181 122.362 20.6347C122.482 20.8702 122.544 21.1309 122.544 21.3952V25.641H119.85V27.6556H134.985V25.641H133.388V12.7324H120.724V14.747H130.801V25.641Z" fill="#BBBBBB"/>
<path d="M146.766 21.3959C148.045 21.4256 149.285 20.9577 150.223 20.0914C150.675 19.6924 151.035 19.2013 151.28 18.6512C151.525 18.1012 151.649 17.5051 151.643 16.9033C151.644 16.2989 151.516 15.7012 151.268 15.1498C151.02 14.5984 150.656 14.1059 150.202 13.7051C149.264 12.8389 148.025 12.3709 146.746 12.4007V14.2088C147.057 14.206 147.364 14.2767 147.643 14.415C147.921 14.5533 148.163 14.7553 148.348 15.0046C148.82 15.5181 149.069 16.1972 149.04 16.8932C149.057 17.5858 148.809 18.2588 148.348 18.7769C148.157 19.0168 147.913 19.2099 147.635 19.3417C147.358 19.4735 147.053 19.5404 146.746 19.5374V21.3858L146.766 21.3959ZM146.766 25.0222V23.0076H152.881V25.0222H146.766ZM156.63 28.5075V12.2949H153.462V12.6978C153.608 12.6978 153.755 12.8086 153.861 13.0252C153.986 13.2463 154.049 13.4968 154.043 13.7505V28.5125L156.63 28.5075ZM146.766 21.3959V19.5475C146.46 19.5497 146.156 19.4824 145.88 19.3507C145.603 19.2189 145.36 19.0262 145.169 18.787C144.733 18.2566 144.5 17.589 144.512 16.9033C144.488 16.2143 144.723 15.541 145.169 15.0146C145.353 14.7642 145.593 14.5607 145.871 14.4206C146.148 14.2805 146.455 14.208 146.766 14.2088V14.2088V12.3956C145.501 12.3738 144.277 12.8413 143.35 13.7001C142.901 14.1022 142.542 14.5946 142.297 15.145C142.052 15.6954 141.927 16.2912 141.93 16.8932C141.924 17.495 142.047 18.0911 142.292 18.6412C142.537 19.1912 142.898 19.6824 143.35 20.0814C144.277 20.9402 145.501 21.4077 146.766 21.3858V21.3959ZM146.766 22.9925V25.0071H141.309V22.9925H146.766Z" fill="#BBBBBB"/>
<path d="M174.312 12.7324H161.249V14.7974H171.689V16.1774H160.739V16.54C160.885 16.54 161.032 16.6458 161.138 16.8624C161.254 17.0869 161.316 17.3351 161.32 17.5876V21.7981H174.312V19.7835H163.907V18.1165H174.312V12.7324ZM172.129 25.7468V22.6292H168.925V22.9565C169.107 22.9565 169.218 23.0673 169.365 23.2839C169.483 23.52 169.546 23.7803 169.547 24.0444V25.7468H166.818V22.6292H163.649V22.9565C163.796 22.9565 163.942 23.0673 164.048 23.2839C164.169 23.5192 164.232 23.78 164.23 24.0444V25.7468H160.188V27.7614H175.727V25.7468H172.129Z" fill="#BBBBBB"/>
<path d="M189.083 28.5075V26.4929H193.777V28.5075H189.083ZM189.083 21.6176V19.603H189.588V21.6176H189.083ZM189.083 18.6813H190.902V24.841H193.519V12.3303H190.321V12.6979C190.467 12.6979 190.609 12.8087 190.72 13.0253C190.861 13.2397 190.925 13.4953 190.902 13.7506V16.6868H189.083V18.6813ZM183.408 19.0036C184.639 19.0486 185.851 18.6952 186.864 17.9963C187.288 17.7355 187.641 17.3731 187.889 16.9421C188.137 16.5111 188.273 16.0251 188.284 15.5284C188.272 15.0372 188.136 14.5571 187.888 14.1326C187.639 13.7081 187.287 13.3532 186.864 13.1008C185.851 12.4023 184.639 12.0489 183.408 12.0935V12.0935V13.8362C183.982 13.8278 184.544 14.0044 185.01 14.3398C185.202 14.4777 185.36 14.6572 185.473 14.8648C185.586 15.0723 185.651 15.3027 185.662 15.5385C185.66 15.7813 185.6 16.0201 185.487 16.2349C185.373 16.4497 185.21 16.6341 185.01 16.7725C184.545 17.1098 183.982 17.2867 183.408 17.2761V17.2761V19.0137V19.0036ZM189.083 16.6818V18.6964H188.577V16.6818H189.083ZM189.083 19.5828V21.5975H186.425V24.715H183.842V21.5975H183.408V19.5828H189.083ZM189.083 26.5131V28.5277H183.408V26.5131H189.083ZM183.408 12.0784C182.188 12.0331 180.986 12.3869 179.987 13.0857C179.554 13.3308 179.193 13.6831 178.938 14.1085C178.683 14.5339 178.543 15.0179 178.531 15.5133C178.543 16.0142 178.683 16.5038 178.937 16.9356C179.192 17.3675 179.553 17.7274 179.987 17.9812C180.986 18.6804 182.188 19.0342 183.408 18.9885V17.2509C182.833 17.2634 182.27 17.0863 181.806 16.7473C181.605 16.6095 181.44 16.4253 181.326 16.2105C181.211 15.9957 181.151 15.7565 181.149 15.5133C181.161 15.2771 181.226 15.0467 181.34 14.8391C181.454 14.6316 181.613 14.4523 181.806 14.3146C182.271 13.9776 182.833 13.8008 183.408 13.811V12.0684V12.0784ZM183.408 19.5828V21.5975H178.097V19.5828H183.408ZM183.408 26.5131V28.5277H180.421V24.7201C180.439 24.4525 180.376 24.1856 180.239 23.9545C180.21 23.8721 180.156 23.8005 180.084 23.7492C180.013 23.698 179.928 23.6695 179.84 23.6675V23.2746H183.049V26.5383L183.408 26.5131Z" fill="#BBBBBB"/>
<path d="M20.087 40C24.0544 39.996 27.9315 38.82 31.2285 36.6206C34.5254 34.4213 37.0943 31.2972 38.6105 27.6432C40.1266 23.9892 40.522 19.9693 39.7467 16.0914C38.9714 12.2135 37.0601 8.65172 34.2544 5.85609C31.4487 3.06045 27.8745 1.15645 23.9835 0.384672C20.0925 -0.387106 16.0592 0.00798231 12.3934 1.52001C8.7276 3.03204 5.59373 5.59315 3.38783 8.8797C1.18193 12.1663 0.00299924 16.0308 0 19.9849C0.0106873 25.2908 2.13058 30.3763 5.89546 34.1277C9.66034 37.8791 14.7634 39.9907 20.087 40V40Z" fill="white"/>
<path d="M37.006 30.7533C39.0729 27.5397 40.1708 23.8024 40.1694 19.9852C40.1767 16.1767 39.0781 12.4474 37.006 9.24736V10.3C38.7203 13.2409 39.6233 16.5815 39.6233 19.9827C39.6233 23.3839 38.7203 26.7245 37.006 29.6654V30.7533ZM37.006 29.1567V18.7865C37.3946 18.9398 37.7713 19.1216 38.1329 19.3305C38.2135 19.3804 38.2867 19.4415 38.3502 19.5118C38.3783 19.555 38.3908 19.6066 38.3856 19.6578C38.3856 19.7284 38.4614 19.7283 38.4614 19.7283C38.4614 19.7283 38.5321 19.6931 38.5321 19.6226L38.4614 19.26V18.8973C38.4614 18.8773 38.4534 18.8581 38.4392 18.8439C38.4249 18.8297 38.4057 18.8218 38.3856 18.8218C38.3148 18.8218 38.3148 18.857 38.3148 18.8973C38.3136 18.9156 38.3058 18.9329 38.2928 18.9459C38.2797 18.9588 38.2624 18.9667 38.2441 18.9678C38.1818 18.9674 38.1201 18.9554 38.0621 18.9326C37.888 18.8743 37.719 18.8019 37.5568 18.716C37.3395 18.6052 37.1576 18.5347 37.0818 18.4944C37.1018 18.4737 37.1288 18.4611 37.1576 18.4592C37.4103 18.2778 37.9914 17.8447 38.0672 17.8094C38.143 17.7742 38.1379 17.7692 38.1733 17.7692H38.2036V17.8094C38.2441 17.8447 38.2441 17.88 38.2794 17.88H38.3148L38.3502 17.8094L38.3148 17.5173L38.2794 17.4065V16.9381L38.2441 16.8626H38.2036C38.1683 16.8626 38.1329 16.8626 38.1329 16.9381C38.1377 16.9894 38.1253 17.0408 38.0975 17.0842C38.0467 17.1845 37.9721 17.2709 37.8802 17.336C37.7337 17.4468 37.2587 17.8094 37.006 17.9908V15.3063C37.2587 15.2307 37.476 15.1955 37.5518 15.1602C37.5518 15.1955 37.6579 15.5934 37.6579 15.5934C37.6907 15.6624 37.7047 15.7389 37.6983 15.815C37.7015 15.8941 37.6744 15.9716 37.6225 16.0315H37.5518C37.5328 16.0326 37.5149 16.0402 37.501 16.0531C37.4872 16.066 37.4783 16.0833 37.476 16.1021V16.1424C37.4911 16.1555 37.5087 16.1654 37.5279 16.1715C37.547 16.1775 37.5672 16.1796 37.5871 16.1776L38.0217 16.0668L38.0975 15.9963V15.956L38.0621 15.9207C38.0146 15.8294 37.9773 15.7331 37.951 15.6337V15.6337L37.5518 14.2537L37.4406 13.891V13.7802V13.7047C37.4406 13.6694 37.3698 13.6694 37.3345 13.6694C37.2261 13.6899 37.1163 13.7017 37.006 13.7047V10.8036C38.5573 13.6142 39.3708 16.7699 39.3708 19.9777C39.3708 23.1854 38.5573 26.3411 37.006 29.1517V29.1567ZM37.006 14.7976V13.891H37.0767C37.1525 13.891 37.1879 13.9615 37.2587 14.1832C37.2963 14.3426 37.3453 14.4991 37.4052 14.6515C37.2783 14.7155 37.1443 14.7645 37.006 14.7976V14.7976ZM36.3137 31.7707C36.5664 31.4433 36.7887 31.0807 37.006 30.7634V29.6755C36.7961 30.0623 36.565 30.4372 36.3137 30.7986V31.7807V31.7707ZM37.006 9.24736C36.7944 8.89891 36.5632 8.56261 36.3137 8.24006V9.17182C36.5664 9.53445 36.7887 9.93234 37.006 10.295V9.24233V9.24736ZM37.006 10.8087V13.7047C36.986 13.7023 36.9658 13.7043 36.9466 13.7104C36.9274 13.7164 36.9098 13.7265 36.8948 13.7399C36.8948 13.7399 36.8241 13.7399 36.8594 13.8155C36.8948 13.891 36.8948 13.8507 36.9302 13.8507L37.006 13.886V14.7926C36.7887 14.8278 36.531 14.9386 36.3137 14.9739V12.4002C36.3844 12.4002 36.4249 12.365 36.4602 12.365C36.5664 12.2894 36.6068 12.2894 36.6775 12.365L36.7129 12.4707C36.7483 12.506 36.7887 12.5463 36.8241 12.506C36.8595 12.4657 36.8241 12.4002 36.8241 12.4002L36.7129 12.1434L36.6068 12.0023L36.4249 11.5642C36.3844 11.5289 36.3491 11.4584 36.3137 11.4936V9.67547C36.5651 10.049 36.7962 10.4356 37.006 10.8339V10.8087ZM37.006 15.3063V17.9908C36.9302 18.0613 36.8948 18.0613 36.8948 18.0965C36.7663 18.1482 36.6324 18.1854 36.4956 18.2073H36.3137V15.5229C36.4956 15.4876 36.7483 15.3768 37.006 15.3063ZM37.006 18.7865V29.1567C36.7887 29.5546 36.5664 29.9575 36.3137 30.3554V25.2887C36.3902 25.2893 36.4661 25.2748 36.5369 25.246C36.6077 25.2171 36.672 25.1744 36.7261 25.1205C36.7802 25.0666 36.823 25.0025 36.852 24.9319C36.8809 24.8613 36.8955 24.7857 36.8948 24.7095V24.7095C36.8962 24.6328 36.8821 24.5566 36.8534 24.4855C36.8248 24.4143 36.7821 24.3496 36.7279 24.2951C36.6738 24.2407 36.6092 24.1976 36.5381 24.1684C36.4669 24.1392 36.3906 24.1245 36.3137 24.1252V18.7412C36.3985 18.7345 36.4829 18.7227 36.5664 18.7059C36.6887 18.7015 36.811 18.7134 36.9302 18.7412C36.959 18.7432 36.986 18.7557 37.006 18.7765V18.7865ZM36.3137 11.8261C36.3269 11.811 36.3368 11.7934 36.3429 11.7743C36.349 11.7553 36.3511 11.7351 36.3491 11.7153V11.7153L36.3137 11.6447V11.8261ZM35.3333 32.9996C35.69 32.6145 36.0176 32.2037 36.3137 31.7707V30.7885C36.0189 31.2591 35.6913 31.7084 35.3333 32.1333V32.9996V32.9996ZM36.3137 8.23503C36.019 7.7994 35.6912 7.38687 35.3333 7.00108V7.8724C35.6826 8.29 36.0098 8.72541 36.3137 9.17686V8.23503ZM36.3137 9.65029V11.4987C36.2783 11.4987 36.2783 11.5339 36.2783 11.6095L36.3137 11.6447V11.8261C36.2806 11.8552 36.2431 11.8791 36.2025 11.8966L35.5153 12.2239L35.3333 12.3297V10.4108L35.5153 10.2647H35.586C35.6214 10.2295 35.586 10.1539 35.586 10.1539C35.5272 10.0032 35.4544 9.85816 35.3687 9.72079C35.3687 9.71144 35.365 9.70248 35.3584 9.69586C35.3517 9.68925 35.3427 9.68554 35.3333 9.68554V8.27028C35.6928 8.70633 36.0204 9.16753 36.3137 9.65029V9.65029ZM36.3137 12.4053V14.9789C36.1318 15.0494 35.9852 15.0897 35.9852 15.0897C35.7326 15.1602 35.5153 15.2307 35.3333 15.271V12.8737C35.5153 12.8031 35.7326 12.6923 35.7326 12.6923C35.9338 12.6127 36.1282 12.5167 36.3137 12.4053V12.4053ZM36.3137 15.5229V18.2073L36.1823 18.2375H35.8185C35.7477 18.2375 35.677 18.2375 35.6365 18.167L35.6012 18.0562V17.9857H35.5658C35.495 17.9857 35.495 18.0562 35.495 18.0915L35.5304 18.3483L35.5658 18.5297V18.7412L35.6012 19.1391C35.6012 19.1743 35.6012 19.2096 35.6365 19.2096L35.677 19.2448L35.7123 19.2096V18.9578C35.7123 18.8822 35.7477 18.847 35.8943 18.8117L36.2227 18.7765H36.2935V24.1403C36.1481 24.1538 36.0129 24.221 35.9146 24.3286C35.8162 24.4362 35.7617 24.5765 35.7617 24.7221C35.7617 24.8676 35.8162 25.0079 35.9146 25.1155C36.0129 25.2231 36.1481 25.2903 36.2935 25.3038V30.3806C35.9904 30.8553 35.6632 31.3142 35.3131 31.7555V30.6677L35.3485 30.6324C35.3485 30.5971 35.3485 30.5972 35.3131 30.5972V15.8502L35.3485 15.815C35.5949 15.7163 35.8505 15.6421 36.1116 15.5934C36.177 15.5647 36.2446 15.5411 36.3137 15.5229V15.5229ZM34.2923 34.0875C34.6484 33.743 34.9858 33.3799 35.303 32.9996V32.1333C34.9746 32.5312 34.6461 32.9291 34.2923 33.2917V34.0875V34.0875ZM35.303 7.00108C34.9746 6.60319 34.6461 6.24056 34.2923 5.87793V6.65356C34.6562 7.05648 34.9847 7.45437 35.303 7.85225V6.98093V7.00108ZM35.303 8.27028V9.67547C35.2085 9.50249 35.051 9.37217 34.8631 9.31129C34.6751 9.2504 34.4709 9.26358 34.2923 9.3481V7.02626C34.6562 7.42414 34.9847 7.82707 35.303 8.26021V8.27028ZM35.303 10.4108L35.1565 10.4813C35.1211 10.5166 35.0453 10.5569 35.0099 10.5166C34.9745 10.4763 34.9746 10.4461 35.0453 10.4108C35.1103 10.3509 35.1605 10.2768 35.1918 10.1942C35.2118 10.1262 35.2158 10.0544 35.2035 9.98456C35.1912 9.91471 35.163 9.8486 35.1211 9.79131C35.0895 9.74107 35.0466 9.69893 34.9957 9.66831C34.9447 9.63768 34.8873 9.61944 34.828 9.61503C34.7573 9.57474 34.6815 9.61504 34.6107 9.65029C34.54 9.68555 34.4288 9.86686 34.3934 10.2647V10.3756C34.4045 10.5862 34.3664 10.7965 34.2822 10.99V12.8031C34.4288 12.7326 34.6461 12.6218 34.8988 12.511L35.303 12.3297V10.4108V10.4108ZM35.303 12.8737V15.271H35.1918C35.0807 15.3063 35.0099 15.3063 35.0099 15.271L34.9392 15.125L34.8988 15.0897H34.8634C34.828 15.0897 34.828 15.0897 34.828 15.1955L34.9392 15.4524L34.9746 15.6337L35.0099 15.7747L35.1211 16.1776C35.1565 16.2834 35.1918 16.2481 35.2272 16.2481C35.2366 16.2481 35.2456 16.2444 35.2522 16.2378C35.2589 16.2312 35.2626 16.2222 35.2626 16.2129V16.1776L35.2272 15.9963V15.956C35.2272 15.8855 35.2626 15.8502 35.303 15.8502V30.572C35.2272 30.5015 35.0453 30.3554 35.0453 30.3201C35.0453 30.2849 34.9392 30.4259 34.828 30.572C34.7168 30.5015 34.4995 30.3201 34.2822 30.1388V23.6468C34.6107 22.4422 34.7705 21.1981 34.7573 19.95C34.7657 18.7004 34.6059 17.4553 34.2822 16.2481V13.7299L34.353 13.7651H34.3934L34.4288 13.7299L34.3934 13.6594L34.3176 13.5133C34.312 13.4749 34.32 13.4357 34.3403 13.4026C34.3606 13.3695 34.3919 13.3445 34.4288 13.332C34.6409 13.1785 34.874 13.0564 35.1211 12.9694C35.189 12.9457 35.251 12.908 35.303 12.8585V12.8737ZM35.303 30.6425V31.7304C34.9746 32.1333 34.6461 32.5312 34.2923 32.9291V31.8764C34.7269 31.3728 35.202 30.7885 35.303 30.6425V30.6425ZM34.2923 31.262C34.3497 31.1543 34.423 31.0558 34.5096 30.9699C34.4743 30.9346 34.3631 30.8641 34.2923 30.7885V31.262ZM32.9482 35.3214C33.4228 34.9398 33.8718 34.5276 34.2923 34.0875V33.2917C33.8723 33.7543 33.4233 34.19 32.9482 34.5961V35.3214ZM34.2923 5.87793C33.8578 5.43975 33.4181 5.04188 32.9482 4.64399V5.36925C33.4181 5.80239 33.8578 6.24057 34.2923 6.67371V5.87793ZM34.2923 7.03634V9.35816L34.257 9.39342C33.9639 9.57474 33.8578 9.86686 33.8173 10.3756V10.5921C33.8218 10.705 33.7977 10.8171 33.7474 10.9183C33.6971 11.0195 33.6221 11.1065 33.5293 11.1713C33.4823 11.2025 33.4293 11.2236 33.3737 11.2331C33.318 11.2427 33.261 11.2405 33.2062 11.2267C33.1515 11.213 33.1002 11.1879 33.0558 11.1532C33.0113 11.1185 32.9747 11.0749 32.9482 11.0252V10.4108C33.0189 10.3755 33.0543 10.3 33.0897 10.3L33.1301 10.2295V10.1791C33.0897 10.1036 33.0189 10.1388 32.9835 10.1791L32.9482 10.2144V8.29043C33.0487 8.25653 33.1367 8.19338 33.2008 8.10912C33.2732 8.04003 33.3277 7.95437 33.3594 7.85958C33.3911 7.7648 33.3991 7.66374 33.3828 7.56517C33.3204 7.33094 33.1945 7.11835 33.0189 6.95071V6.95071L32.9482 6.91545V5.69662C33.4181 6.12976 33.8578 6.56794 34.2923 7.03634V7.03634ZM34.2923 10.99C34.2372 11.1683 34.1209 11.3216 33.9639 11.4231C33.8558 11.5031 33.7295 11.555 33.5964 11.5744C33.4632 11.5937 33.3273 11.5798 33.2008 11.5339C33.1301 11.4634 33.0189 11.4231 32.9482 11.3526V12.9139C33.5288 13.9676 33.9801 15.087 34.2923 16.2481V13.7299L34.1104 13.332L34.0397 13.1859L33.9639 13.0399L33.8173 12.788C33.782 12.7175 33.8173 12.6772 33.8578 12.6772L33.8931 12.642L33.9285 12.7175L33.9993 12.8233C34.0397 12.8585 34.0751 12.8585 34.1812 12.8233C34.2873 12.788 34.257 12.788 34.2923 12.788V10.9749V10.99ZM34.2923 23.6468V30.1388C33.8173 29.7007 33.1655 29.192 32.9482 29.0157V27.0011C33.5281 25.933 33.9793 24.8003 34.2923 23.6266V23.6468ZM34.2923 30.7885C33.8931 30.4612 33.2008 29.9172 32.9482 29.6654V31.1764L33.782 31.8664L33.9285 31.6498C33.9285 31.6498 33.0897 30.9598 33.0543 30.9245C33.1548 30.7959 33.2646 30.6747 33.3828 30.5619C33.4181 30.5619 34.257 31.2872 34.257 31.2872C34.257 31.2778 34.2607 31.2688 34.2673 31.2622C34.274 31.2556 34.283 31.2519 34.2923 31.2519V30.7785V30.7885ZM34.2923 31.8764V32.9291C33.8578 33.4025 33.4181 33.8356 32.9482 34.2738V31.7555L33.4939 32.2239L33.0897 32.6621C33.1913 32.7558 33.3012 32.8401 33.4181 32.914C33.4181 32.914 33.878 32.4204 34.3126 31.8764H34.2923ZM32.362 35.7948C32.5735 35.658 32.77 35.4993 32.9482 35.3214V34.5961C32.77 34.774 32.5735 34.9327 32.362 35.0696V35.7948ZM32.9684 4.63895C32.7865 4.49289 32.6045 4.35188 32.3822 4.20582V4.89078C32.5855 5.03863 32.7811 5.19664 32.9684 5.36421V4.63895ZM32.9684 5.69158V6.92553L32.6399 6.59816L32.5641 6.5226L32.3822 6.34634V5.21815C32.5855 5.366 32.7811 5.52401 32.9684 5.69158V5.69158ZM32.9684 8.30049V10.2244L32.6045 10.441C32.5287 10.4763 32.5287 10.5115 32.5287 10.5518V10.5871C32.5712 10.7663 32.6447 10.9367 32.746 11.0907C32.8112 11.1821 32.8857 11.2665 32.9684 11.3426V12.9039C32.7958 12.5748 32.5999 12.2584 32.3822 11.957V8.41634C32.5837 8.42718 32.7848 8.38916 32.9684 8.30553V8.30049ZM32.9684 10.441C32.9161 10.5222 32.8884 10.6166 32.8884 10.713C32.8884 10.8094 32.9161 10.9038 32.9684 10.985V10.441ZM32.9684 27.0162V29.0308C32.8926 28.9552 32.8572 28.9552 32.8572 28.9552C32.8572 28.9552 32.6753 29.1718 32.3822 29.4992V27.9882C32.6045 27.6609 32.7865 27.3687 32.9684 27.0464V27.0162ZM32.9684 29.6604V31.1713C32.9279 31.1361 32.928 31.1361 32.8926 31.1361C32.8572 31.1361 32.5641 31.539 32.5287 31.5742C32.4934 31.6095 32.5641 31.6095 32.6045 31.6095C32.6399 31.5742 32.746 31.6095 32.8218 31.68L32.9684 31.7555V34.2738C32.7865 34.4501 32.6045 34.5961 32.3822 34.7775V30.0985C32.6399 29.8114 32.8572 29.5949 32.8572 29.5949C32.8903 29.6241 32.9278 29.6479 32.9684 29.6654V29.6604ZM32.3822 8.11919V7.2126L32.6399 6.96078H32.6753C32.7107 6.99603 32.7865 7.03129 32.8218 7.10684C32.9054 7.195 32.9569 7.30846 32.9684 7.42919C32.9665 7.5192 32.9458 7.60783 32.9075 7.68937C32.8692 7.77091 32.8142 7.84356 32.746 7.90262C32.7029 7.96107 32.6485 8.01034 32.5861 8.04753C32.5236 8.08472 32.4543 8.10909 32.3822 8.11919V8.11919ZM30.6742 36.9835C31.2655 36.6178 31.8358 36.2193 32.3822 35.7898V35.0645C31.8365 35.5184 31.2663 35.9421 30.6742 36.3337V36.9835ZM32.3822 4.20582C31.837 3.77307 31.2667 3.3728 30.6742 3.00713V3.66187C31.2659 4.03964 31.8361 4.44991 32.3822 4.89078V4.20582ZM32.3822 5.21312V6.3413L32.3114 6.26575C32.2761 6.2305 32.2407 6.19523 32.2003 6.19523L32.1649 6.23049V6.26575L32.2003 6.3413L32.2761 6.4118C32.3468 6.51757 32.3468 6.55786 32.2407 6.66363L31.7354 7.20758C31.5683 7.35644 31.4097 7.5145 31.2603 7.68101C31.079 7.8626 30.8848 8.03092 30.6792 8.18466V5.66641C30.7063 5.6637 30.7315 5.65115 30.75 5.63115L30.8611 5.52034L30.8965 5.44982L31.0077 5.30378L31.0431 5.26852C31.0526 5.25826 31.058 5.24476 31.058 5.23074C31.058 5.21672 31.0526 5.20323 31.0431 5.19297V5.19297L31.0077 5.15771H30.9723L30.8258 5.08721C30.7709 5.05897 30.7213 5.02149 30.6792 4.97641V3.92376C31.2702 4.31705 31.8403 4.7407 32.3872 5.19297L32.3822 5.21312ZM32.3822 7.22773L31.8364 7.77167V7.80692C31.8877 7.88795 31.9488 7.96238 32.0183 8.02853C32.0606 8.0953 32.1249 8.1452 32.2003 8.16955V8.16955C32.263 8.17545 32.3262 8.16321 32.3822 8.1343V7.22773V7.22773ZM32.3822 8.42641C32.3468 8.42641 32.3114 8.39116 32.2761 8.39116V8.57247C32.2407 9.00561 32.1649 9.33298 32.1649 9.6251C32.1456 9.7783 32.1853 9.93312 32.2761 10.0582V10.0582L32.3468 10.1288C32.3822 10.164 32.3822 10.164 32.3822 10.2043C32.3822 10.2136 32.3785 10.2226 32.3718 10.2292C32.3652 10.2358 32.3562 10.2396 32.3468 10.2396H32.3114L32.2407 10.2043L31.983 9.98269C31.8782 9.88623 31.8029 9.7623 31.7657 9.6251C31.7373 9.55482 31.7252 9.47907 31.7303 9.40349C31.7303 9.25743 31.7657 9.07612 31.7657 8.89984L31.8364 8.57247L31.8769 8.28036V8.20984C31.8769 8.20984 31.6545 8.02852 31.6545 7.98823L31.6191 8.02853C31.4165 8.20112 31.2335 8.39535 31.0734 8.60773C31.0026 8.64298 31.0026 8.67824 31.0026 8.71349C31.0026 8.74875 31.0026 8.78904 31.038 8.78904L31.1492 8.9351V9.04086H31.129L31.0582 9.00562L30.7651 8.71349L30.6944 8.64299V9.84167C31.3356 10.4933 31.908 11.2089 32.4024 11.9772V8.41634L32.3822 8.42641ZM32.3822 27.9731V29.4841C31.9122 30.0633 31.2553 30.8641 31.2199 30.8993C31.3378 30.9719 31.4478 31.0562 31.5484 31.1512C31.5484 31.1159 32.0183 30.572 32.3822 30.0985V34.7775C31.8364 35.2156 31.2553 35.6488 30.6742 36.0467V30.0985C31.3154 29.4469 31.8878 28.7313 32.3822 27.9631V27.9731ZM29.5473 37.6533C29.9465 37.4367 30.3103 37.2202 30.6742 36.9986V36.3488C30.3121 36.588 29.9357 36.8049 29.5473 36.9986V37.6533ZM30.6742 3.02224C30.318 2.77229 29.941 2.55323 29.5473 2.36748V2.98698C29.9364 3.19428 30.3127 3.42469 30.6742 3.67698V3.02224ZM30.6742 3.96406V5.01669C30.4569 4.90589 30.1284 4.65406 30.0577 4.6188L29.9111 4.508L29.6534 4.32669C29.618 4.32669 29.5826 4.29143 29.5473 4.29143V3.28413C29.9343 3.49513 30.3104 3.72542 30.6742 3.97413V3.96406ZM30.6742 5.37932C30.6388 5.34407 30.6388 5.30881 30.563 5.26852C30.437 5.16337 30.3036 5.06742 30.1638 4.98143H30.1183L29.613 5.74195C29.8707 5.92327 30.0526 6.03407 30.088 6.06932C30.1445 6.1023 30.2059 6.12611 30.2699 6.13984C30.3053 6.10458 30.3406 6.10458 30.3406 6.13984H30.376V6.21538H30.3406L30.1941 6.39669L30.0526 6.61327C30.0122 6.61327 29.9768 6.68377 29.9414 6.64852C29.906 6.61326 29.9061 6.61327 29.9061 6.57801L29.9414 6.53771L29.9768 6.46721V6.39669C29.9776 6.36848 29.9716 6.34049 29.9593 6.31508C29.947 6.28966 29.9287 6.26757 29.9061 6.25064C29.8707 6.21539 29.6483 6.06932 29.5422 5.99378V7.30327C29.609 7.26277 29.6702 7.21366 29.7241 7.15721C29.7595 7.15721 29.7949 7.12195 29.8302 7.12195L29.8707 7.15721L29.8302 7.26297C29.7563 7.36871 29.6716 7.4666 29.5776 7.5551C29.5682 7.5551 29.5592 7.55882 29.5526 7.56543C29.5459 7.57204 29.5422 7.58099 29.5422 7.59034V8.78904C29.9445 9.11048 30.3212 9.4624 30.6691 9.84167V8.64299L30.6337 8.60773L30.5226 8.53218L30.3053 8.3156L30.2699 8.2451L30.3053 8.20984L30.3406 8.16955L30.4164 8.20984L30.4872 8.28036C30.5226 8.31561 30.5984 8.28035 30.6691 8.2451V5.72684H30.6236V5.64626L30.659 5.57071C30.6784 5.55181 30.6908 5.52698 30.6944 5.50019V5.35414L30.6742 5.37932ZM30.6742 30.1086V36.0567C30.3103 36.2733 29.9465 36.5302 29.5473 36.7467V31.1512C29.9465 30.8238 30.3103 30.4612 30.6742 30.0985V30.1086ZM29.5473 4.92604C29.6023 4.87935 29.6397 4.8154 29.6534 4.74472C29.7292 4.63895 29.7292 4.6037 29.6534 4.52815L29.5473 4.42239V4.92604ZM28.3799 38.2526C28.7798 38.0819 29.1695 37.8885 29.5473 37.6735V37.0187C29.1714 37.2491 28.7815 37.4559 28.3799 37.6382V38.2526V38.2526ZM29.5473 2.38763C29.1695 2.17255 28.7798 1.97917 28.3799 1.80843V2.42792C28.7798 2.59866 29.1695 2.79205 29.5473 3.00713V2.38763ZM29.5473 3.2942V4.3015C29.5379 4.3015 29.5289 4.30522 29.5222 4.31183C29.5156 4.31844 29.5119 4.32741 29.5119 4.33676V4.37706L29.5473 4.4123V4.91595C29.4715 5.02676 29.4007 5.17282 29.2542 5.38939L28.8903 5.93334C28.673 6.18517 28.5265 6.43699 28.4204 6.5478C28.4204 6.58809 28.3799 6.58809 28.3799 6.62334V3.86837C28.3994 3.84617 28.4264 3.83184 28.4557 3.82808C28.5265 3.82808 28.6023 3.82807 28.6377 3.86837H28.7084L28.7438 3.82808C28.7438 3.79283 28.673 3.75756 28.673 3.7223L28.4557 3.64676L28.3799 3.6115V2.66967C28.7804 2.85222 29.1702 3.05737 29.5473 3.28413V3.2942ZM29.5473 6.01393C29.5119 6.01393 29.5119 5.97867 29.4715 5.97867L29.33 6.23553L29.2188 6.3413L29.0015 6.70393C28.9744 6.72519 28.9532 6.75301 28.9399 6.78474C28.9267 6.81648 28.9218 6.85108 28.9257 6.88523C28.9257 6.96078 29.0015 7.0313 29.1834 7.1421C29.2723 7.21313 29.3689 7.27395 29.4715 7.32341H29.5473V6.01393V6.01393ZM29.5473 7.61049V8.80919C29.1844 8.48542 28.7938 8.19387 28.3799 7.93786V6.93056L28.4911 6.97086L28.7084 7.15217L29.33 7.58532C29.4361 7.65583 29.4715 7.65583 29.5473 7.62058V7.61049ZM29.5473 31.1814V36.7669C29.1695 36.982 28.7798 37.1753 28.3799 37.3461V36.0416C28.4721 35.9825 28.5703 35.9336 28.673 35.8956C28.673 35.8956 28.9661 36.4748 29.0015 36.5151C29.1462 36.4183 29.3046 36.3436 29.4715 36.2935C29.4361 36.2582 29.0015 35.3164 28.9661 35.2861C28.9308 35.2559 28.7084 35.4322 28.3799 35.5732V35.2861C28.4204 35.2509 28.8196 35.0696 28.855 35.0293L28.6023 34.5256C28.6023 34.5256 29.0369 34.3091 29.0722 34.3091C29.1076 34.3091 28.9257 33.9817 28.8903 33.9414C28.7547 34.0417 28.6091 34.1278 28.4557 34.1983C28.4557 34.1983 28.4204 34.1227 28.3799 34.0522V32.0376C28.7944 31.7768 29.185 31.4802 29.5473 31.1512V31.1814ZM27.5916 38.5498C27.8443 38.439 28.1374 38.3332 28.3901 38.2224V37.608C28.1374 37.7137 27.8443 37.8598 27.5916 37.9706V38.5498ZM28.3901 1.78324C28.1308 1.64786 27.8642 1.5268 27.5916 1.42061V2.04011C27.8651 2.14419 28.1318 2.2653 28.3901 2.40274V1.78324ZM28.3901 2.65456V3.59639H28.3547L28.2839 3.56113L27.9908 3.41508C27.9555 3.41508 27.8847 3.37983 27.8443 3.45034C27.8455 3.46999 27.8539 3.48851 27.8678 3.50243C27.8818 3.51635 27.9004 3.52469 27.9201 3.52589V3.52589L28.0262 3.59639V3.67194L27.9555 3.74245L27.5916 4.1353V2.28689C27.8443 2.3977 28.1374 2.54376 28.3901 2.64952V2.65456ZM28.3901 3.85326C28.3144 3.90973 28.2418 3.97025 28.1728 4.03456V4.03456L27.7382 4.43245L27.5916 4.57852V7.36875C27.8443 7.55007 28.1374 7.73137 28.3901 7.91269V6.90538L28.3547 6.87013L28.097 6.65356L28.0212 6.6183L28.0616 6.5478H28.1677L28.2789 6.6183C28.2981 6.62057 28.3175 6.61858 28.3359 6.61249C28.3542 6.6064 28.371 6.59634 28.385 6.58304V3.82808L28.3901 3.85326ZM28.3901 32.0275V34.0421C28.2839 33.8256 28.0666 33.3874 28.0666 33.3521C27.8973 33.4158 27.7375 33.5022 27.5916 33.609V32.5564C27.8443 32.4103 28.1374 32.229 28.3901 32.0527V32.0275ZM28.3901 35.2207L27.7028 33.8054C27.6743 33.7508 27.6367 33.7014 27.5916 33.6593V34.7825C27.6466 34.8892 27.6753 35.0075 27.6753 35.1275C27.6753 35.2475 27.6466 35.3658 27.5916 35.4725V35.9459C27.8504 35.7977 28.117 35.6632 28.3901 35.543V35.2207ZM28.3901 36.0164V37.3209C28.1374 37.467 27.8443 37.5778 27.5916 37.7188V36.369C27.8475 36.2352 28.1107 36.1159 28.3799 36.0114L28.3901 36.0164ZM27.2985 38.6656C27.393 38.6207 27.491 38.5836 27.5916 38.5548V37.9756C27.491 38.0044 27.393 38.0415 27.2985 38.0865V38.6656ZM27.5916 1.41559C27.4919 1.38604 27.3941 1.35073 27.2985 1.30982V1.92426C27.3743 1.95952 27.4804 1.99478 27.5916 2.03507V1.41559ZM27.5916 2.28689V4.1353L27.2985 4.42741V2.17609C27.393 2.22105 27.491 2.25811 27.5916 2.28689V2.28689ZM27.5916 4.57348V7.36371C27.4905 7.32218 27.3925 7.27336 27.2985 7.21765V4.8253L27.3743 4.7548L27.5916 4.57348ZM27.5916 32.5312V33.5838C27.5516 33.5827 27.5124 33.5951 27.4804 33.6191C27.5017 33.6372 27.516 33.6621 27.5209 33.6896V33.6896V33.6543H27.5916V34.7422C27.5237 34.6191 27.4221 34.5178 27.2985 34.4501V34.2738L27.4451 34.1983C27.383 34.1081 27.3337 34.0098 27.2985 33.9061V32.7125C27.3899 32.6425 27.4881 32.5817 27.5916 32.5312ZM27.5916 35.4675V35.9409C27.4837 35.9657 27.3832 36.0158 27.2985 36.087V35.7948C27.4072 35.696 27.5055 35.5863 27.5916 35.4675V35.4675ZM27.5916 36.374V37.7138C27.4804 37.754 27.3743 37.7893 27.2985 37.8246V36.5201C27.3998 36.477 27.4978 36.4265 27.5916 36.369V36.374ZM26.7528 38.8923L27.2985 38.6757V38.0814L26.7528 38.298V38.8873V38.8923ZM27.2985 1.32493C27.1231 1.24649 26.9403 1.18575 26.7528 1.14361V1.72281L27.2985 1.93939V1.32493V1.32493ZM27.2985 2.19121V4.44252L27.1166 4.62384C26.9855 4.73456 26.8638 4.85584 26.7528 4.98647V3.06252C26.7932 3.06252 26.8286 3.09778 26.8639 3.09778C26.8993 3.09778 26.9751 3.09778 26.9751 3.06252V3.02726C26.9538 3.00842 26.9275 2.99618 26.8993 2.99202V2.99202L26.7528 2.91646V1.97463L27.2985 2.19121V2.19121ZM27.2985 4.84041L26.7528 5.34406V6.94064C26.9347 7.04641 27.1166 7.12196 27.2985 7.22773V4.83538V4.84041ZM27.2985 32.7276V33.9213C27.2785 33.9029 27.2659 33.8778 27.2632 33.8507C27.088 33.9206 26.919 34.0048 26.7578 34.1026V33.0147C26.9397 32.9089 27.1217 32.8334 27.3036 32.7276H27.2985ZM27.2985 34.2889V34.4652C27.2324 34.4255 27.1581 34.4013 27.0812 34.3947C27.1465 34.3464 27.2202 34.3106 27.2985 34.2889V34.2889ZM27.2985 35.7999V36.092C27.1097 36.1602 26.9271 36.2444 26.7528 36.3438V36.0164C26.8639 35.9812 27.0105 35.9459 27.1166 35.9056C27.2227 35.8653 27.2278 35.8351 27.2985 35.7999ZM27.2985 36.5251V37.8296C27.1223 37.9058 26.9396 37.9664 26.7528 38.0109V36.7719C26.8286 36.7367 27.0459 36.6259 27.2985 36.5201V36.5251ZM26.7528 35.6538V34.707C26.8369 34.7075 26.9193 34.7314 26.9907 34.7758C27.062 34.8203 27.1196 34.8836 27.157 34.9588C27.2135 35.0653 27.2261 35.1896 27.1921 35.3053C27.1581 35.4209 27.0803 35.5189 26.9751 35.5783V35.5783C26.9039 35.6189 26.8245 35.643 26.7427 35.6488L26.7528 35.6538ZM24.0543 39.6024C24.9643 39.4153 25.8621 39.1731 26.7427 38.8772V38.298C25.8735 38.5851 24.9639 38.8419 24.0543 39.0585V39.6024ZM26.7427 1.11339C25.8681 0.788103 24.9692 0.53213 24.0543 0.347848V0.932085C24.9697 1.11228 25.8688 1.36662 26.7427 1.69259V1.11339ZM26.7427 1.94441V2.88624L26.6012 2.851L26.4546 2.78048L26.2727 2.70493L25.9796 2.56391C25.9656 2.55061 25.9488 2.54056 25.9305 2.53446C25.9122 2.52837 25.8927 2.52638 25.8735 2.52865V2.52865L25.8331 2.56391V2.62435L25.8735 2.69487L26.015 2.73011C26.0644 2.77511 26.1007 2.83249 26.1203 2.89628C26.1399 2.96006 26.1419 3.02791 26.1262 3.09274V3.09274V5.52538C26.0908 5.7067 26.0908 5.7772 26.1615 5.81245C26.2323 5.84771 26.2727 5.77721 26.4192 5.63115H26.4546L26.7427 5.34406V6.94064C25.8859 6.49715 24.9848 6.14434 24.0543 5.88801V5.01669L24.2716 5.05195C24.3423 5.09224 24.3777 5.05195 24.3777 5.01669V4.98143L24.307 4.94617L24.125 4.90589C24.0543 4.87063 24.0543 4.83538 24.0543 4.80012V4.72458C24.0792 4.45587 24.1265 4.18968 24.1958 3.9288V3.9288L24.3777 3.31435L24.5596 2.55383C24.6 2.44302 24.6354 2.40778 24.7062 2.40778H24.8881L24.9235 2.36748C24.9235 2.33222 24.8527 2.29698 24.8173 2.29698L24.5596 2.22646L24.3777 2.18617L24.0543 2.1207V1.21413C24.9697 1.39433 25.8688 1.64866 26.7427 1.97463V1.94441ZM26.7427 3.0323C26.7333 3.0323 26.7243 3.03602 26.7177 3.04263C26.711 3.04924 26.7073 3.05821 26.7073 3.06756C26.6719 3.10785 26.6719 3.17836 26.6719 3.35967C26.6719 3.35967 26.6012 4.99152 26.6012 5.10232L26.7427 4.95626V3.0323V3.0323ZM26.7427 32.9845V34.0723L26.6012 34.1479L26.49 33.891C26.49 33.891 25.9442 34.1479 25.9089 34.1479C25.8735 34.1479 25.9089 34.2184 25.9442 34.2184C25.9796 34.1832 26.0554 34.2587 26.1262 34.3292V34.3645L25.4338 34.6918C25.4338 34.7271 25.5804 35.0192 25.5804 35.0545C25.5804 35.0897 25.7269 34.9789 25.9089 34.9084C25.8626 35.0114 25.8387 35.1229 25.8387 35.2358C25.8387 35.3486 25.8626 35.4602 25.9089 35.5632V35.5632C25.988 35.7106 26.1099 35.8308 26.2587 35.908C26.4074 35.9853 26.5761 36.0161 26.7427 35.9963V36.3237C26.6723 36.3531 26.5996 36.3767 26.5254 36.3942C26.5931 36.5114 26.6538 36.6325 26.7073 36.7568H26.7427V37.9908C25.8636 38.3115 24.9658 38.5789 24.0543 38.7916V34.0018C24.9833 33.7608 25.8844 33.4232 26.7427 32.9945V32.9845ZM26.7427 34.6918C26.6685 34.6875 26.5943 34.6996 26.5254 34.7271C26.4224 34.7873 26.3463 34.8844 26.3125 34.9985C26.2787 35.1126 26.2898 35.2353 26.3434 35.3415C26.3792 35.4203 26.4348 35.4885 26.5047 35.5397C26.5746 35.5909 26.6566 35.6232 26.7427 35.6337V34.707V34.6918ZM20.0874 40.0003C21.4195 39.9962 22.7481 39.8629 24.0543 39.6024V39.0585C22.7481 39.319 21.4195 39.4522 20.0874 39.4564V40.0003ZM24.0543 0.362956C22.7469 0.11428 21.4184 -0.00716815 20.0874 0.00032678V0.549305C21.4196 0.550958 22.7484 0.684242 24.0543 0.947194V0.362956V0.362956ZM24.0543 1.19902V2.1207L23.9077 2.08544H23.7966V2.1207L23.8724 2.15595L23.9785 2.19624L24.0543 2.26676V2.41281L23.8724 3.17333L23.7258 3.78778C23.6146 4.11515 23.5793 4.40727 23.5085 4.55333C23.4378 4.69938 23.4327 4.69435 23.3973 4.69435L23.2508 4.6591L23.1801 4.69435V4.76991L23.2508 4.80515L23.5439 4.87567L23.6904 4.91595L23.8724 4.95121L24.0543 4.98647V5.8578C22.7829 5.52258 21.4733 5.35328 20.1582 5.35414H20.0874V4.48282H20.1228C20.1582 4.48282 20.234 4.48281 20.234 4.4123V4.37706L20.1228 4.3418H20.0874V2.70493C20.234 2.88625 20.4866 3.14311 20.7039 3.39493L21.1436 3.89858L21.7247 4.51304C21.7632 4.55452 21.815 4.58124 21.8712 4.58858C21.942 4.58858 21.942 4.47778 21.942 4.44252L22.0885 2.1207C22.1239 1.93938 22.1593 1.86887 22.2351 1.86887H22.3058L22.417 1.83361V1.79835C22.417 1.7228 22.3412 1.72281 22.3058 1.72281H21.8308L21.5074 1.68756C21.4316 1.68756 21.3962 1.68755 21.3962 1.72281L21.3609 1.75807C21.3609 1.79836 21.3962 1.83361 21.467 1.83361H21.6489C21.7247 1.86887 21.7247 1.93938 21.7247 2.1207V3.75252C21.6478 3.67253 21.5752 3.58847 21.5074 3.5007V3.5007L20.9616 2.9215C20.6332 2.55887 20.3047 2.15596 20.0874 1.93939V0.78098C21.4205 0.765071 22.7511 0.898541 24.0543 1.17887V1.19902ZM24.0543 34.0169V38.8067C22.7481 39.0671 21.4195 39.2004 20.0874 39.2046V38.0411H20.3047V38.6606H20.81V36.7367H21.0223V38.6606H21.5276V35.4322H21.0223V36.3035H20.805V35.4322H20.1834V35.5027C20.2592 35.5027 20.2946 35.6135 20.2946 35.7193V37.6432H20.0773V34.5609H20.1481C21.4662 34.5659 22.7782 34.3828 24.0442 34.0169H24.0543ZM20.0874 0.00032678C18.8924 0.00615675 17.6997 0.103812 16.5198 0.292438V0.871634C17.6965 0.655433 18.8908 0.547541 20.0874 0.549305V0.549305V0.00032678ZM16.5198 39.6729C17.6964 39.8908 18.8906 40.0004 20.0874 40.0003V39.4564C18.8906 39.4565 17.6964 39.3469 16.5198 39.129V39.6729ZM20.0874 0.801131V1.95952C20.0062 1.88355 19.9333 1.79912 19.8701 1.7077V1.7077L19.8297 1.67244L19.7236 1.56165L19.6882 1.59689C19.6478 1.59689 19.6478 1.67245 19.6478 1.74296L19.5063 3.88348C19.5063 4.21085 19.4658 4.31661 19.3951 4.31661H19.2486C19.1778 4.31661 19.1424 4.35691 19.1424 4.39217L19.1778 4.42741C19.1778 4.46267 19.2132 4.46267 19.2486 4.46267H19.7539L20.0824 4.49793V5.36925C18.8797 5.36497 17.6812 5.51047 16.5147 5.80239V4.86056C16.708 4.87889 16.9026 4.87889 17.0958 4.86056C17.3698 4.79998 17.6143 4.64697 17.7881 4.42741C17.9105 4.26223 17.9882 4.06851 18.0139 3.86479C18.0396 3.66106 18.0123 3.45418 17.9347 3.26398V3.26398L17.8639 2.86611L17.7174 2.10559C17.7174 1.99478 17.7174 1.92428 17.7881 1.88902H17.8993C17.9347 1.85376 18.0054 1.85376 17.9701 1.77822C17.9701 1.76887 17.9663 1.7599 17.9597 1.75329C17.9531 1.74667 17.9441 1.74296 17.9347 1.74296H17.8639L17.5708 1.8185L17.4597 1.85376H17.4243L17.0251 1.92426C16.9897 1.92426 16.9543 1.92427 16.9543 1.95952V2.03507H17.1716C17.2778 2.03507 17.3182 2.07032 17.3536 2.17609L17.5001 2.94165L17.5708 3.37478C17.6416 3.77267 17.7174 4.06478 17.5708 4.31661C17.513 4.38898 17.4411 4.44902 17.3595 4.49315C17.2779 4.53728 17.1882 4.56459 17.0958 4.57348C16.9508 4.61285 16.7965 4.59854 16.6612 4.53319C16.6259 4.49793 16.5501 4.46267 16.5147 4.42741V1.11339C17.691 0.89302 18.8855 0.783416 20.0824 0.786022L20.0874 0.801131ZM20.0874 2.72004C20.024 2.65876 19.9741 2.58501 19.9409 2.50348C19.9315 2.50348 19.9225 2.49976 19.9159 2.49315C19.9092 2.48653 19.9055 2.47757 19.9055 2.46822C19.9055 2.61428 19.8701 3.95399 19.8701 3.95399V3.98924C19.8701 4.28136 19.9055 4.31662 19.9762 4.35691H20.0874V2.72004V2.72004ZM20.0874 34.5609V37.6432H19.0767V35.9006H19.9156V35.5027H18.4249V35.5783C18.4956 35.5783 18.5664 35.684 18.5664 35.7948V38.0411H20.0824V39.2046C18.8856 39.2047 17.6913 39.0951 16.5147 38.8772V34.0875C17.6806 34.3959 18.8812 34.555 20.0874 34.5609V34.5609ZM16.5198 0.312588C15.5435 0.493755 14.5823 0.747984 13.6444 1.07311V1.61704C14.583 1.29425 15.544 1.04007 16.5198 0.856525V0.277329V0.312588ZM13.6444 38.9678C14.5831 39.2815 15.5443 39.5239 16.5198 39.6931V39.1491C15.5434 38.9663 14.5822 38.7104 13.6444 38.3836V38.9628V38.9678ZM16.5198 1.11339V4.4123C16.3497 4.20668 16.249 3.95294 16.2317 3.68704L16.1205 3.21363C16.1205 3.17837 15.974 2.45311 15.974 2.45311C15.9386 2.30705 15.974 2.2718 16.0498 2.23654L16.1559 2.20128C16.2317 2.20128 16.2317 2.16099 16.2317 2.12574C16.2317 2.09048 16.1205 2.09048 16.0852 2.09048L15.8274 2.12574L15.6455 2.20128H15.4636L15.1402 2.27178C15.0998 2.27178 15.0644 2.30704 15.029 2.30704V2.3423L15.0644 2.38259L15.1402 2.41785L15.2817 2.38259C15.3575 2.38259 15.3929 2.41785 15.4282 2.52865C15.5031 2.77855 15.5639 3.03246 15.6101 3.28917L15.686 3.83311C15.7006 4.01594 15.7575 4.19293 15.8521 4.35021C15.9468 4.50748 16.0767 4.64079 16.2317 4.73969C16.3106 4.8104 16.4137 4.84825 16.5198 4.84545V5.78728C15.5287 6.0425 14.5656 6.39511 13.6444 6.83991V1.87391C14.5823 1.54879 15.5435 1.29456 16.5198 1.11339V1.11339ZM16.5198 34.0723V38.8873C15.544 38.7037 14.583 38.4495 13.6444 38.1267V36.4949C14.0487 35.6236 14.554 34.5357 14.554 34.4803C14.3938 34.416 14.237 34.3437 14.084 34.2637V34.2637C14.084 34.299 13.9021 34.6969 13.6444 35.2408V34.7372C13.7909 34.4098 13.9021 34.1932 13.9021 34.1932C13.8215 34.145 13.7349 34.1078 13.6444 34.0824V33.0348C14.558 33.4971 15.5231 33.8505 16.5198 34.0875V34.0723ZM13.6444 1.03785C13.3495 1.11932 13.0594 1.21683 12.7752 1.32996V1.94441L13.6444 1.61704V1.03785V1.03785ZM12.7752 38.6052L13.6444 38.9326V38.3836L12.7752 38.0562V38.6354V38.6052ZM13.6444 1.87391V6.83991C13.3564 6.98597 13.0633 7.16728 12.7752 7.31334V6.30604L12.8813 6.27078L13.0279 6.15997L13.3917 5.97867C13.4625 5.94341 13.4625 5.90815 13.4625 5.90815L13.4271 5.8729H13.3564L13.1744 5.94341C13.0986 5.97866 13.0633 5.94342 12.9925 5.8729C12.9311 5.74583 12.8583 5.62447 12.7752 5.51028V2.21135L13.6444 1.88398V1.87391ZM13.6444 33.0247V34.0723C13.563 34.0206 13.4786 33.9735 13.3917 33.9313V33.9313C13.3564 33.9666 13.3564 33.9666 13.3564 34.0018C13.3746 34.0422 13.3841 34.086 13.3841 34.1303C13.3841 34.1745 13.3746 34.2183 13.3564 34.2587V34.2587L13.0986 34.7976C12.9966 34.7385 12.888 34.6912 12.7752 34.6566V33.8507C12.8106 33.8507 12.8106 33.8155 12.846 33.7802C12.827 33.7609 12.8021 33.7485 12.7752 33.745V32.5463C13.0633 32.7276 13.3564 32.8737 13.6444 33.0197V33.0247ZM13.6444 34.7271C13.3917 35.2307 13.0279 36.0718 12.7752 36.5755V37.1194C12.9167 36.7971 13.321 35.9258 13.6444 35.2358V34.7321V34.7271ZM13.6444 36.4697V38.1016L12.7752 37.7742V37.2302C12.915 37.3022 13.0603 37.3628 13.2098 37.4116C13.2098 37.4116 13.4271 36.9734 13.6444 36.4697V36.4697ZM12.7752 35.4624V35.0645C12.837 35.0849 12.8978 35.1084 12.9571 35.135C12.9571 35.135 12.8813 35.3214 12.7752 35.5027V35.4624ZM12.7752 1.30478C12.6287 1.37529 12.4468 1.45084 12.2699 1.52135V2.1358C12.4418 2.07197 12.6105 1.9997 12.7752 1.91924V1.30478ZM12.2699 38.3635C12.4518 38.439 12.6337 38.5095 12.7752 38.58V38.0008C12.6287 37.9303 12.4468 37.8548 12.2699 37.7843V38.3836V38.3635ZM12.7752 2.17609V5.47502C12.7348 5.36421 12.6641 5.25845 12.6287 5.14765C12.5059 4.96237 12.3962 4.76883 12.3002 4.56843C12.296 4.54036 12.2837 4.51411 12.2648 4.49289V2.39267C12.4468 2.31712 12.6287 2.2466 12.7702 2.17609H12.7752ZM12.7752 6.27078V7.27808C12.6287 7.38385 12.4468 7.49466 12.2699 7.60547V5.59086C12.3451 5.76309 12.4294 5.93122 12.5226 6.09451C12.5579 6.20532 12.5579 6.24056 12.5226 6.27582L12.4164 6.35136C12.3406 6.38662 12.3406 6.42188 12.3406 6.42188C12.3562 6.44504 12.3798 6.46151 12.407 6.46804C12.4342 6.47457 12.4628 6.47068 12.4872 6.45713V6.45713L12.7399 6.31611L12.7803 6.27582L12.7752 6.27078ZM12.7752 32.5261V33.7248C12.6641 33.6845 12.4114 33.5435 12.2699 33.468V32.239C12.4518 32.3448 12.6337 32.4556 12.7752 32.5261ZM12.7752 33.8306V34.6314C12.6994 34.5558 12.6287 34.5558 12.6287 34.5206C12.5537 34.6462 12.4927 34.7797 12.4468 34.9185C12.5628 34.9509 12.6735 35.0001 12.7752 35.0645V35.4624C12.6287 35.7898 12.4114 36.2985 12.2699 36.5856V35.8653L12.4164 35.7948C12.376 35.6461 12.3271 35.4998 12.2699 35.3567V34.5961C12.4901 34.3946 12.6627 34.1469 12.7752 33.8709V33.8306ZM12.7752 36.5503C12.6287 36.8777 12.5529 37.0943 12.5529 37.0943C12.4491 37.0625 12.3517 37.0131 12.2648 36.9482V37.4921C12.4468 37.6029 12.6287 37.6734 12.7702 37.749V37.2051C12.7702 37.2051 12.7297 37.2051 12.7297 37.1698C12.7508 37.1494 12.7649 37.123 12.7702 37.0943L12.7752 36.5503ZM12.2699 1.52135L11.2592 1.9545V2.62435L12.2699 2.18617V1.57172V1.52135ZM11.2592 37.9303C11.581 38.1075 11.9195 38.2526 12.2699 38.3635V37.7843C11.9414 37.6382 11.613 37.4921 11.2592 37.3108V37.9303V37.9303ZM12.2699 2.39267V4.49289C12.1722 4.28201 12.0626 4.07686 11.9414 3.87843C11.9414 3.80792 11.9061 3.76764 11.9061 3.73239C11.9061 3.69713 11.9414 3.69712 11.9768 3.66187L12.0526 3.58632C12.071 3.58514 12.0883 3.57733 12.1013 3.56436C12.1143 3.55138 12.1222 3.53412 12.1233 3.5158V3.5158C12.088 3.44529 12.0122 3.48055 11.9768 3.5158L11.7595 3.62661L11.5776 3.73239L11.2845 3.87843V2.87113C11.613 2.68982 11.9414 2.5488 12.2952 2.40274L12.2699 2.39267ZM12.2699 5.58078C12.2345 5.51027 12.1941 5.43976 12.1587 5.36421L11.8707 4.82026L11.5068 4.13026C11.431 3.98924 11.3603 3.98924 11.3249 4.0245H11.2845V6.54275C11.3716 6.6425 11.4463 6.75242 11.5068 6.87013C11.5422 6.97589 11.5068 7.01618 11.3603 7.12195L11.2845 7.15721V8.28036C11.613 8.02853 11.9414 7.81195 12.2952 7.59538V5.58078H12.2699ZM12.2699 32.239V33.468C12.2297 33.4704 12.1901 33.4578 12.1587 33.4327C12.1387 33.4532 12.1262 33.4798 12.1233 33.5083C12.1683 33.5481 12.1968 33.6031 12.2033 33.6626C12.2098 33.7222 12.1939 33.782 12.1587 33.8306C11.9578 34.2081 11.655 34.5221 11.2845 34.7372V31.549C11.613 31.8009 11.9414 32.0174 12.2952 32.239H12.2699ZM12.2699 34.5558C12.1929 34.638 12.1064 34.7107 12.0122 34.7724V34.7724V34.858C12.1233 35.0394 12.1941 35.2207 12.2699 35.3617V34.6012V34.5558ZM12.2699 35.8251V36.5856C12.1941 36.7719 12.1233 36.8777 12.1233 36.9129C12.1693 36.9345 12.2191 36.9465 12.2699 36.9482V37.4921L11.2592 37.059V35.1753C11.3867 35.1282 11.5087 35.0674 11.6231 34.994H11.6635C11.8002 35.3064 11.897 35.6347 11.9515 35.9711C12.0566 35.9386 12.1555 35.8893 12.2446 35.8251H12.2699ZM11.2592 1.93435C10.8246 2.19121 10.3496 2.40778 9.91503 2.65961V3.31435C10.3496 3.06252 10.8246 2.81069 11.2592 2.55383V1.93435ZM9.91503 37.19C10.3496 37.4418 10.8246 37.6936 11.2592 37.9152V37.3763C10.7953 37.1516 10.3464 36.8976 9.91503 36.6158V37.2705V37.19ZM11.2592 2.84595V3.85326L11.1531 3.88852C11.1177 3.92377 11.0419 3.96407 11.0419 3.99932C11.0419 4.03458 11.1177 4.06982 11.1531 4.03456L11.2592 3.99932V6.51758L11.1885 6.47728H11.1531C11.1447 6.48388 11.1379 6.49229 11.1332 6.50189C11.1285 6.51148 11.1261 6.52202 11.1261 6.53269C11.1261 6.54335 11.1285 6.55388 11.1332 6.56347C11.1379 6.57307 11.1447 6.58148 11.1531 6.58808C11.1885 6.73414 11.2239 6.80466 11.1885 6.88021C11.1133 6.96231 11.0285 7.03503 10.9358 7.09677C10.6427 7.31334 10.572 7.31335 10.4305 7.13203L10.1728 6.80465L10.102 6.6586L9.92009 6.44202C10.0313 6.37151 10.2839 6.1902 10.3193 6.15495C10.4659 6.0794 10.5012 6.07939 10.5366 6.11465L10.6124 6.19019L10.6478 6.22545L10.6831 6.26071L10.7185 6.22545L10.7589 6.19019L10.7185 6.11465L10.577 5.89808L10.4659 5.71677L10.4305 5.68151L10.3951 5.64626L10.3547 5.68151C10.3353 5.70042 10.3229 5.72523 10.3193 5.75202C10.3193 5.79231 10.2839 5.82757 10.2486 5.89808C10.1332 5.96108 10.0234 6.03352 9.92009 6.11465V5.17282C9.95546 5.20808 9.95546 5.20807 9.95546 5.24837C9.96208 5.25675 9.97053 5.26352 9.98016 5.26818C9.98978 5.27284 10.0003 5.27526 10.011 5.27526C10.0218 5.27526 10.0323 5.27284 10.0419 5.26818C10.0516 5.26352 10.06 5.25675 10.0666 5.24837C10.0762 5.23811 10.0816 5.22462 10.0816 5.2106C10.0816 5.19658 10.0762 5.18308 10.0666 5.17282L9.99084 5.0318L9.95546 4.95626C9.94608 4.95626 9.93708 4.95254 9.93045 4.94593C9.92381 4.93932 9.92009 4.93035 9.92009 4.921V3.61654C10.3547 3.35968 10.8297 3.11289 11.2643 2.851L11.2592 2.84595ZM11.2592 7.16225L10.7539 7.52488L10.5315 7.70619L10.39 7.81699L10.1677 7.99831L10.0616 8.03356L10.0262 7.99831C10.0239 7.9784 10.0258 7.95822 10.0319 7.93911C10.038 7.92 10.0481 7.90241 10.0616 7.88751V7.88751L10.1677 7.81699C10.2081 7.78174 10.1677 7.70619 10.1323 7.60043C10.0679 7.49739 9.99523 7.39969 9.91503 7.3083V9.44882C10.3362 9.03116 10.7853 8.64246 11.2592 8.28538V7.16225V7.16225ZM11.2592 31.5339V34.7221C11.0681 34.8471 10.8607 34.9454 10.6427 35.0142C10.6738 35.1121 10.7109 35.208 10.7539 35.3013H10.7893C10.9541 35.2874 11.1141 35.2393 11.2592 35.1602V37.0439C10.8246 36.7921 10.3496 36.5402 9.91503 36.2481V30.4259C10.3698 30.8288 10.8095 31.2267 11.2794 31.5893L11.2592 31.5339ZM9.91503 2.66463L8.71234 3.43019V4.11515C9.11661 3.82807 9.51582 3.57121 9.91503 3.31939V2.66463ZM8.71234 36.4093C9.09759 36.6866 9.49921 36.9405 9.91503 37.1698V36.5151C9.51582 36.2632 9.11661 36.0114 8.71234 35.7193V36.4093ZM9.91503 3.59136V4.89582C9.88369 4.85126 9.8598 4.80193 9.84429 4.74976L9.80386 4.7145L9.76849 4.67924L9.73312 4.7145L9.69774 4.74976L9.58657 4.86056L8.89426 5.48006C8.89426 5.48006 8.78814 5.55056 8.74771 5.58582V4.49793C9.15198 4.21085 9.55119 3.91873 9.95041 3.66691L9.91503 3.59136ZM9.91503 5.14765L9.87966 5.11239C9.80386 5.07713 9.76849 5.07713 9.62194 5.14765C9.48274 5.25313 9.33764 5.35065 9.18736 5.43976V5.47502L9.76849 6.20028C9.82542 6.17538 9.87564 6.13741 9.91503 6.08947V5.14765V5.14765ZM9.91503 7.28816V9.42868C9.47684 9.82782 9.07442 10.2643 8.71234 10.7331V9.42868C8.71229 9.4236 8.71334 9.41855 8.71543 9.41391C8.71751 9.40927 8.72058 9.40513 8.72442 9.40179C8.72826 9.39844 8.73278 9.39596 8.73767 9.39452C8.74257 9.39307 8.74772 9.3927 8.75277 9.39342C8.8892 9.23641 8.98774 9.05033 9.04081 8.84947V8.70342C9.03393 8.49186 8.9576 8.28839 8.82351 8.12423C8.78814 8.08394 8.75277 8.08392 8.71234 8.04867V5.72684C8.75277 5.76713 8.78814 5.76713 8.82351 5.83765C8.85889 5.90816 8.93469 5.98371 9.29853 6.4521L9.66237 6.95575C9.75762 7.05596 9.84229 7.16566 9.91503 7.28312V7.28816ZM9.91503 30.3504V36.228C9.51582 35.9711 9.11661 35.7243 8.71234 35.4272V31.3325C8.97006 31.0807 9.18736 30.9346 9.18736 30.8993C9.03379 30.7497 8.8887 30.5916 8.75277 30.4259L8.71234 30.4612C8.75277 30.5015 8.71234 30.5367 8.71234 30.6072V29.0963C9.0844 29.5677 9.4861 30.0152 9.91503 30.436V30.3504ZM8.71234 9.06605C8.73947 8.99707 8.75319 8.92356 8.75277 8.84947C8.75277 8.77392 8.75277 8.70342 8.71234 8.66816V9.06605ZM8.70224 3.41004C8.3853 3.61966 8.08153 3.84841 7.79263 4.09502V4.78502C8.08573 4.56845 8.37882 4.31662 8.70224 4.09502V3.41004ZM7.79263 35.7545C8.08573 35.9711 8.37882 36.1877 8.70224 36.4093V35.7193C8.38523 35.5079 8.08147 35.2775 7.79263 35.0293V35.7545ZM8.70224 4.42239V5.51028L8.4142 5.72684C8.39484 5.729 8.37679 5.73766 8.36302 5.75139C8.34925 5.76511 8.34056 5.78309 8.33839 5.80239V5.80239V5.83765L8.37882 5.8729L8.44957 5.83765L8.59612 5.76713C8.60916 5.75229 8.62565 5.74086 8.64415 5.73384C8.66265 5.72681 8.68259 5.72442 8.70224 5.72684V8.04867C8.57308 7.95422 8.42325 7.89173 8.2651 7.86633C8.10695 7.84094 7.94501 7.85338 7.79263 7.90262V5.11239C8.08147 4.86416 8.38523 4.63373 8.70224 4.42239V4.42239ZM8.70224 8.66816V9.06605L8.59612 9.17182C8.53145 9.25977 8.43802 9.32249 8.33194 9.34916C8.22585 9.37582 8.11376 9.36476 8.01498 9.31788C7.94945 9.29173 7.88815 9.25608 7.83306 9.2121C7.83306 9.20142 7.8288 9.19118 7.82122 9.18362C7.81364 9.17606 7.80335 9.17182 7.79263 9.17182V8.48686L7.97455 8.44656C8.33839 8.4113 8.47989 8.44656 8.63149 8.59262C8.66686 8.59262 8.66686 8.62787 8.70224 8.66816V8.66816ZM8.70224 9.42868C8.577 9.55104 8.4295 9.64846 8.26765 9.71575C8.1969 9.75605 8.1969 9.75606 8.1211 9.68051L7.79263 9.35312V12.0023C8.06533 11.5584 8.3693 11.1342 8.70224 10.7331V9.42868V9.42868ZM8.70224 29.0107V30.5216C8.66686 30.5569 8.66686 30.5971 8.63149 30.6324L8.52032 30.7029C8.52032 30.7029 8.1211 30.2698 8.05035 30.159C8.06199 30.0214 8.04512 29.8829 8.00079 29.752C7.95645 29.6212 7.8856 29.5009 7.79263 29.3985V27.7666C8.06567 28.1992 8.36966 28.6116 8.70224 29.0006V29.0107ZM8.70224 31.2569V35.4272C8.38358 35.2053 8.07974 34.9631 7.79263 34.7019V32.0577C8.05035 31.8009 8.4142 31.5138 8.70224 31.2569ZM7.79263 30.8943C7.86145 30.9843 7.93571 31.0701 8.01498 31.1512V31.1512L8.23228 30.9699L7.86843 30.6072C7.86715 30.6264 7.8586 30.6443 7.84452 30.6574C7.83044 30.6705 7.81189 30.6778 7.79263 30.6777V30.8943V30.8943ZM7.79263 4.12019C7.51277 4.3085 7.24602 4.51548 6.9942 4.73969V5.50019C7.24687 5.28362 7.49954 5.0318 7.79263 4.81019V4.12019ZM6.9942 35.125C7.24687 35.3466 7.49954 35.5631 7.79263 35.7797V35.0545C7.50459 34.8379 7.24687 34.6213 6.9942 34.3997V35.125ZM7.79263 5.13756V7.9278H7.68651L7.53997 7.96808C7.24687 8.00334 7.10538 8.00334 6.9942 7.9278V7.31334C7.14075 7.20254 7.24687 7.16728 7.32267 7.20254C7.40036 7.20896 7.47513 7.23495 7.53997 7.27808V7.27808L7.61071 7.31334H7.68651V7.27808C7.68651 7.24283 7.68651 7.20253 7.61071 7.16728L7.35805 6.88021L7.32267 6.83991C7.24687 6.80465 7.2115 6.83991 7.2115 6.83991C7.13241 6.87794 7.05922 6.92714 6.9942 6.98597V5.82756C7.24687 5.61099 7.49954 5.35413 7.79263 5.13756V5.13756ZM7.79263 8.51203V9.19699C7.75726 9.19699 7.75726 9.197 7.72189 9.23729C7.68651 9.27759 7.75726 9.34306 7.75726 9.34306C7.76664 9.34306 7.77564 9.34677 7.78227 9.35338C7.78891 9.36 7.79263 9.36896 7.79263 9.37832V12.0275C7.50459 12.4607 7.24687 12.9341 6.9942 13.4075V11.0504L7.2873 10.9749C7.35805 10.9396 7.42879 10.9396 7.46922 10.9044V10.8339C7.46922 10.7936 7.42879 10.7936 7.35805 10.7583L6.9942 10.5065V8.49188C7.24177 8.5653 7.50329 8.57912 7.75726 8.53218H7.79263V8.51203ZM7.79263 27.8019V29.3985C7.68784 29.294 7.56332 29.2113 7.42628 29.1552C7.28924 29.099 7.14239 29.0704 6.9942 29.0711V26.3866C7.24687 26.8601 7.49954 27.3284 7.79263 27.8019V27.8019ZM7.79263 30.7029V30.9195L7.68651 30.8137C7.68651 30.7734 7.72189 30.7734 7.75726 30.7382L7.79263 30.7029V30.7029ZM7.79263 32.0829V34.7271C7.50928 34.5177 7.24236 34.287 6.9942 34.0371V32.8434L7.06495 32.7679L6.9942 32.6974V30.9547C7.07511 30.9836 7.16111 30.9956 7.24687 30.99V30.99C7.39342 31.1713 7.68651 31.4937 7.68651 31.4937L7.06495 32.0376C7.06495 32.0728 7.39342 32.4002 7.39342 32.4355C7.53602 32.3403 7.66964 32.2324 7.79263 32.1131V32.0829ZM6.9942 30.4864V29.5445C7.07871 29.506 7.17339 29.4955 7.26434 29.5145C7.35529 29.5335 7.43772 29.5811 7.49954 29.6503C7.5439 29.7022 7.57723 29.7625 7.59751 29.8276C7.61778 29.8927 7.62458 29.9613 7.61749 30.0291C7.61041 30.0969 7.58958 30.1626 7.55627 30.2221C7.52297 30.2817 7.47788 30.3339 7.42374 30.3755C7.37322 30.4301 7.31124 30.4728 7.24223 30.5006C7.17321 30.5285 7.09887 30.5408 7.02453 30.5367L6.9942 30.4864ZM6.9942 4.73969C6.51919 5.17283 6.04923 5.61099 5.60959 6.07939V6.88021C6.04923 6.40678 6.51919 5.93333 6.9942 5.50019V4.79004V4.73969ZM5.63991 33.8507C6.07373 34.3139 6.53617 34.7496 7.02453 35.1552V34.4299C6.53538 33.9876 6.07302 33.5167 5.63991 33.0197V33.8507ZM7.02453 5.8578V7.01619C6.95638 7.06866 6.89525 7.12958 6.84261 7.1975C6.66765 7.37253 6.56334 7.60556 6.54951 7.85225C6.56708 7.99175 6.61987 8.12454 6.70295 8.23817C6.78603 8.3518 6.89667 8.44256 7.02453 8.50197V10.5166L5.63991 9.60999V7.25291C6.07955 6.77947 6.54951 6.31108 7.02453 5.83765V5.8578ZM7.02453 7.36875L6.98915 7.40399C6.90349 7.47824 6.85081 7.58327 6.84261 7.69612C6.84099 7.74372 6.85014 7.79107 6.86938 7.83467C6.88863 7.87826 6.91747 7.91698 6.95378 7.94795C6.98915 7.94795 6.98915 7.98321 7.02453 7.98321V7.36875V7.36875ZM7.02453 11.1058V13.4629C6.32477 14.8912 5.85739 16.4212 5.63991 17.9958V12.5866L5.71571 12.6571C5.96838 12.8032 6.04418 12.8737 6.04418 12.9139L6.00375 12.9492L5.96838 13.0953L5.933 13.1658L5.96838 13.201H6.00375C6.04418 13.201 6.04418 13.1658 6.07955 13.1305L6.2261 12.8384L6.26147 12.8031L6.33222 12.6923L6.51414 12.4053C6.54951 12.37 6.58994 12.3297 6.51414 12.2945L6.47877 12.2592L6.44339 12.3297C6.40519 12.388 6.35529 12.4377 6.29684 12.4758C6.26147 12.511 6.18567 12.511 5.933 12.37C5.8314 12.3161 5.73348 12.2555 5.63991 12.1887V11.4231C5.6971 11.3978 5.7593 11.3858 5.82183 11.3879V11.3879L6.51414 11.2066L7.01947 11.1008L7.02453 11.1058ZM7.02453 26.442V29.1265C6.93014 29.1277 6.83693 29.1474 6.75021 29.1846C6.6635 29.2218 6.58499 29.2756 6.51919 29.3431C6.42639 29.4236 6.35138 29.5225 6.29889 29.6334C6.2464 29.7444 6.21758 29.8649 6.21426 29.9876C6.21093 30.1102 6.23317 30.2321 6.27957 30.3457C6.32597 30.4593 6.39552 30.5621 6.48382 30.6475C6.61728 30.8219 6.81247 30.939 7.02958 30.9749V32.7175C6.73648 32.3902 5.82688 31.3023 5.82688 31.3023C5.97778 31.161 6.13635 31.0282 6.3019 30.9044V30.9044C6.16045 30.7433 6.02722 30.5752 5.90268 30.4007C5.86731 30.436 5.82688 30.436 5.82688 30.4712C5.86731 30.5115 5.82688 30.6173 5.75614 30.6929L5.64496 30.7986V21.9041C5.85229 23.4809 6.32015 25.0126 7.02958 26.437L7.02453 26.442ZM7.02453 29.5999C6.98738 29.5992 6.95075 29.6087 6.91865 29.6273C6.88656 29.646 6.86025 29.6731 6.84261 29.7057C6.73811 29.784 6.66814 29.8997 6.64741 30.0283C6.62668 30.157 6.6568 30.2887 6.73143 30.3957C6.76354 30.4431 6.80739 30.4815 6.85874 30.5071C6.91009 30.5327 6.96719 30.5446 7.02453 30.5417V29.5999ZM7.02453 32.8636V34.0925C6.53664 33.6489 6.07435 33.178 5.63991 32.6823V31.7354C6.11492 32.2844 6.77186 33.0449 6.80723 33.0802C6.84261 33.1154 6.95378 32.9341 7.02453 32.8636V32.8636ZM5.63991 10.8893L6.33222 10.7432C6.44366 10.7273 6.55354 10.7021 6.66069 10.6677C6.51414 10.5972 5.96838 10.2698 5.65002 10.0532V10.8893H5.63991ZM5.63991 6.14991C5.01498 6.7726 4.44363 7.4465 3.93188 8.16451V9.11138C4.44789 8.34606 5.01872 7.61891 5.63991 6.9356V6.14991ZM3.93188 31.8361C4.45124 32.5482 5.0221 33.2216 5.63991 33.8507V33.0197C5.00453 32.3484 4.43276 31.6201 3.93188 30.8439V31.8361ZM5.63991 7.28816V9.67547L5.45799 9.56466C5.31649 9.49415 5.24069 9.41861 5.24069 9.38336C5.24069 9.3481 5.27607 9.34809 5.27607 9.31284L5.3165 9.23729C5.3165 9.20204 5.35187 9.20203 5.35187 9.16677C5.35187 9.15742 5.34814 9.14846 5.34151 9.14184C5.33488 9.13523 5.32588 9.13153 5.3165 9.13153C5.30712 9.12554 5.29653 9.12167 5.28549 9.12022C5.27445 9.11877 5.26322 9.11977 5.2526 9.12314C5.24199 9.1265 5.23225 9.13215 5.22408 9.13969C5.21591 9.14724 5.2095 9.15648 5.20532 9.16677V9.16677L5.05878 9.4186L5.0234 9.49416L4.95265 9.59992L4.77073 9.85677C4.75585 9.86978 4.74438 9.88622 4.73733 9.90465C4.73029 9.92309 4.72788 9.94297 4.73031 9.96255L4.77073 9.99781C4.80611 10.0381 4.84148 9.99781 4.84148 9.96255C4.88099 9.90536 4.93065 9.85586 4.98803 9.81649C5.0234 9.78123 5.09415 9.78123 5.27607 9.89203L5.63991 10.0734V10.9094L5.56916 10.9447C4.80611 11.126 3.96725 11.267 3.96725 11.267L3.93188 11.3073V9.56466C4.44704 8.77647 5.01783 8.02582 5.63991 7.31838V7.28816ZM5.63991 11.4181V12.1937C5.27607 11.9721 4.73031 11.6498 4.65956 11.6145H4.69494L5.63991 11.4282V11.4181ZM5.63991 12.5815V17.9857C5.53985 18.6339 5.49253 19.2891 5.49842 19.9449C5.49013 20.5991 5.53746 21.2528 5.63991 21.8991V30.7835C5.4721 30.9025 5.31487 31.0356 5.16995 31.1814C5.16995 31.1814 5.38724 31.403 5.63991 31.7253V32.6722C5.00011 31.9775 4.42818 31.2237 3.93188 30.4209V25.2887C4.06593 25.2607 4.18623 25.1876 4.27259 25.0817C4.35894 24.9758 4.40608 24.8434 4.40608 24.7069C4.40608 24.5705 4.35894 24.4381 4.27259 24.3322C4.18623 24.2263 4.06593 24.1532 3.93188 24.1252V18.7412L4.29572 18.7765C4.36647 18.7765 4.44227 18.8117 4.44227 18.8822V18.993L4.47764 19.0635L4.51302 19.1038L4.54839 19.0635C4.56962 19.0454 4.5839 19.0205 4.58882 18.993V18.993V18.7059L4.62419 18.5196V18.3383L4.65956 17.9807V17.8699H4.62419C4.58882 17.8699 4.54839 17.8699 4.54839 17.9404L4.51302 18.1217C4.51302 18.1972 4.44227 18.2325 4.3311 18.2325L3.96725 18.1973H3.93188V16.4546C4.24986 16.4476 4.55692 16.3377 4.8067 16.1414C5.05648 15.9452 5.23541 15.6732 5.3165 15.3667V15.3667C5.38806 15.1751 5.41832 14.9706 5.4053 14.7666C5.39227 14.5625 5.33626 14.3635 5.24091 14.1824C5.14556 14.0014 5.01301 13.8424 4.85189 13.7158C4.69078 13.5893 4.50472 13.4979 4.30583 13.4478C4.18124 13.3896 4.04394 13.3636 3.90661 13.3723V11.5239L5.61464 12.6117L5.63991 12.5815ZM3.93188 15.8452C4.18572 15.8829 4.4448 15.831 4.66437 15.6986C4.88395 15.5662 5.05026 15.3615 5.13457 15.1199V15.1199C5.19233 14.9284 5.17796 14.7225 5.09415 14.5407C4.89906 14.2569 4.59938 14.0614 4.26035 13.9968C4.15612 13.9527 4.04495 13.9271 3.93188 13.9212V15.8452ZM3.93188 8.15445C1.38119 11.5769 0.00390625 15.7269 0.00390625 19.9903C0.00390625 24.2536 1.38119 28.4036 3.93188 31.8261V30.849C1.71613 27.6519 0.534692 23.8557 0.546144 19.9701V19.9701C0.540801 16.0854 1.72169 12.291 3.93188 9.09123V8.16451V8.15445ZM3.93188 9.53445V11.2771C3.86113 11.2771 3.78533 11.2771 3.78533 11.3123C3.78533 11.3217 3.78161 11.3307 3.77497 11.3373C3.76834 11.3439 3.75934 11.3476 3.74996 11.3476C3.7512 11.3766 3.76331 11.4041 3.7839 11.4246C3.80448 11.4451 3.83205 11.4572 3.86113 11.4584L3.93188 11.4936V13.342C3.69516 13.304 3.45242 13.3428 3.23957 13.4529C2.87711 13.67 2.61553 14.0213 2.51189 14.4299C2.44164 14.6243 2.41212 14.8309 2.42515 15.0371C2.43819 15.2433 2.49351 15.4446 2.58769 15.6286C2.7794 15.9676 3.08837 16.2254 3.45687 16.3539C3.61161 16.3972 3.7712 16.4208 3.93188 16.4244V18.167L3.67921 18.1267C3.55352 18.1417 3.4263 18.117 3.31537 18.0562C2.93419 17.8155 2.56954 17.5496 2.22385 17.2605C2.16899 17.1907 2.11998 17.1166 2.07731 17.0389C2.04917 16.9975 2.03664 16.9475 2.04193 16.8978C2.04193 16.8223 2.00151 16.787 1.96613 16.787H1.93076V16.8978L1.89539 17.2605L1.86001 17.6231C1.86001 17.6583 1.81959 17.6936 1.89539 17.7289C1.97119 17.7641 1.96613 17.6583 1.96613 17.6231C1.96613 17.5878 2.00151 17.5828 2.04193 17.5828C2.10571 17.5997 2.1669 17.6251 2.22385 17.6583C2.25923 17.6936 2.47652 17.8397 2.69381 17.9857C2.84812 18.0691 2.99518 18.1651 3.13345 18.2728C3.09467 18.2782 3.05709 18.2902 3.02228 18.3081C2.72918 18.4541 2.11268 18.711 2.04193 18.7462C1.99837 18.7739 1.94681 18.7863 1.89539 18.7815C1.886 18.7815 1.87701 18.7778 1.87037 18.7712C1.86374 18.7646 1.86001 18.7556 1.86001 18.7462V18.7462C1.86001 18.6757 1.86001 18.6354 1.81958 18.6354L1.78421 18.6757L1.74884 18.711L1.71346 18.9981V19.1089L1.67809 19.3959V19.5773C1.67208 19.5866 1.66821 19.5972 1.66675 19.6082C1.6653 19.6192 1.66629 19.6304 1.66967 19.6409C1.67305 19.6515 1.67872 19.6612 1.68629 19.6694C1.69386 19.6775 1.70314 19.6839 1.71346 19.6881C1.73223 19.6881 1.75022 19.6806 1.76349 19.6674C1.77676 19.6542 1.78421 19.6362 1.78421 19.6175C1.79158 19.5615 1.8184 19.5099 1.86001 19.4715C1.92544 19.38 2.01213 19.3057 2.11268 19.2549C2.32997 19.1441 3.16883 18.711 3.23957 18.711C3.35318 18.6579 3.48167 18.6454 3.60341 18.6757H3.93188V24.1101H3.84092C3.76418 24.1101 3.6882 24.1253 3.61736 24.1547C3.54652 24.1841 3.48223 24.2272 3.4282 24.2815C3.37417 24.3359 3.33147 24.4003 3.30257 24.4712C3.27366 24.542 3.25912 24.6179 3.25979 24.6944C3.25705 24.7719 3.2701 24.8491 3.29814 24.9215C3.32619 24.9938 3.36864 25.0597 3.42295 25.1153C3.47726 25.1708 3.54229 25.2148 3.61413 25.2446C3.68596 25.2744 3.76311 25.2894 3.84092 25.2887H3.95209V30.4259C1.90842 27.3242 0.816152 23.696 0.808916 19.9852V19.9852C0.813583 16.2747 1.90035 12.6456 3.93694 9.53949L3.93188 9.53445ZM3.93188 13.9212V15.8452C3.7954 15.8435 3.66028 15.8179 3.53267 15.7697V15.7697C2.58769 15.4826 2.62307 14.9034 2.69381 14.6112C2.78073 14.3695 2.94846 14.165 3.16883 14.0321C3.40659 13.9207 3.67265 13.8838 3.93188 13.9263V13.9212Z" fill="#BBBBBB"/>
<path d="M30.0572 10.7733C29.1047 10.775 28.154 10.689 27.2173 10.5165V14.042C27.269 14.009 27.318 13.972 27.3638 13.9312C27.4699 13.8607 27.5104 13.896 27.5104 13.9312C27.4935 14.1405 27.5587 14.3481 27.6923 14.5104C27.8578 14.6417 27.9838 14.816 28.0561 15.0141C28.0685 15.0935 28.0617 15.1747 28.0362 15.2509C28.0107 15.3271 27.9673 15.3962 27.9096 15.4523C27.701 15.5774 27.4607 15.6403 27.2173 15.6336V15.8149H27.9449C27.9449 15.8149 28.0157 15.8149 27.9803 15.8854L27.8742 16.102C27.8742 16.102 27.8742 16.1423 27.7984 16.1423H27.2173V16.3185H27.6923C27.6923 16.3185 27.763 16.3185 27.7277 16.3941L27.6519 16.5401C27.6519 16.5401 27.6519 16.5754 27.5811 16.5754H27.2173V16.7265H27.5104C27.5104 16.7265 27.5811 16.7265 27.5457 16.8323L27.3638 17.1949V17.6683C27.3638 17.7388 27.3284 17.7741 27.288 17.7741H27.2173V21.1486C28.0915 21.2594 28.9253 21.4004 29.7439 21.5817C29.9577 20.3732 30.0558 19.1472 30.037 17.9201V10.7733H30.0572ZM27.2173 10.5165C24.622 10.1597 22.1646 9.13557 20.087 7.54492V10.6273C20.7141 10.6067 21.339 10.7121 21.9244 10.9371C22.5098 11.1621 23.0439 11.5021 23.4948 11.937C23.9457 12.3719 24.3042 12.8927 24.5491 13.4685C24.794 14.0442 24.9202 14.6632 24.9202 15.2886C24.9202 15.9139 24.794 16.5329 24.5491 17.1087C24.3042 17.6844 23.9457 18.2052 23.4948 18.6401C23.0439 19.075 22.5098 19.415 21.9244 19.64C21.339 19.865 20.7141 19.9704 20.087 19.9499V20.6348C22.4727 20.6359 24.8553 20.8042 27.2173 21.1385V17.764H27.1819C27.1061 17.764 27.0707 17.7288 27.0707 17.6583V17.1848L26.8888 16.8222C26.8534 16.7164 26.9646 16.7164 26.9646 16.7164H27.2173V16.5704H26.8534C26.8181 16.5704 26.7827 16.4948 26.7827 16.4948L26.7069 16.389C26.6715 16.3135 26.7827 16.3135 26.7827 16.3135H27.2173V16.1372H26.6361C26.6073 16.1319 26.5808 16.1179 26.5603 16.0969V16.0969L26.4896 15.9156C26.4542 15.8099 26.525 15.8098 26.525 15.8098H27.2173V15.6285H27.1465C27.0284 15.6245 26.9124 15.5965 26.8055 15.5463C26.6987 15.4961 26.6032 15.4247 26.525 15.3364C26.433 15.2029 26.3934 15.0403 26.4139 14.8796C26.4344 14.719 26.5135 14.5714 26.6361 14.4651C26.7069 14.4298 26.7069 14.4651 26.7069 14.4651C26.6443 14.5646 26.6141 14.6808 26.6205 14.7981C26.6268 14.9153 26.6693 15.0277 26.7423 15.1198C26.7128 14.9125 26.7417 14.701 26.8255 14.509C26.9094 14.317 27.045 14.1518 27.2173 14.032V10.5064V10.5165ZM20.087 17.6633V12.9138C20.4091 12.8991 20.7309 12.9495 21.0329 13.0622C21.3349 13.1749 21.6109 13.3474 21.8441 13.5694C22.0773 13.7913 22.2629 14.0581 22.3897 14.3536C22.5166 14.6491 22.5819 14.9672 22.5819 15.2886C22.5819 15.61 22.5166 15.928 22.3897 16.2235C22.2629 16.519 22.0773 16.7858 21.8441 17.0078C21.6109 17.2297 21.3349 17.4023 21.0329 17.5149C20.7309 17.6276 20.4091 17.6781 20.087 17.6633ZM20.087 7.54492C18.1327 9.05326 15.831 10.0505 13.3913 10.446V14.7119C13.5025 14.7471 13.6844 14.7824 13.8259 14.8177C13.846 14.8177 13.8653 14.8256 13.8795 14.8398C13.8937 14.854 13.9017 14.8732 13.9017 14.8932V14.8932V16.0516C13.9017 16.0516 13.9371 16.1624 13.8259 16.1624C13.6748 16.1568 13.5266 16.119 13.3913 16.0516V16.2682H13.4419C13.6158 16.3358 13.8064 16.3481 13.9876 16.3034C14.0988 16.3034 14.0634 16.1977 14.0634 16.1977V15.0342C14.0581 15.03 14.0539 15.0246 14.051 15.0185C14.048 15.0124 14.0465 15.0057 14.0465 14.999C14.0465 14.9922 14.048 14.9855 14.051 14.9794C14.0539 14.9733 14.0581 14.968 14.0634 14.9637H14.0988C14.1375 15.0099 14.1729 15.0587 14.2049 15.1098C14.2184 15.1238 14.2289 15.1404 14.2358 15.1586C14.2428 15.1768 14.246 15.1961 14.2453 15.2155V15.2155L14.3161 16.4847C14.3161 16.4847 14.3161 16.6308 14.2049 16.6308L13.4065 16.525V21.0579C15.6262 20.7642 17.863 20.6178 20.1022 20.6197V20.6197V19.9499C19.4751 19.9704 18.8502 19.865 18.2648 19.64C17.6793 19.415 17.1453 19.075 16.6944 18.6401C16.2435 18.2052 15.8849 17.6844 15.6401 17.1087C15.3952 16.5329 15.269 15.9139 15.269 15.2886C15.269 14.6632 15.3952 14.0442 15.6401 13.4685C15.8849 12.8927 16.2435 12.3719 16.6944 11.937C17.1453 11.5021 17.6793 11.1621 18.2648 10.9371C18.8502 10.7121 19.4751 10.6067 20.1022 10.6273V10.6273V7.54492H20.087ZM20.087 12.9138V17.6633C19.7649 17.6781 19.4431 17.6276 19.1411 17.5149C18.8391 17.4023 18.5631 17.2297 18.3299 17.0078C18.0967 16.7858 17.9111 16.519 17.7843 16.2235C17.6575 15.928 17.5921 15.61 17.5921 15.2886C17.5921 14.9672 17.6575 14.6491 17.7843 14.3536C17.9111 14.0581 18.0967 13.7913 18.3299 13.5694C18.5631 13.3474 18.8391 13.1749 19.1411 13.0622C19.4431 12.9495 19.7649 12.8991 20.087 12.9138V12.9138ZM13.3913 10.446C12.9921 10.5165 12.5929 10.592 12.2291 10.6273V14.7119C12.2724 14.6876 12.3209 14.6738 12.3706 14.6716C12.5929 14.5658 12.699 14.5658 12.7344 14.6363V15.9811C12.6283 15.835 12.411 15.9811 12.2644 16.0516H12.2291V16.2682C12.2998 16.2329 12.411 16.1977 12.4817 16.1624C12.5108 16.141 12.5451 16.1276 12.581 16.1235C12.6169 16.1194 12.6533 16.1248 12.6865 16.139C12.7197 16.1533 12.7486 16.176 12.7703 16.2048C12.792 16.2337 12.8058 16.2677 12.8102 16.3034C12.8191 16.2662 12.837 16.2318 12.8622 16.203C12.8875 16.1741 12.9193 16.1518 12.9551 16.138C12.9908 16.1241 13.0294 16.1191 13.0676 16.1234C13.1057 16.1276 13.1422 16.141 13.174 16.1624C13.2094 16.1977 13.356 16.2329 13.3913 16.2682V16.0516C13.2448 15.9811 13.0275 15.835 12.886 15.9811V14.6363C12.9618 14.5658 13.0679 14.5658 13.2852 14.6716C13.3249 14.6761 13.363 14.6899 13.3964 14.7119V10.4309L13.3913 10.446ZM12.2291 21.2594C12.6283 21.1838 13.0275 21.1133 13.3913 21.0781V16.5452L13.174 16.5049C13.174 16.5049 13.0275 16.4696 12.9921 16.5452C12.9765 16.5794 12.9507 16.608 12.9181 16.627C12.8855 16.6459 12.8478 16.6543 12.8102 16.6509V16.6509C12.7726 16.6543 12.7349 16.6459 12.7023 16.627C12.6697 16.608 12.6438 16.5794 12.6283 16.5452C12.6283 16.4696 12.4817 16.5049 12.4817 16.5049L12.2291 16.5452V21.2594ZM12.2291 10.6323C11.528 10.7173 10.8229 10.7661 10.1168 10.7784V17.9201C10.098 19.1472 10.1961 20.3732 10.4099 21.5817C11.0096 21.4398 11.617 21.3322 12.2291 21.2594V16.5452L11.461 16.6509C11.3548 16.6509 11.3548 16.5049 11.3548 16.5049L11.4205 15.2155C11.4189 15.1771 11.4315 15.1395 11.4559 15.1098C11.4901 15.059 11.5272 15.0102 11.5671 14.9637H11.6024V15.0342L11.5721 16.2228C11.5721 16.2228 11.5721 16.3286 11.6429 16.3286C11.8377 16.3723 12.0409 16.3601 12.2291 16.2934V16.2934V16.0768C12.1053 16.1459 11.9666 16.1839 11.8248 16.1876V16.1876C11.7187 16.1876 11.754 16.0768 11.754 16.0768V14.9184C11.7534 14.9087 11.7547 14.899 11.7579 14.8899C11.7612 14.8807 11.7663 14.8723 11.7729 14.8652C11.7795 14.8581 11.7876 14.8525 11.7965 14.8486C11.8054 14.8448 11.8151 14.8428 11.8248 14.8428C11.9713 14.8076 12.1179 14.7723 12.2291 14.7371V10.6323Z" fill="#BBBBBB"/>
<path d="M10.5161 22.1598C10.9985 24.4143 11.981 26.5327 13.3915 28.3598V28.3598L20.0518 21.6864L26.7424 28.3598C28.1842 26.5475 29.181 24.4243 29.6531 22.1598C23.337 20.8973 16.8322 20.8973 10.5161 22.1598V22.1598Z" fill="#BBBBBB"/>
<path d="M21.9769 32.5316C23.1137 31.8462 24.1756 31.0444 25.1453 30.1392V30.1392L21.9769 26.9813V29.1218H22.3761C22.4519 29.1218 22.4519 29.1571 22.4519 29.1923L22.4165 29.4492C22.4165 29.4845 22.3761 29.4845 22.3761 29.4845C22.3761 29.4845 22.3053 29.4845 22.3053 29.4492C22.3053 29.414 22.3053 29.3737 22.1588 29.3737H21.9769V29.5953C22.27 29.701 22.4822 29.8824 22.4822 30.1745C22.4722 30.3125 22.4175 30.4436 22.3264 30.548C22.2353 30.6524 22.1126 30.7246 21.9769 30.7537V32.5316V32.5316ZM21.9769 30.5723V29.9176C22.0328 29.9521 22.0789 30.0003 22.1107 30.0576C22.1426 30.1149 22.1591 30.1795 22.1588 30.245C22.1588 30.4263 22.0881 30.5371 21.9769 30.5723ZM20.6327 33.2568C21.0957 33.0437 21.5447 32.8015 21.9769 32.5316V30.7537C21.9061 30.7537 21.8303 30.7889 21.7596 30.7889C21.6827 30.7823 21.6084 30.7581 21.5423 30.7184C21.5069 30.7184 21.5069 30.6832 21.5069 30.6076V30.3558C21.5069 30.3558 21.5069 30.2802 21.5777 30.2802C21.5966 30.3015 21.6089 30.3277 21.613 30.3558C21.613 30.5371 21.6888 30.6076 21.8708 30.6076C21.89 30.6099 21.9094 30.6079 21.9278 30.6018C21.9461 30.5957 21.9629 30.5856 21.9769 30.5723V29.9176C21.8921 29.8573 21.7926 29.8207 21.6888 29.8118C21.613 29.7766 21.613 29.7413 21.613 29.7413L21.6484 29.1923C21.6508 29.1736 21.6596 29.1563 21.6735 29.1434C21.6873 29.1305 21.7053 29.1229 21.7242 29.1218H21.9769V26.9813L20.6327 25.6416V29.0866H20.6681C20.9612 29.0866 21.1431 29.2326 21.1431 29.4492C21.1394 29.5329 21.109 29.6132 21.0562 29.6785C21.0035 29.7437 20.9312 29.7904 20.85 29.8118C20.9965 29.9176 21.2138 30.0284 21.2138 30.2802C21.2138 30.5321 21.0319 30.7537 20.6327 30.7839V33.2518V33.2568ZM21.9769 29.3737V29.5953C21.9173 29.5775 21.8565 29.564 21.795 29.555C21.7899 29.4924 21.8021 29.4297 21.8303 29.3737H21.9769ZM20.6327 30.6076V29.9931C20.7792 30.0637 20.9207 30.1745 20.9207 30.3205C20.9247 30.3592 20.9199 30.3983 20.9069 30.4349C20.8938 30.4715 20.8727 30.5048 20.8451 30.5322C20.8175 30.5597 20.7842 30.5808 20.7474 30.5938C20.7107 30.6068 20.6715 30.6115 20.6327 30.6076V30.6076ZM20.6327 29.701V29.2326H20.6681C20.7792 29.2326 20.85 29.3032 20.85 29.4492C20.8601 29.5116 20.8473 29.5755 20.8139 29.6292C20.7804 29.6829 20.7286 29.7227 20.6681 29.7413L20.6327 29.701ZM19.2127 33.1108L20.0869 33.5489C20.275 33.4634 20.4573 33.3658 20.6327 33.2568V30.7889C20.3042 30.7889 20.0869 30.6076 20.0869 30.3558C20.0866 30.2529 20.1179 30.1523 20.1766 30.0677C20.2353 29.9831 20.3187 29.9184 20.4154 29.8823C20.3405 29.8453 20.277 29.7887 20.2317 29.7187C20.1863 29.6487 20.1608 29.5677 20.1577 29.4845V29.4845C20.1577 29.3384 20.3042 29.1218 20.6327 29.0866V25.6416L20.0516 25.0977L19.2127 25.9287V29.0866H19.2481C19.5058 29.0866 19.6877 29.2326 19.6877 29.4492C19.6903 29.5294 19.6666 29.6083 19.62 29.6737C19.5735 29.7392 19.5068 29.7877 19.43 29.8118C19.5765 29.9176 19.7585 30.0284 19.7585 30.2802C19.7585 30.5321 19.5765 30.7537 19.2127 30.7839V33.1057V33.1108ZM20.6327 29.2326V29.701C20.4861 29.6305 20.4508 29.555 20.4508 29.4492C20.4508 29.3737 20.4861 29.2326 20.6327 29.2326ZM20.6327 29.9931V30.6076C20.5961 30.6079 20.5599 30.6004 20.5265 30.5856C20.4931 30.5709 20.4632 30.5492 20.4388 30.522C20.4145 30.4949 20.3962 30.4629 20.3851 30.4281C20.3741 30.3934 20.3707 30.3567 20.375 30.3205V30.3205C20.3766 30.2459 20.3981 30.1731 20.4371 30.1094C20.4762 30.0457 20.5315 29.9934 20.5973 29.9579L20.6327 29.9931ZM19.2127 30.6076V29.9931C19.2818 30.0179 19.3424 30.0619 19.3871 30.12C19.4319 30.178 19.4591 30.2476 19.4654 30.3205C19.4705 30.3564 19.4677 30.393 19.4573 30.4277C19.4469 30.4625 19.4291 30.4946 19.4051 30.5219C19.3811 30.5491 19.3515 30.5709 19.3183 30.5857C19.2851 30.6005 19.2491 30.608 19.2127 30.6076ZM19.2127 29.701V29.2326C19.2416 29.2312 19.2705 29.2358 19.2975 29.2462C19.3246 29.2566 19.3491 29.2725 19.3696 29.2929C19.39 29.3133 19.406 29.3377 19.4164 29.3646C19.4268 29.3916 19.4314 29.4204 19.43 29.4492C19.4331 29.5106 19.4173 29.5714 19.3848 29.6236C19.3523 29.6758 19.3046 29.7168 19.2481 29.7413C19.243 29.7414 19.2379 29.7403 19.2333 29.7382C19.2286 29.7362 19.2244 29.7331 19.2211 29.7293C19.2177 29.7255 19.2152 29.7209 19.2138 29.7161C19.2123 29.7112 19.212 29.7061 19.2127 29.701ZM17.9393 32.3855C18.3385 32.6373 18.7781 32.8589 19.2127 33.1108V30.7889H19.1773C18.8489 30.7889 18.6316 30.6076 18.6316 30.3558C18.6394 30.2501 18.678 30.149 18.7426 30.0649C18.8072 29.9808 18.8951 29.9174 18.9954 29.8823C18.9205 29.8453 18.857 29.7887 18.8117 29.7187C18.7663 29.6487 18.7408 29.5677 18.7377 29.4845V29.4845C18.7377 29.3384 18.8489 29.1218 19.2127 29.0866V25.9287L17.9393 27.1979V29.2125L18.01 29.142L18.0858 29.1067C18.1212 29.1067 18.1566 29.1067 18.1566 29.1772V29.2125L18.1212 29.7161V30.114L18.1566 30.5522C18.1566 30.6227 18.1565 30.6227 18.1919 30.658H18.3385C18.3738 30.658 18.3738 30.6983 18.3738 30.6983C18.3738 30.6983 18.3738 30.7688 18.3385 30.7688H17.9393V32.4006V32.3855ZM19.2127 29.2326V29.701C19.0662 29.6305 18.9954 29.555 18.9954 29.4492C18.9979 29.3926 19.0216 29.3389 19.0618 29.2988C19.102 29.2587 19.1559 29.2351 19.2127 29.2326V29.2326ZM19.2127 29.9931V30.6076C19.1743 30.609 19.136 30.6025 19.1001 30.5887C19.0643 30.5748 19.0316 30.5538 19.0042 30.5269C18.9768 30.5 18.9551 30.4679 18.9406 30.4324C18.926 30.3969 18.9189 30.3588 18.9196 30.3205C18.9279 30.2476 18.9521 30.1773 18.9905 30.1147C19.0289 30.0521 19.0806 29.9985 19.142 29.9579C19.1773 29.9579 19.1773 29.9931 19.2127 29.9931ZM14.9932 30.1392C15.9107 30.9685 16.8962 31.7198 17.9393 32.3855V30.7537H17.6108C17.5754 30.7537 17.5754 30.7184 17.5754 30.6831C17.5754 30.6479 17.5754 30.6429 17.6108 30.6429H17.7573C17.7927 30.6076 17.8281 30.6076 17.8281 30.5371V29.4845V29.4492C17.7643 29.4638 17.703 29.4875 17.6462 29.5197H17.6108L17.5754 29.555C17.557 29.5538 17.5397 29.546 17.5267 29.533C17.5137 29.52 17.5059 29.5028 17.5047 29.4845L17.54 29.4492C17.5754 29.4492 17.7927 29.2679 17.9393 29.1923V27.1777L14.9932 30.1191V30.1392Z" fill="#BBBBBB"/>
</g>
<defs>
<clipPath id="clip0_4410_5153">
<rect width="198" height="40" fill="white"/>
</clipPath>
</defs>
</svg>
