<svg width="128" height="40" viewBox="0 0 128 40" fill="none" xmlns="http://www.w3.org/2000/svg">
<g clip-path="url(#clip0_4410_5173)">
<path d="M28.5697 36.6032C26.3563 38.7785 23.3614 39.9997 20.2396 39.9997C17.1178 39.9997 14.1229 38.7785 11.9094 36.6032L3.43837 28.2324C1.23644 26.0438 0.000488281 23.083 0.000488281 19.9968C0.000488281 16.9107 1.23644 13.9499 3.43837 11.7613L11.9094 3.39847C14.1229 1.22308 17.1178 0.00195313 20.2396 0.00195312C23.3614 0.00195312 26.3563 1.22308 28.5697 3.39847L37.0408 11.7613C39.2427 13.9499 40.4787 16.9107 40.4787 19.9968C40.4787 23.083 39.2427 26.0438 37.0408 28.2324L28.5697 36.6032Z" fill="#BBBBBB"/>
<path d="M15.2189 32.2891C14.9748 32.2905 14.7357 32.2212 14.5311 32.0897C14.3265 31.9583 14.1654 31.7704 14.0677 31.5494C13.97 31.3284 13.9401 31.084 13.9815 30.8463C14.0229 30.6087 14.134 30.3882 14.3009 30.2123C14.4116 30.0919 14.5456 29.9947 14.695 29.9264C14.8443 29.8581 15.006 29.82 15.1705 29.8145C15.4883 29.8244 15.7904 29.953 16.016 30.1744C16.2415 30.3957 16.3738 30.6934 16.386 31.0073C16.3983 31.3212 16.2896 31.628 16.082 31.8659C15.8744 32.1038 15.5832 32.255 15.2672 32.2891H15.2189" fill="white"/>
<path d="M19.7767 9.45315C19.4664 9.44024 19.1567 9.49082 18.8671 9.60173C18.5775 9.71264 18.3142 9.88148 18.0937 10.0977C17.1275 11.0446 16.6282 12.9861 16.6685 15.5801C16.7249 18.7629 17.4737 25.041 20.0344 28.2636C20.4035 28.7454 20.8495 29.1646 21.3549 29.5049C21.8543 29.8764 22.4611 30.08 23.0862 30.0857C23.3157 30.0832 23.5447 30.0619 23.7706 30.0221C25.2281 29.672 27.056 28.0726 28.4088 25.9401C28.5098 25.7814 28.65 25.6506 28.8162 25.5602C28.9824 25.4697 29.1692 25.4225 29.359 25.4229C29.5697 25.4208 29.7766 25.4788 29.9548 25.59C30.0807 25.6665 30.1898 25.7671 30.2756 25.8861C30.3613 26.005 30.422 26.1397 30.4541 26.2823C30.489 26.4239 30.4942 26.5711 30.4692 26.7149C30.4443 26.8586 30.3898 26.9957 30.3091 27.1178C28.594 29.8152 26.283 31.7169 24.2457 32.1943H24.1974C23.8284 32.2631 23.4537 32.2978 23.0781 32.2978C22.016 32.2871 20.9823 31.9568 20.1149 31.3509C19.4083 30.8767 18.783 30.2937 18.2628 29.6242C14.6876 25.0808 14.438 16.5667 14.4219 15.6039C14.4219 13.3441 14.7198 10.2727 16.5074 8.51421C16.9297 8.09734 17.4324 7.76845 17.9857 7.54703C18.5389 7.32561 19.1315 7.21617 19.7284 7.22518H19.9377C20.5346 7.21571 21.1274 7.32496 21.6807 7.5464C22.234 7.76785 22.7366 8.09697 23.1587 8.51421C24.9543 10.2727 25.2845 13.3441 25.2442 15.6039C25.215 19.4699 24.1985 23.266 22.289 26.6403C22.219 26.7763 22.1215 26.8967 22.0025 26.9939C21.8836 27.0911 21.7456 27.1632 21.5973 27.2056C21.449 27.248 21.2935 27.2598 21.1403 27.2403C20.9872 27.2209 20.8397 27.1705 20.7071 27.0924C20.5745 27.0143 20.4595 26.9101 20.3692 26.7863C20.279 26.6625 20.2155 26.5217 20.1826 26.3726C20.1498 26.2236 20.1482 26.0694 20.1781 25.9197C20.208 25.77 20.2687 25.628 20.3565 25.5025C22.1637 22.5019 23.1101 19.0718 23.0942 15.5801C23.1345 12.9861 22.6353 11.0446 21.677 10.0977C21.4557 9.88265 21.1923 9.71457 20.9029 9.60374C20.6135 9.49291 20.3042 9.44167 19.9941 9.45315H19.7767Z" fill="white"/>
<path d="M70.7721 6.51758C65.2241 6.51758 61.9146 9.90728 61.9146 14.0927C61.9146 18.2781 65.2402 21.6598 70.7721 21.6598C76.3041 21.6598 79.6297 18.2781 79.6297 14.0927C79.6297 9.90728 76.296 6.51758 70.7721 6.51758ZM70.7721 20.0445C68.1148 20.0445 66.0937 17.3789 66.0937 14.1006C66.0937 10.8223 68.1148 8.14877 70.7721 8.14877C73.4294 8.14877 75.4666 10.8144 75.4666 14.1006C75.4666 17.3869 73.4374 20.0445 70.7721 20.0445Z" fill="#BBBBBB"/>
<path d="M80.4189 8.75315H86.2649V21.0309H90.6696V8.75315H95.6057V7.07422H80.4189V8.75315Z" fill="#BBBBBB"/>
<path d="M97.208 8.75315H102.136V21.0309H106.541V8.75315H112.395V7.07422H97.208V8.75315Z" fill="#BBBBBB"/>
<path d="M53.1293 18.5323V7.07422H48.9019V19.3758C48.9019 19.5938 48.9454 19.8097 49.0301 20.011C49.1148 20.2123 49.2389 20.3951 49.3953 20.5489C49.5516 20.7027 49.7372 20.8245 49.9414 20.9072C50.1455 20.9899 50.3642 21.0319 50.5848 21.0308H61.391V19.3678H53.9668C53.8576 19.368 53.7494 19.3462 53.649 19.3037C53.5486 19.2612 53.458 19.1991 53.3827 19.1209C53.3073 19.0427 53.2489 18.9503 53.2109 18.8491C53.1729 18.7479 53.1561 18.6401 53.1615 18.5323" fill="#BBBBBB"/>
<path d="M114.794 8.7526V19.3991C114.794 19.8402 114.971 20.2632 115.287 20.575C115.602 20.8869 116.031 21.0621 116.477 21.0621H128V19.4071H119.867C119.758 19.4125 119.649 19.3959 119.546 19.3583C119.444 19.3207 119.35 19.263 119.271 19.1886C119.192 19.1141 119.129 19.0246 119.086 18.9253C119.043 18.8261 119.021 18.7193 119.021 18.6114V14.4896H127.879V12.8982H119.021V9.5483C119.021 9.44038 119.043 9.33355 119.086 9.23432C119.129 9.1351 119.192 9.04554 119.271 8.97111C119.35 8.89668 119.444 8.83892 119.546 8.80136C119.649 8.76379 119.758 8.7472 119.867 8.7526H128V7.10549H116.501C116.28 7.10444 116.062 7.14648 115.858 7.22919C115.653 7.31189 115.468 7.43364 115.311 7.58743C115.155 7.74122 115.031 7.92403 114.946 8.12535C114.862 8.32667 114.818 8.54253 114.818 8.76055" fill="#BBBBBB"/>
<path d="M57.5903 31.0956C57.4435 31.4427 57.2424 31.7649 56.9944 32.0505C56.7457 32.3512 56.446 32.6069 56.1087 32.8064C55.743 33.0262 55.347 33.1924 54.933 33.2997C54.4632 33.4248 53.9783 33.4863 53.4917 33.4827C52.872 33.4946 52.2553 33.3948 51.6718 33.1883C51.1705 33.0123 50.7084 32.7421 50.311 32.3926C49.9454 32.0672 49.6544 31.6685 49.4575 31.2229C49.2634 30.7644 49.1648 30.2718 49.1676 29.7748C49.1641 29.2802 49.2627 28.7901 49.4575 28.3345C49.6372 27.8917 49.9119 27.4927 50.2627 27.1649C50.6577 26.8121 51.1205 26.5415 51.6235 26.3691C52.2142 26.1699 52.8354 26.073 53.4595 26.0827C53.9611 26.0768 54.4616 26.1329 54.9491 26.2498C55.357 26.3565 55.7474 26.5199 56.1087 26.7352C56.4304 26.9334 56.7184 27.1804 56.9622 27.4672C57.1948 27.7548 57.3896 28.0702 57.542 28.4061H55.5048C55.4136 28.1844 55.2975 27.9736 55.1585 27.7775C55.0219 27.5941 54.8653 27.4259 54.6915 27.2762C54.5182 27.1403 54.3255 27.0303 54.1198 26.95C53.8642 26.8599 53.5923 26.8239 53.3218 26.8445C53.0513 26.865 52.7881 26.9417 52.5496 27.0694C52.2681 27.2325 52.0218 27.4488 51.8248 27.7059C51.6149 27.9861 51.4518 28.2977 51.3417 28.6289C51.227 28.9975 51.17 29.3812 51.1726 29.7668C51.1661 30.1643 51.2287 30.56 51.3578 30.9365C51.4657 31.2726 51.6319 31.5876 51.849 31.8675C52.048 32.1172 52.2976 32.3232 52.5818 32.4722C52.8558 32.62 53.1633 32.6967 53.4756 32.695C53.6951 32.6935 53.9128 32.6559 54.1198 32.5836C54.3274 32.5019 54.5225 32.3921 54.6995 32.2573C54.8825 32.1093 55.045 31.9381 55.1827 31.7481C55.3305 31.5448 55.4497 31.3227 55.537 31.0877L57.5903 31.0956Z" fill="#BBBBBB"/>
<path d="M64.5312 26.377H66.6168V33.1882H64.5312V26.377Z" fill="#BBBBBB"/>
<path d="M81.9487 32.6233C81.9525 32.7768 81.8946 32.9256 81.7877 33.037C81.7242 33.0954 81.6493 33.1404 81.5676 33.1691C81.4859 33.1978 81.3991 33.2098 81.3126 33.2041H80.1933C79.9862 33.2173 79.781 33.1581 79.6136 33.037C79.4659 32.9191 79.3405 32.7764 79.2432 32.6153L76.1752 27.8411V33.1882H74.0896V26.9579C74.0849 26.808 74.1399 26.6623 74.2426 26.5521C74.3039 26.4902 74.3783 26.4424 74.4604 26.4121C74.5425 26.3818 74.6304 26.3699 74.7177 26.377H75.9417C76.1381 26.37 76.3311 26.4289 76.4892 26.5441C76.6338 26.6472 76.7568 26.7769 76.8516 26.926L79.8551 31.7003V26.3929H81.9487V32.6233Z" fill="#BBBBBB"/>
<path d="M95.7583 29.1633V29.959H91.3859V31.8846C91.3819 31.9482 91.3819 32.012 91.3859 32.0756C91.3905 32.1315 91.4131 32.1845 91.4503 32.2268C91.486 32.2759 91.5369 32.3122 91.5953 32.3302C91.6835 32.359 91.7761 32.3725 91.869 32.37H95.8147V33.1657H90.331C90.1943 33.1741 90.0571 33.1741 89.9204 33.1657C89.7986 33.1468 89.683 33.1005 89.5822 33.0304C89.4804 32.9571 89.4044 32.8542 89.3648 32.736C89.303 32.5652 89.2757 32.3841 89.2842 32.2029V27.373C89.2802 27.192 89.3074 27.0118 89.3648 26.8399C89.4101 26.7225 89.4883 26.6204 89.5902 26.5455C89.6808 26.4735 89.7893 26.4268 89.9043 26.4102C90.0249 26.4023 90.146 26.4023 90.2666 26.4102H95.8147V27.2059H91.9254C91.7811 27.1948 91.6365 27.2222 91.5067 27.2855C91.4181 27.3412 91.3778 27.4764 91.3778 27.6913V29.1713L95.7583 29.1633Z" fill="#BBBBBB"/>
<path d="M106.983 33.188H106.774C106.707 33.1941 106.639 33.1802 106.58 33.1483C106.509 33.1039 106.446 33.0473 106.395 32.9811C106.313 32.8664 106.248 32.7404 106.202 32.6072L104.422 28.1433V33.188H103.19V26.9497C103.189 26.7989 103.247 26.6534 103.352 26.5439C103.414 26.4847 103.489 26.4393 103.571 26.4105C103.653 26.3817 103.74 26.3702 103.827 26.3768H105.163C105.357 26.3697 105.548 26.4287 105.703 26.5439C105.843 26.6488 105.951 26.789 106.017 26.9497L107.466 30.8248L109.028 26.9497C109.094 26.791 109.199 26.6513 109.334 26.5439C109.486 26.4274 109.674 26.3682 109.866 26.3768H111.307C111.394 26.3702 111.481 26.3817 111.563 26.4105C111.645 26.4393 111.719 26.4847 111.782 26.5439C111.887 26.6534 111.945 26.7989 111.943 26.9497V33.188H109.85V28.0239L107.957 32.6867C107.923 32.7949 107.871 32.897 107.804 32.9891C107.755 33.0479 107.695 33.0965 107.627 33.1323C107.57 33.163 107.507 33.1794 107.442 33.1801H106.991L106.983 33.188Z" fill="#BBBBBB"/>
<path d="M125.487 33.1883L124.779 31.8277H120.809L120.092 33.1883H118.731L122.226 26.8227C122.293 26.6885 122.396 26.5754 122.524 26.4965C122.657 26.415 122.81 26.371 122.967 26.3691H123.668C123.824 26.371 123.977 26.415 124.11 26.4965C124.244 26.572 124.35 26.6858 124.416 26.8227L127.678 33.1883H125.487ZM121.22 31.016H124.36L123.168 28.6926L123.015 28.4618C122.989 28.4293 122.956 28.4031 122.919 28.3852C122.881 28.3672 122.84 28.3581 122.798 28.3584C122.753 28.3565 122.708 28.3656 122.667 28.385C122.626 28.4045 122.591 28.4336 122.564 28.4698C122.506 28.5371 122.457 28.6121 122.419 28.6926L121.22 31.016Z" fill="#BBBBBB"/>
</g>
<defs>
<clipPath id="clip0_4410_5173">
<rect width="128" height="40" fill="white"/>
</clipPath>
</defs>
</svg>
