<svg width="113" height="48" viewBox="0 0 113 48" fill="none" xmlns="http://www.w3.org/2000/svg">
<g clip-path="url(#clip0_4410_5110)">
<path d="M42.0169 44.4277H41.1436L39.8521 45.9395V44.4277H39.1387V47.939H39.8521V46.3053H39.8644L41.1436 47.939H42.0784L40.5532 46.0859L42.0169 44.4277Z" fill="#BBBBBB"/>
<path d="M45.387 44.8664C45.2355 44.7041 45.051 44.5753 44.8458 44.4884C44.6097 44.4025 44.3594 44.3612 44.1079 44.3665C43.8798 44.3575 43.6523 44.3963 43.4404 44.4804C43.2285 44.5644 43.0368 44.6918 42.8779 44.8542C42.5593 45.2178 42.3961 45.6901 42.4227 46.1709C42.397 46.6533 42.5551 47.1276 42.8656 47.4999C43.0308 47.6718 43.2321 47.8057 43.4552 47.8921C43.6784 47.9785 43.918 48.0152 44.157 47.9997C44.41 48.0093 44.662 47.9635 44.8951 47.8656C45.1087 47.7878 45.2991 47.6578 45.4486 47.4877C45.599 47.3221 45.7121 47.1268 45.7807 46.9146C45.8561 46.6739 45.8935 46.423 45.8913 46.1709C45.8944 45.9228 45.8571 45.6757 45.7807 45.4394C45.6934 45.2221 45.559 45.0265 45.387 44.8664V44.8664ZM45.055 46.6464C45.0161 46.7934 44.9539 46.9334 44.8705 47.0609C44.7897 47.1754 44.6848 47.2711 44.563 47.3414C44.4222 47.413 44.2662 47.4504 44.1079 47.4504C43.9496 47.4504 43.7935 47.413 43.6527 47.3414C43.5309 47.2711 43.426 47.1754 43.3452 47.0609C43.2582 46.9354 43.1956 46.7948 43.1607 46.6464C43.1413 46.4885 43.1413 46.3288 43.1607 46.1709C43.1561 46.0142 43.1769 45.8578 43.2223 45.7076C43.2594 45.5658 43.3174 45.4303 43.3945 45.3053C43.473 45.1844 43.5836 45.0874 43.7143 45.0249C43.8504 44.9523 44.0025 44.9143 44.157 44.9143C44.3116 44.9143 44.4638 44.9523 44.5999 45.0249C44.7305 45.0874 44.8412 45.1844 44.9197 45.3053C44.9967 45.4303 45.0548 45.5658 45.0919 45.7076C45.1312 45.859 45.1519 46.0146 45.1533 46.1709C45.1342 46.3319 45.1013 46.491 45.055 46.6464Z" fill="#BBBBBB"/>
<path d="M48.3637 46.3167C48.3376 46.283 48.3041 46.2556 48.2658 46.2366C48.2274 46.2176 48.1852 46.2074 48.1423 46.207V46.207C48.3519 46.1845 48.5452 46.0843 48.6835 45.9266C48.8162 45.7794 48.8867 45.5873 48.8803 45.3901C48.887 45.2022 48.8401 45.0163 48.745 44.8536C48.6533 44.7255 48.5247 44.6278 48.376 44.5733C48.2189 44.5111 48.0528 44.474 47.884 44.4635C47.6587 44.4497 47.4328 44.4497 47.2075 44.4635H46.4326V47.9748H47.2075V46.5118H47.4412C47.5506 46.5046 47.6591 46.5347 47.7487 46.5971C47.8376 46.6698 47.902 46.7676 47.9332 46.8775L48.3637 47.9748H49.1509L48.5851 46.5971C48.53 46.4905 48.4549 46.3953 48.3637 46.3167V46.3167ZM48.0685 45.6949C48.0263 45.7589 47.9666 45.8096 47.8963 45.8412C47.8246 45.88 47.7443 45.9009 47.6626 45.9022H47.3797H47.2075V44.939H47.7364H47.9578C48.0281 44.9706 48.0878 45.0213 48.13 45.0853C48.178 45.1572 48.1997 45.2433 48.1915 45.3292C48.2004 45.3954 48.194 45.4627 48.1727 45.5261C48.1514 45.5895 48.1158 45.6472 48.0685 45.6949V45.6949Z" fill="#BBBBBB"/>
<path d="M50.3194 46.4028H51.5863V45.842H50.3194V44.9764H51.697V44.4277H49.606V47.939H51.7093V47.3904H50.3194V46.4028Z" fill="#BBBBBB"/>
<path d="M53.4558 44.4277L52.1274 47.939H52.8654L53.1729 47.1344H54.5874L54.8949 47.939H55.6822L54.2923 44.4277H53.4558ZM53.3205 46.5857L53.8372 45.1349L54.3414 46.5857H53.3205Z" fill="#BBBBBB"/>
<path d="M57.5271 47.939H58.2282V46.4028H59.4336V45.842H58.2282V44.9764H59.4951V44.4277H57.5271V47.939Z" fill="#BBBBBB"/>
<path d="M60.7742 46.4028H62.0411V45.842H60.7742V44.9764H62.1641V44.4277H60.0608V47.939H62.1641V47.3904H60.7742V46.4028Z" fill="#BBBBBB"/>
<path d="M65.313 44.7936C65.12 44.6576 64.9031 44.5584 64.6734 44.501C64.4059 44.4503 64.134 44.4257 63.8616 44.4279H62.8899V47.9392H63.8616C64.134 47.9413 64.4059 47.9168 64.6734 47.866C64.9031 47.8087 65.12 47.7095 65.313 47.5734C65.5043 47.4349 65.6567 47.2503 65.7558 47.037C65.9689 46.4876 65.9689 45.8794 65.7558 45.3301C65.6567 45.1168 65.5043 44.9321 65.313 44.7936ZM65.0793 46.6834C65.0193 46.8287 64.9316 46.9612 64.821 47.0735C64.7092 47.1732 64.58 47.2517 64.4397 47.3052C64.2997 47.3638 64.1489 47.3929 63.9969 47.3906H63.6033V44.9521H63.9969C64.1489 44.9498 64.2997 44.9789 64.4397 45.0375C64.58 45.0909 64.7092 45.1694 64.821 45.2691C64.9316 45.3815 65.0193 45.5139 65.0793 45.6593C65.2106 45.9798 65.2106 46.3385 65.0793 46.659V46.6834Z" fill="#BBBBBB"/>
<path d="M67.281 46.4028H68.5479V45.842H67.281V44.9764H68.6586V44.4277H66.5676V47.939H68.6709V47.3904H67.281V46.4028Z" fill="#BBBBBB"/>
<path d="M71.266 46.3171C71.2399 46.2834 71.2064 46.256 71.168 46.237C71.1297 46.218 71.0875 46.2079 71.0446 46.2074C71.2509 46.1855 71.4406 46.0849 71.5735 45.927C71.7061 45.7798 71.7766 45.5877 71.7703 45.3905C71.7807 45.2038 71.7381 45.018 71.6473 44.8541C71.55 44.7313 71.4231 44.6348 71.2783 44.5737C71.1173 44.5103 70.947 44.4732 70.774 44.4639C70.5487 44.4495 70.3227 44.4495 70.0974 44.4639H69.3472V47.9752H70.0606V46.5122H70.2943C70.4034 46.5069 70.5113 46.5368 70.6018 46.5975C70.6827 46.6769 70.7456 46.7725 70.7863 46.8779L71.2045 47.9752H72.004L71.4382 46.5975C71.3978 46.4947 71.3395 46.3998 71.266 46.3171V46.3171ZM70.9708 45.6953C70.9286 45.7593 70.8688 45.8101 70.7986 45.8416C70.7268 45.8804 70.6466 45.9013 70.5649 45.9026H70.282H70.0483V44.9394H70.5772H70.8109C70.8811 44.971 70.9408 45.0217 70.9831 45.0857C71.0252 45.1601 71.0465 45.2443 71.0446 45.3296C71.0628 45.4563 71.0368 45.5853 70.9708 45.6953V45.6953Z" fill="#BBBBBB"/>
<path d="M73.517 44.4277L72.1394 47.939H72.8774L73.1849 47.1344H74.624L74.9315 47.939H75.7187L74.3288 44.4277H73.517ZM73.394 46.5857L73.8983 45.1349L74.4149 46.5857H73.394Z" fill="#BBBBBB"/>
<path d="M75.3989 44.9764H76.4198V47.939H77.1209V44.9764H78.1418V44.4277H75.3989V44.9764Z" fill="#BBBBBB"/>
<path d="M79.2488 44.416H78.5354V47.9395H79.2488V44.416Z" fill="#BBBBBB"/>
<path d="M82.8775 44.8663C82.7211 44.704 82.5327 44.5753 82.324 44.4884C82.0924 44.4014 81.8459 44.36 81.5983 44.3665C81.3604 44.3518 81.1221 44.3878 80.8994 44.4719C80.6766 44.556 80.4746 44.6863 80.3068 44.8541C80.0126 45.2334 79.853 45.6985 79.853 46.177C79.853 46.6555 80.0126 47.1205 80.3068 47.4998C80.4704 47.6739 80.6715 47.8092 80.895 47.8957C81.1186 47.9822 81.359 48.0178 81.5983 47.9997C81.8511 48.007 82.1026 47.9613 82.3363 47.8656C82.5462 47.7873 82.7325 47.6572 82.8775 47.4876C83.0317 47.3228 83.1491 47.1275 83.2219 46.9146C83.2974 46.6738 83.3347 46.423 83.3326 46.1709C83.338 45.9216 83.2962 45.6735 83.2096 45.4394C83.1411 45.2272 83.0279 45.0319 82.8775 44.8663V44.8663ZM82.5331 46.6464C82.4983 46.7927 82.4402 46.9327 82.3609 47.0609C82.2754 47.1757 82.1665 47.2712 82.0411 47.3413C81.9064 47.4173 81.7532 47.4552 81.5983 47.451C81.4393 47.4568 81.2818 47.4189 81.1432 47.3413C81.0178 47.2712 80.9089 47.1757 80.8234 47.0609C80.7441 46.9327 80.686 46.7927 80.6512 46.6464C80.6111 46.491 80.5904 46.3313 80.5897 46.1709C80.5912 46.0146 80.6118 45.859 80.6512 45.7076C80.6875 45.5635 80.75 45.4271 80.8357 45.3052C80.9093 45.1848 81.016 45.0876 81.1432 45.0248C81.2998 44.9498 81.4746 44.9202 81.6475 44.9395C81.8021 44.9382 81.9545 44.9759 82.0903 45.0492C82.2151 45.1154 82.3209 45.2119 82.3978 45.3296C82.4835 45.4515 82.5461 45.5878 82.5823 45.732C82.6217 45.8833 82.6423 46.0389 82.6438 46.1953C82.6212 46.35 82.5799 46.5014 82.5208 46.6464H82.5331Z" fill="#BBBBBB"/>
<path d="M86.1737 47.049H86.1614L84.8084 44.4277H83.9351V47.939H84.6116V45.3056H84.6239L85.9892 47.939H86.8502V44.4277H86.1737V47.049Z" fill="#BBBBBB"/>
<path d="M91.9055 44.8663C91.754 44.704 91.5695 44.5752 91.3643 44.4884C91.1282 44.4025 90.8778 44.3611 90.6263 44.3665C90.3884 44.3518 90.1501 44.3878 89.9274 44.4719C89.7047 44.556 89.5026 44.6863 89.3348 44.8541C89.0406 45.2334 88.8811 45.6985 88.8811 46.177C88.8811 46.6555 89.0406 47.1205 89.3348 47.4998C89.5001 47.6718 89.7014 47.8057 89.9245 47.8921C90.1477 47.9784 90.3873 48.0152 90.6263 47.9997C90.8793 48.0093 91.1313 47.9635 91.3643 47.8656C91.578 47.7877 91.7684 47.6577 91.9179 47.4876C92.0682 47.3221 92.1814 47.1267 92.2499 46.9146C92.3254 46.6738 92.3627 46.423 92.3606 46.1709C92.3637 45.9227 92.3263 45.6757 92.2499 45.4394C92.1723 45.2287 92.0555 45.0343 91.9055 44.8663V44.8663ZM91.5611 46.6464C91.537 46.7898 91.4816 46.9263 91.3987 47.0463C91.3159 47.1664 91.2076 47.267 91.0815 47.3413C90.9418 47.4161 90.785 47.4539 90.6263 47.451C90.4674 47.4556 90.3103 47.4177 90.1712 47.3413C90.0494 47.271 89.9445 47.1754 89.8637 47.0609C89.7766 46.9353 89.7141 46.7947 89.6792 46.6464C89.6598 46.4884 89.6598 46.3288 89.6792 46.1709C89.6746 46.0142 89.6953 45.8578 89.7407 45.7076C89.7778 45.5658 89.8359 45.4302 89.9129 45.3052C89.9914 45.1843 90.1021 45.0873 90.2328 45.0248C90.3689 44.9523 90.521 44.9143 90.6755 44.9143C90.8301 44.9143 90.9822 44.9523 91.1184 45.0248C91.249 45.0873 91.3596 45.1843 91.4381 45.3052C91.5152 45.4302 91.5733 45.5658 91.6104 45.7076C91.6497 45.859 91.6704 46.0146 91.6718 46.1709C91.6552 46.3334 91.618 46.4931 91.5611 46.6464V46.6464Z" fill="#BBBBBB"/>
<path d="M93.0125 47.939H93.7258V46.4028H94.9312V45.842H93.7258V44.9764H94.9928V44.4277H93.0125V47.939Z" fill="#BBBBBB"/>
<path d="M98.6581 46.1589C98.8535 46.1331 99.0328 46.0378 99.1624 45.8907C99.2285 45.823 99.2801 45.7427 99.3139 45.6546C99.3477 45.5666 99.3632 45.4727 99.3592 45.3786C99.3649 45.2171 99.3266 45.0571 99.2485 44.9153C99.1816 44.8022 99.089 44.7062 98.9779 44.6349C98.8634 44.5725 98.7384 44.5312 98.609 44.5129C98.478 44.5009 98.3463 44.5009 98.2154 44.5129H96.9854V48.0243H98.2154H98.6212C98.7647 48.0015 98.9025 47.9518 99.0272 47.878C99.1596 47.8015 99.2698 47.6923 99.347 47.561C99.4307 47.4032 99.473 47.2271 99.4699 47.0489C99.4736 46.9461 99.4546 46.8437 99.4142 46.749C99.3738 46.6542 99.3131 46.5694 99.2362 46.5003C99.093 46.3193 98.8869 46.1976 98.6581 46.1589V46.1589ZM97.6372 44.9397H98.1785C98.2476 44.9273 98.3184 44.9273 98.3875 44.9397C98.4504 44.9668 98.5024 45.014 98.5352 45.0738C98.5769 45.1438 98.5982 45.224 98.5966 45.3054C98.5966 45.3827 98.5753 45.4586 98.5352 45.5249C98.4984 45.5815 98.4476 45.6277 98.3875 45.659L98.1661 45.72H97.6372V44.9397ZM98.6459 47.1099C98.6004 47.1709 98.5415 47.221 98.4736 47.2562C98.4004 47.2933 98.3214 47.318 98.2399 47.3293H97.9693H97.6372V46.3052H97.9693H98.2522C98.3302 46.3147 98.4055 46.3396 98.4736 46.3783C98.5448 46.4143 98.6044 46.4692 98.6459 46.5368C98.6877 46.6244 98.7087 46.7204 98.7073 46.8173C98.7399 46.9253 98.7356 47.041 98.695 47.1464L98.6459 47.1099Z" fill="#BBBBBB"/>
<path d="M101.094 44.4277L99.7161 47.939H100.454L100.762 47.1344H102.201L102.508 47.939H103.295L101.905 44.4277H101.094ZM100.971 46.5857L101.475 45.1349L101.992 46.5857H100.971Z" fill="#BBBBBB"/>
<path d="M105.952 47.049H105.94L104.587 44.4277H103.714V47.939H104.402V45.3056H104.415L105.768 47.939H106.641V44.4277H105.952V47.049Z" fill="#BBBBBB"/>
<path d="M110.294 44.4277H109.421L108.141 45.9395V44.4277H107.428V47.939H108.141V46.3053L109.421 47.939H110.355L108.83 46.0859L110.294 44.4277Z" fill="#BBBBBB"/>
<path d="M112.926 46.5249C112.873 46.4138 112.797 46.3143 112.705 46.2323C112.612 46.159 112.513 46.0937 112.41 46.0373L112.041 45.891C111.881 45.8351 111.728 45.7615 111.585 45.6715C111.541 45.6422 111.506 45.602 111.482 45.555C111.459 45.508 111.447 45.4558 111.45 45.4033C111.432 45.3271 111.432 45.2478 111.45 45.1716C111.482 45.1121 111.528 45.0617 111.585 45.0253L111.758 44.94H111.954C112.205 44.9386 112.453 44.9928 112.68 45.0985L112.742 44.5133C112.468 44.4258 112.181 44.3846 111.893 44.3913C111.735 44.3867 111.577 44.4073 111.426 44.4523C111.284 44.4881 111.15 44.5501 111.032 44.6352C110.913 44.7236 110.82 44.8413 110.761 44.9766C110.683 45.1272 110.645 45.295 110.651 45.4642C110.651 45.6029 110.68 45.74 110.737 45.8666C110.785 45.9741 110.856 46.0698 110.946 46.147C111.031 46.2206 111.126 46.2821 111.229 46.3299L111.585 46.4884C111.754 46.5457 111.916 46.6235 112.065 46.72C112.113 46.7546 112.152 46.8006 112.178 46.8538C112.204 46.9071 112.216 46.9658 112.213 47.0248C112.214 47.0924 112.196 47.1589 112.161 47.217C112.127 47.2751 112.076 47.3225 112.016 47.354C111.887 47.4351 111.738 47.4774 111.585 47.4759C111.442 47.4608 111.302 47.4281 111.167 47.3784C111.029 47.3436 110.897 47.2902 110.774 47.2199L110.712 47.8539H110.786L111.216 47.9392C111.351 47.9529 111.487 47.9529 111.622 47.9392C111.797 47.9446 111.971 47.924 112.139 47.8783C112.292 47.8428 112.438 47.7809 112.569 47.6954C112.689 47.6097 112.786 47.4968 112.852 47.3662C112.919 47.2121 112.952 47.0461 112.951 46.8785C112.963 46.7601 112.955 46.6406 112.926 46.5249Z" fill="#BBBBBB"/>
<path d="M41.3157 37.2715H39.1509V40.6974C39.1606 41.0639 39.3159 41.4118 39.5832 41.6653C39.8504 41.9188 40.2078 42.0573 40.5776 42.0508H49.8026V40.6365H41.3157V37.2715Z" fill="#BBBBBB"/>
<path d="M51.4878 34.6992H36.4941V36.1257H51.4878V34.6992Z" fill="#BBBBBB"/>
<path d="M63.5294 31.199H64.4273V35.0883H66.5306V26.2734H64.4273V29.6262H63.5294V26.2734H61.4507V35.0883H63.5294V31.199Z" fill="#BBBBBB"/>
<path d="M73.9476 36.7109H71.8074V40.8928C71.8074 41.2161 71.937 41.5263 72.1676 41.7549C72.3983 41.9836 72.7112 42.112 73.0374 42.112H81.8196V40.6733H73.9599L73.9476 36.7109Z" fill="#BBBBBB"/>
<path d="M96.5549 26.2734H94.3901V35.1492H96.5549V31.6623H98.4122V30.1139H96.5549V26.2734Z" fill="#BBBBBB"/>
<path d="M94.3901 37.7715H89.5931V36.2109H87.416V40.8927C87.416 41.216 87.5456 41.5262 87.7763 41.7548C88.0069 41.9834 88.3198 42.1119 88.646 42.1119H96.5303V36.2353H94.3655L94.3901 37.7715ZM94.3901 40.6366H89.5931V39.1614H94.3901V40.6366Z" fill="#BBBBBB"/>
<path d="M43.9708 33.6265C44.7075 33.5327 45.4013 33.2297 45.9692 32.7538C46.5371 32.278 46.9549 31.6494 47.1727 30.9434C47.3905 30.2373 47.399 29.4838 47.1972 28.7732C46.9953 28.0625 46.5917 27.4248 46.0346 26.9364C45.4776 26.448 44.7907 26.1296 44.0563 26.0195C43.322 25.9094 42.5713 26.0121 41.8941 26.3154C41.217 26.6187 40.6422 27.1097 40.2385 27.7296C39.8349 28.3495 39.6195 29.0719 39.6182 29.8104C39.6907 30.8888 40.1889 31.895 41.0041 32.6097C41.8194 33.3245 42.8858 33.69 43.9708 33.6265ZM43.3381 27.4695C43.8146 27.4126 44.2971 27.5011 44.7218 27.7233C45.1465 27.9455 45.4933 28.2908 45.716 28.7134C45.9388 29.1361 46.0271 29.616 45.9692 30.0897C45.9113 30.5634 45.7099 31.0084 45.3918 31.3657C45.0737 31.7229 44.6539 31.9756 44.188 32.0901C43.7222 32.2046 43.2323 32.1756 42.7834 32.0069C42.3346 31.8382 41.9479 31.5377 41.6747 31.1454C41.4015 30.7531 41.2547 30.2875 41.2538 29.8104C41.2234 29.2264 41.4248 28.6539 41.8146 28.2161C42.2045 27.7784 42.7515 27.5103 43.3381 27.4695Z" fill="#BBBBBB"/>
<path d="M60.4543 31.3698C60.449 30.5876 60.1659 29.8322 59.6548 29.2362L59.4703 29.0168H60.8233V27.6147H57.5884V25.9688H55.3375V27.6147H52.0288V29.0168H53.4433L53.2711 29.2362C52.7533 29.8283 52.4693 30.5862 52.4716 31.3698C52.5671 32.3535 53.0289 33.2666 53.7668 33.931C54.5048 34.5954 55.466 34.9636 56.4629 34.9636C57.4599 34.9636 58.4211 34.5954 59.159 33.931C59.897 33.2666 60.3587 32.3535 60.4543 31.3698V31.3698ZM56.4568 33.4668C56.0216 33.5471 55.5721 33.4924 55.1695 33.3102C54.7668 33.128 54.4306 32.8272 54.2066 32.4488C53.9826 32.0704 53.8818 31.6327 53.9178 31.1955C53.9539 30.7582 54.1251 30.3426 54.408 30.0052C54.691 29.6678 55.072 29.4251 55.4991 29.3102C55.9263 29.1952 56.3788 29.2136 56.7951 29.3627C57.2113 29.5119 57.5711 29.7846 57.8253 30.1438C58.0795 30.503 58.2158 30.9311 58.2157 31.3698C58.257 31.8778 58.0961 32.3817 57.7674 32.7736C57.4386 33.1655 56.9682 33.4143 56.4568 33.4668V33.4668Z" fill="#BBBBBB"/>
<path d="M61.795 35.7832C59.0521 35.7832 56.875 37.3682 56.875 39.3067C56.875 41.2452 59.1013 42.818 61.795 42.818C64.4887 42.818 66.715 41.2452 66.715 39.3067C66.715 37.3682 64.5379 35.7832 61.795 35.7832ZM61.795 41.4037C61.3977 41.3143 61.034 41.1155 60.7457 40.8303C60.4573 40.5451 60.2559 40.1849 60.1648 39.7914C60.0736 39.3978 60.0964 38.9867 60.2304 38.6054C60.3644 38.2241 60.6043 37.888 60.9224 37.6357C61.2405 37.3835 61.624 37.2253 62.0287 37.1794C62.4334 37.1335 62.843 37.2018 63.2104 37.3763C63.5778 37.5508 63.888 37.8246 64.1054 38.1661C64.3228 38.5075 64.4387 38.9029 64.4395 39.3067C64.3536 39.9255 64.0313 40.4879 63.5393 40.8781C63.0472 41.2683 62.4229 41.4564 61.795 41.4037Z" fill="#BBBBBB"/>
<path d="M76.1737 33.2476H79.4947V36.9661H81.6472V26.3225H79.4824V27.7002H76.2353C75.799 27.2645 75.2795 26.9194 74.7072 26.685C74.1349 26.4505 73.5212 26.3314 72.902 26.3347C72.3206 26.2805 71.7342 26.3472 71.1803 26.5305C70.6265 26.7139 70.1173 27.0099 69.6855 27.3995C69.2537 27.7891 68.9087 28.2638 68.6727 28.7932C68.4366 29.3226 68.3147 29.8951 68.3147 30.4739C68.3147 31.0527 68.4366 31.6251 68.6727 32.1546C68.9087 32.684 69.2537 33.1587 69.6855 33.5483C70.1173 33.938 70.6265 34.2339 71.1803 34.4173C71.7342 34.6006 72.3206 34.6673 72.902 34.6131C74.1305 34.5982 75.3045 34.1082 76.1737 33.2476V33.2476ZM77.2439 29.334L77.1823 29.1145H79.5316V31.7358H77.1578V31.5651C77.2794 31.1691 77.3496 30.7594 77.3668 30.3459C77.366 30.005 77.3247 29.6653 77.2439 29.334V29.334ZM70.7248 30.3947C70.8087 29.9827 71.0089 29.6028 71.3021 29.2992C71.5953 28.9956 71.9694 28.7808 72.381 28.6797C72.7926 28.5787 73.2246 28.5956 73.6269 28.7284C74.0291 28.8613 74.385 29.1046 74.6532 29.4302C74.9214 29.7557 75.0907 30.1501 75.1416 30.5673C75.1925 30.9845 75.1228 31.4075 74.9406 31.787C74.7584 32.1665 74.4713 32.4869 74.1125 32.711C73.7538 32.935 73.3382 33.0534 72.9142 33.0525C72.2696 32.9848 71.6781 32.6676 71.2681 32.1699C70.8581 31.6722 70.6629 31.0342 70.7248 30.3947V30.3947Z" fill="#BBBBBB"/>
<path d="M92.5821 31.3698C92.579 30.5872 92.2956 29.8311 91.7826 29.2362L91.5981 29.0168H93.0126V27.6147H89.7162V25.9688H87.4653V27.6147H84.1074V29.0168H85.5219L85.3497 29.2362C84.8319 29.8283 84.5479 30.5862 84.5502 31.3698C84.6457 32.3535 85.1075 33.2666 85.8455 33.931C86.5834 34.5954 87.5446 34.9636 88.5416 34.9636C89.5385 34.9636 90.4997 34.5954 91.2376 33.931C91.9756 33.2666 92.4374 32.3535 92.5329 31.3698H92.5821ZM86.8872 31.3698C86.9546 31.0519 87.1115 30.7595 87.3397 30.5263C87.5679 30.2932 87.8581 30.1289 88.1767 30.0525C88.4952 29.9761 88.829 29.9908 89.1395 30.0947C89.45 30.1987 89.7244 30.3877 89.9309 30.64C90.1375 30.8922 90.2677 31.1972 90.3065 31.5198C90.3453 31.8423 90.2912 32.1692 90.1503 32.4625C90.0094 32.7558 89.7875 33.0035 89.5104 33.1769C89.2333 33.3504 88.9124 33.4424 88.5846 33.4425C88.0851 33.3841 87.6282 33.1349 87.3112 32.7478C86.9942 32.3608 86.8421 31.8664 86.8872 31.3698V31.3698Z" fill="#BBBBBB"/>
<path d="M110.503 26.2736V36.6124H105.903V34.7348C106.721 34.5815 107.463 34.1583 108.008 33.5341C108.553 32.9099 108.869 32.1213 108.904 31.2967C108.896 30.4443 108.557 29.6278 107.957 29.0168H109.384V27.6147H105.878V25.9688H103.652V27.6147H100.097V29.0168H101.524C100.925 29.6278 100.585 30.4443 100.577 31.2967C100.613 32.1322 100.936 32.9303 101.493 33.5582C102.051 34.186 102.808 34.6056 103.64 34.747V36.6124H99.2363V38.0266H110.503V42.0866H112.68V26.237L110.503 26.2736ZM102.889 31.2967C102.93 30.9388 103.074 30.6001 103.304 30.3216C103.534 30.043 103.841 29.8365 104.187 29.727C104.533 29.6174 104.904 29.6095 105.254 29.7042C105.605 29.7989 105.92 29.9921 106.163 30.2606C106.405 30.5291 106.563 30.8612 106.619 31.2171C106.675 31.5729 106.626 31.9372 106.477 32.2659C106.329 32.5946 106.088 32.8737 105.783 33.0695C105.478 33.2653 105.122 33.3694 104.759 33.3693C104.499 33.3553 104.244 33.2905 104.009 33.1787C103.774 33.0669 103.564 32.9102 103.39 32.7176C103.217 32.5251 103.083 32.3005 102.997 32.0566C102.911 31.8128 102.874 31.5545 102.889 31.2967Z" fill="#BBBBBB"/>
<path d="M13.0503 33.8935V27.0781L0 28.212V32.7596L13.0503 33.8935Z" fill="#DADADA"/>
<path d="M39.1386 6.80315V0L26.1006 6.09601V11.5458L39.1386 6.80315Z" fill="url(#paint0_linear_4410_5110)"/>
<path d="M26.1006 21.4091V14.5938L13.0503 18.5683V23.6768L26.1006 21.4091Z" fill="#DADADA"/>
<path d="M13.0503 33.8935V27.0781L26.1006 28.212V32.7596L13.0503 33.8935Z" fill="#D9D9D9"/>
<path d="M26.1006 21.4091V14.5938L39.1386 18.5683V23.6768L26.1006 21.4091Z" fill="#D9D9D9"/>
<path d="M39.1387 6.80315V0L52.189 6.09601V11.5458L39.1387 6.80315Z" fill="#D9D9D9"/>
<path d="M39.1386 6.80273L26.1006 11.5454L39.1386 15.52L52.1889 11.5454L39.1386 6.80273Z" fill="#B1B3B6"/>
<path d="M26.1006 21.4102L13.0503 23.6779L26.1006 25.9456L39.1386 23.6779L26.1006 21.4102Z" fill="#B1B3B6"/>
</g>
<defs>
<linearGradient id="paint0_linear_4410_5110" x1="26.1006" y1="5.76683" x2="39.1386" y2="5.76683" gradientUnits="userSpaceOnUse">
<stop stop-color="#E7E7E7"/>
</linearGradient>
<clipPath id="clip0_4410_5110">
<rect width="113" height="48" fill="white"/>
</clipPath>
</defs>
</svg>
