<svg width="98" height="34" viewBox="0 0 98 34" fill="none" xmlns="http://www.w3.org/2000/svg">
<path d="M88.0774 0.0582924C88.3363 0.0570127 88.5928 0.107329 88.8323 0.206352C89.0718 0.305375 89.2895 0.451152 89.473 0.635309C89.6564 0.819466 89.802 1.03837 89.9014 1.27945C90.0007 1.52053 90.0518 1.77904 90.0518 2.04011V6.31463C90.0518 6.84024 89.8448 7.34433 89.4764 7.71599C89.1079 8.08766 88.6082 8.29646 88.0871 8.29646H86.965C86.7428 8.29646 86.5297 8.20741 86.3725 8.04891C86.2154 7.8904 86.1271 7.67542 86.1271 7.45127V2.04011C86.1271 1.51702 86.3321 1.01513 86.6975 0.643882C87.0628 0.272634 87.5589 0.0621387 88.0774 0.0582924Z" fill="#BBBBBB"/>
<path d="M96.0665 29.2513H92.3489C92.0434 29.2513 91.741 29.1906 91.4588 29.0727C91.1766 28.9548 90.9202 28.782 90.7042 28.5641C90.4882 28.3463 90.3169 28.0877 90.2 27.803C90.0831 27.5184 90.0229 27.2133 90.0229 26.9052V15.33H96.0569C96.5722 15.33 97.0665 15.1235 97.4309 14.7559C97.7953 14.3884 98 13.8898 98 13.37C98 12.8502 97.7953 12.3517 97.4309 11.9841C97.0665 11.6165 96.5722 11.4101 96.0569 11.4101H87.018C86.8997 11.4101 86.7826 11.4335 86.6734 11.4792C86.5641 11.5248 86.4649 11.5918 86.3812 11.6761C86.2976 11.7604 86.2313 11.8606 86.186 11.9708C86.1408 12.081 86.1175 12.1991 86.1175 12.3184V26.7789C86.1203 27.081 86.1413 27.3827 86.1801 27.6824C86.3668 29.1931 87.0945 30.5828 88.2262 31.5901C89.3579 32.5975 90.8155 33.1528 92.3248 33.1518H96.0665C96.5774 33.1518 97.0673 32.9471 97.4286 32.5827C97.7898 32.2184 97.9928 31.7241 97.9928 31.2088C97.9928 30.6935 97.7898 30.1993 97.4286 29.835C97.0673 29.4706 96.5774 29.2659 96.0665 29.2659V29.2513Z" fill="#BBBBBB"/>
<path d="M80.9696 13.149C79.4431 11.2935 77.2134 10.3511 74.3481 10.3511C71.5888 10.3511 69.5325 11.2692 67.9482 13.0713C66.3639 14.8734 65.5693 17.3458 65.5693 20.4885V23.097C65.5693 26.264 66.3687 28.683 68.0108 30.5045C69.6529 32.326 71.7814 33.1518 74.69 33.1518C76.2714 33.19 77.8455 32.9229 79.3275 32.3649C80.1351 32.0393 80.9188 31.6562 81.6727 31.2186C81.8042 31.1324 81.9268 31.0331 82.0387 30.9223C82.0627 30.9223 82.1831 30.762 82.1831 30.762C82.4415 30.4404 82.5826 30.0392 82.5828 29.6253C82.5836 29.3156 82.5068 29.0107 82.3594 28.739C82.212 28.4674 81.9988 28.2377 81.7398 28.0714C81.4808 27.9051 81.1842 27.8077 80.8778 27.7881C80.5714 27.7684 80.265 27.8273 79.9872 27.9592L79.7946 28.0612C79.2368 28.3711 78.6612 28.6468 78.0706 28.887C77.0005 29.288 75.8651 29.4824 74.7238 29.4602C73.0238 29.4602 71.9018 28.9744 70.9435 27.8864C69.9852 26.7983 69.5373 25.3702 69.4988 23.4273H80.7818C81.5716 23.3641 83.2426 22.9804 83.2377 20.7314V20.5566C83.2281 17.4624 82.4673 14.9657 80.9696 13.149ZM70.8279 15.6457C71.2405 15.1094 71.7772 14.6833 72.3909 14.4047C73.0045 14.1261 73.6766 14.0035 74.3481 14.0476C75.9469 14.0476 77.1364 14.5334 77.9936 15.5583C78.9607 16.7742 79.4844 18.2885 79.4768 19.8474H69.4892C69.4599 18.3356 69.931 16.8572 70.8279 15.6457Z" fill="#BBBBBB"/>
<path d="M9.48193 10.2928C7.48801 10.291 5.54458 10.9252 3.92954 12.1047V1.97697C3.92826 1.4522 3.72069 0.949358 3.35236 0.578744C2.98404 0.20813 2.48502 -1.57622e-06 1.96476 0C1.44451 -1.57622e-06 0.945486 0.20813 0.577159 0.578744C0.208831 0.949358 0.00127514 1.4522 0 1.97697V31.1214C0 31.3817 0.0508083 31.6394 0.149547 31.8798C0.248286 32.1203 0.393023 32.3387 0.575469 32.5228C0.757914 32.7068 0.974504 32.8528 1.21288 32.9524C1.45126 33.052 1.70674 33.1032 1.96476 33.1032C2.22278 33.1032 2.47826 33.052 2.71664 32.9524C2.95502 32.8528 3.17162 32.7068 3.35407 32.5228C3.53651 32.3387 3.68124 32.1203 3.77997 31.8798C3.87871 31.6394 3.92954 31.3817 3.92954 31.1214V19.8571C3.97208 18.3996 4.57597 17.0163 5.61306 16.0005C6.65014 14.9848 8.03879 14.4166 9.48433 14.4166C10.9299 14.4166 12.3185 14.9848 13.3556 16.0005C14.3927 17.0163 14.9966 18.3996 15.0391 19.8571V31.1117C15.0391 31.372 15.09 31.6297 15.1887 31.8701C15.2874 32.1106 15.4322 32.329 15.6146 32.5131C15.797 32.6971 16.0136 32.8431 16.252 32.9427C16.4904 33.0423 16.7459 33.0935 17.0039 33.0935C17.5242 33.0922 18.0227 32.8829 18.3901 32.5113C18.7575 32.1398 18.9639 31.6365 18.9639 31.1117V19.8571C18.9639 17.3205 17.9649 14.8878 16.1867 13.0942C14.4085 11.3005 11.9967 10.2928 9.48193 10.2928Z" fill="#BBBBBB"/>
<path d="M45.676 33.1518C46.1963 33.1518 46.6953 32.9437 47.0636 32.5731C47.4319 32.2025 47.6395 31.6996 47.6408 31.1748V19.9202C47.6189 19.1706 47.7464 18.4241 48.0157 17.725C48.285 17.0259 48.6907 16.3884 49.2086 15.8504C49.7266 15.3123 50.3464 14.8845 51.0312 14.5924C51.7161 14.3003 52.452 14.1498 53.1956 14.1498C53.9391 14.1498 54.6751 14.3003 55.36 14.5924C56.0448 14.8845 56.6646 15.3123 57.1825 15.8504C57.7005 16.3884 58.1062 17.0259 58.3755 17.725C58.6448 18.4241 58.7723 19.1706 58.7504 19.9202V31.1748C58.7504 31.6992 58.9569 32.202 59.3245 32.5728C59.692 32.9435 60.1905 33.1518 60.7103 33.1518C60.9681 33.1524 61.2235 33.1018 61.4619 33.0027C61.7002 32.9037 61.9168 32.7581 62.0994 32.5745C62.2819 32.3909 62.4267 32.1727 62.5255 31.9325C62.6243 31.6923 62.6751 31.4349 62.6751 31.1748V19.9202C62.6751 17.3836 61.6761 14.9509 59.8979 13.1573C58.1197 11.3637 55.7079 10.356 53.1932 10.356C50.6784 10.356 48.2667 11.3637 46.4884 13.1573C44.7102 14.9509 43.7113 17.3836 43.7113 19.9202V31.1748C43.7125 31.6996 43.9201 32.2025 44.2884 32.5731C44.6568 32.9437 45.1558 33.1518 45.676 33.1518Z" fill="#BBBBBB"/>
<path d="M38.8571 11.4101C38.336 11.4101 37.8363 11.6189 37.4678 11.9905C37.0994 12.3622 36.8924 12.8663 36.8924 13.3919V24.6465C36.8498 26.1039 36.2459 27.4873 35.2088 28.5031C34.1717 29.5188 32.7831 30.0869 31.3376 30.0869C29.892 30.0869 28.5034 29.5188 27.4663 28.5031C26.4292 27.4873 25.8253 26.1039 25.7827 24.6465V13.3919C25.7827 12.8663 25.5757 12.3622 25.2073 11.9905C24.8388 11.6189 24.3391 11.4101 23.818 11.4101C23.2969 11.4101 22.7971 11.6189 22.4287 11.9905C22.0602 12.3622 21.8532 12.8663 21.8532 13.3919V24.6465C21.9091 27.1464 22.9328 29.525 24.7054 31.2731C26.478 33.0212 28.8585 34 31.3376 34C33.8166 34 36.1971 33.0212 37.9697 31.2731C39.7423 29.525 40.766 27.1464 40.8219 24.6465V13.3919C40.8219 12.8663 40.6149 12.3622 40.2464 11.9905C39.878 11.6189 39.3782 11.4101 38.8571 11.4101Z" fill="#BBBBBB"/>
</svg>
