<svg width="168" height="30" viewBox="0 0 168 30" fill="none" xmlns="http://www.w3.org/2000/svg">
<g clip-path="url(#clip0_4410_4748)">
<path d="M14.3334 0.218653C11.4016 0.334722 8.5703 1.31773 6.19837 3.0431C3.82644 4.76846 2.02068 7.1585 1.00994 9.91026C-0.000798886 12.662 -0.170996 15.6516 0.520925 18.5001C1.21285 21.3486 2.73573 23.9278 4.89655 25.9107C7.05737 27.8936 9.75883 29.1909 12.6585 29.6383C15.5582 30.0857 18.5256 29.663 21.1846 28.4237C23.8435 27.1844 26.0743 25.1844 27.5942 22.6772C29.1141 20.1699 29.8547 17.2683 29.722 14.3402C29.545 10.4328 27.8271 6.75416 24.9436 4.10814C22.0602 1.46211 18.2456 0.0637679 14.3334 0.218653V0.218653Z" fill="url(#paint0_radial_4410_4748)"/>
<path d="M14.3334 0.0220176C11.3644 0.155962 8.50201 1.16711 6.10869 2.92741C3.71536 4.68771 1.89879 7.11797 0.889034 9.9104C-0.120722 12.7028 -0.278239 15.7318 0.436434 18.6138C1.15111 21.4957 2.70582 24.1009 4.90367 26.0995C7.10152 28.0981 9.84363 29.4001 12.7827 29.8407C15.7218 30.2813 18.7257 29.8406 21.4139 28.5744C24.1021 27.3082 26.3538 25.2736 27.8836 22.7281C29.4135 20.1826 30.1527 17.2408 30.0078 14.2753C29.8254 10.3035 28.0719 6.56652 25.1328 3.88563C22.1937 1.20474 18.3093 -0.200736 14.3334 -0.0219156V0.0220176ZM16.0701 14.5608L20.291 18.3602C24.9955 22.2695 23.3907 25.8492 21.588 27.145C20.1535 28.1175 18.4632 28.6447 16.7296 28.6604C16.5538 28.6604 16.202 28.6604 16.202 28.2651C16.202 27.8698 16.6857 27.8258 16.6857 27.8258C21.0824 26.9693 19.8293 24.0484 18.2465 22.5549C17.587 21.94 11.4096 16.6252 11.4096 16.6252C5.5179 11.552 5.97956 7.57691 5.97956 7.57691C6.26535 2.72332 10.5522 1.51542 13.7838 1.77896C14.1355 1.77896 14.3554 2.04251 14.2894 2.34998C14.2235 2.65744 13.7179 2.72333 13.7179 2.72333C12.7953 2.70258 11.8841 2.93016 11.0798 3.38219C8.46372 5.11718 9.25515 8.08205 12.7066 11.3983L14.0916 12.694L16.0701 14.5608ZM14.0476 27.167C14.0476 27.6282 12.9484 27.8478 11.6294 27.716C9.64931 27.5605 7.76685 26.7929 6.24337 25.5198C4.79486 24.2018 3.74405 22.5054 3.20961 20.6223C2.70398 18.9093 2.50612 16.9327 3.31952 17.0864C3.58333 17.0864 4.00102 18.2285 4.46268 19.0191C4.77186 19.6048 5.18964 20.1265 5.69377 20.5564C5.86964 20.6882 6.44122 19.4364 7.25462 18.7116C8.06802 17.9869 8.26587 18.1845 8.35381 19.3705C8.44174 20.5564 8.17794 22.533 8.61762 22.533C9.0573 22.533 9.89268 22.2475 11.8492 22.0718C12.5967 22.0718 13.0144 22.0718 12.2889 23.126C11.787 23.9096 11.1374 24.5884 10.3763 25.1245C12.0251 26.6838 14.0476 26.5081 14.0476 27.167V27.167ZM15.3666 12.0571C15.2637 11.4318 15.2637 10.7938 15.3666 10.1684C15.562 8.88863 15.9473 7.64509 16.5098 6.47881C17.1913 4.78775 15.5425 3.77751 15.8283 3.16257C16.1141 2.54764 17.3672 3.38219 18.6862 3.47004C20.0052 3.55789 20.4888 3.47004 21.3682 3.47004C22.5401 3.55885 23.6548 4.01195 24.5559 4.76579C25.1494 5.42464 24.2701 6.23724 23.2148 5.73212C22.1596 5.22699 21.4781 5.60035 22.0497 6.39098C22.4754 6.91054 23.0783 7.25467 23.7425 7.3573C24.1101 7.40124 24.4546 7.56003 24.7266 7.811C24.9987 8.06198 25.1845 8.39234 25.2576 8.75502C25.3307 9.11769 25.2874 9.49417 25.1337 9.83078C24.9801 10.1674 24.724 10.4469 24.402 10.6296C22.9291 11.7058 21.4342 11.2665 20.8406 9.13622C20.5328 8.08205 19.8074 7.55496 19.0379 7.86243C18.2685 8.16989 18.7302 9.53153 19.3017 10.8273C20.4669 13.7702 17.587 13.6823 17.2572 13.6384C16.8324 13.5683 16.4337 13.387 16.1017 13.1132C15.7696 12.8393 15.516 12.4826 15.3666 12.0791V12.0571Z" fill="#BBBBBB"/>
<path d="M143.4 21.2372L143.884 9.04836C143.926 8.65355 143.885 8.25431 143.764 7.87616C143.643 7.498 143.444 7.14925 143.18 6.85217C142.786 6.5526 142.336 6.33426 141.857 6.20984C141.378 6.08542 140.879 6.05741 140.388 6.12742H127.418L128.429 7.84045H139.993C140.41 7.84045 140.564 7.84045 140.564 8.54323L140.081 21.1274H126.143L127.176 22.7965H145.774V21.1274L143.4 21.2372Z" fill="#BBBBBB"/>
<path d="M114.821 12.4748C119.636 12.4748 123.417 10.8057 123.417 8.69738C123.417 6.58903 119.636 4.91992 114.821 4.91992C110.007 4.91992 106.028 6.58903 106.028 8.69738C106.028 10.8057 109.897 12.4748 114.821 12.4748ZM114.821 6.67688C117.767 6.67688 119.988 7.53339 119.988 8.69738C119.988 9.86136 117.789 10.7179 114.821 10.7179C111.854 10.7179 109.655 9.8394 109.655 8.69738C109.655 7.55536 111.81 6.67688 114.821 6.67688Z" fill="#BBBBBB"/>
<path d="M103.829 13.2207L104.863 14.8898H109.545V17.3496C107.347 18.1621 105.874 19.5457 105.874 21.0172C105.874 23.5428 109.787 25.5194 114.667 25.5194C119.548 25.5194 123.593 23.5428 123.593 21.0172C123.593 19.5457 122.274 18.272 120.185 17.4374V14.8898H124.736V13.2207H103.829ZM114.821 23.7185C111.678 23.7185 109.303 22.5545 109.303 20.9952C109.303 19.4359 111.678 18.272 114.821 18.272C117.965 18.272 120.361 19.4359 120.361 20.9952C120.361 22.5545 117.921 23.7185 114.821 23.7185ZM114.821 16.4711C114.074 16.4711 113.37 16.4711 112.623 16.6028V14.8678H117.152V16.6468C116.38 16.5336 115.601 16.4749 114.821 16.4711V16.4711Z" fill="#BBBBBB"/>
<path d="M162.878 17.2402V19.7219H153.359V17.2402H149.204C149.006 17.2402 148.479 17.2402 148.479 17.6575C148.479 18.0748 148.479 18.1187 149.05 18.1187C149.247 18.0934 149.447 18.0934 149.644 18.1187C149.82 18.1187 149.995 18.2505 150.061 18.7995V20.4467C150.061 23.1919 150.655 24.6194 153.93 24.8391H166.175V17.2402H162.878ZM162.878 23.148H155.271C153.667 23.148 153.359 22.9503 153.359 21.4569H162.878V23.148Z" fill="#BBBBBB"/>
<path d="M148.654 9.88335C148.844 9.86877 149.035 9.86877 149.226 9.88335C149.402 9.88335 149.599 10.0151 149.643 10.6081C149.643 12.8043 150.677 13.7487 153.556 13.7487H166.505V12.0795H154.678C153.337 12.0795 152.963 11.8819 152.963 11.223V10.8057H166.153V5.99609H148.72L149.687 7.775H162.878V8.96095H148.742C148.544 8.96095 148.017 8.96094 148.017 9.37822C148.017 9.79549 148.127 9.88335 148.654 9.88335Z" fill="#BBBBBB"/>
<path d="M147.159 14.3633L148.149 16.1422H156.459V18.6678H159.954V16.1422H168V14.3633H147.159Z" fill="#BBBBBB"/>
<path d="M83.0106 16.3184C82.8128 16.3184 82.3071 16.3184 82.3071 16.7576C82.3071 17.1968 82.3071 17.1968 82.8567 17.1968C83.0535 17.1674 83.2535 17.1674 83.4503 17.1968C83.6481 17.1968 83.846 17.3286 83.868 17.9216V20.535C83.868 22.7312 84.3296 24.7298 87.7811 24.7298H100.18V16.3184H83.0106ZM96.8824 23.1266H89.0781C87.2974 23.1266 87.1655 22.863 87.1655 20.9304V18.0753H96.8824V23.1266Z" fill="#BBBBBB"/>
<path d="M99.6524 12.8263L100.136 8.8951C100.181 8.50015 100.141 8.10019 100.02 7.72162C99.8989 7.34305 99.6986 6.99449 99.4326 6.69891C98.6334 6.09906 97.6329 5.83146 96.6407 5.95219H82.9228L83.934 7.68719H96.245C96.6627 7.68719 96.8165 7.68719 96.8165 8.41194L96.3329 12.8043H81.1201L82.1094 14.6052H102.137V12.8043L99.6524 12.8263Z" fill="#BBBBBB"/>
<path d="M41.4394 11.4651C42.24 12.5815 43.2915 13.4948 44.5094 14.1317C45.7273 14.7687 47.0777 15.1115 48.4522 15.1327H48.6941V13.6612H48.4742C45.1107 13.244 43.1761 10.5207 43.1322 6.17222V5.88672H38.7354C38.5595 5.88672 38.0319 5.88672 38.0319 6.304C38.0319 6.72128 38.0319 6.7652 38.6035 6.7652C38.7932 6.74035 38.9854 6.74035 39.1751 6.7652C39.3729 6.7652 39.5488 6.89697 39.5928 7.46798C39.7102 8.94852 39.2455 10.4165 38.2975 11.5605C37.3494 12.7044 35.9924 13.4343 34.5145 13.5954H34.2727V15.0888H34.5365C35.9067 15.1586 37.2704 14.859 38.4848 14.2215C39.6993 13.584 40.7198 12.6319 41.4394 11.4651V11.4651Z" fill="#BBBBBB"/>
<path d="M42.7363 23.2133C41.4393 23.2133 40.8457 22.5325 40.8457 21.0171V17.0859H36.6688C36.471 17.0859 35.9434 17.0859 35.9434 17.5032C35.9434 17.9205 35.9433 17.9644 36.5149 17.9644C36.7125 17.95 36.9109 17.95 37.1085 17.9644C37.3064 17.9644 37.5042 18.1181 37.5262 18.7331V20.1386C37.5262 20.6218 37.5262 24.8605 41.4393 24.8605H53.7722V23.1474L42.7363 23.2133Z" fill="#BBBBBB"/>
<path d="M57.9494 11.5962C57.9494 14.1218 60.7853 16.1643 64.2807 16.1643C67.7761 16.1643 70.634 14.1218 70.634 11.5962C70.6087 10.9162 70.4146 10.2532 70.0693 9.66665C69.7239 9.08013 69.2381 8.58854 68.6555 8.23604H71.4034V6.54498H66.1273V4.65625H61.9284C61.7526 4.65625 61.225 4.65624 61.225 5.09548C61.225 5.53472 61.2249 5.53471 61.7965 5.53471C61.9935 5.50791 62.1932 5.50791 62.3901 5.53471C62.5879 5.53471 62.7638 5.53472 62.8078 6.25946V6.45713H56.6963L57.7075 8.14819H59.9059C59.3151 8.51132 58.8258 9.01792 58.4837 9.62081C58.1416 10.2237 57.9578 10.9032 57.9494 11.5962ZM64.2587 14.3854C63.6905 14.3469 63.1458 14.1434 62.6917 13.7999C62.2376 13.4565 61.8938 12.988 61.7025 12.4521C61.5113 11.9161 61.4809 11.336 61.615 10.783C61.7492 10.23 62.0421 9.72823 62.4578 9.33926C62.8735 8.95029 63.3939 8.69111 63.955 8.5935C64.5162 8.4959 65.0936 8.56414 65.6164 8.78986C66.1393 9.01558 66.5847 9.38894 66.8981 9.86408C67.2115 10.3392 67.3791 10.8954 67.3804 11.4644C67.3517 12.2645 67.0074 13.0207 66.4225 13.568C65.8376 14.1152 65.0597 14.4091 64.2587 14.3854Z" fill="#BBBBBB"/>
<path d="M65.6655 23.2128C63.9508 23.2128 63.7749 22.532 63.7749 21.0166V17.1074H59.598C59.4002 17.1074 58.8726 17.1074 58.8726 17.5247C58.8726 17.942 58.8725 17.9859 59.4441 17.9859C59.6411 17.9591 59.8408 17.9591 60.0377 17.9859C60.2356 17.9859 60.4334 18.1177 60.4774 18.7326V20.1382C60.4774 23.2348 61.8184 24.86 64.3685 24.86H76.7234V23.147L65.6655 23.2128Z" fill="#BBBBBB"/>
<path d="M49.5294 5.6875C49.3316 5.6875 48.804 5.68751 48.804 6.10478C48.804 6.52206 48.804 6.56598 49.3755 6.56598C49.5725 6.53917 49.7721 6.53917 49.9691 6.56598C50.145 6.56598 50.3208 6.56598 50.3868 7.20288V18.1838H53.6844V5.6875H49.5294Z" fill="#BBBBBB"/>
<path d="M79.6472 10.7607V9.04769H76.8113V5.6875H72.6564C72.4585 5.6875 71.9309 5.68751 71.9309 6.10478C71.9309 6.52206 71.9309 6.56598 72.5025 6.56598C72.6994 6.53917 72.8991 6.53917 73.096 6.56598C73.2499 6.56598 73.4258 6.56598 73.4918 7.04915V18.1838H76.8113V10.7607H79.6472Z" fill="#BBBBBB"/>
</g>
<defs>
<radialGradient id="paint0_radial_4410_4748" cx="0" cy="0" r="1" gradientUnits="userSpaceOnUse" gradientTransform="translate(15.1934 9.85248) scale(13.9979 13.984)">
<stop stop-color="white"/>
<stop offset="1" stop-color="white"/>
</radialGradient>
<clipPath id="clip0_4410_4748">
<rect width="168" height="30" fill="white"/>
</clipPath>
</defs>
</svg>
