<svg width="156" height="30" viewBox="0 0 156 30" fill="none" xmlns="http://www.w3.org/2000/svg">
<g clip-path="url(#clip0_4410_4771)">
<path d="M79.0887 3.35158C77.3914 3.34854 75.7215 3.7747 74.238 4.58953C72.7545 5.40437 71.5067 6.58077 70.6134 8.00676V3.35158H62.3894C60.7616 3.34827 59.1577 3.73871 57.7177 4.48886C56.2778 5.239 55.0456 6.32603 54.1287 7.65502V3.35675H48.0039V23.0119H54.1287V18.7136C55.0466 20.0417 56.279 21.128 57.7187 21.878C59.1584 22.628 60.7618 23.0191 62.3894 23.0171H70.6134V18.3619C71.5067 19.7879 72.7545 20.9643 74.238 21.7791C75.7215 22.594 77.3914 23.0201 79.0887 23.0171H89.9512V17.6947H79.5232C78.8076 17.6917 78.1029 17.5221 77.4662 17.1994C76.8295 16.8768 76.2787 16.4102 75.8588 15.8378H89.9616V10.5257H75.8588C76.2804 9.95611 76.8319 9.4926 77.4685 9.1727C78.1051 8.85279 78.809 8.6855 79.5232 8.68434H80.2143H89.9459V3.35675H79.0835L79.0887 3.35158ZM62.8186 17.6947C61.608 17.6947 60.4469 17.2195 59.5908 16.3736C58.7348 15.5278 58.2538 14.3805 58.2538 13.1843C58.2538 11.9881 58.7348 10.8409 59.5908 9.99504C60.4469 9.14919 61.608 8.67399 62.8186 8.67399H63.5097H70.2155C69.4828 10.0672 69.1003 11.6142 69.1003 13.1843C69.1003 14.7544 69.4828 16.3015 70.2155 17.6947H62.8186Z" fill="#BBBBBB"/>
<path d="M148.127 3.68884L147.755 3.6009C144.657 2.87262 141.43 2.87262 138.332 3.6009L138.06 3.66814C135.68 4.29616 133.619 5.76954 132.27 7.80607V3.34746H121.408C119.19 3.34483 117.034 4.07492 115.284 5.42168C113.534 6.76843 112.29 8.65456 111.749 10.7802C111.205 8.65571 109.958 6.77181 108.207 5.4279C106.455 4.08398 104.298 3.35717 102.08 3.36297H91.2495V8.68539H100.976H101.667C102.267 8.68471 102.861 8.8009 103.415 9.02732C103.969 9.25375 104.472 9.58596 104.896 10.0049C105.32 10.4239 105.657 10.9214 105.886 11.4689C106.115 12.0164 106.232 12.6032 106.232 13.1957C106.217 14.3864 105.731 15.524 104.878 16.365C104.024 17.206 102.872 17.6837 101.667 17.6957H91.2495V17.8199V29.9544H97.3796V23.013H102.091C104.31 23.0185 106.466 22.2909 108.218 20.946C109.97 19.6011 111.217 17.716 111.76 15.5906C112.303 17.7151 113.548 19.5996 115.299 20.9444C117.05 22.2892 119.206 23.0173 121.423 23.013H132.286V18.5647C133.633 20.6023 135.695 22.0759 138.076 22.7026L138.348 22.7647C141.446 23.493 144.673 23.493 147.771 22.7647L148.142 22.6768C150.259 22.1186 152.13 20.8857 153.464 19.1695C154.799 17.4533 155.523 15.3497 155.524 13.1854V13.1854C155.523 11.0181 154.797 8.91181 153.46 7.19428C152.122 5.47675 150.247 4.24434 148.127 3.68884V3.68884ZM131.768 17.6905H121.821C121.209 17.711 120.599 17.6096 120.028 17.3923C119.456 17.175 118.934 16.8462 118.494 16.4256C118.054 16.005 117.703 15.5012 117.464 14.944C117.225 14.3869 117.102 13.788 117.102 13.1828C117.102 12.5776 117.225 11.9787 117.464 11.4215C117.703 10.8644 118.054 10.3606 118.494 9.93996C118.934 9.51936 119.456 9.1906 120.028 8.97329C120.599 8.75598 121.209 8.65454 121.821 8.67504H122.507H131.731C131.001 10.0671 130.62 11.6123 130.621 13.1802C130.628 14.7532 131.022 16.3009 131.768 17.6905ZM149.65 13.2113C149.65 14.1956 149.323 15.1528 148.721 15.9371C148.119 16.7215 147.275 17.29 146.315 17.5561C146.106 17.613 145.891 17.644 145.682 17.6854C144.818 17.8341 143.942 17.9085 143.065 17.9078C142.199 17.9074 141.336 17.833 140.484 17.6854L139.819 17.5509C138.863 17.2831 138.021 16.7146 137.421 15.9315C136.821 15.1484 136.496 14.1934 136.495 13.2113V13.2113C136.496 12.2262 136.822 11.2685 137.425 10.4841C138.028 9.69967 138.875 9.13157 139.835 8.86641C140.042 8.81462 140.251 8.77319 140.463 8.74228C141.327 8.58915 142.203 8.51298 143.08 8.51469C143.945 8.51481 144.809 8.58922 145.661 8.7371L146.326 8.87159C147.283 9.13782 148.126 9.70595 148.726 10.4894C149.326 11.2729 149.651 12.2287 149.65 13.2113Z" fill="#BBBBBB"/>
<path d="M41.518 11.8762V11.7003C41.518 11.3848 41.4499 11.0693 41.3976 10.7589C41.3976 10.6917 41.3975 10.6244 41.3609 10.5624C41.3033 10.2469 41.2353 9.93653 41.1568 9.63653L41.1254 9.52273C41.0451 9.23308 40.9561 8.9486 40.8584 8.66929L40.827 8.57617L21.2065 23.5503C22.5004 24.4244 23.9443 25.0588 25.4678 25.4227H25.5097C25.7871 25.49 26.0751 25.5417 26.363 25.5882H26.4991C26.7661 25.6296 27.0225 25.6555 27.3105 25.6813L27.5041 25.7072C27.8392 25.7331 28.1847 25.7434 28.525 25.7434C31.969 25.7284 35.2674 24.3689 37.7012 21.9612C40.135 19.5535 41.507 16.2929 41.518 12.89C41.518 12.5486 41.518 12.2124 41.518 11.8762Z" fill="#BBBBBB"/>
<path d="M21.034 5.13182L22.9605 3.93183L29.2424 0.0214844H29.2109H28.4885C28.1168 0.0214844 27.7452 0.0214825 27.3787 0.0680342L26.9704 0.114584C26.7453 0.140446 26.5254 0.166299 26.3108 0.202506L26.1276 0.238717L22.4893 3.49217L21.034 4.79045L16.5006 7.8163L1.50781 17.8249C1.60728 18.068 1.71721 18.306 1.83237 18.5387L1.88477 18.6422C1.97551 18.818 2.0697 18.9905 2.16741 19.1594L2.23023 19.2732L16.0818 8.84044L21.034 5.13182Z" fill="#BBBBBB"/>
<path d="M21.0338 10.4285L25.4572 7.54746L34.6811 1.54229L34.6131 1.50608C34.3985 1.39229 34.1839 1.28884 33.9588 1.1854L33.7441 1.08712C33.5138 0.988842 33.2887 0.89574 33.0531 0.812981L32.9903 0.787109L25.1379 6.88539L21.0443 10.0612L15.4796 13.744L3.82666 21.4561C3.99767 21.6526 4.17216 21.844 4.35015 22.0302C4.35015 22.0302 4.38154 22.0561 4.39201 22.0716C4.55952 22.2371 4.73227 22.3923 4.9155 22.5475L4.97307 22.594L15.5214 14.5768L21.0338 10.4285Z" fill="#BBBBBB"/>
<path d="M16.0764 16.8729L21.0338 13.0764L26.2164 9.66777L36.6338 2.81948L36.5606 2.76259C36.3826 2.62294 36.1993 2.48846 36.0371 2.36432L35.9167 2.27639C35.702 2.13156 35.4874 1.9919 35.2623 1.85742L26.0384 8.92294L21.0809 12.7195L15.8984 16.1281L5.48096 22.9816L5.55425 23.0385C5.73747 23.1833 5.92591 23.3178 6.1196 23.4522L6.19814 23.5143C6.42847 23.6695 6.65879 23.8143 6.89959 23.9592L16.0764 16.8729Z" fill="#BBBBBB"/>
<path d="M16.9404 18.8943L21.0341 15.7184L26.5988 12.0356L38.2412 4.32875C38.0632 4.12703 37.8748 3.93565 37.6863 3.74945C37.5188 3.58393 37.3461 3.42875 37.1628 3.27358L37.0791 3.20117L26.5307 11.2184L21.055 15.3563L16.6315 18.2322L7.38672 24.227C7.62752 24.3563 7.87352 24.4753 8.12479 24.5891L8.27139 24.6512C8.5279 24.765 8.79488 24.8736 9.06186 24.9719L16.9404 18.8943Z" fill="#BBBBBB"/>
<path d="M15.4742 11.9849L21.0336 7.7797L24.3683 5.64349L32.2939 0.553838H32.2206C31.9432 0.476252 31.6657 0.403836 31.383 0.341767L31.2207 0.305557C30.9276 0.243488 30.6292 0.19177 30.3256 0.150391H30.2262L23.9443 5.12107L21.0179 7.44866L15.558 11.0693L2.4707 19.759L2.52828 19.8418C2.64345 20.0211 2.76382 20.1935 2.88946 20.359C2.88946 20.3952 2.93658 20.4314 2.96799 20.4676C3.11457 20.6745 3.27162 20.8762 3.43391 21.0728L15.4742 11.9849Z" fill="#BBBBBB"/>
<path d="M21.0337 18.3676L26.4937 14.7469L39.5495 6.06242L39.4867 5.95896L39.1727 5.49863L39.0313 5.30207C38.9214 5.15207 38.8062 5.00725 38.691 4.86759C38.6596 4.82621 38.6282 4.77966 38.5916 4.73828L26.5932 13.8055L21.0337 18.021L17.6991 20.1676L9.77344 25.2521L9.86769 25.2831C10.1504 25.3607 10.4331 25.4383 10.7262 25.5003H10.8152C11.1345 25.5676 11.4591 25.6245 11.7889 25.6659H11.836L18.1179 20.69L21.0337 18.3676Z" fill="#BBBBBB"/>
<path d="M21.0338 21.0105L25.5672 17.9846L40.56 7.98115V7.95011C40.4658 7.71736 40.361 7.48978 40.2511 7.26219L40.1621 7.09667C40.0784 6.92598 39.9842 6.75529 39.8899 6.57943C39.8745 6.54733 39.857 6.51623 39.8376 6.48633L25.9912 16.9087L21.0495 20.6277L19.1178 21.8277L12.8359 25.7484C13.0767 25.7484 13.3228 25.7484 13.5636 25.7484C13.9457 25.7484 14.3227 25.7484 14.6944 25.6967C14.8043 25.6967 14.9142 25.6708 15.0189 25.6605C15.2754 25.6294 15.5424 25.5984 15.7832 25.557L15.935 25.526L19.5732 22.2725L21.0338 21.0105Z" fill="#BBBBBB"/>
<path d="M15.7045 0.171582H15.6104C15.3329 0.125031 15.0502 0.0991674 14.7675 0.0733053H14.6C14.2597 0.0474432 13.9195 0.0371104 13.553 0.0371104C11.8394 0.036431 10.1425 0.369326 8.55915 1.01679C6.97581 1.66425 5.53709 2.61358 4.32516 3.81057C3.11323 5.00755 2.15185 6.42872 1.49593 7.9929C0.840016 9.55708 0.502441 11.2336 0.502441 12.9268C0.502441 13.2733 0.502424 13.6147 0.549538 13.9612C0.549538 14.0181 0.549538 14.0699 0.549538 14.1216C0.580947 14.4526 0.622826 14.7733 0.68041 15.094C0.68041 15.1406 0.68041 15.1923 0.68041 15.244C0.737994 15.575 0.8113 15.9009 0.895059 16.2216C0.984052 16.5526 1.08873 16.8837 1.2039 17.2095C1.2039 17.2095 1.2039 17.2095 1.2039 17.2354L20.8191 2.23539C19.2842 1.19215 17.5397 0.488207 15.7045 0.171582V0.171582Z" fill="#BBBBBB"/>
</g>
<defs>
<clipPath id="clip0_4410_4771">
<rect width="156" height="30" fill="white"/>
</clipPath>
</defs>
</svg>
