<svg width="148" height="40" viewBox="0 0 148 40" fill="none" xmlns="http://www.w3.org/2000/svg">
<g clip-path="url(#clip0_4410_5008)">
<path d="M147.749 15.7461H145.784C145.717 15.7472 145.653 15.7749 145.607 15.823C145.56 15.8712 145.533 15.936 145.533 16.0035V25.0896C145.533 25.123 145.539 25.1562 145.551 25.1871C145.564 25.2181 145.582 25.2462 145.605 25.2698C145.629 25.2934 145.657 25.312 145.688 25.3246C145.718 25.3371 145.751 25.3432 145.784 25.3426H147.749C147.782 25.3432 147.815 25.3371 147.846 25.3246C147.876 25.312 147.904 25.2934 147.928 25.2698C147.951 25.2462 147.97 25.2181 147.982 25.1871C147.994 25.1562 148.001 25.123 148 25.0896V16.0165C148 15.949 147.974 15.8842 147.927 15.8361C147.88 15.7879 147.816 15.7603 147.749 15.7592" fill="#BBBBBB"/>
<path d="M57.1184 9.25977H47.7754L54.1844 27.8944C54.3724 28.4469 54.3359 29.0519 54.083 29.5774C53.83 30.1029 53.3811 30.5062 52.8342 30.6993L26.6703 39.8596L26.5491 39.8944H57.1184C57.4763 39.8888 57.8177 39.7424 58.07 39.4865C58.3222 39.2306 58.4653 38.8855 58.4686 38.5247V10.6164C58.4663 10.2565 58.3232 9.91215 58.0704 9.65811C57.8175 9.40407 57.4754 9.26091 57.1184 9.25977" fill="#BBBBBB"/>
<path d="M140.968 24.9337C142.266 24.9337 143.006 24.2358 143.006 22.9708V16.2488C143.006 16.1732 142.977 16.1007 142.924 16.0468C142.871 15.9929 142.8 15.9621 142.725 15.9609H140.847C140.771 15.9609 140.698 15.9913 140.645 16.0453C140.591 16.0992 140.561 16.1725 140.561 16.2488V18.299H136.666V16.2488C136.666 16.1725 136.636 16.0992 136.583 16.0453C136.529 15.9913 136.456 15.9609 136.381 15.9609H134.52C134.445 15.9621 134.373 15.9929 134.321 16.0468C134.268 16.1007 134.239 16.1732 134.239 16.2488V22.9664C134.239 24.2357 134.966 24.9337 136.277 24.9337H140.968ZM136.64 20.1921H140.535V22.4255C140.535 22.8312 140.371 22.9839 139.942 22.9839H137.237C136.805 22.9839 136.623 22.8312 136.623 22.4255L136.64 20.1921Z" fill="#BBBBBB"/>
<path d="M97.6324 31.6163H88.2504C87.9345 31.6163 87.8176 31.5465 87.8176 31.5247C87.8176 31.5029 87.7311 31.42 87.7311 31.1146V26.8355C87.7311 26.768 87.7048 26.7032 87.6578 26.655C87.6109 26.6069 87.547 26.5793 87.4801 26.5781H85.5154C85.4484 26.5793 85.3846 26.6069 85.3376 26.655C85.2907 26.7032 85.2644 26.768 85.2644 26.8355V31.6337C85.2644 32.9423 85.9482 33.6054 87.2464 33.6054H97.6324C97.6661 33.606 97.6995 33.5997 97.7308 33.587C97.762 33.5743 97.7904 33.5553 97.8142 33.5313C97.838 33.5073 97.8568 33.4787 97.8694 33.4472C97.8821 33.4157 97.8883 33.382 97.8877 33.348V31.878C97.8871 31.845 97.88 31.8124 97.8669 31.7822C97.8537 31.7519 97.8346 31.7246 97.8109 31.7019C97.7871 31.6791 97.7591 31.6614 97.7284 31.6497C97.6978 31.638 97.6651 31.6326 97.6324 31.6337" fill="#BBBBBB"/>
<path d="M88.6139 22.4299C89.0559 23.0731 89.5748 23.6591 90.1588 24.1747C90.875 24.8216 91.6924 25.3448 92.5779 25.7232C92.6366 25.7454 92.7014 25.7442 92.7593 25.7199C92.8172 25.6956 92.8637 25.65 92.8894 25.5924L93.5083 24.2445C93.5348 24.1856 93.5385 24.1188 93.5184 24.0574C93.4984 23.996 93.4561 23.9444 93.4001 23.9129C90.9853 22.6043 89.8126 20.8159 89.8126 18.4866V17.8846H93.0669C93.1002 17.8852 93.1333 17.8791 93.1643 17.8666C93.1952 17.8542 93.2234 17.8356 93.2471 17.8121C93.2709 17.7885 93.2898 17.7604 93.3027 17.7295C93.3156 17.6985 93.3222 17.6652 93.3222 17.6316V16.2183C93.3222 16.1501 93.2953 16.0846 93.2474 16.0363C93.1995 15.988 93.1346 15.9609 93.0669 15.9609H84.0138C83.9805 15.9609 83.9474 15.9676 83.9167 15.9806C83.886 15.9936 83.8581 16.0126 83.8347 16.0366C83.8114 16.0605 83.793 16.0889 83.7806 16.1201C83.7683 16.1513 83.7622 16.1847 83.7628 16.2183V17.6316C83.7622 17.665 83.7683 17.6982 83.7807 17.7291C83.7931 17.7601 83.8116 17.7882 83.835 17.8118C83.8584 17.8354 83.8863 17.854 83.917 17.8665C83.9477 17.879 83.9807 17.8852 84.0138 17.8846H87.268V18.4822C87.3034 19.6606 86.9885 20.8227 86.3636 21.8192C85.6587 22.8174 84.7403 23.6433 83.6762 24.2358C83.6476 24.2516 83.6225 24.2731 83.6023 24.299C83.5821 24.3248 83.5674 24.3546 83.5589 24.3863C83.5504 24.4181 83.5484 24.4513 83.5529 24.4839C83.5574 24.5165 83.5685 24.5478 83.5853 24.576L84.2734 25.8846C84.2977 25.9228 84.3309 25.9543 84.3702 25.9763C84.4094 25.9984 84.4535 26.0104 84.4985 26.0111C84.5284 26.0173 84.5593 26.0173 84.5893 26.0111C85.5078 25.5799 86.3533 25.0058 87.0949 24.3099C87.6841 23.7675 88.1953 23.1451 88.6139 22.4604" fill="#BBBBBB"/>
<path d="M132.451 28.1446H130.114C130.491 27.2721 130.785 25.7411 130.785 22.8098V17.6189C130.801 17.4683 130.783 17.316 130.733 17.1734C130.682 17.0307 130.601 16.9013 130.494 16.7949C130.387 16.6884 130.258 16.6076 130.116 16.5584C129.973 16.5093 129.822 16.4931 129.673 16.511H118.945C118.877 16.511 118.812 16.5379 118.763 16.5861C118.714 16.6342 118.687 16.6997 118.685 16.7683V18.3299C118.687 18.3626 118.694 18.3948 118.708 18.4244C118.722 18.4539 118.741 18.4804 118.766 18.502C118.79 18.5237 118.819 18.5401 118.849 18.5503C118.88 18.5604 118.913 18.5641 118.945 18.5611H128.171C128.362 18.5611 128.379 18.6178 128.379 18.8011V21.9766H118.967C118.9 21.9766 118.836 22.0033 118.789 22.0507C118.742 22.0982 118.716 22.1625 118.716 22.2296V23.813C118.716 23.8801 118.742 23.9445 118.789 23.992C118.836 24.0394 118.9 24.066 118.967 24.066H126.432C127.202 24.066 128.414 23.9919 128.414 23.9919C128.414 26.9537 128.063 28.1446 128.063 28.1446H117.106C117.039 28.1446 116.976 28.1712 116.928 28.2187C116.881 28.2661 116.855 28.3305 116.855 28.3976V29.9417C116.855 30.0088 116.881 30.0732 116.928 30.1206C116.976 30.1681 117.039 30.1947 117.106 30.1947H132.438C132.505 30.1936 132.569 30.166 132.616 30.1178C132.663 30.0697 132.689 30.0049 132.689 29.9374V28.3976C132.689 28.3643 132.683 28.3314 132.67 28.3007C132.657 28.27 132.639 28.2422 132.616 28.2187C132.592 28.1952 132.565 28.1765 132.534 28.1638C132.504 28.1511 132.471 28.1446 132.438 28.1446" fill="#BBBBBB"/>
<path d="M95.3821 28.0733H97.3468C97.4138 28.0733 97.4781 28.0467 97.5258 27.9994C97.5736 27.9521 97.601 27.8877 97.6021 27.8202V16.0035C97.6028 15.9701 97.5967 15.937 97.584 15.9062C97.5713 15.8754 97.5525 15.8476 97.5285 15.8246C97.4806 15.7753 97.4153 15.7471 97.3468 15.7461H95.3821C95.3151 15.7472 95.2513 15.7749 95.2044 15.823C95.1574 15.8712 95.1311 15.936 95.1311 16.0035V27.8202C95.1311 27.8873 95.1576 27.9517 95.2046 27.9992C95.2517 28.0466 95.3155 28.0733 95.3821 28.0733" fill="#BBBBBB"/>
<path d="M73.8313 22.7267C77.1072 22.7267 79.6605 21.7322 79.6605 18.9536C79.6605 16.1749 77.1072 15.2109 73.8313 15.2109C70.5554 15.2109 68.0195 16.188 68.0195 18.9536C68.0195 21.7191 70.5598 22.7267 73.8313 22.7267ZM73.8313 17.248C75.8999 17.248 77.3756 17.8151 77.3756 18.9928C77.3756 20.1706 75.8999 20.7158 73.8313 20.7158C71.7628 20.7158 70.3001 20.1662 70.3001 18.9928C70.3001 17.8194 71.7585 17.248 73.8313 17.248Z" fill="#BBBBBB"/>
<path d="M81.9928 23.459H65.7215C65.6878 23.4587 65.6545 23.4651 65.6233 23.4778C65.5921 23.4905 65.5637 23.5093 65.5398 23.5331C65.4957 23.5822 65.4711 23.6459 65.4705 23.712V25.2518C65.4699 25.2854 65.476 25.3188 65.4884 25.35C65.5007 25.3812 65.5191 25.4096 65.5425 25.4335C65.5658 25.4575 65.5937 25.4765 65.6244 25.4895C65.6552 25.5025 65.6882 25.5092 65.7215 25.5092H72.6455V26.5822C69.9495 26.8003 67.9891 27.8516 67.9891 30.2769C67.9891 33.0599 70.5293 34.0544 73.8052 34.0544C77.0811 34.0544 79.6343 33.0599 79.6343 30.2769C79.6343 27.869 77.6913 26.8178 75.0213 26.5866V25.5092H81.9755C82.0089 25.5092 82.0419 25.5025 82.0726 25.4895C82.1033 25.4765 82.1312 25.4575 82.1546 25.4335C82.1779 25.4096 82.1963 25.3812 82.2087 25.35C82.221 25.3188 82.2271 25.2854 82.2265 25.2518V23.712C82.2265 23.6788 82.22 23.6459 82.2074 23.6152C82.1948 23.5845 82.1763 23.5566 82.153 23.5331C82.1297 23.5096 82.102 23.491 82.0716 23.4782C82.0411 23.4655 82.0085 23.459 81.9755 23.459M77.3494 30.2987C77.3494 31.4721 75.8738 32.0173 73.8052 32.0173C71.7367 32.0173 70.2783 31.4721 70.2783 30.2987C70.2783 29.1253 71.7324 28.5539 73.8052 28.5539C75.8781 28.5539 77.3494 29.1209 77.3494 30.2987Z" fill="#BBBBBB"/>
<path d="M104.734 22.5383C104.537 22.7436 104.327 22.936 104.106 23.1141C104.063 23.1499 104.035 23.2002 104.026 23.2556C104.017 23.3109 104.029 23.3676 104.059 23.4151L104.924 24.8022C104.946 24.834 104.975 24.86 105.009 24.8782C105.043 24.8964 105.08 24.9062 105.119 24.9069C105.152 24.9135 105.185 24.9135 105.218 24.9069C105.803 24.6147 107.213 23.0618 108.061 21.3475C108.927 23.0618 110.325 24.6147 110.905 24.9069C110.938 24.9128 110.971 24.9128 111.004 24.9069C111.043 24.9074 111.081 24.898 111.115 24.8797C111.149 24.8614 111.178 24.8348 111.199 24.8022L112.064 23.4151C112.094 23.3671 112.104 23.3101 112.095 23.2547C112.085 23.1993 112.056 23.1493 112.012 23.1141C110.84 22.1763 109.2 20.1435 109.2 16.7542V16.1828C109.2 16.1524 109.195 16.1223 109.184 16.094C109.173 16.0657 109.156 16.0399 109.136 16.018C109.115 15.9962 109.09 15.9787 109.062 15.9665C109.034 15.9544 109.005 15.9478 108.975 15.9473H107.153C107.093 15.9495 107.036 15.9755 106.995 16.0195C106.953 16.0636 106.931 16.1222 106.932 16.1828V16.7412C106.949 18.0913 106.653 19.4267 106.067 20.6408C105.448 19.4368 105.134 18.0971 105.153 16.7412V16.1828C105.154 16.1524 105.149 16.1223 105.138 16.094C105.127 16.0657 105.11 16.0399 105.089 16.018C105.068 15.9962 105.043 15.9787 105.016 15.9665C104.988 15.9544 104.959 15.9478 104.928 15.9473H103.107C103.076 15.9478 103.047 15.9544 103.019 15.9665C102.991 15.9787 102.966 15.9962 102.946 16.018C102.925 16.0399 102.908 16.0657 102.897 16.094C102.886 16.1223 102.881 16.1524 102.881 16.1828V16.7412C102.881 20.1305 101.237 22.1632 100.069 23.101C100.024 23.1356 99.9943 23.1853 99.9839 23.2408C99.9736 23.2962 99.9837 23.3535 100.012 23.402L100.878 24.7891C100.899 24.8214 100.928 24.8479 100.962 24.8661C100.996 24.8844 101.034 24.8939 101.073 24.8938C101.105 24.9004 101.139 24.9004 101.172 24.8938C101.756 24.6016 103.171 23.0443 104.02 21.3257C104.237 21.7458 104.48 22.1523 104.747 22.5427" fill="#BBBBBB"/>
<path d="M108.983 25.7266C106.067 25.7266 102.951 26.8171 102.951 29.8792C102.951 32.9414 106.067 34.0668 108.983 34.0668C111.9 34.0668 115.012 32.9676 115.012 29.8792C115.012 26.7909 111.896 25.7266 108.983 25.7266ZM108.983 32.0297C106.82 32.0297 105.4 31.1922 105.4 29.8967C105.4 28.6012 106.807 27.7854 108.983 27.7854C111.16 27.7854 112.567 28.6142 112.567 29.8967C112.567 31.1791 111.156 32.0297 108.983 32.0297Z" fill="#BBBBBB"/>
<path d="M112.852 25.0291H114.644C114.71 25.028 114.772 25.0008 114.818 24.9535C114.864 24.9062 114.89 24.8425 114.89 24.7761V16.0171C114.89 15.9503 114.865 15.8862 114.819 15.8381C114.773 15.7901 114.71 15.762 114.644 15.7598H112.852C112.785 15.7609 112.721 15.7885 112.674 15.8367C112.627 15.8848 112.601 15.9496 112.601 16.0171V24.7761C112.601 24.8432 112.628 24.9076 112.675 24.955C112.722 25.0024 112.786 25.0291 112.852 25.0291" fill="#BBBBBB"/>
<path d="M146.849 26.8969H135.645C135.569 26.8969 135.497 26.9273 135.443 26.9813C135.389 27.0353 135.359 27.1085 135.359 27.1848V28.5502C135.361 28.6258 135.391 28.6979 135.445 28.7509C135.498 28.804 135.57 28.8337 135.645 28.8337H145.256C145.455 28.8337 145.46 28.8904 145.46 29.0169V33.3222C145.461 33.3971 145.491 33.4686 145.543 33.5215C145.596 33.5744 145.667 33.6047 145.741 33.6058H147.723C147.76 33.6058 147.796 33.5984 147.83 33.5841C147.864 33.5698 147.895 33.5489 147.92 33.5225C147.946 33.4961 147.966 33.4648 147.98 33.4304C147.994 33.396 148.001 33.3593 148 33.3222V28.0136C148.013 27.8598 147.993 27.7048 147.939 27.5601C147.885 27.4154 147.8 27.2847 147.689 27.1776C147.579 27.0705 147.446 26.9897 147.301 26.9411C147.155 26.8925 147.001 26.8774 146.849 26.8969" fill="#BBBBBB"/>
<path d="M54.2234 27.8824L45.1357 1.50945C44.9412 0.947443 44.5338 0.485985 44.0025 0.226024C43.4713 -0.0339371 42.8596 -0.0712307 42.3012 0.122324L16.1372 9.28263C15.5804 9.47964 15.1233 9.89045 14.8655 10.4256C14.6078 10.9607 14.5702 11.5769 14.7611 12.1398L15.8949 15.4288L19.2703 14.251L18.5779 12.2401L42.2406 3.96966L50.4239 27.7777L26.7871 36.0307L24.6753 29.8977L21.2999 31.0754L23.8488 38.4909C24.0452 39.0515 24.4529 39.5115 24.9835 39.7712C25.514 40.0308 26.1248 40.0692 26.6833 39.8781L52.8473 30.7177C53.4048 30.5217 53.8626 30.111 54.1205 29.5756C54.3784 29.0401 54.4154 28.4235 54.2234 27.8606" fill="#BBBBBB"/>
<path d="M26.7871 36.0298L50.4065 27.7812L42.2232 3.96875L18.5995 12.2174L19.2919 14.2283L15.9121 15.4104L21.2998 31.0745L24.6753 29.8968L26.7871 36.0298Z" fill="white"/>
<path d="M5.09337 18.5957C4.90922 18.5114 4.70563 18.4797 4.50483 18.5041H0.93899C0.736782 18.4798 0.531823 18.5114 0.346126 18.5957C0.240622 18.6624 0.153665 18.7551 0.0933816 18.8649C0.0330984 18.9748 0.00146484 19.0983 0.00146484 19.2238C0.00146484 19.3494 0.0330984 19.4729 0.0933816 19.5827C0.153665 19.6926 0.240622 19.7852 0.346126 19.852C0.532418 19.9342 0.736823 19.9658 0.93899 19.9436H1.92567V24.9556C1.90251 25.1819 1.9383 25.4104 2.02952 25.6186C2.10338 25.7357 2.20535 25.8321 2.32601 25.8989C2.44667 25.9657 2.58209 26.0007 2.71975 26.0007C2.8574 26.0007 2.99285 25.9657 3.11351 25.8989C3.23417 25.8321 3.33614 25.7357 3.40999 25.6186C3.50597 25.4119 3.54341 25.1824 3.51818 24.9556V19.9436H4.50483C4.70559 19.9658 4.90861 19.9342 5.09337 19.852C5.19887 19.7852 5.28585 19.6926 5.34614 19.5827C5.40642 19.4729 5.43805 19.3494 5.43805 19.2238C5.43805 19.0983 5.40642 18.9748 5.34614 18.8649C5.28585 18.7551 5.19887 18.6624 5.09337 18.5957" fill="#BBBBBB"/>
<path d="M10.7236 18.4593C10.5847 18.4553 10.4473 18.4887 10.3255 18.5562C10.2038 18.6237 10.1022 18.7228 10.0312 18.8432C9.94 19.0514 9.9042 19.2799 9.92736 19.5062V21.4692H7.64677V19.5062C7.66993 19.2799 7.63413 19.0514 7.54291 18.8432C7.46906 18.7261 7.36709 18.6297 7.24643 18.5629C7.12577 18.4961 6.99032 18.4611 6.85267 18.4611C6.71501 18.4611 6.57959 18.4961 6.45893 18.5629C6.33827 18.6297 6.2363 18.7261 6.16244 18.8432C6.06975 19.051 6.03245 19.2795 6.05426 19.5062V24.9544C6.03169 25.1826 6.069 25.4128 6.16244 25.6218C6.23326 25.7421 6.33497 25.8408 6.45684 25.9076C6.57871 25.9744 6.71621 26.0068 6.85483 26.0013C6.99332 26.0065 7.13057 25.9735 7.25182 25.9058C7.37306 25.8382 7.47372 25.7385 7.54291 25.6175C7.63413 25.4093 7.66993 25.1808 7.64677 24.9544V22.913H9.92736V24.9544C9.90344 25.1822 9.93925 25.4124 10.0312 25.6218C10.1027 25.7415 10.2046 25.8397 10.3263 25.9064C10.448 25.9731 10.5851 26.0059 10.7236 26.0013C10.8621 26.0065 10.9993 25.9735 11.1206 25.9058C11.2418 25.8382 11.3425 25.7385 11.4117 25.6175C11.506 25.4102 11.5419 25.1809 11.5155 24.9544V19.5062C11.5414 19.2798 11.5055 19.0506 11.4117 18.8432C11.3418 18.7228 11.241 18.6236 11.1199 18.5561C10.9988 18.4885 10.8619 18.4551 10.7236 18.4593" fill="#BBBBBB"/>
<path d="M14.203 25.6176C14.2989 25.4109 14.3364 25.1814 14.3111 24.9546V19.5064C14.3359 19.2796 14.2985 19.0502 14.203 18.8434C14.1304 18.7252 14.0291 18.6277 13.9087 18.5601C13.7883 18.4925 13.6527 18.457 13.5149 18.457C13.377 18.457 13.2415 18.4925 13.1211 18.5601C13.0006 18.6277 12.8994 18.7252 12.8268 18.8434C12.7308 19.0485 12.6933 19.2766 12.7186 19.502V24.9502C12.6934 25.1771 12.7308 25.4065 12.8268 25.6133C12.9001 25.7304 13.0017 25.8269 13.122 25.8938C13.2423 25.9607 13.3775 25.9958 13.5149 25.9958C13.6523 25.9958 13.7874 25.9607 13.9078 25.8938C14.0281 25.8269 14.1296 25.7304 14.203 25.6133" fill="#BBBBBB"/>
<path d="M20.4345 18.4593C20.2962 18.4551 20.1593 18.4885 20.0382 18.5561C19.9171 18.6236 19.8164 18.7228 19.7465 18.8432C19.6509 19.0501 19.6135 19.2794 19.6383 19.5062V22.7516L17.2235 19.1529C16.9076 18.6818 16.6912 18.4593 16.3234 18.4593C16.2123 18.4575 16.102 18.4786 15.9993 18.5213C15.8966 18.5641 15.8036 18.6276 15.7262 18.708C15.6437 18.8087 15.582 18.925 15.5448 19.0501C15.5077 19.1752 15.4958 19.3066 15.5098 19.4365V24.9544C15.4851 25.1827 15.5225 25.4134 15.618 25.6218C15.6919 25.7389 15.7939 25.8354 15.9145 25.9022C16.0352 25.969 16.1706 26.004 16.3083 26.004C16.4459 26.004 16.5814 25.969 16.702 25.9022C16.8227 25.8354 16.9246 25.7389 16.9985 25.6218C17.0897 25.4137 17.1255 25.1852 17.1023 24.9588V21.7134L19.5214 25.3121C19.8287 25.7745 20.0494 26.0057 20.4215 26.0057C20.534 26.0137 20.6469 25.9976 20.7528 25.9585C20.8587 25.9194 20.9552 25.8582 21.036 25.7789C21.1203 25.6793 21.1831 25.563 21.2204 25.4376C21.2576 25.3122 21.2685 25.1803 21.2524 25.0504V19.5062C21.2772 19.2794 21.2398 19.0501 21.1442 18.8432C21.0743 18.7228 20.9735 18.6236 20.8524 18.5561C20.7314 18.4885 20.5945 18.4551 20.4561 18.4593" fill="#BBBBBB"/>
<path d="M27.7175 24.5985L25.9606 21.4884L27.2588 19.8875C27.5055 19.5909 27.5963 19.4513 27.5963 19.2201C27.595 19.1086 27.5686 18.9988 27.5192 18.8991C27.4697 18.7994 27.3984 18.7123 27.3107 18.6443C27.1761 18.5268 27.0042 18.4617 26.826 18.4611C26.5188 18.4611 26.35 18.6356 26.1163 18.9235L24.0089 21.4796V19.508C24.0336 19.2812 23.9962 19.0518 23.9007 18.845C23.8276 18.7269 23.7259 18.6295 23.6051 18.5619C23.4844 18.4944 23.3485 18.459 23.2104 18.459C23.0724 18.459 22.9365 18.4944 22.8158 18.5619C22.695 18.6295 22.5933 18.7269 22.5202 18.845C22.428 19.0513 22.3921 19.2787 22.4163 19.5036V24.9518C22.3911 25.1787 22.4286 25.4081 22.5245 25.6149C22.5937 25.7359 22.6944 25.8356 22.8156 25.9032C22.9368 25.9709 23.0741 26.0039 23.2126 25.9987C23.3517 26.0037 23.4894 25.9707 23.6113 25.9031C23.7333 25.8355 23.8347 25.7359 23.905 25.6149C23.9962 25.4067 24.032 25.1782 24.0089 24.9518V23.713L24.8354 22.7054L26.35 25.375C26.5318 25.6977 26.7049 25.9987 27.1333 25.9987C27.286 25.9995 27.436 25.9572 27.5661 25.8766C27.6859 25.811 27.7858 25.7139 27.8551 25.5956C27.9245 25.4773 27.9607 25.3422 27.9598 25.2048C27.9293 24.9845 27.8461 24.7749 27.7175 24.5942" fill="#BBBBBB"/>
<path d="M34.6242 22.1366C34.872 21.9738 35.0757 21.7514 35.2169 21.4894C35.3582 21.2275 35.4326 20.9342 35.4334 20.6361C35.4334 19.3274 34.5419 18.503 33.1009 18.503H31.0453C30.9155 18.4778 30.7815 18.485 30.655 18.5241C30.5286 18.5632 30.4135 18.6329 30.32 18.7272C30.2265 18.8214 30.1573 18.9374 30.1186 19.0649C30.0798 19.1923 30.0726 19.3274 30.0976 19.4583V25.0068C30.0737 25.1375 30.0816 25.2722 30.1208 25.3991C30.1599 25.5261 30.2291 25.6415 30.3224 25.7355C30.4157 25.8295 30.5302 25.8993 30.6561 25.9388C30.7821 25.9782 30.9156 25.9862 31.0453 25.9621H33.2091C34.6328 25.9621 35.5156 25.1246 35.5156 23.7811C35.5315 23.4494 35.4547 23.1199 35.2941 22.8299C35.1334 22.54 34.8953 22.3013 34.6069 22.1409M31.6728 21.4561V19.9468H32.9711C33.5034 19.9468 33.8366 20.2304 33.8366 20.7015C33.8366 21.1726 33.5207 21.4561 32.9711 21.4561H31.6728ZM33.8495 24.3918C33.8546 24.5052 33.8353 24.6184 33.7928 24.7235C33.7503 24.8287 33.6857 24.9233 33.6034 25.0008C33.5211 25.0783 33.4231 25.1369 33.3162 25.1726C33.2093 25.2083 33.096 25.2202 32.984 25.2075H31.5906V22.9H32.984C33.0956 22.8851 33.2091 22.8951 33.3164 22.9294C33.4237 22.9638 33.5222 23.0215 33.6048 23.0986C33.6875 23.1756 33.7522 23.2701 33.7945 23.3752C33.8368 23.4804 33.8556 23.5936 33.8495 23.7069" fill="#BBBBBB"/>
<path d="M37.2899 18.4593C37.1515 18.4551 37.0146 18.4885 36.8936 18.5561C36.7725 18.6236 36.6717 18.7228 36.6018 18.8432C36.5079 19.0506 36.472 19.2798 36.4979 19.5062V24.9544C36.4721 25.1823 36.508 25.4129 36.6018 25.6218C36.6756 25.7389 36.7776 25.8354 36.8983 25.9022C37.0189 25.969 37.1544 26.004 37.292 26.004C37.4297 26.004 37.5651 25.969 37.6858 25.9022C37.8064 25.8354 37.9084 25.7389 37.9822 25.6218C38.0735 25.4137 38.1093 25.1852 38.0861 24.9588V19.5062C38.1109 19.2794 38.0735 19.0501 37.9779 18.8432C37.908 18.7228 37.8072 18.6236 37.6862 18.5561C37.5651 18.4885 37.4282 18.4551 37.2899 18.4593" fill="#BBBBBB"/>
<path d="M43.513 21.8546H42.522C42.3199 21.8332 42.1157 21.8648 41.9291 21.9462C41.8236 22.0124 41.7365 22.1046 41.6761 22.2141C41.6158 22.3236 41.5841 22.4468 41.5841 22.5721C41.5841 22.6974 41.6158 22.8207 41.6761 22.9302C41.7365 23.0397 41.8236 23.1319 41.9291 23.1981C42.1157 23.2795 42.3195 23.3125 42.522 23.294H42.9548C42.9722 23.462 42.9547 23.6318 42.9032 23.7926C42.8518 23.9533 42.7677 24.1015 42.6562 24.2275C42.5479 24.341 42.4173 24.4302 42.2726 24.4896C42.128 24.5489 41.9727 24.5771 41.8166 24.5721C41.6549 24.5792 41.4936 24.5504 41.344 24.4879C41.1945 24.4253 41.0604 24.3305 40.9511 24.2101C40.7045 23.9309 40.6222 23.6038 40.6222 22.221C40.6222 20.8382 40.6828 20.546 40.9555 20.2275C41.0545 20.1133 41.1771 20.0222 41.3145 19.9604C41.452 19.8986 41.6012 19.8677 41.7517 19.8698C41.9693 19.8638 42.1831 19.929 42.3609 20.0556C42.5388 20.1822 42.6712 20.3634 42.7384 20.5721C42.8322 20.7784 42.9695 20.9615 43.1408 21.1087C43.2662 21.2014 43.4181 21.2505 43.5736 21.2482C43.675 21.2506 43.7758 21.2325 43.8702 21.1951C43.9646 21.1576 44.0506 21.1016 44.1232 21.0301C44.1986 20.9505 44.2565 20.8558 44.293 20.752C44.3296 20.6483 44.344 20.5379 44.3352 20.4282C44.2941 19.925 44.0633 19.4567 43.6904 19.1196C43.4359 18.8788 43.1343 18.6943 42.8049 18.5778C42.4755 18.4614 42.1256 18.4156 41.7777 18.4435C41.4107 18.432 41.0453 18.4962 40.7038 18.6319C40.3623 18.7677 40.0518 18.9722 39.7914 19.233C39.06 19.9702 39.0254 20.812 39.0254 22.2341C39.0254 23.6561 39.06 24.4936 39.7914 25.2308C40.0522 25.4951 40.3645 25.702 40.7086 25.8387C41.0527 25.9753 41.4211 26.0386 41.7907 26.0247C42.1557 26.0399 42.5198 25.9758 42.8581 25.8365C43.1963 25.6973 43.5009 25.4862 43.751 25.2177C44.3309 24.6332 44.4477 23.9091 44.4477 22.8971V22.8186C44.4719 22.688 44.4641 22.5534 44.425 22.4266C44.3858 22.2997 44.3166 22.1844 44.2232 22.0907C44.1297 21.997 44.0151 21.9277 43.889 21.8888C43.763 21.8499 43.6294 21.8427 43.5 21.8677" fill="#BBBBBB"/>
</g>
<defs>
<clipPath id="clip0_4410_5008">
<rect width="148" height="40" fill="white"/>
</clipPath>
</defs>
</svg>
