<svg width="152" height="34" viewBox="0 0 152 34" fill="none" xmlns="http://www.w3.org/2000/svg">
<g clip-path="url(#clip0_4410_4964)">
<path d="M48.6739 8.20481L47.1993 8.13672L45.8381 8.19345C44.2045 8.19345 42.6379 8.84269 41.4827 9.99833C40.3276 11.154 39.6787 12.7213 39.6787 14.3557C39.6787 15.99 40.3276 17.5574 41.4827 18.713C42.6379 19.8687 44.2045 20.5179 45.8381 20.5179L47.1993 20.5973L48.6739 20.4838C50.3015 20.4838 51.8624 19.837 53.0132 18.6856C54.1641 17.5342 54.8107 15.9726 54.8107 14.3443C54.8107 12.716 54.1641 11.1544 53.0132 10.003C51.8624 8.85163 50.3015 8.20481 48.6739 8.20481V8.20481ZM48.1748 17.5673H47.1993H46.3372C45.4828 17.5673 44.6634 17.2277 44.0593 16.6233C43.4551 16.0189 43.1158 15.1991 43.1158 14.3443C43.1158 13.4895 43.4551 12.6697 44.0593 12.0653C44.6634 11.4609 45.4828 11.1213 46.3372 11.1213H47.1993H48.1748C49.0198 11.1445 49.8234 11.4922 50.419 12.0923C51.0146 12.6924 51.3565 13.4988 51.3736 14.3443C51.3304 15.1812 50.9802 15.9728 50.39 16.5674C49.7997 17.1621 49.011 17.5181 48.1748 17.5673V17.5673Z" fill="#BBBBBB"/>
<path d="M59.2349 8.33008H56.0361V26.2607H59.2349L59.269 14.3561H62.4564V11.6211H59.269L59.2349 8.33008Z" fill="#BBBBBB"/>
<path d="M73.4935 13.0624C73.9462 14.0168 74.6666 14.8188 75.5669 15.3709C76.4671 15.923 77.5084 16.2013 78.564 16.1719H83.1013V13.7546H78.7681C78.0063 13.7544 77.2693 13.4841 76.6878 12.9917C76.1063 12.4993 75.7181 11.8167 75.592 11.0651H82.863V8.33008H64.2374V11.031H71.3836C71.2597 11.7836 70.8721 12.4676 70.2902 12.9604C69.7082 13.4532 68.9699 13.7227 68.2075 13.7206H63.8857V16.1378H68.4231C69.4746 16.1688 70.5127 15.895 71.4123 15.3493C72.3119 14.8037 73.0346 14.0095 73.4935 13.0624Z" fill="#BBBBBB"/>
<path d="M63.4316 19.678L71.9958 19.6666V26.2033H75.1379V19.6666L83.634 19.678V16.9316H63.4316V19.678Z" fill="#BBBBBB"/>
<path d="M101.772 11.121H99.8776V8.32933H96.6334V16.7612H89.1242V11.087H95.3403V8.35204H86.2657V17.8393C86.2642 18.0594 86.3062 18.2775 86.3893 18.4812C86.4724 18.6849 86.595 18.8702 86.75 19.0263C86.905 19.1824 87.0894 19.3063 87.2924 19.3909C87.4955 19.4754 87.7132 19.5189 87.9331 19.5189H96.6561V25.7265H99.8776V13.856H101.738V25.6925H104.982V8.30664H101.738L101.772 11.121Z" fill="#BBBBBB"/>
<path d="M127.147 8.01172H123.903L123.892 16.6592L127.147 16.6479V13.5384H130.573V10.8034H127.147V8.01172Z" fill="#BBBBBB"/>
<path d="M125.513 17.3398H109.633V20.1089H124.3V25.6356H127.158V19.0535C127.163 18.8329 127.124 18.6136 127.044 18.4081C126.963 18.2026 126.843 18.0149 126.691 17.8558C126.538 17.6966 126.355 17.5691 126.153 17.4806C125.951 17.3921 125.734 17.3443 125.513 17.3398V17.3398Z" fill="#BBBBBB"/>
<path d="M112.843 16.5468H118.254C119.323 16.5438 120.347 16.1168 121.102 15.3595C121.857 14.6021 122.281 13.5762 122.281 12.5067C122.282 11.9686 122.173 11.4359 121.963 10.9407H122.984V8.33048H117.165V6.78711H114.102V8.34184H108.011V10.9407H109.145C108.935 11.4359 108.827 11.9686 108.827 12.5067C108.827 13.5743 109.25 14.5985 110.002 15.3555C110.755 16.1125 111.776 16.5408 112.843 16.5468ZM113.41 10.9293H117.687C118.105 10.9293 118.506 11.0955 118.801 11.3913C119.097 11.6871 119.263 12.0883 119.263 12.5067C119.263 12.9251 119.097 13.3263 118.801 13.6221C118.506 13.918 118.105 14.0842 117.687 14.0842H113.41C112.992 14.0842 112.591 13.918 112.295 13.6221C112 13.3263 111.833 12.9251 111.833 12.5067C111.833 12.0883 112 11.6871 112.295 11.3913C112.591 11.0955 112.992 10.9293 113.41 10.9293Z" fill="#BBBBBB"/>
<path d="M151.989 21.3797H149.72V9.73619C149.721 9.51616 149.679 9.29802 149.596 9.09431C149.513 8.8906 149.391 8.70537 149.236 8.54926C149.081 8.39314 148.896 8.26926 148.693 8.18471C148.49 8.10017 148.272 8.05664 148.052 8.05664H132.773V10.8029H146.827V21.3797H143.924V13.2996H140.85V21.4138H138.138V13.2996H135.076V21.4138H131.673V24.2168H152.057L151.989 21.3797Z" fill="#BBBBBB"/>
<path d="M13.9977 22.7773C13.9977 23.2994 13.8389 23.3448 13.5894 23.3788V23.6966H13.9523V25.9663H14.1565V22.7773H13.9977Z" fill="white"/>
<path d="M15.9375 22.7422C15.6198 22.7422 15.4497 23.2529 15.4497 23.877C15.4497 24.5012 15.6425 24.8984 15.9261 24.8984C16.2097 24.8984 16.221 24.7622 16.2777 24.5239C16.2777 25.341 16.1189 25.7155 15.9148 25.7155C15.7106 25.7155 15.6652 25.5112 15.6539 25.1935H15.4611C15.4611 25.4999 15.5631 26.0446 15.9148 26.0446C16.4479 26.0446 16.4706 24.592 16.4706 24.2402C16.4706 23.8884 16.4479 22.7422 15.9375 22.7422ZM15.9375 24.5125C15.8013 24.5125 15.6198 24.4331 15.6198 23.8203C15.6198 23.389 15.7333 23.1053 15.9148 23.1053C16.0962 23.1053 16.221 23.4231 16.221 23.7862C16.2664 24.4104 16.0736 24.5125 15.9375 24.5125Z" fill="white"/>
<path d="M17.4121 22.834V23.2312H18.2062C17.8687 24.1044 17.6586 25.0217 17.5823 25.9548H17.7978C17.8603 25.0049 18.0708 24.0706 18.4217 23.1858V22.834H17.4121Z" fill="white"/>
<path d="M20.2478 24.2753C20.3272 24.2186 20.4406 24.0257 20.4406 23.6171C20.4406 23.2086 20.2592 22.7773 19.9642 22.7773C19.6693 22.7773 19.4765 23.3561 19.4765 23.8214H19.658C19.658 23.6058 19.658 23.1405 19.9529 23.1405C20.2478 23.1405 20.2365 23.4469 20.2365 23.6398C20.2365 24.0483 20.1003 24.1619 19.9529 24.1619H19.8508V24.5137H19.9416C20.0664 24.5137 20.2932 24.5137 20.2932 25.0924C20.2932 25.6712 20.1571 25.7052 19.9642 25.7052C19.7714 25.7052 19.6466 25.308 19.6353 25.0016H19.4425C19.4191 25.3279 19.4984 25.6533 19.6693 25.9322C19.7039 25.9741 19.7472 26.008 19.7961 26.0315C19.8451 26.0551 19.8986 26.0676 19.9529 26.0684C20.3385 26.0684 20.4974 25.5691 20.4974 25.047C20.4974 24.525 20.3953 24.3775 20.2478 24.2753Z" fill="white"/>
<path d="M12.6591 16.8411C12.4694 16.585 12.367 16.2747 12.367 15.9559C12.367 15.6371 12.4694 15.3268 12.6591 15.0707L15.098 11.303L18.0812 15.6155C18.0812 15.6155 18.7958 16.4893 17.5481 16.512L18.9206 18.532L20.2251 16.6709C20.3928 16.4027 20.4721 16.0887 20.4517 15.7731C20.4314 15.4575 20.3124 15.1562 20.1117 14.9119L15.0752 7.42188L10.0615 15.0707C9.89968 15.3952 9.83193 15.7586 9.86601 16.1197C9.9001 16.4807 10.0346 16.825 10.2543 17.1134L13.2717 21.7096H15.6991L12.6591 16.8411Z" fill="white"/>
<path d="M18.7505 7.53516H16.4251L21.4843 15.0251C21.6458 15.2879 21.7313 15.5904 21.7313 15.899C21.7313 16.2075 21.6458 16.51 21.4843 16.7728L19.4198 19.7461H18.2855L16.0168 16.5685C16.0168 16.5685 15.1888 15.7287 16.5159 15.2407L15.1094 13.2094L13.646 15.4791C13.5237 15.7396 13.4886 16.0326 13.5458 16.3147C13.603 16.5968 13.7495 16.8529 13.9637 17.0451L16.9243 21.7548H20.5995L23.6055 17.2835C23.8486 16.9 23.9776 16.4552 23.9776 16.0011C23.9776 15.547 23.8486 15.1022 23.6055 14.7187L18.7505 7.53516Z" fill="white"/>
<path d="M16.9925 0C13.6273 0 10.3376 0.998362 7.5395 2.86884C4.74141 4.73932 2.56054 7.39789 1.27272 10.5084C-0.0150966 13.6189 -0.352038 17.0416 0.304487 20.3437C0.961011 23.6457 2.58158 26.6789 4.96116 29.0596C7.34074 31.4402 10.3725 33.0615 13.6731 33.7183C16.9736 34.3751 20.3947 34.038 23.5038 32.7496C26.6129 31.4612 29.2703 29.2794 31.1399 26.48C33.0095 23.6806 34.0074 20.3895 34.0074 17.0227C34.0074 12.508 32.2148 8.17821 29.0239 4.98584C25.833 1.79346 21.5051 0 16.9925 0ZM16.9925 33.4326C13.7434 33.4348 10.5667 32.473 7.86414 30.6687C5.16156 28.8644 3.05455 26.2988 1.80963 23.2964C0.564717 20.2939 0.237852 16.9895 0.870335 13.8011C1.50282 10.6128 3.06622 7.6837 5.36285 5.38443C7.65949 3.08515 10.5862 1.51898 13.7726 0.884001C16.9591 0.249026 20.2622 0.573773 23.2641 1.81718C26.2661 3.06059 28.832 5.16679 30.6373 7.86936C32.4426 10.5719 33.4063 13.7495 33.4063 17C33.4077 19.1574 32.9842 21.294 32.16 23.2876C31.3358 25.2813 30.127 27.0928 28.6027 28.6189C27.0784 30.1449 25.2685 31.3555 23.2764 32.1815C21.2842 33.0074 19.1489 33.4326 16.9925 33.4326V33.4326Z" fill="#BBBBBB"/>
<path d="M30.7516 15.1734C30.8328 15.1734 30.9107 15.1411 30.9682 15.0836C31.0256 15.0262 31.0579 14.9482 31.0579 14.867C31.0579 14.8267 31.05 14.7869 31.0346 14.7497C31.0192 14.7125 30.9966 14.6788 30.9682 14.6503C30.9397 14.6219 30.906 14.5993 30.8688 14.5839C30.8317 14.5685 30.7918 14.5605 30.7516 14.5605C30.7114 14.5605 30.6715 14.5685 30.6344 14.5839C30.5972 14.5993 30.5635 14.6219 30.535 14.6503C30.5066 14.6788 30.484 14.7125 30.4686 14.7497C30.4533 14.7869 30.4453 14.8267 30.4453 14.867C30.4453 14.9482 30.4776 15.0262 30.535 15.0836C30.5925 15.1411 30.6704 15.1734 30.7516 15.1734V15.1734Z" fill="#BBBBBB"/>
<path d="M3.45971 10.9295C3.71576 11.1342 4.04145 11.2309 4.36764 11.1991C4.69383 11.1673 4.99478 11.0095 5.20655 10.7593L5.39943 10.5437L5.56954 10.3053C5.76871 10.0453 5.85983 9.71838 5.82391 9.39276C5.78798 9.06714 5.62779 8.768 5.37672 8.5577C5.12225 8.35217 4.79676 8.25589 4.47149 8.28992C4.14622 8.32395 3.84763 8.48553 3.64117 8.73928L3.437 8.96622L3.26689 9.18185C3.06495 9.44081 2.97207 9.76844 3.00809 10.0949C3.04412 10.4214 3.20617 10.7209 3.45971 10.9295V10.9295ZM3.79999 9.44288L3.90211 9.29534L4.02687 9.1478C4.13906 9.01752 4.29704 8.93544 4.4681 8.91854C4.63915 8.90163 4.81017 8.95122 4.94567 9.05703C5.06998 9.17016 5.14892 9.32465 5.16771 9.49171C5.18649 9.65877 5.14387 9.82697 5.04779 9.96489L4.92296 10.1351L4.80956 10.26C4.69736 10.3902 4.53939 10.4723 4.36833 10.4892C4.19728 10.5061 4.02626 10.4565 3.89076 10.3507C3.76371 10.2389 3.68369 10.0831 3.66685 9.91468C3.65002 9.74623 3.6976 9.57765 3.79999 9.44288V9.44288Z" fill="#BBBBBB"/>
<path d="M7.81573 9.37378L5.95543 7.85309L6.36379 7.34241L5.93275 7.00195L5.52439 7.50129L5.0026 7.09274L4.59424 7.59207L7.41872 9.87311L7.81573 9.37378Z" fill="#BBBBBB"/>
<path d="M9.13136 4.01712C9.19382 4.15836 9.2017 4.31774 9.15351 4.46447C9.10532 4.6112 9.00451 4.73483 8.87049 4.81149L8.13314 5.27678L8.39402 5.69667L9.16542 5.20869C9.34843 5.0985 9.49662 4.93887 9.59294 4.74815C9.68926 4.55742 9.72978 4.34337 9.70988 4.13061C9.89016 4.24334 10.0984 4.30308 10.311 4.30308C10.5236 4.30308 10.732 4.24334 10.9123 4.13061L11.695 3.6426L11.4341 3.22271L10.6854 3.688C10.557 3.7725 10.4024 3.80757 10.2501 3.78671C10.0978 3.76584 9.9583 3.69044 9.85735 3.57451L11.0937 2.79146L10.7988 2.32617L7.61133 4.32351L7.90626 4.7888L9.13136 4.01712Z" fill="#BBBBBB"/>
<path d="M8.71192 6.34341L10.1865 5.42419L10.8785 6.54768L11.423 6.20723L10.7197 5.08373L12.183 4.17585L11.888 3.69922L8.41699 5.86678L8.71192 6.34341Z" fill="#BBBBBB"/>
<path d="M14.8031 3.79118H16.5726V5.03952H17.2305V2.64497H17.6162V5.03952H18.2741V1.52148H17.6162V2.08891H17.2305V1.52148H16.5726V3.23511H15.0526V2.10027H16.289V1.5442H14.4741V3.47342C14.4771 3.55872 14.513 3.63956 14.5744 3.69885C14.6357 3.75813 14.7177 3.79123 14.8031 3.79118Z" fill="#BBBBBB"/>
<path d="M24.0481 5.24359L24.2863 4.65347L24.9329 4.91448L25.137 4.4038L24.4905 4.14279L24.706 3.62076L24.0935 3.37109L23.4355 4.99392L24.0481 5.24359Z" fill="#BBBBBB"/>
<path d="M22.8338 6.70791L23.3782 6.92354L23.8773 5.68656C23.8939 5.64484 23.902 5.60026 23.9012 5.5554C23.9005 5.51054 23.8908 5.46628 23.8729 5.42515C23.855 5.38402 23.8291 5.34684 23.7968 5.31574C23.7644 5.28465 23.7263 5.26024 23.6845 5.24395L20.7126 4.04102L20.4971 4.55171L23.2535 5.68656L22.8338 6.70791Z" fill="#BBBBBB"/>
<path d="M21.3708 4.13118L22.3804 4.55107C22.5821 4.62997 22.8068 4.62664 23.0061 4.54178C23.2054 4.45692 23.3636 4.2973 23.4466 4.09713C23.4906 3.99694 23.5138 3.88879 23.5147 3.77934L23.7075 3.84747L23.9004 3.35946L22.7661 2.91688L22.8795 2.63317L22.3009 2.39486L22.1875 2.6899L21.0532 2.22461L20.8604 2.71262L21.0646 2.80339C20.9885 2.88057 20.9304 2.97356 20.8944 3.07574C20.8529 3.176 20.8324 3.28369 20.8341 3.39218C20.8358 3.50068 20.8597 3.60769 20.9044 3.70658C20.949 3.80547 21.0134 3.89417 21.0936 3.96719C21.1739 4.04022 21.2682 4.09603 21.3708 4.13118V4.13118ZM21.4843 3.30273C21.4993 3.26275 21.5221 3.22619 21.5516 3.19526C21.581 3.16434 21.6164 3.13969 21.6555 3.12274C21.6947 3.10579 21.7369 3.0969 21.7796 3.09663C21.8223 3.09636 21.8646 3.1047 21.904 3.12115L22.7093 3.45026C22.7854 3.48298 22.8464 3.54322 22.88 3.61896C22.9137 3.6947 22.9175 3.78034 22.8908 3.85879C22.8758 3.89877 22.8529 3.93533 22.8235 3.96626C22.794 3.99718 22.7587 4.02183 22.7195 4.03878C22.6804 4.05573 22.6381 4.06462 22.5955 4.06489C22.5528 4.06516 22.5105 4.05682 22.4711 4.04037L21.6657 3.71126C21.5878 3.68081 21.525 3.62082 21.491 3.54433C21.4571 3.46783 21.4546 3.38101 21.4843 3.30273V3.30273Z" fill="#BBBBBB"/>
<path d="M27.7684 6.74122L29.4813 9.01092L27.7684 10.3046L27.4168 9.82801L28.7326 8.8407L28.3583 8.35272L27.0424 9.34003L26.7135 8.89743L28.018 7.91012L27.6437 7.41078L26.3392 8.40945L25.9308 7.85339L25.4771 8.20519L27.9386 11.4849L28.3923 11.1444L28.1201 10.7699L30.0031 9.35136C30.0388 9.32453 30.0689 9.29095 30.0917 9.25248C30.1145 9.21401 30.1294 9.1714 30.1357 9.12715C30.1421 9.08289 30.1396 9.03781 30.1285 8.9945C30.1174 8.95119 30.0979 8.91051 30.0711 8.87474L28.2108 6.41211L27.7684 6.74122Z" fill="#BBBBBB"/>
<path d="M3.45996 14.5935C3.45996 14.6748 3.49225 14.7527 3.54969 14.8102C3.60712 14.8677 3.68502 14.8999 3.76625 14.8999C3.84748 14.8999 3.92538 14.8677 3.98282 14.8102C4.04025 14.7527 4.07247 14.6748 4.07247 14.5935C4.07247 14.5123 4.04025 14.4343 3.98282 14.3768C3.92538 14.3194 3.84748 14.2871 3.76625 14.2871C3.68502 14.2871 3.60712 14.3194 3.54969 14.3768C3.49225 14.4343 3.45996 14.5123 3.45996 14.5935V14.5935Z" fill="#BBBBBB"/>
<path d="M15.9375 23.1055C15.756 23.1055 15.6426 23.3892 15.6426 23.8204C15.6426 24.4332 15.8241 24.5127 15.9602 24.5127C16.0963 24.5127 16.2438 24.4105 16.2438 23.7863C16.2665 23.4232 16.1871 23.1055 15.9375 23.1055Z" fill="#BBBBBB"/>
<path d="M16.9921 5.87891C14.7903 5.87667 12.6373 6.528 10.8056 7.75043C8.97389 8.97286 7.54586 10.7114 6.70222 12.7462C5.85858 14.7809 5.6373 17.0203 6.06631 19.1809C6.49531 21.3415 7.55533 23.3262 9.11225 24.8839C10.6692 26.4415 12.653 27.5021 14.8126 27.9313C16.9723 28.3605 19.2107 28.139 21.2445 27.295C23.2783 26.451 25.016 25.0223 26.2379 23.1898C27.4598 21.3572 28.1108 19.2033 28.1085 17.0004C28.1085 14.0508 26.9373 11.222 24.8526 9.13633C22.7678 7.05065 19.9404 5.87891 16.9921 5.87891ZM10.1861 17.1139C9.96642 16.8254 9.83189 16.4812 9.79781 16.1201C9.76372 15.7591 9.83147 15.3957 9.99332 15.0712L15.007 7.42232L20.0435 14.9123C20.2442 15.1567 20.3632 15.4579 20.3835 15.7735C20.4039 16.0892 20.3246 16.4032 20.1569 16.6713L18.8524 18.5324L17.4799 16.5124C18.7276 16.5124 18.013 15.6159 18.013 15.6159L15.0297 11.3035L12.5909 15.0712C12.4012 15.3273 12.2988 15.6376 12.2988 15.9564C12.2988 16.2751 12.4012 16.5854 12.5909 16.8415L15.6083 21.7327H13.1808L10.1861 17.1139ZM13.9068 25.9657V23.696H13.5438V23.3783C13.7933 23.3783 13.8954 23.2988 13.9521 22.7768H14.0996V25.9657H13.9068ZM15.8918 25.9657C15.5402 25.9657 15.4381 25.421 15.4381 25.1146H15.6309C15.6309 25.4323 15.733 25.6366 15.8918 25.6366C16.0507 25.6366 16.2095 25.2621 16.2548 24.445C16.1981 24.6833 16.0506 24.8195 15.9031 24.8195C15.7557 24.8195 15.4267 24.4337 15.4267 23.7981C15.4267 23.1626 15.5969 22.6633 15.9145 22.6633C16.4022 22.6633 16.4477 23.6279 16.4477 24.1386C16.4477 24.6493 16.4703 26.0224 15.9372 26.0224L15.8918 25.9657ZM17.7975 25.8976H17.582C17.6583 24.9645 17.8684 24.0472 18.2059 23.174H17.3665V22.7768H18.4214V23.1286C18.0802 24.0339 17.8849 24.9877 17.8429 25.9543L17.7975 25.8976ZM19.9073 25.9884C19.853 25.9876 19.7995 25.9751 19.7505 25.9515C19.7016 25.928 19.6583 25.8941 19.6238 25.8522C19.4529 25.5733 19.3735 25.2479 19.3969 24.9216H19.5897C19.5897 25.228 19.5897 25.6252 19.9187 25.6252C20.2477 25.6252 20.2476 25.3869 20.2476 25.0124C20.2476 24.6379 20.0208 24.4337 19.896 24.4337H19.8052V24.0819H19.9073C20.0548 24.0819 20.1909 23.9684 20.1909 23.5598C20.1909 23.3669 20.1909 23.0605 19.9073 23.0605C19.6238 23.0605 19.6238 23.5258 19.6124 23.7414H19.4309C19.4309 23.2761 19.5217 22.6973 19.9187 22.6973C20.3157 22.6973 20.3951 23.0491 20.3951 23.5371C20.3951 24.0251 20.2817 24.1386 20.2023 24.1954C20.3497 24.2975 20.4518 24.5131 20.4518 24.9444C20.4518 25.3756 20.3384 26.0452 19.9527 26.0452L19.9073 25.9884ZM23.662 17.1933L20.656 21.6646H17.0715L14.1109 16.955C13.8968 16.7628 13.7503 16.5067 13.693 16.2246C13.6358 15.9425 13.671 15.6495 13.7933 15.3889L15.2566 13.1192L16.6632 15.1506C15.336 15.6386 16.1641 16.4784 16.1641 16.4784L18.4327 19.656H19.5671L21.6315 16.6827C21.7931 16.4199 21.8786 16.1173 21.8786 15.8088C21.8786 15.5003 21.7931 15.1978 21.6315 14.935L16.5724 7.44501H18.8978L23.8094 14.5946C24.0565 14.9978 24.1785 15.4652 24.1604 15.9378C24.1422 16.4104 23.9846 16.867 23.7073 17.2501L23.662 17.1933Z" fill="#BBBBBB"/>
<path d="M1.97376 18.9061C2.29137 18.9061 2.60896 18.9061 2.94926 18.9856C2.94926 19.1218 3.00599 19.2466 3.02867 19.3827C3.05136 19.5189 3.09675 19.7005 3.11944 19.8708C2.82451 20.0296 2.54091 20.1771 2.24598 20.3133C2.24598 20.4155 2.30271 20.5289 2.3254 20.6311C2.33164 20.7483 2.33164 20.8657 2.3254 20.9829C3.00599 20.5403 4.29916 19.8481 5.26334 19.3033C5.26334 19.3033 5.26334 19.2125 5.26334 19.1558C5.25761 19.1068 5.25761 19.0573 5.26334 19.0083C4.12901 18.8834 2.43886 18.6224 1.86035 18.543C1.8652 18.6034 1.8652 18.6641 1.86035 18.7245C1.96244 18.7926 1.96241 18.838 1.97376 18.9061ZM4.37853 19.1785C4.04957 19.3714 3.7206 19.553 3.36896 19.7346L3.23284 19.0309C3.62986 19.0763 4.0042 19.1104 4.37853 19.1785V19.1785Z" fill="#BBBBBB"/>
<path d="M4.66193 21.9928C5.14969 21.8226 5.49 21.6977 5.87567 21.5842C5.82766 21.4926 5.78599 21.3978 5.75091 21.3005C5.71113 21.2015 5.68072 21.0989 5.66015 20.9941C5.28582 21.153 4.95688 21.2779 4.46911 21.4594L3.87924 21.6637C3.39148 21.8453 3.05117 21.9588 2.6655 22.0836C2.27983 22.2084 2.24584 22.1404 2.06434 21.9701L1.88281 22.1063C2.18908 22.6056 2.58609 22.7645 3.28937 22.5035L4.07206 22.2084L4.66193 21.9928Z" fill="#BBBBBB"/>
<path d="M6.95368 23.321C6.83539 23.1492 6.68329 23.0035 6.5067 22.8926C6.33012 22.7817 6.13276 22.7081 5.92673 22.6762C5.7207 22.6443 5.51029 22.6549 5.30847 22.7072C5.10666 22.7595 4.9177 22.8525 4.75308 22.9805C4.56095 23.0696 4.39079 23.1999 4.25473 23.3622C4.11868 23.5245 4.02004 23.7149 3.96589 23.9197C3.91174 24.1245 3.90336 24.3387 3.94138 24.5471C3.9794 24.7555 4.06293 24.9529 4.18591 25.1254C4.30715 25.2937 4.46082 25.436 4.63787 25.5439C4.81493 25.6519 5.01181 25.7233 5.21688 25.754C5.42195 25.7846 5.63108 25.774 5.83195 25.7225C6.03283 25.6711 6.22139 25.5799 6.38651 25.4545C6.57554 25.3637 6.74262 25.233 6.87634 25.0714C7.01007 24.9098 7.10721 24.7211 7.1611 24.5184C7.215 24.3156 7.22441 24.1036 7.18859 23.8969C7.15277 23.6902 7.07264 23.4937 6.95368 23.321ZM4.41279 24.9438C4.16324 24.5807 4.2426 24.07 5.07066 23.5253C5.89871 22.9805 6.43187 23.0032 6.7268 23.4572C7.02172 23.9111 6.72682 24.4218 6.11429 24.8644C5.27488 25.4204 4.66235 25.3297 4.41279 24.9438Z" fill="#BBBBBB"/>
<path d="M9.36977 26.6572C9.08619 26.975 8.79125 27.2814 8.50767 27.5878C7.90648 28.2006 7.37334 28.7226 6.87423 28.3141C6.37513 27.9056 6.44319 27.6332 7.22587 26.8275C7.6002 26.4416 7.9405 26.1012 8.3602 25.6926C8.26991 25.6337 8.18621 25.5652 8.11061 25.4883C8.03295 25.4143 7.9609 25.3347 7.89509 25.25L7.25987 25.9423C7.02166 26.1919 6.84017 26.3508 6.48853 26.714C6.36783 26.8205 6.27116 26.9514 6.20495 27.0982C6.13874 27.2449 6.10449 27.4041 6.10449 27.5651C6.10449 27.7261 6.13874 27.8853 6.20495 28.032C6.27116 28.1788 6.36783 28.3097 6.48853 28.4162C7.02167 28.9383 7.62289 28.8929 8.3602 28.1212C8.75463 27.6985 9.17111 27.2969 9.60794 26.9182L9.44918 26.7934C9.4182 26.7508 9.39159 26.7051 9.36977 26.6572V26.6572Z" fill="#BBBBBB"/>
<path d="M14.44 29.0747C14.3379 29.4946 14.2471 29.9031 14.1337 30.3116C13.9068 31.1401 13.6573 31.9004 13.0562 31.7416C12.455 31.5827 12.3528 31.3557 12.6477 30.2663C12.7839 29.7556 12.92 29.2903 13.1242 28.7229H12.8066C12.701 28.6951 12.5984 28.6571 12.5003 28.6094C12.5003 28.7683 12.3982 29.0633 12.2735 29.54C12.1487 30.0166 12.1147 30.096 11.9899 30.5727C11.9362 30.7237 11.9151 30.8843 11.928 31.0441C11.9409 31.2038 11.9874 31.359 12.0646 31.4994C12.1417 31.6399 12.2478 31.7624 12.3757 31.8589C12.5035 31.9554 12.6504 32.0237 12.8066 32.0593C13.5439 32.2636 14.0317 31.9345 14.3152 30.9245C14.5194 30.1528 14.7236 29.5286 14.8143 29.2676H14.6215C14.5455 29.22 14.4829 29.1535 14.44 29.0747V29.0747Z" fill="#BBBBBB"/>
<path d="M17.378 29.4388C17.378 29.6544 17.378 30.9141 17.378 31.6404C16.8335 30.8914 16.2436 30.1311 15.7672 29.3707C15.711 29.382 15.6532 29.382 15.5971 29.3707H15.4269C15.4269 29.5864 15.4269 29.8701 15.4269 30.2786C15.4269 31.2319 15.2908 32.4121 15.2681 32.5483H15.4496H15.6311C15.6311 32.3781 15.6311 32.117 15.6311 31.4134C15.6311 31.0616 15.6311 30.6758 15.6878 30.2786C16.255 31.0503 16.8221 31.822 17.2986 32.5483H17.4574H17.6161C17.6161 31.3113 17.6842 30.7098 17.7977 29.3594C17.7377 29.3705 17.6761 29.3705 17.6161 29.3594L17.378 29.4388Z" fill="#BBBBBB"/>
<path d="M19.3404 30.5272C19.2383 30.0279 19.1816 29.6761 19.1362 29.2676L18.8299 29.347H18.501C18.6031 29.7329 18.6711 30.0846 18.7732 30.5953L18.8866 31.2082C18.9774 31.7188 19.0341 32.0707 19.0908 32.4679L19.3971 32.3997H19.7147C19.6126 32.0025 19.5445 31.6621 19.4538 31.1514L19.3404 30.5272Z" fill="#BBBBBB"/>
<path d="M21.8584 28.4959H21.6883C21.6883 29.2336 21.7677 30.1074 21.7791 30.9245C21.2913 30.2776 20.7355 29.5627 20.3385 28.9726C20.2379 29.0295 20.1314 29.0751 20.0208 29.1087L19.6919 29.1995C20.1683 29.7897 21.2686 31.1855 21.7564 31.8437L21.9038 31.7756H22.074C22.0059 30.6408 22.0059 29.1882 22.0059 28.3711C21.9658 28.4223 21.9156 28.4648 21.8584 28.4959V28.4959Z" fill="#BBBBBB"/>
<path d="M25.2502 29.744C25.0184 29.9318 24.776 30.1061 24.5242 30.2661C24.4221 30.1186 24.3086 29.9597 24.2066 29.7894L23.9003 29.2901C24.1459 29.133 24.3995 28.989 24.6603 28.8589C24.6192 28.8083 24.5814 28.7553 24.5469 28.7C24.5051 28.646 24.4742 28.5843 24.4561 28.5184L23.7302 29.0177C23.5373 28.734 23.3672 28.4617 23.1971 28.1666L23.9684 27.7354L23.8436 27.5765L23.7529 27.4062C23.6735 27.4743 23.4012 27.6559 23.0836 27.8602C22.766 28.0645 22.6753 28.0985 22.4824 28.212C22.7206 28.5411 22.9248 28.8362 23.1971 29.2674L23.5373 29.8008C23.8209 30.2434 24.0024 30.5384 24.1953 30.9356C24.2633 30.8789 24.3541 30.8222 24.8872 30.4817C25.1821 30.2888 25.3409 30.198 25.4657 30.1299L25.3409 29.971C25.3038 29.8983 25.2735 29.8223 25.2502 29.744V29.744Z" fill="#BBBBBB"/>
<path d="M26.2146 26.3179C26.1384 26.2322 26.0436 26.165 25.9373 26.1217C25.8311 26.0785 25.7164 26.0602 25.602 26.0683C25.4319 26.0683 25.2958 26.1477 25.0122 26.4201C24.7286 26.6924 24.7172 26.7492 24.6265 26.84C24.5496 26.9154 24.4661 26.9837 24.377 27.0442C24.6832 27.3166 24.9328 27.5663 25.2958 27.9294L25.7382 28.3834C26.1011 28.7579 26.3507 29.0075 26.6115 29.3139L26.8271 29.0756L27.0653 28.8713C26.7704 28.5876 26.5208 28.3493 26.1579 27.9748L26.0217 27.8386L27.5417 28.3947L27.7799 28.1337L28.0408 27.9067C27.4736 27.7365 26.9065 27.5663 26.362 27.3733C26.4701 27.2096 26.5148 27.0121 26.4876 26.8178C26.4605 26.6235 26.3634 26.4457 26.2146 26.3179V26.3179ZM25.9423 27.6457C25.9354 27.6593 25.9258 27.6713 25.9141 27.681C25.9024 27.6908 25.8888 27.6981 25.8743 27.7025L25.0008 26.8059C25.3071 26.4995 25.4772 26.4201 25.8629 26.8059C26.2486 27.1918 26.1465 27.4074 25.9423 27.6457V27.6457Z" fill="#BBBBBB"/>
<path d="M28.9029 25.318C28.0522 24.6938 27.4964 25.7492 26.9519 25.318C26.9068 25.2884 26.8682 25.2499 26.8385 25.2049C26.8087 25.1599 26.7885 25.1093 26.7789 25.0562C26.7694 25.0031 26.7707 24.9486 26.7829 24.8961C26.7951 24.8435 26.8179 24.794 26.8498 24.7505C26.916 24.6583 27.013 24.5928 27.1232 24.5658C27.2334 24.5387 27.3497 24.5519 27.451 24.603V24.603L27.1448 24.2285C26.9672 24.2685 26.8058 24.3609 26.6814 24.4938C26.5571 24.6268 26.4756 24.794 26.4474 24.9739C26.4193 25.1537 26.4459 25.3379 26.5237 25.5025C26.6015 25.667 26.727 25.8044 26.8839 25.8967C27.7233 26.5096 28.2564 25.4655 28.8122 25.8967C28.8651 25.9276 28.9109 25.9693 28.9464 26.0193C28.982 26.0692 29.0064 26.1261 29.0182 26.1863C29.03 26.2464 29.0289 26.3084 29.0149 26.368C29.0009 26.4277 28.9743 26.4837 28.937 26.5323C28.8573 26.641 28.74 26.7163 28.608 26.7435C28.476 26.7708 28.3386 26.7481 28.2224 26.6798V26.7365C28.3698 26.884 28.4832 27.0089 28.6194 27.1678C28.8386 27.1094 29.0285 26.972 29.1525 26.7819C29.243 26.6735 29.3088 26.5468 29.3456 26.4105C29.3823 26.2742 29.389 26.1315 29.3653 25.9923C29.3416 25.8532 29.288 25.7208 29.2081 25.6044C29.1283 25.4879 29.0242 25.3902 28.9029 25.318V25.318Z" fill="#BBBBBB"/>
<path d="M28.9593 23.6505C28.5169 23.3668 28.222 23.1625 27.893 22.9355C27.8501 23.0296 27.8008 23.1206 27.7456 23.2079C27.6775 23.3214 27.5981 23.3895 27.5527 23.4689C27.9044 23.6619 28.2106 23.8434 28.6871 24.1272L29.2089 24.4676C29.6513 24.7513 29.9462 24.9442 30.2752 25.1826L30.434 24.8988L30.6154 24.6492C30.2638 24.4449 29.9575 24.2633 29.4811 23.9796L28.9593 23.6505Z" fill="#BBBBBB"/>
<path d="M29.4131 21.3813L29.0387 21.2224C29.129 21.0088 29.2313 20.8004 29.345 20.5982H29.1522C29.0881 20.571 29.0272 20.5367 28.9707 20.4961C28.8572 20.8139 28.8119 20.9841 28.6304 21.438C28.4489 21.892 28.3809 22.0395 28.2334 22.3573L28.4376 22.414L28.6077 22.5048C28.6644 22.2891 28.7665 21.9714 28.8232 21.8239L29.1975 21.9601L30.2752 22.3913C30.7516 22.5729 31.0805 22.7204 31.4095 22.8906C31.4095 22.7999 31.4662 22.6977 31.5116 22.5842L31.6477 22.2892C31.262 22.1643 30.933 22.0395 30.4453 21.8466L29.4131 21.3813Z" fill="#BBBBBB"/>
<path d="M29.5495 17.8965C29.5495 17.9646 29.5495 18.0213 29.5495 18.0781C29.5337 18.1373 29.5109 18.1945 29.4814 18.2483C29.9078 18.5121 30.3136 18.8081 30.6951 19.1335V19.1335C30.4569 19.1902 29.6969 19.315 29.2092 19.3831C29.2092 19.4966 29.2092 19.6101 29.2092 19.7236C29.1782 19.8393 29.1403 19.9529 29.0957 20.064L31.1035 19.6782L31.5232 19.769C31.8068 19.8258 32.1017 19.9392 32.3739 20.0187L32.442 19.6896C32.442 19.5874 32.442 19.4739 32.5328 19.3718C32.1925 19.3718 31.8862 19.2583 31.5799 19.1902L31.1488 19.0767C30.525 18.7136 29.799 18.1462 29.5495 17.8965Z" fill="#BBBBBB"/>
</g>
<defs>
<clipPath id="clip0_4410_4964">
<rect width="152" height="34" fill="white"/>
</clipPath>
</defs>
</svg>
