<svg width="132" height="44" viewBox="0 0 132 44" fill="none" xmlns="http://www.w3.org/2000/svg">
<g clip-path="url(#clip0_4410_4879)">
<path d="M4.45184 15.6123H4.55429C5.23418 14.8851 8.1493 11.9303 8.73605 11.2675C9.3228 10.6047 9.73259 10.1261 9.73259 9.78551C9.73259 9.44492 9.64876 9.42649 9.45318 9.38967C9.2576 9.35285 9.1924 9.31604 9.1924 9.19637C9.1924 9.07671 9.29485 9.01226 9.50906 9.01226C9.92817 9.01226 11.0272 9.0767 11.5673 9.0767C12.1075 9.0767 13.281 9.01226 13.905 9.01226C14.1006 9.01226 14.2496 9.01227 14.2496 9.19637C14.2496 9.38047 14.1472 9.37127 13.9423 9.37127C13.5476 9.38157 13.1574 9.45621 12.7874 9.59218C11.9683 9.92785 11.2315 10.4332 10.6267 11.0742C10.012 11.6633 6.99443 14.6181 6.31454 15.3361C7.03168 16.2566 10.9713 20.4265 11.7257 21.1537C12.5363 22.0348 13.506 22.759 14.5849 23.2893C14.9752 23.4641 15.3955 23.5641 15.8236 23.5838C15.9633 23.5838 16.0844 23.5838 16.0844 23.7403C16.0844 23.8968 15.9819 23.9336 15.6001 23.9336H13.8585C13.2624 23.9336 12.9271 23.9336 12.4894 23.9336C11.5321 23.8241 10.6496 23.3683 10.012 22.6541C9.12721 21.8809 5.19693 17.3244 4.77782 16.7537L4.55429 16.4499H4.45184V18.2909C4.45184 20.1319 4.45184 21.66 4.51703 22.516C4.51703 23.0683 4.74056 23.501 5.23417 23.5746C5.55839 23.6197 5.88484 23.6474 6.21209 23.6575C6.37042 23.6575 6.47287 23.7219 6.47287 23.8139C6.47287 23.906 6.31454 24.0072 6.10033 24.0072C4.9734 24.0072 3.71608 23.952 3.21315 23.952C2.71022 23.952 1.49947 24.0072 0.698511 24.0072C0.437734 24.0072 0.298024 23.952 0.298024 23.8139C0.298024 23.6759 0.381851 23.6575 0.624002 23.6575C0.865323 23.6547 1.10569 23.627 1.34114 23.5746C1.74162 23.501 1.84407 23.0683 1.91858 22.4976C2.02102 21.66 2.02102 20.1043 2.02102 18.2909V14.6918C2.02102 11.6817 2.02102 11.1294 1.97445 10.5035C1.92789 9.87755 1.77887 9.50934 1.12692 9.37127C0.868265 9.33043 0.6065 9.31195 0.344594 9.31604C0.121071 9.31604 0 9.27001 0 9.14114C0 9.01227 0.139703 8.95703 0.437735 8.95703C1.49947 8.95703 2.75679 9.02147 3.23178 9.02147C3.70677 9.02147 4.96408 8.95703 5.64397 8.95703C5.92337 8.95703 6.06307 8.95704 6.06307 9.14114C6.06307 9.32524 5.94199 9.31604 5.78367 9.31604C5.59613 9.31839 5.40916 9.33687 5.22486 9.37127C4.68468 9.47252 4.52635 9.81312 4.48909 10.5035C4.45184 11.1939 4.44254 11.6817 4.44254 14.6918L4.45184 15.6123Z" fill="#BBBBBB"/>
<path d="M23.1255 23.1969C19.2883 23.1969 16.9879 19.9383 16.9879 15.8328C16.9879 10.9266 19.605 9.65628 21.9054 9.65628C25.1838 9.65628 27.7543 12.4178 27.7543 16.827C27.7543 22.5341 24.5225 23.1969 23.1255 23.1969ZM22.2873 24.191C23.3802 24.2416 24.4717 24.0671 25.4928 23.6788C26.5139 23.2905 27.4422 22.6967 28.2189 21.9351C28.9956 21.1735 29.6037 20.2607 30.0047 19.2546C30.4057 18.2486 30.5908 17.1711 30.5483 16.0906C30.5483 11.5709 27.4563 8.72656 22.4829 8.72656C16.4943 8.72656 14.2311 13.0897 14.2311 16.468C14.2023 17.5104 14.3928 18.5474 14.7907 19.5133C15.1886 20.4791 15.7851 21.3528 16.5425 22.0788C17.2998 22.8049 18.2016 23.3675 19.1905 23.7311C20.1794 24.0947 21.2339 24.2513 22.2873 24.191V24.191Z" fill="#BBBBBB"/>
<path d="M35.4377 10.2727C35.4377 10.1163 35.4377 10.0334 35.6147 9.99657C35.9636 9.92404 36.3204 9.8962 36.6765 9.91373C37.85 9.91373 39.7313 10.7238 39.7313 13.5313C39.7868 14.0805 39.7094 14.6349 39.5053 15.1487C39.3013 15.6624 38.9765 16.1209 38.5578 16.4861C38.143 16.7728 37.6342 16.8944 37.1328 16.8267C36.6195 16.8324 36.1081 16.7641 35.6147 16.6242C35.475 16.569 35.4377 16.4861 35.4377 16.2744V10.2727ZM33.1187 18.189C33.1187 20.03 33.1187 21.5581 33.0163 22.3957C32.9418 22.9664 32.8393 23.3991 32.4388 23.4727C32.2035 23.5257 31.963 23.5535 31.7217 23.5556C31.4795 23.5556 31.3957 23.62 31.3957 23.712C31.3957 23.8041 31.5447 23.9054 31.7962 23.9054C32.5971 23.9054 33.8545 23.8501 34.2363 23.8501C34.6182 23.8501 36.0152 23.9054 37.1701 23.9054C37.4308 23.9054 37.5705 23.8501 37.5705 23.712C37.5705 23.574 37.496 23.5556 37.3377 23.5556C37.0105 23.5443 36.6841 23.5167 36.3598 23.4727C35.7544 23.3991 35.6333 22.9664 35.5775 22.3957C35.475 21.5581 35.475 20.0024 35.475 18.1614V17.8853C35.475 17.7748 35.5402 17.738 35.6333 17.738H37.375C37.4409 17.7302 37.5078 17.7387 37.5696 17.7628C37.6314 17.7869 37.6861 17.8259 37.7289 17.8761C37.9897 18.1614 38.9117 19.5146 39.7126 20.5916C40.409 21.7372 41.3382 22.7277 42.4415 23.5004C43.1091 23.811 43.8491 23.9382 44.5836 23.8685H46.4463C46.6791 23.8685 46.8188 23.8686 46.8188 23.6752C46.8188 23.4819 46.7443 23.5188 46.586 23.5188C46.3984 23.5164 46.2115 23.4979 46.0272 23.4635C45.1493 23.2737 44.3619 22.797 43.7919 22.1104C42.6091 20.8953 41.2307 19.1372 39.4519 16.928C41.4729 15.3079 42.0876 13.9639 42.0876 12.5003C42.0865 11.9786 41.9642 11.464 41.7301 10.9964C41.4959 10.5288 41.1562 10.1206 40.7371 9.80328C39.6269 9.15614 38.344 8.85762 37.0583 8.94721C36.4343 8.94721 34.9162 9.01163 34.2643 9.01163C33.8452 9.01163 32.5878 8.94721 31.5354 8.94721C31.228 8.94721 31.0977 8.9472 31.0977 9.1313C31.0977 9.3154 31.2094 9.3062 31.433 9.3062C31.6949 9.30211 31.9566 9.32058 32.2153 9.36142C32.8672 9.4995 33.0349 9.82169 33.0721 10.4937C33.1094 11.1656 33.0721 11.6719 33.0721 14.6819L33.1187 18.189Z" fill="#BBBBBB"/>
<path d="M48.7189 14.6917C48.7189 11.6817 48.7189 11.1294 48.7189 10.5034C48.7189 9.8775 48.514 9.50929 47.862 9.37122C47.6034 9.33038 47.3416 9.3119 47.0797 9.31599C46.8562 9.31599 46.7351 9.26996 46.7351 9.14109C46.7351 9.01222 46.8841 8.95698 47.1822 8.95698C48.2439 8.95698 49.4919 9.02142 50.0507 9.02142C50.6095 9.02142 54.7074 9.02142 55.052 9.02142C55.3401 9.00142 55.6265 8.96143 55.9089 8.90175C56.0113 8.90175 56.1231 8.82812 56.2255 8.82812C56.328 8.82812 56.3466 8.90177 56.3466 9.00302C56.3466 9.10428 56.2535 9.38042 56.1883 10.2917C56.1883 10.485 56.1231 11.3595 56.0859 11.5988C56.0859 11.6909 56.03 11.8105 55.8903 11.8105C55.7506 11.8105 55.7133 11.7093 55.7133 11.5344C55.7112 11.2933 55.6704 11.054 55.5922 10.8256C55.4525 10.4666 55.2476 10.2273 54.2511 10.1168C53.9158 10.1168 51.811 10.034 51.4571 10.034C51.3639 10.034 51.3174 10.0984 51.3174 10.2273V15.2256C51.3174 15.3637 51.3173 15.4465 51.4571 15.4465C51.9041 15.4465 54.1952 15.4465 54.6516 15.4005C55.1079 15.3545 55.4339 15.3085 55.5829 15.106C55.7319 14.9034 55.7971 14.8574 55.8996 14.8574C55.9191 14.8558 55.9388 14.8586 55.9572 14.8656C55.9755 14.8726 55.992 14.8836 56.0054 14.8977C56.0188 14.9119 56.0289 14.9289 56.0347 14.9474C56.0406 14.9659 56.0421 14.9855 56.0393 15.0047C55.961 15.4834 55.9082 15.9657 55.881 16.4499C55.8344 16.8457 55.7971 17.6281 55.7971 17.7754C55.7971 17.9227 55.7971 18.1436 55.6202 18.1436C55.4432 18.1436 55.4339 18.07 55.4339 17.9687C55.4242 17.7311 55.3994 17.4944 55.3594 17.2599C55.257 16.8641 54.9775 16.5696 54.2418 16.4867C53.8599 16.4867 51.8855 16.4315 51.4012 16.4315C51.308 16.4315 51.2801 16.5051 51.2801 16.6248V18.1896C51.2801 18.8524 51.2801 20.675 51.2801 21.2457C51.3267 22.608 51.6433 22.9026 53.6737 22.9026C54.3043 22.94 54.9364 22.8588 55.5364 22.6633C56.0579 22.4331 56.3001 22.0189 56.4677 21.2089C56.4677 20.9879 56.5422 20.9051 56.6819 20.9051C56.8216 20.9051 56.8402 21.0708 56.8402 21.2641C56.8061 21.9991 56.7221 22.731 56.5888 23.4549C56.4398 23.9704 56.2721 23.9704 55.5084 23.9704C52.4909 23.9704 51.1497 23.8507 49.9762 23.8507C49.5105 23.8507 48.2625 23.906 47.4616 23.906C47.2008 23.906 47.0611 23.8507 47.0611 23.7126C47.0611 23.5746 47.1356 23.5562 47.3777 23.5562C47.6191 23.5541 47.8595 23.5263 48.0949 23.4733C48.4953 23.3997 48.5978 22.967 48.6723 22.3963C48.7748 21.5587 48.7748 20.003 48.7748 18.1896L48.7189 14.6917Z" fill="#BBBBBB"/>
<path d="M62.7634 17.7759C62.6889 17.7759 62.6703 17.7114 62.6889 17.6286L64.5516 12.7776C64.5516 12.6947 64.6075 12.5934 64.6727 12.5934C64.7379 12.5934 64.7565 12.6947 64.7659 12.7776L66.5727 17.6562C66.5727 17.7114 66.5727 17.7759 66.4702 17.7759H62.7634ZM66.8241 18.7608C66.868 18.7573 66.9117 18.7692 66.9475 18.7945C66.9832 18.8198 67.0088 18.8568 67.0197 18.8989L68.6216 23.0779C68.6445 23.1195 68.6578 23.1656 68.6606 23.2128C68.6634 23.2601 68.6556 23.3074 68.6378 23.3513C68.62 23.3952 68.5927 23.4348 68.5577 23.4671C68.5227 23.4994 68.4809 23.5236 68.4354 23.5382C68.2398 23.5382 68.1559 23.5934 68.1559 23.7131C68.1559 23.8328 68.3981 23.8512 68.7613 23.8696C70.3539 23.8696 71.8068 23.8696 72.5333 23.8696C73.2597 23.8696 73.4646 23.8696 73.4646 23.6763C73.4646 23.483 73.3715 23.5198 73.2132 23.5198C72.9316 23.5215 72.6506 23.4938 72.375 23.437C71.9558 23.3449 71.3691 23.0688 70.6147 21.2922C69.3388 18.2914 66.1349 10.2462 65.6599 9.15077C65.4644 8.69052 65.3433 8.51562 65.157 8.51562C64.9707 8.51562 64.8403 8.73653 64.5982 9.30724L59.5876 21.7064C59.1871 22.6913 58.8145 23.3633 57.8925 23.4738C57.6858 23.5035 57.4773 23.5189 57.2685 23.5198C57.1102 23.5198 57.0356 23.5198 57.0356 23.6763C57.0356 23.8328 57.1474 23.8696 57.4082 23.8696C58.4513 23.8696 59.5503 23.8144 59.7645 23.8144C60.3885 23.8144 61.2454 23.8696 61.888 23.8696C62.1022 23.8696 62.2233 23.8696 62.2233 23.6763C62.2233 23.483 62.1674 23.5198 61.9252 23.5198H61.6272C61.0032 23.5198 60.8262 23.2621 60.8262 22.9031C60.861 22.4911 60.9616 22.0872 61.1243 21.7064L62.2046 18.8805C62.2046 18.7608 62.2884 18.724 62.3909 18.724L66.8241 18.7608Z" fill="#BBBBBB"/>
<path d="M76.6687 21.2264C76.6687 22.7636 76.9667 23.2791 77.3672 23.4172C77.7016 23.5199 78.051 23.5666 78.401 23.5553C78.6245 23.5553 78.7456 23.5553 78.7456 23.7117C78.7456 23.8682 78.5593 23.9051 78.2892 23.9051C76.9854 23.9051 76.1937 23.8498 75.8118 23.8498C75.6256 23.8498 74.6942 23.9051 73.6511 23.9051C73.3903 23.9051 73.2134 23.905 73.2134 23.7117C73.2134 23.5184 73.3345 23.5553 73.5394 23.5553C73.8531 23.5644 74.1665 23.5303 74.4707 23.454C74.9923 23.2975 75.0668 22.7268 75.0854 21.0055L75.2624 9.32432C75.2624 8.9285 75.3275 8.65234 75.5231 8.65234C75.7187 8.65234 75.9236 8.90088 76.2682 9.25988C76.6128 9.61887 79.5373 12.7394 82.4617 15.6021C83.8215 16.9461 86.513 19.7812 86.8483 20.1034H86.9508L86.7552 11.239C86.7552 10.0331 86.5503 9.6557 86.066 9.46239C85.7246 9.36368 85.3687 9.3232 85.0136 9.34272C84.7714 9.34272 84.6969 9.28749 84.6969 9.16782C84.6969 9.04816 84.9111 8.98371 85.2092 8.98371C86.2523 8.98371 87.2116 9.04815 87.6307 9.04815C87.8542 9.04815 88.6086 8.98371 89.5865 8.98371C89.8473 8.98371 90.0429 8.98372 90.0429 9.16782C90.0429 9.35192 89.9311 9.34272 89.6889 9.34272C89.4886 9.33496 89.2882 9.35353 89.0929 9.39795C88.5341 9.56364 88.3664 9.97785 88.3571 11.0825L88.0684 23.5368C88.0684 23.9695 87.9939 24.1444 87.8169 24.1444C87.545 24.0859 87.3035 23.9322 87.137 23.7117C85.8797 22.5335 83.3185 19.9377 81.2509 17.9126C79.1833 15.8875 76.8457 13.3101 76.4917 12.9327H76.4265L76.6687 21.2264Z" fill="#BBBBBB"/>
<path d="M101.834 38.4594V36.959H100.595V37.0971C100.66 37.0971 100.716 37.1523 100.781 37.272C100.836 37.3969 100.865 37.5316 100.865 37.6678V41.9849H101.796V39.1682H102.97V38.4594H101.834Z" fill="#BBBBBB"/>
<path d="M98.2572 41.543H97.0278V41.6902C97.0745 41.6964 97.1182 41.7164 97.1531 41.7477C97.188 41.7789 97.2125 41.8198 97.2234 41.8651C97.2681 41.9569 97.2904 42.0578 97.2886 42.1597V43.1722C97.2746 43.3519 97.3314 43.53 97.447 43.6693C97.5898 43.7794 97.7694 43.832 97.9499 43.8166H102.038V43.1262H98.3131L98.2572 41.543Z" fill="#BBBBBB"/>
<path d="M112.06 41.6616C111.838 42.0353 111.576 42.3841 111.278 42.7018L110.84 42.3888C111.324 41.7418 111.69 41.0159 111.92 40.2441C112.167 39.4695 112.323 38.6696 112.386 37.86H111.138V37.1788H114.398V37.86H113.466C113.421 38.1699 113.358 38.4771 113.28 38.7805C113.207 39.0921 113.117 39.3994 113.01 39.701C113.366 40.0517 113.693 40.4303 113.988 40.8332C114.3 41.2303 114.531 41.6836 114.668 42.1679L113.932 42.665C113.827 42.2127 113.654 41.7783 113.42 41.3763C113.229 41.0088 113.008 40.6578 112.758 40.3269C112.557 40.787 112.323 41.2329 112.06 41.6616V41.6616ZM117.378 43.9813H116.447V39.655H115.972V43.9905H115.04V37.7035C115.046 37.5707 115.021 37.4383 114.966 37.3169C114.952 37.2756 114.928 37.2386 114.895 37.2095C114.862 37.1804 114.822 37.1603 114.779 37.1512V37.0039H115.953V38.983H116.428V37.0039H117.359L117.378 43.9813Z" fill="#BBBBBB"/>
<path d="M122.454 42.6846V41.1105H123.776C123.861 41.1152 123.946 41.1029 124.026 41.0745C124.106 41.046 124.179 41.0019 124.242 40.9448C124.352 40.8102 124.405 40.6387 124.391 40.4662V37.1523H123.459V38.4319H120.2V37.1523H118.961V37.2904C119.026 37.2904 119.091 37.3457 119.147 37.4561C119.196 37.5793 119.221 37.7104 119.222 37.8427V40.4662C119.215 40.5544 119.227 40.6431 119.256 40.7268C119.285 40.8106 119.33 40.8879 119.389 40.954C119.52 41.069 119.69 41.1286 119.864 41.1197H121.494V42.6938H118.803V43.4026H124.996V42.6938L122.454 42.6846ZM120.19 40.4017V39.1038H123.459V40.4017H120.19Z" fill="#BBBBBB"/>
<path d="M130.771 36.9586V37.0875C130.827 37.0875 130.892 37.1519 130.948 37.2624C131.006 37.3894 131.035 37.5279 131.032 37.6674V38.726H129.718C129.676 38.5888 129.613 38.4586 129.532 38.3394C129.445 38.2023 129.342 38.0756 129.225 37.962H129.979V37.2624H128.405V36.5996H127.148V36.7285C127.213 36.7285 127.269 36.7745 127.325 36.8758C127.39 36.9841 127.423 37.1087 127.418 37.2348V37.2348H125.797V37.9343H126.552C126.38 38.1237 126.239 38.3379 126.133 38.5695C126.037 38.7515 125.985 38.9533 125.984 39.1586C125.983 39.3893 126.035 39.6173 126.135 39.8258C126.235 40.0344 126.38 40.2184 126.561 40.3645C126.921 40.6807 127.381 40.863 127.862 40.8798C128.343 40.8966 128.815 40.7469 129.197 40.4565C129.366 40.3309 129.508 40.1736 129.615 39.9935C129.722 39.8134 129.792 39.6141 129.821 39.4072H131.078V40.8524H132.056V36.931L130.771 36.9586ZM128.619 39.9503C128.526 40.0543 128.411 40.1376 128.283 40.1946C128.154 40.2516 128.015 40.2811 127.874 40.2811C127.733 40.2811 127.594 40.2516 127.466 40.1946C127.337 40.1376 127.223 40.0543 127.129 39.9503C126.927 39.7247 126.817 39.4324 126.822 39.131C126.815 38.8292 126.925 38.5363 127.129 38.3118C127.223 38.2077 127.337 38.1244 127.466 38.0674C127.594 38.0104 127.733 37.9809 127.874 37.9809C128.015 37.9809 128.154 38.0104 128.283 38.0674C128.411 38.1244 128.526 38.2077 128.619 38.3118C128.823 38.5363 128.933 38.8292 128.927 39.131C128.931 39.4324 128.822 39.7247 128.619 39.9503V39.9503Z" fill="#BBBBBB"/>
<path d="M126.868 41.3861C126.924 41.3861 126.989 41.4414 127.045 41.5702C127.109 41.6926 127.141 41.8285 127.138 41.966V43.0891C127.132 43.1816 127.145 43.2745 127.177 43.3617C127.209 43.4489 127.259 43.5285 127.325 43.5953C127.459 43.7173 127.636 43.7832 127.818 43.7794H131.32C131.41 43.7823 131.501 43.7675 131.585 43.7359C131.67 43.7043 131.748 43.6565 131.814 43.5953C131.88 43.5293 131.932 43.4501 131.966 43.3628C132 43.2756 132.015 43.1823 132.009 43.0891V41.248H126.868V41.3861ZM128.107 41.9384H131.031V43.0522H128.116L128.107 41.9384Z" fill="#BBBBBB"/>
<path d="M85.0599 42.7012V40.9062H83.8399V41.0351C83.8957 41.0351 83.9516 41.0903 84.0075 41.21C84.0721 41.3287 84.1042 41.4619 84.1006 41.5966V42.7012H81.9492V43.41H88.0682V42.7012H85.0599Z" fill="#BBBBBB"/>
<path d="M82.3125 37.1426V37.8698H86.5874V39.2413H82.4801V39.9685H86.606V40.6681C86.6158 41.1976 86.4875 41.7207 86.2335 42.1869H87.1648C87.4342 41.7263 87.5666 41.1998 87.5467 40.6681V37.1426H82.3125Z" fill="#BBBBBB"/>
<path d="M95.9382 38.9643C95.9437 39.3654 96.0691 39.756 96.2986 40.0869C96.5281 40.4177 96.8514 40.6742 97.228 40.8239C97.6045 40.9737 98.0175 41.01 98.4149 40.9284C98.8123 40.8469 99.1764 40.651 99.4615 40.3654C99.7466 40.0798 99.9399 39.7173 100.017 39.3235C100.094 38.9296 100.052 38.522 99.8953 38.1519C99.7387 37.7818 99.4749 37.4657 99.1371 37.2433C98.7992 37.021 98.4024 36.9024 97.9965 36.9023C97.4481 36.9096 96.9246 37.13 96.5393 37.5159C96.1541 37.9018 95.9382 38.4222 95.9382 38.9643V38.9643ZM97.9965 37.6387C98.2735 37.5876 98.5597 37.6222 98.816 37.7377C99.0724 37.8532 99.2864 38.0441 99.4289 38.2844C99.5715 38.5246 99.6355 38.8024 99.6124 39.0799C99.5893 39.3575 99.4801 39.6212 99.2997 39.8351C99.1193 40.0491 98.8766 40.2028 98.6045 40.2753C98.3325 40.3478 98.0445 40.3356 97.7797 40.2404C97.5149 40.1452 97.2863 39.9715 97.1251 39.7431C96.9639 39.5147 96.8779 39.2427 96.8789 38.9643C96.8552 38.6433 96.9585 38.3258 97.167 38.0785C97.3754 37.8313 97.6728 37.6736 97.9965 37.6387V37.6387Z" fill="#BBBBBB"/>
<path d="M88.9998 37.1414H92.7904V39.9029H90.1547V41.8544H92.8276C92.8276 41.8544 93.7124 41.8544 93.9452 41.569V37.7029C93.9452 37.7029 93.9452 37.1414 93.6751 37.0585V36.9297H94.9139V43.9715H93.9825V42.3054C93.9825 42.3054 93.8894 42.5448 92.8556 42.5448H89.9311C89.837 42.5644 89.7396 42.5626 89.6463 42.5394C89.5529 42.5163 89.4662 42.4725 89.3926 42.4112C89.3189 42.35 89.2604 42.273 89.2214 42.1861C89.1824 42.0992 89.1639 42.0046 89.1674 41.9096V39.8661C89.1778 39.7653 89.1609 39.6635 89.1183 39.5713C89.0758 39.4791 89.0092 39.3997 88.9253 39.3414V39.2125H91.8125V37.8318H89.0184L88.9998 37.1414Z" fill="#BBBBBB"/>
<path d="M103.845 37.1414H107.627V39.9029H104.991V41.8544H107.627C107.627 41.8544 108.558 41.8544 108.753 41.569V37.7029C108.753 37.7029 108.753 37.1414 108.483 37.0585V36.9297H109.713V43.9715H108.781V42.3054C108.781 42.3054 108.688 42.5448 107.645 42.5448H104.833C104.833 42.5448 104.059 42.6552 104.059 41.9096V39.8661C104.07 39.7662 104.054 39.6653 104.013 39.5733C103.972 39.4814 103.908 39.4014 103.827 39.3414V39.2125H106.695V37.8318H103.901L103.845 37.1414Z" fill="#BBBBBB"/>
<path d="M91.7937 14.6909C91.7937 17.6039 92.6677 20.4514 94.3051 22.8734C95.9425 25.2954 98.2698 27.1831 100.993 28.2979C103.716 29.4126 106.712 29.7042 109.602 29.136C112.493 28.5677 115.148 27.165 117.232 25.1052C119.316 23.0455 120.736 20.4212 121.311 17.5642C121.885 14.7073 121.59 11.746 120.463 9.05476C119.335 6.36356 117.425 4.06334 114.974 2.445C112.524 0.826662 109.643 -0.0371094 106.695 -0.0371094C102.743 -0.0371094 98.9528 1.51458 96.1583 4.27662C93.3637 7.03866 91.7937 10.7848 91.7937 14.6909Z" fill="#BBBBBB"/>
<path d="M99.114 10.4667C99.114 10.2826 99.1605 10.1997 99.3189 10.1537C99.7111 10.0763 100.111 10.0454 100.511 10.0617C101.843 10.0617 103.976 10.9822 103.976 14.1487C104.039 14.7738 103.95 15.4047 103.716 15.989C103.483 16.5734 103.112 17.0943 102.635 17.5085C102.166 17.8246 101.594 17.956 101.033 17.8767C100.454 17.8899 99.8764 17.8186 99.3189 17.665C99.1605 17.6006 99.114 17.5085 99.114 17.26V10.4667ZM96.4503 19.4324C96.4503 21.4851 96.4503 23.2525 96.3386 24.1914C96.2454 24.8357 96.1337 25.3236 95.6866 25.4156C95.4179 25.4771 95.1429 25.508 94.867 25.5077C94.5969 25.5077 94.5038 25.5721 94.5038 25.6918C94.5038 25.8115 94.6621 25.9035 94.9602 25.9035C95.8915 25.9035 97.2885 25.8391 97.7542 25.8391C98.2199 25.8391 99.7659 25.9035 101.079 25.9035C101.377 25.9035 101.526 25.8391 101.526 25.6918C101.526 25.5445 101.442 25.5077 101.265 25.5077C100.895 25.4976 100.525 25.4669 100.157 25.4156C99.4772 25.3236 99.3375 24.8357 99.2723 24.1914C99.1606 23.2709 99.1606 21.4851 99.1606 19.4048V19.0918C99.1606 18.9629 99.2258 18.9169 99.3375 18.9169L101.303 18.9629C101.379 18.9537 101.456 18.9631 101.527 18.9904C101.599 19.0177 101.662 19.062 101.712 19.1194C102.01 19.4508 103.044 20.9604 103.948 22.2031C105.214 23.9152 106.08 24.9646 107.049 25.4801C107.801 25.8398 108.639 25.9864 109.471 25.9035H111.613C111.892 25.9035 112.041 25.9035 112.041 25.6918C112.041 25.4801 111.957 25.5077 111.78 25.5077C111.567 25.5028 111.355 25.4782 111.147 25.4341C110.127 25.24 109.21 24.6954 108.558 23.8968C107.226 22.5161 105.661 20.5278 103.65 18.024C105.931 16.183 106.63 14.6734 106.63 13.0165C106.627 12.4248 106.488 11.8416 106.221 11.3118C105.955 10.782 105.569 10.3196 105.093 9.96039C103.836 9.23052 102.385 8.89361 100.93 8.99388C100.232 8.99388 98.5179 9.05832 97.7449 9.05832C97.2699 9.05832 95.8822 8.99388 94.6435 8.99388C94.3082 8.99388 94.1499 9.0399 94.1499 9.19639C94.1499 9.35287 94.2896 9.3989 94.5318 9.3989C94.8281 9.39199 95.1244 9.41357 95.4166 9.46334C96.1616 9.61983 96.3479 9.97883 96.3479 10.7336C96.3479 11.4885 96.3945 12.0776 96.3945 15.4742L96.4503 19.4324Z" fill="white"/>
<path d="M109.107 9.25149C109.107 5.85484 109.107 5.22891 109.107 4.51091C109.107 3.79292 108.875 3.3971 108.176 3.24062C107.884 3.19136 107.588 3.16977 107.291 3.17618C107.04 3.17618 106.9 3.13015 106.9 2.97366C106.9 2.81718 107.058 2.77115 107.403 2.77115C108.605 2.77115 110.02 2.83559 110.663 2.83559C111.305 2.83559 115.878 2.83559 116.307 2.83559C116.619 2.80598 116.93 2.75989 117.238 2.69752C117.357 2.65824 117.478 2.62747 117.601 2.60547C117.713 2.60547 117.732 2.69752 117.732 2.80798C117.647 3.28943 117.588 3.7749 117.555 4.26239C117.555 4.48331 117.49 5.46822 117.443 5.73517C117.443 5.84563 117.369 5.98372 117.21 5.98372C117.052 5.98372 117.015 5.87327 117.015 5.67076C117.015 5.39789 116.967 5.12702 116.875 4.8699C116.717 4.46488 116.493 4.18875 115.357 4.05988C114.975 4.01385 112.563 3.97701 112.153 3.97701C112.032 3.97701 111.985 4.04145 111.985 4.18873V9.84982C111.985 10.0063 111.985 10.0984 112.153 10.0984C112.647 10.0984 115.245 10.0984 115.767 10.0523C116.288 10.0063 116.651 9.94187 116.856 9.71175C117.061 9.48162 117.098 9.42639 117.21 9.42639C117.322 9.42639 117.368 9.47242 117.368 9.60129C117.368 9.73016 117.257 10.0984 117.192 11.2398C117.145 11.6816 117.098 12.5745 117.098 12.731C117.098 12.8875 117.098 13.1544 116.903 13.1544C116.707 13.1544 116.689 13.0716 116.689 12.9611C116.681 12.6895 116.653 12.4187 116.605 12.1511C116.493 11.7 116.176 11.3686 115.338 11.2306C114.91 11.2306 112.674 11.1662 112.125 11.1662C112.013 11.1662 111.985 11.2582 111.985 11.3963V13.1544C111.985 13.9184 111.985 15.9712 111.985 16.6247C112.032 18.162 112.395 18.4657 114.705 18.4657C115.424 18.5099 116.145 18.4161 116.828 18.1896C117.415 17.9226 117.694 17.4532 117.853 16.5419C117.899 16.2933 117.937 16.2013 118.095 16.2013C118.253 16.2013 118.281 16.3762 118.281 16.6063C118.241 17.4406 118.141 18.2711 117.983 19.0917C117.825 19.6716 117.62 19.6716 116.763 19.6716C113.345 19.6716 111.836 19.5335 110.495 19.5335C109.974 19.5335 108.558 19.6071 107.645 19.6071C107.356 19.6071 107.198 19.5335 107.198 19.377C107.198 19.2205 107.291 19.2021 107.561 19.2021C107.834 19.2019 108.106 19.171 108.372 19.1101C108.828 19.018 108.94 18.5302 109.024 17.8766C109.145 16.9561 109.145 15.1795 109.145 13.1176L109.107 9.25149Z" fill="white"/>
</g>
<defs>
<clipPath id="clip0_4410_4879">
<rect width="132" height="44" fill="white"/>
</clipPath>
</defs>
</svg>
