<svg width="142" height="32" viewBox="0 0 142 32" fill="none" xmlns="http://www.w3.org/2000/svg">
<g clip-path="url(#clip0_4410_4951)">
<path d="M37.6025 8.749L36.0552 1.55775L28.9002 0L12.9912 16L28.9002 32L36.0552 30.4423L37.6025 23.2467L30.3959 16L37.6025 8.749Z" fill="#BBBBBB"/>
<path d="M0 4.83518H2.44389V30.5444H11.991V1.45508H0V4.83518Z" fill="#BBBBBB"/>
<path d="M36.0552 1.55859L37.6025 8.74984L30.3959 16.0008H12.9912L36.0552 1.55859Z" fill="#BBBBBB"/>
<path d="M28.9002 32L12.9912 16L37.6025 23.2467L36.0552 30.4423L28.9002 32Z" fill="#BBBBBB"/>
<path d="M124.121 11.3998H125.358V16.7431C125.358 17.5156 125.492 18.5996 125.492 18.5996H125.453C125.453 18.5996 124.863 17.49 124.328 16.7175L119.156 9.31286H116.91V22.6924H119.401V15.3006L119.268 13.4185H119.307C119.644 14.0663 120.018 14.6947 120.427 15.3006L125.625 22.6882H127.854V9.30859H124.125L124.121 11.3998Z" fill="#BBBBBB"/>
<path d="M49.0675 12.7563C49.0675 11.9027 49.9295 11.3265 51.1881 11.3265C52.4467 11.3265 53.2441 11.9838 53.2441 12.7434V13.1062H55.688V12.3636C55.688 9.9395 53.0372 9.08594 51.3174 9.08594C48.6106 9.08594 46.4167 10.5455 46.4167 12.8501C46.4167 17.0838 53.507 16.6485 53.507 19.1025C53.507 20.1438 52.3303 20.6901 51.214 20.6901C49.1666 20.6901 47.5331 19.0897 47.5331 19.0897L46.1279 20.8395C46.7844 21.5044 47.57 22.031 48.4374 22.3875C49.3048 22.7439 50.2361 22.9229 51.1752 22.9136C54.257 22.9136 56.0587 21.1041 56.0587 18.9744C56.0587 14.4719 49.0675 15.0353 49.0675 12.7563Z" fill="#BBBBBB"/>
<path d="M78.3984 9.08595C77.4829 9.06408 76.5723 9.22516 75.7211 9.55955C74.8698 9.89394 74.0954 10.3948 73.444 11.0322C72.7927 11.6696 72.2778 12.4304 71.93 13.2692C71.5823 14.1081 71.4089 15.0077 71.4201 15.9144C71.397 16.8365 71.5604 17.7539 71.9008 18.6125C72.2412 19.4711 72.7517 20.2536 73.4022 20.9139C74.0526 21.5742 74.83 22.0989 75.6884 22.4572C76.5468 22.8155 77.469 23 78.4005 23C79.3321 23 80.2542 22.8155 81.1126 22.4572C81.9711 22.0989 82.7484 21.5742 83.3989 20.9139C84.0494 20.2536 84.5598 19.4711 84.9002 18.6125C85.2406 17.7539 85.4041 16.8365 85.3809 15.9144C85.3916 15.0075 85.2176 14.1078 84.8694 13.2689C84.5212 12.4301 84.0059 11.6693 83.3542 11.0319C82.7025 10.3946 81.9278 9.89384 81.0763 9.5595C80.2248 9.22515 79.3141 9.0641 78.3984 9.08595V9.08595ZM78.3984 20.609C75.9631 20.609 74.0019 18.5775 74.0019 15.9144C73.9835 15.3316 74.0835 14.751 74.2961 14.2072C74.5086 13.6633 74.8293 13.1673 75.2392 12.7486C75.649 12.3298 76.1397 11.9969 76.682 11.7695C77.2243 11.5421 77.8073 11.425 78.3962 11.425C78.9851 11.425 79.5681 11.5421 80.1104 11.7695C80.6527 11.9969 81.1434 12.3298 81.5532 12.7486C81.9631 13.1673 82.2838 13.6633 82.4964 14.2072C82.7089 14.751 82.8089 15.3316 82.7905 15.9144C82.7905 18.5818 80.8336 20.6133 78.3984 20.6133V20.609Z" fill="#BBBBBB"/>
<path d="M92.6307 9.30859H86.2085V11.3998H87.4412V22.6882H89.9239V18.4502H92.4324C95.0186 18.4502 97.2469 16.9437 97.2469 13.8538C97.2469 10.7639 95.1608 9.30859 92.6307 9.30859ZM92.3117 16.3419H89.9239V11.3998H92.3333C93.7083 11.3998 94.6953 12.2534 94.6953 13.8538C94.6953 15.4542 93.7212 16.3419 92.3117 16.3419Z" fill="#BBBBBB"/>
<path d="M104.717 9.30859H98.29V11.3998H99.5228V22.6882H102.018V18.4502H104.531C107.117 18.4502 109.341 16.9437 109.341 13.8538C109.341 10.7639 107.242 9.30859 104.717 9.30859ZM104.393 16.3419H102.018V11.3998H104.428C105.798 11.3998 106.794 12.2534 106.794 13.8538C106.794 15.4542 105.798 16.3419 104.393 16.3419Z" fill="#BBBBBB"/>
<path d="M65.7869 11.3998H67.0239V14.9848H61.0672V9.30859H57.3389V11.3998H58.5759V22.6924H61.0672V17.076H67.0239V22.6924H69.5109V9.30859H65.7869V11.3998Z" fill="#BBBBBB"/>
<path d="M136.522 15.1894V17.2806H139.759V19.2182C139.342 19.6661 138.834 20.0219 138.269 20.2624C137.704 20.5028 137.094 20.6226 136.479 20.6138C134.061 20.6138 132.311 18.8256 132.311 15.9192C132.311 13.2091 134.035 11.3825 136.384 11.3825C137.974 11.3825 139.181 11.9715 139.668 13.4951H141.97C141.724 11.327 140.095 9.10352 136.323 9.10352C132.401 9.10352 129.72 12.091 129.72 15.932C129.72 20.2468 132.479 22.9227 136.017 22.9227C136.721 22.9464 137.422 22.8319 138.08 22.5857C138.739 22.3396 139.341 21.9667 139.854 21.4887V22.6965H142.009V15.1894H136.522Z" fill="#BBBBBB"/>
<path d="M110.544 11.3998H111.781V22.6924H114.272V9.30859H110.544V11.3998Z" fill="#BBBBBB"/>
</g>
<defs>
<clipPath id="clip0_4410_4951">
<rect width="142" height="32" fill="white"/>
</clipPath>
</defs>
</svg>
