<svg width="142" height="34" viewBox="0 0 142 34" fill="none" xmlns="http://www.w3.org/2000/svg">
<g clip-path="url(#clip0_4410_4721)">
<path d="M102.471 8.52382C100.572 6.38864 97.4879 5.5918 94.6782 5.5918C88.2135 5.5918 84.2886 9.50116 84.2886 17.0117C84.2886 24.1877 87.3074 28.4316 94.6172 28.4316C97.3398 28.4316 100.206 27.7889 102.14 26.631L101.069 22.9374C99.154 23.8173 97.0734 24.2679 94.97 24.2581C90.3742 24.2581 89.1675 21.2953 89.1675 16.9589C89.1675 11.9225 91.4023 9.50996 94.8786 9.50996C95.804 9.51248 96.7194 9.70322 97.5703 10.0708C98.4213 10.4384 99.1903 10.9753 99.8316 11.6495L102.471 8.52382ZM119.387 5.93078V23.9367H118.838L112.543 5.93078H104.014V28.0662H108.627V9.7697H109.215L115.444 28.0662H123.961V5.93078H119.387ZM141.756 7.39678C139.7 6.17291 136.589 5.5918 134.385 5.5918C128.552 5.5918 125.864 8.23326 125.864 11.9753C125.864 15.2111 128.282 17.1658 130.909 18.2048C132.216 18.6934 133.658 19.1821 134.747 19.4859C136.489 19.9745 137.195 20.8286 137.195 22.0481C137.195 23.5757 136.136 24.4914 133.357 24.4914C131.194 24.3937 129.086 23.7765 127.206 22.6908L125.546 26.4153C127.958 27.7245 130.65 28.4168 133.388 28.4316C138.824 28.4316 142 25.6845 142 21.8676C142 18.262 140.092 16.9809 137.979 16.0652C137.164 15.7306 135.622 15.2419 134.808 14.9954C132.089 14.2338 130.608 13.5338 130.608 11.7288C130.608 10.386 131.48 9.34707 134.477 9.34707C136.481 9.38019 138.445 9.92702 140.183 10.9363L141.756 7.39678Z" fill="#BBBBBB"/>
<path d="M16.8194 33.9819C20.1466 33.9828 23.3992 32.9864 26.1659 31.1188C28.9326 29.2512 31.089 26.5963 32.3625 23.4899C33.6359 20.3836 33.9691 16.9653 33.3199 13.6675C32.6707 10.3697 31.0683 7.3406 28.7154 4.96333C26.3624 2.58605 23.3647 0.96742 20.1014 0.312194C16.838 -0.343032 13.4557 -0.00542415 10.3823 1.28232C7.30881 2.57006 4.68233 4.75009 2.83504 7.54661C0.987758 10.3431 0.00267345 13.6305 0.00439679 16.9929C0.00785929 21.4984 1.78069 25.8182 4.9335 29.0037C8.0863 32.1891 12.3613 33.9796 16.8194 33.9819" fill="#BBBBBB"/>
<path d="M16.1484 9.53906V24.4413H20.8445V23.1074H17.4945V9.53906H16.1484Z" fill="white"/>
<path d="M11.4481 13.604C11.8472 13.6049 12.2376 13.4861 12.5699 13.2626C12.9021 13.0392 13.1613 12.7211 13.3146 12.3488C13.468 11.9764 13.5085 11.5664 13.4312 11.1707C13.3539 10.775 13.1621 10.4114 12.8802 10.1259C12.5983 9.84042 12.2389 9.64584 11.8476 9.56683C11.4562 9.48783 11.0504 9.52793 10.6816 9.68208C10.3128 9.83623 9.99759 10.0975 9.77577 10.4328C9.55395 10.7681 9.43555 11.1623 9.43555 11.5657C9.43555 12.1055 9.64745 12.6233 10.0248 13.0054C10.4021 13.3876 10.914 13.6028 11.4481 13.604Z" fill="white"/>
<path d="M17.4943 2.77344C17.32 2.77344 16.9846 2.77344 16.8191 2.77344C14.0336 2.77344 11.3106 3.6082 8.99457 5.17215C6.67852 6.7361 4.87338 8.959 3.80742 11.5598C2.74146 14.1605 2.46255 17.0223 3.00597 19.7833C3.54939 22.5442 4.89074 25.0803 6.86038 27.0708C8.83002 29.0613 11.3395 30.4169 14.0715 30.9661C16.8034 31.5153 19.6352 31.2334 22.2087 30.1562C24.7821 29.0789 26.9817 27.2546 28.5292 24.914C30.0767 22.5734 30.9027 19.8216 30.9027 17.0065V16.3549H20.8442V17.6757H29.5567V17.8694C29.394 20.3448 28.5284 22.7202 27.0637 24.7111C25.599 26.7019 23.5972 28.2236 21.2984 29.0939C18.9996 29.9642 16.5013 30.146 14.1028 29.6177C11.7043 29.0894 9.50744 27.8733 7.77552 26.1152C5.99341 24.311 4.78025 22.0136 4.2892 19.5131C3.79816 17.0126 4.05126 14.4212 5.01655 12.066C5.98184 9.71075 7.61604 7.69741 9.71277 6.28015C11.8095 4.86289 14.2748 4.10528 16.7973 4.10298C16.9497 4.10298 17.3113 4.10298 17.4725 4.10298L17.4943 2.77344Z" fill="white"/>
<path d="M46.3241 5.92929H41.2622V28.0603H56.8052V23.7547H46.3241V5.92929ZM67.931 19.6253H72.052V23.4994C70.8733 23.8873 69.6411 24.0835 68.4015 24.0805C63.8493 24.0805 62.3333 21.7428 62.3333 16.997C62.3333 12.4713 63.7752 9.79903 68.3318 9.79903C70.8628 9.79903 72.3047 10.6047 73.4983 12.1367L76.6435 9.21791C74.7268 6.44438 71.3638 5.60352 68.2229 5.60352C61.1353 5.60352 57.4151 9.50847 57.4151 16.9618C57.4151 24.4151 60.7781 28.4081 68.1881 28.4081C71.5816 28.4081 74.9097 27.5276 76.7132 26.2553V15.4914H67.931V19.6253Z" fill="#BBBBBB"/>
</g>
<defs>
<clipPath id="clip0_4410_4721">
<rect width="142" height="34" fill="white"/>
</clipPath>
</defs>
</svg>
