<svg width="121" height="40" viewBox="0 0 121 40" fill="none" xmlns="http://www.w3.org/2000/svg">
<g clip-path="url(#clip0_4410_5073)">
<path d="M46.9994 6.87966V4.09508H43.7299V1.42188H40.2493V4.09508H36.9438V6.87966H40.119L36.3555 12.2528L38.857 13.9102L42.0008 9.38801L45.0368 13.8433C45.3287 13.6429 47.1791 12.3464 47.4665 12.1548L43.7928 6.90193L46.9994 6.87966Z" fill="#BBBBBB"/>
<path d="M47.5386 16.4219H44.314V24.094H53.8262V21.1846H47.5386V16.4219Z" fill="#BBBBBB"/>
<path d="M50.4443 14.4404H53.7049V3.92578H50.4443V7.75291H47.3813V10.7023H50.4443V14.4404V14.4404Z" fill="#BBBBBB"/>
<path d="M68.1213 6.91843V4.09375H58.7662V6.91843H61.5418L58.1016 12.3896L60.639 13.9712L63.437 9.33767L66.244 13.8866C66.5449 13.6995 68.4222 12.4921 68.7141 12.3094C68.5075 11.9842 65.3413 6.90507 65.3413 6.90507L68.1213 6.91843Z" fill="#BBBBBB"/>
<path d="M74.3013 3.92578H71.1216V14.4003H74.3013V10.6622H76.6726V14.4003H79.8164V3.92578H76.6726V7.70836H74.3013V3.92578Z" fill="#BBBBBB"/>
<path d="M94.0848 7.54354V3.8768H86.7148V0.882812H97.3139V7.56582L94.0848 7.54354Z" fill="#BBBBBB"/>
<path d="M90.7207 8.97235V11.4985H92.5172V8.95898H95.6116V11.4985H100.705V14.448H83.7729V11.4985H87.6668V8.99017L90.7207 8.97235Z" fill="#BBBBBB"/>
<path d="M114.052 26.1748H116.796V18.3379H108.443V21.323H114.052V26.1748Z" fill="#BBBBBB"/>
<path d="M112.597 9.97096C113.583 9.94295 114.54 9.62748 115.347 9.0639C116.153 8.50031 116.775 7.71355 117.134 6.80174C117.493 5.88993 117.574 4.89342 117.366 3.93648C117.158 2.97955 116.67 2.10454 115.964 1.42059C115.258 0.736645 114.365 0.274023 113.396 0.0904232C112.427 -0.0931768 111.424 0.0103744 110.514 0.388155C109.603 0.765935 108.825 1.40123 108.277 2.2148C107.728 3.02838 107.433 3.98424 107.428 4.96316C107.462 6.30152 108.021 7.57386 108.986 8.50922C109.952 9.44458 111.247 9.96906 112.597 9.97096V9.97096ZM112.557 3.034C113.086 3.04271 113.591 3.25211 113.97 3.61918C114.348 3.98624 114.57 4.48311 114.591 5.00771C114.578 5.53527 114.359 6.03707 113.979 6.40646C113.599 6.77585 113.089 6.98371 112.557 6.98588C112.045 6.96176 111.562 6.74305 111.208 6.37513C110.854 6.00722 110.657 5.51833 110.657 5.00994C110.657 4.50155 110.854 4.01267 111.208 3.64475C111.562 3.27683 112.045 3.05812 112.557 3.034V3.034Z" fill="#BBBBBB"/>
<path d="M108.42 17.4019H111.564V14.4079H113.603V17.4019H116.747V14.4079H121.018V11.4629H104.077V14.4079H108.42V17.4019V17.4019Z" fill="#BBBBBB"/>
<path d="M0.876064 4.40674L1.16798 4.52257L1.45991 4.63396H1.50482C1.74799 4.71524 2.00272 4.75736 2.25933 4.7587H2.86563H3.15755L3.49439 4.78544C3.57129 4.81449 3.65108 4.8354 3.73242 4.84782C4.10127 4.84658 4.46779 4.78948 4.81927 4.67851L4.9585 4.64732C5.78487 4.50921 5.90164 4.38446 5.96003 4.32208C6.14131 4.1508 6.26515 3.92839 6.31481 3.68497C6.31481 3.65824 6.31482 3.65378 6.35075 3.60923C6.43359 3.51545 6.47981 3.39531 6.481 3.27062V2.64242L6.51243 2.43302L6.55734 2.04986C6.55335 1.90041 6.50663 1.75517 6.42261 1.63106V1.59096V1.5375C6.42674 1.37265 6.39614 1.20877 6.33278 1.05632C6.3256 1.01804 6.3256 0.978769 6.33278 0.940486C6.33515 0.916782 6.33515 0.892902 6.33278 0.869199C6.33611 0.745571 6.30833 0.623068 6.25195 0.51277C6.0359 0.25563 5.73229 0.0860189 5.39863 0.0360531H5.36719H5.33575C4.88714 0.00621146 4.43702 0.00621146 3.98841 0.0360531H3.78632L3.40008 0.10288L2.95096 0.218717C2.73375 0.281446 2.5113 0.324691 2.28628 0.347925L1.92699 0.401387C1.70022 0.456139 1.4879 0.558423 1.3043 0.701362C1.12071 0.844301 0.970099 1.02458 0.862591 1.23008L0.741336 1.41275C0.657553 1.5213 0.613235 1.65476 0.615585 1.79146V2.01422L0.579648 2.29045C0.555122 2.36843 0.541523 2.44938 0.539229 2.53104C0.536642 2.56812 0.536642 2.60534 0.539229 2.64242V2.68252C0.532463 2.7536 0.506036 2.82143 0.462874 2.87855L0.391028 2.98103C0.283759 3.10478 0.226194 3.26339 0.22934 3.42656C0.223032 3.48729 0.223032 3.5485 0.22934 3.60923C0.229131 3.79544 0.293176 3.97611 0.410833 4.1212C0.52849 4.26629 0.69267 4.36705 0.876064 4.40674Z" fill="#BBBBBB"/>
<path d="M7.6526 2.25495C7.65817 2.40493 7.67771 2.55408 7.71099 2.70049C7.71099 2.7584 7.68853 2.96335 7.67955 3.09256L7.64811 3.47126C7.62638 3.60508 7.63573 3.74207 7.67542 3.87177C7.71511 4.00148 7.78411 4.1205 7.87716 4.21976C8.01315 4.36528 8.1768 4.48271 8.3587 4.56529C8.54059 4.64786 8.73716 4.69396 8.93707 4.70093C9.10866 4.68123 9.28196 4.68123 9.45355 4.70093L9.74097 4.7232H10.4685H10.7066L11.1557 4.75885C11.5819 4.80873 12.0116 4.82215 12.4401 4.79895C12.5159 4.78571 12.5934 4.78571 12.6692 4.79895C12.9162 4.82568 13.0464 4.77222 13.3204 4.54054C13.6471 4.30072 13.8879 3.9635 14.0075 3.57819C14.0474 3.44215 14.0671 3.30106 14.0659 3.15938L14.1064 2.9589C14.1411 2.84288 14.1622 2.72328 14.1692 2.60247C14.1687 2.54681 14.1611 2.49143 14.1468 2.43762L14.0255 2.1703C13.9886 2.11366 13.9599 2.05217 13.9402 1.98763L13.9851 1.84061C14.0542 1.67935 14.0952 1.50759 14.1064 1.33269C14.1116 1.18461 14.0674 1.03896 13.9806 0.918351L13.8818 0.717863C13.8271 0.55532 13.7135 0.418753 13.5629 0.334704L13.4776 0.285695C13.262 0.133154 13.0012 0.0563273 12.7366 0.0673807C12.6474 0.0723582 12.5579 0.0633376 12.4716 0.0406498L12.0809 -0.00390625L11.3308 0.0361969L10.5269 0.0762933L10.3203 0.0495624C10.1634 0.00173629 9.998 -0.0119394 9.8353 0.00946601C9.50295 0.036198 9.03587 0.0317372 9.03138 0.0317372H8.99544H8.91461L8.77538 0.0629279C8.53528 0.0860794 8.30654 0.175611 8.11519 0.321338L7.99841 0.410443C7.90485 0.468363 7.8264 0.547372 7.76943 0.641049C7.71246 0.734726 7.67859 0.840427 7.67057 0.949542V1.02973C7.61178 1.28687 7.59811 1.55213 7.63015 1.81387L7.6526 2.25495Z" fill="#BBBBBB"/>
<path d="M15.3054 3.85761C15.3773 4.12939 15.4986 4.59274 15.9162 4.6462C15.9685 4.65743 16.0185 4.67699 16.0644 4.70412C16.2813 4.81639 16.5257 4.8658 16.7696 4.84669C16.9773 4.84172 17.185 4.85814 17.3893 4.8957C17.6214 4.94168 17.8579 4.96112 18.0944 4.95362H18.3864C18.5959 4.96245 18.8057 4.94448 19.0106 4.90016L19.3699 4.84669C19.6798 4.81105 19.9987 4.7665 20.1424 4.46799L20.1873 4.36997C20.31 4.17104 20.3782 3.94372 20.3849 3.71058L20.4298 3.22495L20.4837 2.61011L20.4568 2.19131V2.06211C20.4537 1.95092 20.4228 1.84223 20.3669 1.74578V1.74578L20.3939 1.68786C20.4449 1.57997 20.4753 1.46367 20.4837 1.3448C20.4796 1.17715 20.4105 1.01753 20.2906 0.899267L20.2412 0.819067C20.1898 0.695013 20.1046 0.587611 19.9951 0.508915C19.8857 0.430219 19.7562 0.38334 19.6214 0.373534L18.4852 0.18641H18.3953C18.0819 0.12278 17.7598 0.113735 17.4432 0.159679C17.1154 0.213143 16.6752 0.235419 16.6708 0.235419H16.5944L16.5136 0.271063L16.4642 0.226507L16.2351 0.373534L15.7635 0.685406C15.5264 0.868019 15.3663 1.13167 15.3144 1.42499C15.3098 1.47389 15.3098 1.52312 15.3144 1.57202C15.3202 1.69599 15.3337 1.81949 15.3548 1.94181C15.3768 2.03838 15.3888 2.1369 15.3908 2.23587V2.2626C15.3107 2.42525 15.2663 2.60293 15.2605 2.78387C15.2513 2.84889 15.2513 2.91489 15.2605 2.97991L15.2381 3.11802C15.1667 3.3138 15.1667 3.52817 15.2381 3.72395L15.3054 3.85761Z" fill="#BBBBBB"/>
<path d="M21.6565 4.18434C21.6536 4.29326 21.6799 4.40099 21.7328 4.4965C21.7856 4.59201 21.8632 4.67186 21.9574 4.72789V4.72789C22.2874 4.88751 22.6431 4.98854 23.0083 5.02639C23.1815 5.06922 23.3624 5.07096 23.5364 5.03149C23.7104 4.99201 23.8726 4.91242 24.0098 4.79917C24.1736 4.67839 24.3065 4.52111 24.3978 4.34002C24.4891 4.15892 24.5362 3.95909 24.5353 3.75662C24.5651 3.52142 24.5651 3.28343 24.5353 3.04822L24.5038 2.68734V2.27745C24.5372 1.90498 24.4722 1.5303 24.3152 1.19035C24.0188 0.539871 23.8975 0.272548 23.5472 0.205718H23.4933C23.256 0.144736 23.0098 0.125142 22.7658 0.147803H22.5367L22.4694 0.178987C22.3029 0.2219 22.1511 0.308122 22.0295 0.428743C21.9079 0.549365 21.821 0.700014 21.7777 0.865113V0.936393C21.6995 1.1829 21.6995 1.4473 21.7777 1.69381C21.7913 1.80881 21.7821 1.92533 21.7508 2.03686L21.7014 2.42893V3.28436L21.661 3.43584C21.5726 3.6422 21.563 3.87345 21.634 4.08632C21.6461 4.11779 21.6536 4.15078 21.6565 4.18434V4.18434Z" fill="#BBBBBB"/>
<path d="M25.6177 2.8074V2.8475L25.703 3.54253V3.80986C25.7025 3.98784 25.7345 4.16444 25.7973 4.33113L25.8423 4.45142C25.9126 4.61475 25.9653 4.785 25.9994 4.95933C25.9994 4.95933 26.0533 5.15536 26.0713 5.20437V5.55189C26.0713 5.60981 26.0713 5.66773 26.0713 5.72119C26.0566 5.81354 26.064 5.90801 26.0929 5.997C26.1217 6.086 26.1713 6.16702 26.2375 6.23355C26.2857 6.2711 26.3418 6.2974 26.4017 6.31052C26.4615 6.32363 26.5236 6.32321 26.5833 6.3093C26.9246 6.2291 26.9695 5.92614 27.0055 5.65882V5.5608L27.0369 5.2712C27.0411 5.1566 27.0592 5.04291 27.0908 4.93259C27.115 4.83224 27.1543 4.7361 27.2076 4.64745C27.2856 4.50516 27.3503 4.35602 27.4007 4.20192C27.4626 4.00608 27.5048 3.80459 27.5264 3.60045C27.5426 3.44877 27.5758 3.29934 27.6252 3.15492L27.7195 2.93661C27.7963 2.80937 27.8369 2.66387 27.8369 2.51558C27.8369 2.3673 27.7963 2.22178 27.7195 2.09455L27.6252 1.8406C27.5808 1.6821 27.511 1.53169 27.4186 1.39506L27.2659 1.10992C27.2088 0.97218 27.1214 0.848873 27.01 0.749035C26.8192 0.597744 26.6055 0.477445 26.3767 0.392614H26.3138H26.1836C25.8378 0.307962 25.6671 0.544093 25.5369 0.76686L25.4964 0.829235C25.3713 0.99379 25.2951 1.18978 25.2764 1.39506C25.2819 1.54018 25.3123 1.68329 25.3662 1.81832C25.4796 2.13991 25.5638 2.47093 25.6177 2.8074Z" fill="#BBBBBB"/>
<path d="M5.45234 7.86414C5.15151 7.87477 4.85157 7.90304 4.55411 7.9488H4.46878L4.37447 8.02454L4.21278 8.1582C3.99569 8.31261 3.80209 8.49717 3.63792 8.7062C3.31036 9.10074 3.06326 9.5547 2.91035 10.0428C2.89027 10.1003 2.85451 10.1512 2.80705 10.1898C2.56902 10.4393 2.47471 10.6844 2.62741 11.3482L2.73969 11.9497C2.74984 12.1613 2.80372 12.3685 2.89798 12.5586C2.99223 12.7487 3.12485 12.9175 3.28761 13.0546C3.73469 13.4996 4.28534 13.8286 4.89094 14.0125C5.66342 14.2843 5.69036 14.3021 5.96881 14.3021H6.49876L6.73679 14.3333C6.92177 14.3801 7.11479 14.3864 7.30247 14.3518C7.49015 14.3171 7.66799 14.2424 7.82365 14.1328C7.99139 14.0412 8.16729 13.9651 8.34912 13.9056C8.55742 13.8651 8.75358 13.7778 8.92253 13.6504C9.09149 13.523 9.22873 13.3588 9.32369 13.1704C9.38031 13.0548 9.44959 12.9458 9.53027 12.8452C9.73673 12.5675 9.84986 12.2324 9.85364 11.8873C9.99167 11.1842 9.97944 10.4602 9.81771 9.76212L9.74585 9.50816C9.71157 9.33045 9.6361 9.16308 9.52542 9.01926C9.41474 8.87545 9.27188 8.75912 9.10811 8.67947C9.01901 8.62675 8.93871 8.56062 8.87008 8.48344C8.7084 8.30968 8.57816 8.21612 8.00779 8.06018C7.8334 8.02211 7.6665 7.95589 7.51376 7.86414C7.24219 7.70824 6.92056 7.66198 6.61554 7.73494L5.86103 7.82405L5.45234 7.86414Z" fill="#BBBBBB"/>
<path d="M24.6338 22.7309C24.6354 22.5341 24.5931 22.3395 24.51 22.1608C24.4269 21.9821 24.3051 21.8238 24.1533 21.6973L24.1263 21.6705C24.0161 21.5262 23.8724 21.4104 23.7074 21.3328C23.5425 21.2553 23.3611 21.2183 23.1787 21.225L22.779 21.1849C22.6151 21.1623 22.4489 21.1623 22.285 21.1849L21.9706 21.2116C21.7356 21.2262 21.5016 21.2545 21.27 21.2963L21.0409 21.3453C20.8332 21.3849 20.6199 21.3849 20.4122 21.3453L20.0169 21.2963C19.7636 21.2572 19.5048 21.2724 19.2579 21.3408L18.8627 21.4077L18.4136 21.4923C18.2795 21.5075 18.1501 21.5507 18.034 21.619C17.9179 21.6874 17.8177 21.7793 17.7399 21.8888L17.6232 22.0225L17.5962 22.0581C17.4987 22.2469 17.4392 22.4527 17.4211 22.6641C17.3619 22.8968 17.3974 23.1432 17.5199 23.3502C17.6054 23.5227 17.6775 23.7014 17.7355 23.8848C17.942 24.4997 18.1531 24.62 18.472 24.7759L18.6472 24.8472C19.1322 25.0215 19.6575 25.0539 20.1607 24.9407H20.2235C20.3145 24.918 20.4082 24.9075 20.502 24.9096H20.7849L21.3553 24.9407C21.6517 24.9675 22.0155 24.9942 22.4871 25.0031C22.9859 25.0353 23.478 24.8758 23.8614 24.5576C24.1903 24.3219 24.4343 23.9877 24.5575 23.6041C24.6607 23.4005 24.6939 23.1689 24.6518 22.9448L24.6338 22.7309Z" fill="#BBBBBB"/>
<path d="M27.8227 17.5188L27.7958 16.8951C27.8161 16.7575 27.7994 16.6171 27.7473 16.488C27.6953 16.3589 27.6097 16.2457 27.4994 16.16C27.4788 16.1469 27.4611 16.13 27.4472 16.1101C27.4334 16.0902 27.4236 16.0678 27.4185 16.0441L27.3871 15.9461C27.3871 15.9461 27.3646 15.8704 27.3556 15.8481L27.4589 15.6565L27.6835 15.2511L27.4679 15.064C27.4649 15.0433 27.4649 15.0223 27.4679 15.0016C27.4679 14.9303 27.4679 14.8145 27.4949 14.7209L27.5488 14.213C27.5561 13.9377 27.4811 13.6664 27.3332 13.4333C27.2082 13.222 27.1244 12.9893 27.0862 12.7472L26.929 12.0522C26.8613 11.8182 26.8191 11.5777 26.8032 11.3348C26.8032 11.1611 26.7449 10.8002 26.4395 10.7289C26.3498 10.7123 26.2572 10.7256 26.1759 10.7667C26.0947 10.8078 26.0294 10.8744 25.9904 10.9561L25.9634 10.9962L25.8511 11.4061L25.676 12.0923C25.6136 12.3791 25.5671 12.6691 25.5367 12.961C25.5245 13.1112 25.5005 13.2602 25.4649 13.4066L25.3571 13.7986C25.3571 13.7986 25.2897 14.0481 25.2852 14.0571L25.2628 14.1061C25.2164 14.342 25.1579 14.5755 25.0876 14.8056C25.0445 14.8375 24.9978 14.8644 24.9484 14.8858L24.7553 14.8546C24.7538 14.8442 24.7538 14.8337 24.7553 14.8234L24.6565 14.6585H24.4274C24.2523 14.5026 24.1849 14.4135 24.1849 14.2575C24.1827 14.2323 24.1827 14.207 24.1849 14.1818L24.2119 13.8209C24.2144 13.6043 24.2508 13.3894 24.3197 13.1838C24.3576 13.0395 24.4166 12.9014 24.4948 12.7739C24.6101 12.5895 24.6851 12.383 24.7149 12.168L24.9439 10.6844C24.9888 10.4081 25.0158 10.0651 25.0427 9.73092C25.0697 9.39677 25.1011 9.00025 25.155 8.71066C25.206 8.41634 25.2315 8.11823 25.2314 7.81959C25.2499 7.47775 25.2074 7.13534 25.1056 6.80823V6.80823C25.0844 6.73584 25.0739 6.66082 25.0742 6.58546C25.092 6.4245 25.0456 6.263 24.9448 6.13558C24.8441 6.00816 24.6971 5.92496 24.5352 5.90379L24.3511 5.8726C23.9273 5.76443 23.4808 5.78146 23.0666 5.92161C22.9988 5.96049 22.9193 5.97467 22.8421 5.96172C22.6855 5.94298 22.5271 5.97753 22.393 6.05973C22.1769 6.16243 22.0009 6.33281 21.8922 6.54457C21.7834 6.75634 21.7479 6.99772 21.7911 7.23148C21.82 7.61262 21.82 7.99537 21.7911 8.37651C21.7727 8.67325 21.7727 8.97083 21.7911 9.26757C21.7928 9.90731 21.7236 10.5453 21.5845 11.17C21.4489 11.6225 21.2699 12.0611 21.0501 12.4799C20.7723 12.876 20.4414 13.2327 20.0666 13.5402L19.5546 13.9279L19.3749 14.0437L19.1998 14.164C19.0025 14.3295 18.7754 14.4565 18.5306 14.5382L18.3734 14.5783C18.0815 14.6541 17.9243 14.6763 17.7895 14.5293C17.574 14.3155 17.3404 13.91 17.5021 13.6784C17.5786 13.551 17.6807 13.4406 17.802 13.354C17.9233 13.2674 18.0612 13.2065 18.2072 13.1749L18.4902 13.0769C18.9249 12.929 19.3176 12.68 19.6354 12.3507C19.9238 12.039 20.181 11.7003 20.4034 11.3393C20.5961 10.8586 20.6729 10.3399 20.6279 9.82449L20.6504 9.34331C20.6979 8.78353 20.657 8.21982 20.5291 7.67256L20.4752 7.40524C20.444 7.07015 20.2982 6.75573 20.0621 6.51417L19.9453 6.39388C19.8421 6.24212 19.6997 6.12068 19.533 6.0423C19.3663 5.96391 19.1814 5.93146 18.9977 5.94834C18.8491 5.97387 18.6971 5.97387 18.5485 5.94834L18.3285 5.90825L18.1578 5.87706C17.8011 5.77686 17.4232 5.77686 17.0665 5.87706L16.797 6.01072H16.7252C16.4781 6.01072 15.8943 6.04191 15.7057 6.5409C15.5202 7.00438 15.4272 7.49916 15.4317 7.9978V8.65719C15.4115 9.02819 15.4115 9.40001 15.4317 9.77102C15.4506 10.0038 15.4506 10.2377 15.4317 10.4705C15.3893 10.7347 15.3893 11.0038 15.4317 11.268C15.5276 11.6962 15.5564 12.1365 15.517 12.5734C15.5016 12.8519 15.5167 13.1313 15.562 13.4066C15.5989 13.6078 15.6095 13.813 15.5934 14.017V14.017C15.5285 14.1578 15.4876 14.3084 15.4721 14.4625C15.4687 14.5138 15.4597 14.5646 15.4452 14.614C15.3913 14.6407 15.3015 14.6719 15.3015 14.6719C15.1373 14.7297 14.9635 14.7554 14.7895 14.7476C14.4122 14.7744 14.3943 14.7476 14.2236 14.5561L14.1383 14.458C13.9766 14.2798 13.9766 14.2798 14.008 13.9279C14.0236 13.7306 14.0236 13.5325 14.008 13.3353C13.9848 13.0374 14.0014 12.7378 14.0574 12.4442C14.1194 12.1439 14.142 11.8369 14.1248 11.5309C14.1134 11.1652 14.1254 10.7991 14.1607 10.4349C14.2663 9.73242 14.2754 9.019 14.1877 8.31413C14.1657 8.16667 14.1567 8.0176 14.1607 7.8686C14.1739 7.63845 14.134 7.40836 14.0439 7.19584C14.0053 7.08383 13.9841 6.96665 13.9811 6.84832C13.9981 6.68265 13.9531 6.51655 13.8545 6.38176C13.7559 6.24697 13.6107 6.15294 13.4466 6.11765L13.1861 6.02854C12.8834 5.9042 12.5568 5.84791 12.2295 5.8637C12.1405 5.86349 12.0518 5.85453 11.9646 5.83696C11.7359 5.78091 11.497 5.78091 11.2684 5.83696C10.9092 5.88399 10.5453 5.88399 10.1861 5.83696C9.98118 5.80433 9.77302 5.79686 9.56629 5.81469H9.53485H9.47198C9.47198 5.81469 9.28335 5.84142 9.2564 5.85033C9.0673 5.85131 8.88513 5.92105 8.74441 6.04636C8.69114 6.09696 8.64891 6.15786 8.62033 6.2253C8.59174 6.29274 8.57742 6.36528 8.57824 6.43843C8.57824 6.9107 8.88364 7.04882 9.17556 7.17802H9.21598C9.57415 7.31878 9.91113 7.50767 10.2175 7.73939C10.4849 7.91436 10.6808 8.17815 10.7699 8.48343L10.9316 8.92896C11.0605 9.19977 11.141 9.49072 11.1696 9.78885L11.1966 10.1542C11.219 10.4883 11.2415 10.8091 11.2415 11.0987C11.2415 11.2101 11.2415 11.317 11.2415 11.415C11.1473 11.9881 10.9969 12.5507 10.7924 13.0947C10.5274 13.488 10.2268 13.8563 9.89413 14.1952L9.48994 14.516C9.31293 14.684 9.11877 14.8333 8.91059 14.9615C8.33175 15.2295 7.71291 15.4025 7.0782 15.4739C6.80671 15.4618 6.53467 15.4738 6.26531 15.5095C6.03438 15.5585 5.79562 15.5585 5.56469 15.5095L4.97186 15.3268C4.61907 15.2356 4.27376 15.1179 3.93891 14.9749C3.54691 14.7911 3.17892 14.5607 2.84307 14.2887L2.64096 14.0348C2.55624 13.9118 2.45836 13.7983 2.34904 13.6962C2.09716 13.4678 1.78613 13.3135 1.45082 13.2506L1.04212 13.1883C1.04212 13.1883 1.04212 13.6338 1.04212 13.6694C1.04212 13.7051 0.97925 14.3467 0.961286 14.5249C0.778826 14.7283 0.657469 14.9783 0.610978 15.2466C0.592533 15.3378 0.580519 15.4301 0.575041 15.5229C0.572563 15.5525 0.572563 15.5823 0.575041 15.612C0.540153 15.7502 0.495127 15.8857 0.440313 16.0174C0.34836 16.2805 0.276297 16.5501 0.224734 16.8238V16.8951L0.265166 17.0644L0.386422 17.5857C0.44945 17.8496 0.472156 18.1215 0.453786 18.3921V18.4901C0.434014 18.9202 0.453558 19.3511 0.512173 19.7777C0.514428 19.8059 0.514428 19.8342 0.512173 19.8624C0.486109 20.1004 0.424032 20.3332 0.328035 20.5529L0.247198 20.7846L0.139401 21.0475C0.035003 21.2761 -0.0229766 21.5229 -0.03125 21.7737C-0.0301354 22.0065 0.00619415 22.2378 0.0765327 22.4598L0.125929 22.6291C0.240716 23.1941 0.491915 23.7231 0.857985 24.1707C0.918069 24.2318 0.969443 24.3007 1.01068 24.3756C1.22104 24.7198 1.53532 24.9894 1.90891 25.1464C2.57067 25.4539 3.27682 25.6568 4.00177 25.7479C4.10471 25.7536 4.20693 25.7686 4.30718 25.7924C4.58694 25.8645 4.87703 25.8886 5.16498 25.8637L7.35217 25.7211C7.9704 25.6905 8.59017 25.7204 9.20251 25.8102C9.66719 25.9233 10.1525 25.9233 10.6172 25.8102C10.7126 25.7858 10.8106 25.7723 10.9091 25.7701C11.0818 25.7883 11.2564 25.7777 11.4256 25.7389C11.6255 25.6967 11.8321 25.6967 12.0319 25.7389C12.5133 25.8765 13.0226 25.8873 13.5095 25.7701C13.7599 25.7219 14.0136 25.6921 14.2685 25.681H14.5425H14.5694H14.6682H16.1413L16.2401 25.5295C16.5476 25.1437 16.7419 24.6812 16.8015 24.1929C16.8059 24.1411 16.8059 24.0889 16.8015 24.037C16.8015 23.9925 16.8015 23.9434 16.8015 23.8989C16.7976 23.642 16.7313 23.3899 16.6084 23.1638C16.5138 22.8826 16.4388 22.5953 16.3838 22.3039L16.2895 21.8851V21.8583C16.1364 21.36 16.0149 20.8525 15.9257 20.3391C15.89 19.7823 15.8164 19.2286 15.7057 18.6817C15.6972 18.573 15.7125 18.4638 15.7505 18.3616C15.7885 18.2593 15.8482 18.1664 15.9257 18.0891C16.0066 17.9956 16.0874 17.8976 16.4467 18.0045C16.6308 18.0624 16.6308 18.0624 16.6892 18.5748V18.6639C16.7925 19.6039 16.9003 20.0628 17.2596 20.192C17.307 20.2226 17.3507 20.2585 17.3898 20.299C17.4822 20.4057 17.5987 20.4891 17.7299 20.5425C17.861 20.596 18.0031 20.6179 18.1443 20.6064C18.4901 20.5593 18.8283 20.4679 19.1504 20.3346C19.632 20.2391 20.1242 20.2062 20.6145 20.2366H20.8929C21.354 20.2715 21.8175 20.2596 22.2762 20.201C22.5642 20.1726 22.8538 20.1636 23.143 20.1742C23.5204 20.1519 23.8766 19.9935 24.1445 19.7287C24.3241 19.3268 24.3386 18.8713 24.1849 18.4589L24.131 18.2763L24.0681 18.0045C24.0427 17.9337 24.0246 17.8606 24.0142 17.7862V17.7862C24.0165 17.7714 24.0165 17.7564 24.0142 17.7416C24.0067 17.5563 23.9781 17.3725 23.9289 17.1936V17.1491L23.8481 16.8951C23.8221 16.845 23.8054 16.7907 23.7987 16.7347C23.7987 16.7347 23.7987 16.7347 23.7987 16.7347L23.875 16.5699C23.9289 16.4585 23.9289 16.4585 23.9783 16.4228L24.113 16.3025L24.2029 16.258L24.378 16.2001L24.643 16.1243L24.6789 16.0308C24.7439 16.0703 24.8055 16.115 24.8631 16.1644V16.1422L24.9754 16.2535V16.356V16.4496L25.0113 16.6813L25.0607 17.0332L25.128 17.403V17.5367V17.7416C25.1368 17.9679 25.1729 18.1923 25.2358 18.4099C25.2474 18.4476 25.255 18.4865 25.2583 18.5258C25.2583 18.5525 25.2583 18.5748 25.2583 18.6104C25.2199 18.7392 25.2003 18.8727 25.1999 19.0069V19.4257V20.1742V21.2034V21.7247L25.2403 22.3752C25.2403 22.3752 25.2403 22.7093 25.2403 22.7182C25.2403 22.7271 25.2089 22.7895 25.2089 22.7895C25.0176 23.3878 24.9162 24.0108 24.908 24.6385V24.7588C24.9147 24.9386 24.9849 25.1104 25.1064 25.244C25.228 25.3776 25.393 25.4645 25.5727 25.4894H25.6131H25.6535C26.15 25.4598 26.6147 25.2373 26.947 24.8702L26.9964 24.8256L27.0368 24.732L27.1625 24.4335C27.3128 24.1328 27.3926 23.8023 27.3961 23.4667C27.4011 23.3161 27.4237 23.1666 27.4634 23.0212C27.5134 22.8352 27.5376 22.6434 27.5353 22.4509C27.5353 22.2593 27.5353 22.0455 27.5128 21.8049C27.4904 21.5643 27.4859 21.2391 27.5128 20.945C27.5128 20.8336 27.5128 20.7311 27.5128 20.6287C27.5128 20.5262 27.5128 20.3524 27.5128 20.2544C27.5151 20.1055 27.5061 19.9565 27.4859 19.8089C27.4835 19.7659 27.4835 19.7227 27.4859 19.6797C27.4871 19.5868 27.4976 19.4943 27.5173 19.4035C27.5287 19.2698 27.562 19.1388 27.6161 19.0158C27.6931 18.8409 27.7387 18.6539 27.7509 18.4634C27.7596 18.3551 27.7596 18.2464 27.7509 18.1381C27.8631 17.8886 27.8497 17.706 27.8227 17.5188Z" fill="#BBBBBB"/>
<path d="M0.328046 7.17368C0.326756 7.18255 0.326756 7.19156 0.328046 7.20042L0.27865 7.36081C0.218017 7.51901 0.184617 7.68618 0.179844 7.85536C0.179028 7.96946 0.192605 8.08321 0.220263 8.19396L0.346014 8.55929L0.417874 8.79097C0.445638 8.9337 0.503813 9.06889 0.588525 9.1875V9.1875C0.588525 9.1875 0.588525 9.23205 0.588525 9.34789L0.521161 10.0028H0.907405C1.07458 10.0024 1.23765 9.95146 1.37487 9.85673C1.51209 9.762 1.61692 9.62801 1.67538 9.47264L1.81461 9.24542C1.92071 9.09964 1.997 8.93466 2.03916 8.75979C2.06355 8.64644 2.12326 8.54357 2.20983 8.46574C2.30727 8.38122 2.38667 8.2782 2.44336 8.16277C2.54112 8.0305 2.66115 7.91595 2.79817 7.82417L3.24728 7.45883C3.36926 7.38276 3.50789 7.33692 3.65148 7.32517C3.84419 7.28887 4.0324 7.23211 4.21287 7.15587L4.44192 7.04894C4.61392 6.98294 4.76779 6.87762 4.89103 6.74152C4.96204 6.67875 5.01365 6.5973 5.03988 6.50661C5.06611 6.41593 5.06588 6.31972 5.03924 6.22916C4.91797 5.85936 4.397 5.75244 4.23982 5.73016C4.09085 5.70926 3.93967 5.70926 3.7907 5.73016C3.62182 5.74394 3.45208 5.74394 3.2832 5.73016L2.38498 5.67669C2.17798 5.64683 1.96772 5.64683 1.76072 5.67669C1.63715 5.69506 1.51152 5.69506 1.38796 5.67669C1.11104 5.65277 0.832836 5.7052 0.584043 5.82818L0.476247 5.86827H0.431347L0.337023 5.89946C0.22475 5.96701 0.131949 6.06216 0.0675662 6.17569L-0.00878906 6.3049L0.193317 6.92419L0.328046 7.17368Z" fill="#BBBBBB"/>
<path d="M1.6123 31.9492H3.75007L4.67974 35.5447L5.86091 31.9492H7.8415L9.05859 35.5402L10.0017 31.9492H12.1305L10.0017 37.6743H8.03012L6.85794 34.2214L5.73066 37.6654H3.75007L1.6123 31.9492Z" fill="#BBBBBB"/>
<path d="M12.1035 31.9492H14.2413L15.171 35.5447L16.3476 31.9492H18.3327L19.5498 35.5402L20.4929 31.9492H22.6173L20.4885 37.6743H18.5213L17.3626 34.2214L16.2354 37.6654H14.2548L12.1035 31.9492Z" fill="#BBBBBB"/>
<path d="M22.6172 31.9492H24.7595L25.6891 35.5447L26.8658 31.9492H28.8464L30.068 35.558L31.0111 31.967H33.1354L31.0066 37.6921H29.0395L27.8673 34.2214L26.7355 37.6654H24.7595L22.6172 31.9492Z" fill="#BBBBBB"/>
<path d="M32.835 35.4727H35.1973V37.6736H32.835V35.4727Z" fill="#BBBBBB"/>
<path d="M40.8469 35.4323L42.9398 35.6595C42.8356 36.0723 42.6409 36.4572 42.3694 36.7867C42.0978 37.1137 41.7492 37.3692 41.3544 37.5308C40.8558 37.7249 40.3224 37.8159 39.787 37.7981C39.2713 37.8085 38.7564 37.7516 38.2556 37.6288C37.868 37.5273 37.5087 37.34 37.2046 37.0808C36.9166 36.8324 36.6814 36.5295 36.513 36.1897C36.3326 35.7676 36.2483 35.3112 36.266 34.8531C36.2479 34.3478 36.3511 33.8454 36.5669 33.3873C36.8782 32.8188 37.3711 32.369 37.9681 32.1086C38.4981 31.9153 39.061 31.826 39.6253 31.8458C40.3764 31.7976 41.125 31.9712 41.7766 32.3448C42.2847 32.6948 42.6533 33.2103 42.8185 33.8017L40.7436 34.0868C40.6937 33.8625 40.5667 33.6625 40.3843 33.521C40.1801 33.3865 39.9375 33.3209 39.6927 33.3338C39.5232 33.3266 39.3542 33.3577 39.1985 33.4249C39.0429 33.4921 38.9047 33.5935 38.7945 33.7215C38.541 34.0597 38.4198 34.4776 38.4532 34.8977C38.4241 35.283 38.5464 35.6646 38.7945 35.9625C38.9026 36.0822 39.0358 36.1769 39.1848 36.24C39.3338 36.3031 39.4949 36.3331 39.6568 36.3278C39.919 36.3363 40.1771 36.2613 40.3933 36.114C40.6151 35.9416 40.7743 35.7024 40.8469 35.4323V35.4323Z" fill="#BBBBBB"/>
<path d="M43.7749 29.7656H45.9935V32.675C46.2492 32.4031 46.5538 32.1809 46.8917 32.02C47.2239 31.881 47.5823 31.8141 47.9427 31.824C48.2046 31.8093 48.4666 31.8503 48.7113 31.944C48.9561 32.0377 49.1778 32.1821 49.3619 32.3675C49.7432 32.8366 49.9281 33.4332 49.8783 34.0338V37.6694H47.6597V34.5195C47.6849 34.2498 47.6134 33.98 47.4576 33.7576C47.3864 33.6818 47.2991 33.6224 47.202 33.5839C47.105 33.5454 47.0006 33.5287 46.8962 33.5348C46.7713 33.5306 46.6471 33.5559 46.5339 33.6086C46.4207 33.6612 46.3217 33.7398 46.245 33.8378C46.0486 34.1634 45.9621 34.5427 45.998 34.9205V37.6694H43.7794L43.7749 29.7656Z" fill="#BBBBBB"/>
<path d="M57.2753 37.6743H55.2184V36.7476C54.9676 37.078 54.6512 37.354 54.2887 37.5585C53.9289 37.7291 53.5331 37.8116 53.1345 37.7991C52.8713 37.813 52.6082 37.7718 52.3621 37.6781C52.116 37.5845 51.8926 37.4405 51.7063 37.2555C51.3242 36.7869 51.1392 36.1899 51.1899 35.5892V31.9492H53.4085V35.1125C53.3826 35.3836 53.4542 35.655 53.6106 35.8788C53.681 35.956 53.7681 36.0165 53.8652 36.0558C53.9624 36.0951 54.0672 36.1123 54.172 36.106C54.2961 36.1088 54.4191 36.0829 54.5314 36.0303C54.6436 35.9777 54.742 35.8999 54.8187 35.8031C55.0185 35.4787 55.1067 35.0988 55.0702 34.7204V31.9492H57.2888L57.2753 37.6743Z" fill="#BBBBBB"/>
<path d="M58.6182 31.949H60.6841V32.8847C60.9375 32.555 61.2552 32.2792 61.6182 32.0738C61.9766 31.9037 62.3709 31.8212 62.768 31.8332C63.0316 31.8181 63.2954 31.8582 63.5423 31.9511C63.7891 32.044 64.0135 32.1875 64.2006 32.3723C64.5843 32.8421 64.7708 33.4404 64.7216 34.043V37.6786H62.503V34.5287C62.5282 34.259 62.4566 33.9892 62.3009 33.7668C62.2284 33.6913 62.1403 33.6323 62.0426 33.5939C61.9449 33.5554 61.84 33.5384 61.735 33.544C61.6107 33.5402 61.4873 33.5657 61.3749 33.6183C61.2625 33.671 61.1642 33.7494 61.0883 33.847C60.8885 34.1714 60.8002 34.5513 60.8368 34.9296V37.6786H58.6182V31.949Z" fill="#BBBBBB"/>
<path d="M66.1225 31.9501H68.3412V37.5059C68.3652 38.0112 68.3137 38.5171 68.1885 39.0074C68.0832 39.3036 67.8807 39.5562 67.6136 39.7247C67.2506 39.9291 66.8357 40.0251 66.419 40.0009C65.8841 39.987 65.3518 39.9228 64.8291 39.8094L65.1615 38.2143C65.2883 38.2436 65.4176 38.2615 65.5477 38.2678C65.6328 38.276 65.7185 38.2627 65.797 38.2292C65.8755 38.1957 65.9443 38.1431 65.9968 38.0762C66.1161 37.8408 66.1659 37.5767 66.1405 37.3144L66.1225 31.9501ZM66.1225 29.7715H68.3412V31.2774H66.1225V29.7715Z" fill="#BBBBBB"/>
<path d="M71.7416 33.8241L69.6263 33.6013C69.6797 33.2842 69.7974 32.981 69.9721 32.7102C70.1459 32.4823 70.3683 32.2951 70.6233 32.1622C70.8873 32.0306 71.1709 31.9419 71.4632 31.8994C71.8464 31.8388 72.2339 31.809 72.6219 31.8103C73.1601 31.8 73.6982 31.8373 74.2297 31.9216C74.6012 31.9761 74.9506 32.1301 75.2402 32.3672C75.448 32.5529 75.6029 32.7895 75.6893 33.0533C75.7938 33.3238 75.85 33.6102 75.8555 33.8998V36.4483C75.849 36.6603 75.8655 36.8724 75.9049 37.0809C75.9553 37.2839 76.0307 37.4799 76.1295 37.6646H74.0591C73.9942 37.5572 73.94 37.4438 73.8974 37.326C73.8611 37.2067 73.8355 37.0844 73.821 36.9606C73.5706 37.2085 73.2769 37.4093 72.9542 37.5532C72.5154 37.7176 72.049 37.7977 71.58 37.7893C71.0138 37.8299 70.4525 37.6617 70.0036 37.3171C69.689 37.0394 69.497 36.6502 69.4693 36.2333C69.4416 35.8165 69.5803 35.4056 69.8554 35.0894C70.2577 34.7415 70.7576 34.5238 71.288 34.4656C72.1189 34.3008 72.6623 34.185 72.9093 34.1226C73.1564 34.0602 73.4213 33.9666 73.6953 33.8597C73.7071 33.7582 73.6981 33.6553 73.6688 33.5573C73.6394 33.4592 73.5904 33.3681 73.5246 33.2894C73.3516 33.1622 73.1371 33.1035 72.9228 33.1246C72.6346 33.1072 72.3472 33.1688 72.092 33.3028C71.918 33.4312 71.7942 33.6154 71.7416 33.8241V33.8241ZM73.6908 34.9646C73.3754 35.0741 73.0546 35.1677 72.7297 35.2453C72.4217 35.3028 72.1285 35.421 71.8674 35.5928C71.809 35.6443 71.7622 35.7074 71.7302 35.778C71.6982 35.8487 71.6816 35.9253 71.6816 36.0027C71.6816 36.0802 71.6982 36.1568 71.7302 36.2274C71.7622 36.2981 71.809 36.3612 71.8674 36.4126C72.0227 36.5302 72.216 36.5872 72.4108 36.573C72.6525 36.5747 72.8907 36.5148 73.1025 36.3993C73.2939 36.2989 73.4504 36.1436 73.5516 35.9537C73.6504 35.7482 73.6967 35.5218 73.6863 35.2943L73.6908 34.9646Z" fill="#BBBBBB"/>
<path d="M83.5799 35.3535H79.1427C79.1569 35.639 79.257 35.9136 79.4301 36.1421C79.5323 36.2636 79.661 36.3605 79.8065 36.4253C79.952 36.4902 80.1105 36.5213 80.2699 36.5164C80.4877 36.5176 80.7018 36.4607 80.8897 36.3515C81.0345 36.2578 81.1621 36.1403 81.267 36.004L83.4407 36.2045C83.1645 36.7226 82.7455 37.1521 82.2326 37.4431C81.5954 37.7257 80.8996 37.854 80.2026 37.8173C79.5873 37.8428 78.9739 37.7333 78.4061 37.4965C77.9487 37.2585 77.5699 36.8951 77.3148 36.4495C77.0126 35.9558 76.8569 35.3875 76.8657 34.81C76.8492 34.4089 76.9178 34.009 77.0672 33.636C77.2165 33.2629 77.4431 32.9252 77.7325 32.6447C78.3895 32.064 79.2522 31.7659 80.1307 31.816C80.8052 31.7834 81.4779 31.9102 82.0933 32.1858C82.5612 32.4219 82.9428 32.7974 83.1847 33.2595C83.4582 33.8305 83.5877 34.4589 83.5619 35.0906L83.5799 35.3535ZM81.3343 34.2931C81.3247 33.9657 81.2027 33.6514 80.9885 33.4021C80.8782 33.3044 80.7489 33.2302 80.6085 33.1841C80.4682 33.1379 80.3197 33.1208 80.1725 33.1337C80.0252 33.1467 79.8821 33.1894 79.7521 33.2593C79.6221 33.3292 79.5079 33.4248 79.4166 33.5402C79.2618 33.7624 79.173 34.0233 79.1606 34.2931H81.3343Z" fill="#BBBBBB"/>
<path d="M84.5947 35.4727H86.9571V37.6736H84.5947V35.4727Z" fill="#BBBBBB"/>
<path d="M92.6112 35.4342L94.7086 35.6614C94.6028 36.0745 94.4065 36.4594 94.1337 36.7886C93.8648 37.1165 93.5174 37.3723 93.1232 37.5327C92.6245 37.7265 92.0912 37.8174 91.5558 37.8C91.04 37.8109 90.525 37.754 90.0243 37.6307C89.6364 37.5301 89.2769 37.3426 88.9734 37.0827C88.6828 36.8368 88.4472 36.5332 88.2818 36.1916C88.0999 35.7699 88.014 35.3135 88.0303 34.855C88.0134 34.3493 88.1181 33.8469 88.3357 33.3892C88.4883 33.0975 88.6938 32.8362 88.942 32.6184C89.1772 32.4072 89.4457 32.2356 89.7369 32.1105C90.2654 31.9175 90.8268 31.8283 91.3896 31.8477C92.1421 31.7997 92.892 31.9733 93.5454 32.3467C94.0534 32.6959 94.4209 33.2118 94.5828 33.8036L92.5079 34.0887C92.4595 33.8649 92.3341 33.6648 92.1531 33.5229C91.9486 33.389 91.7063 33.3234 91.4615 33.3358C91.2921 33.3295 91.1234 33.3611 90.9679 33.4282C90.8125 33.4953 90.6742 33.5961 90.5633 33.7234C90.3147 34.0638 90.1954 34.4804 90.2264 34.8996C90.1985 35.2841 90.3189 35.6647 90.5633 35.9644C90.6718 36.0836 90.8051 36.178 90.954 36.2411C91.1028 36.3041 91.2637 36.3344 91.4256 36.3297C91.6879 36.3388 91.9461 36.2638 92.1621 36.1159C92.3822 35.9428 92.5398 35.7037 92.6112 35.4342V35.4342Z" fill="#BBBBBB"/>
<path d="M95.4318 34.8269C95.4204 34.4257 95.4945 34.0266 95.6493 33.6558C95.8041 33.285 96.0361 32.9507 96.33 32.6749C97.0518 32.1024 97.9552 31.8029 98.879 31.8298C99.8028 31.8567 100.687 32.2084 101.374 32.822C101.866 33.4098 102.121 34.158 102.09 34.9218C102.058 35.6856 101.742 36.4106 101.203 36.9565C100.53 37.5478 99.6482 37.8506 98.7507 37.7986C97.943 37.8316 97.1489 37.5842 96.5052 37.0991C96.1611 36.8287 95.885 36.4827 95.6988 36.0884C95.5125 35.6941 95.4211 35.2622 95.4318 34.8269V34.8269ZM97.6549 34.8269C97.6222 35.2277 97.7336 35.627 97.9693 35.9541C98.0675 36.0679 98.1894 36.1593 98.3267 36.222C98.4639 36.2846 98.6132 36.3171 98.7642 36.3171C98.9153 36.3171 99.0645 36.2846 99.2018 36.222C99.339 36.1593 99.4609 36.0679 99.5591 35.9541C99.7949 35.6187 99.9045 35.2119 99.869 34.8046C99.8999 34.4109 99.7884 34.0192 99.5546 33.6997C99.4626 33.5839 99.3453 33.4905 99.2114 33.4264C99.0776 33.3623 98.9308 33.3293 98.7822 33.3299C98.628 33.3269 98.4752 33.3586 98.3352 33.4226C98.1951 33.4867 98.0716 33.5814 97.9738 33.6997C97.7338 34.0215 97.6204 34.4191 97.6549 34.818V34.8269Z" fill="#BBBBBB"/>
<path d="M102.955 35.4727H105.317V37.6736H102.955V35.4727Z" fill="#BBBBBB"/>
<path d="M106.66 29.7656H108.905V33.8289L110.558 31.9443H113.284L111.214 33.9492L113.405 37.6694H110.908L109.727 35.3838L108.901 36.1813V37.6694H106.655L106.66 29.7656Z" fill="#BBBBBB"/>
<path d="M114.106 31.949H116.172V32.8846C116.308 32.5597 116.518 32.2711 116.788 32.0425C117.018 31.8849 117.294 31.8053 117.574 31.8153C117.948 31.8284 118.314 31.9292 118.642 32.1093L117.96 33.6865C117.765 33.5956 117.555 33.5413 117.34 33.5261C117.206 33.5207 117.073 33.5509 116.954 33.6136C116.836 33.6762 116.737 33.7691 116.666 33.8826C116.437 34.2123 116.325 34.836 116.325 35.7494V37.6607H114.106V31.949Z" fill="#BBBBBB"/>
</g>
<defs>
<clipPath id="clip0_4410_5073">
<rect width="121" height="40" fill="white"/>
</clipPath>
</defs>
</svg>
