<svg width="105" height="26" viewBox="0 0 105 26" fill="none" xmlns="http://www.w3.org/2000/svg">
<g clip-path="url(#clip0_4410_4869)">
<path d="M46.1499 3.53094C46.3863 3.52719 46.6209 3.57274 46.8384 3.66464C47.0559 3.75654 47.2515 3.89274 47.4124 4.06438C47.5733 4.23602 47.696 4.43925 47.7724 4.6609C47.8489 4.88256 47.8774 5.11766 47.8561 5.35094V8.85094C47.8849 9.05708 47.8689 9.26693 47.8091 9.46643C47.7493 9.66593 47.6471 9.85046 47.5095 10.0077C47.3718 10.1649 47.2018 10.2911 47.0108 10.3779C46.8199 10.4647 46.6124 10.5101 46.4023 10.5109H44.9585V3.51094L46.1499 3.53094ZM41.3037 0.460938V25.2409H47.1292C49.1484 25.2409 51.5109 24.1009 51.5109 20.6309V15.5309C51.5854 14.738 51.3633 13.9455 50.8869 13.304C50.4104 12.6625 49.7128 12.2166 48.9263 12.0509V11.9909C50.1076 11.6609 51.3898 11.1809 51.3898 8.40094V5.93094C51.3898 1.93094 49.5321 0.460938 46.1802 0.460938H41.3037ZM46.3013 13.5309C46.5249 13.5446 46.7433 13.6029 46.9437 13.7021C47.144 13.8014 47.322 13.9396 47.4672 14.1086C47.6123 14.2775 47.7216 14.4738 47.7884 14.6855C47.8552 14.8972 47.8783 15.1202 47.8561 15.3409V20.3409C47.8561 21.3409 47.4321 22.1409 46.3013 22.1409H44.9585V13.5109L46.3013 13.5309Z" fill="#BBBBBB"/>
<path d="M77.1953 15.1709C77.064 12.9309 75.3174 12.3809 73.6919 12.1709V12.1109C75.2467 11.9609 76.9126 11.3909 76.9126 7.98094V5.74094C76.9126 2.61094 75.4184 0.460938 72.127 0.460938H66.7559V25.2409H70.4107V13.6809H71.4203C73.1164 13.6209 73.6717 14.2009 73.6717 15.6809C73.6717 18.5409 73.5001 22.4709 74.126 25.2909H77.8111C77.1953 21.8909 77.4073 18.4409 77.1953 15.1709ZM73.2578 9.25095C73.2578 10.4509 71.8746 10.5409 70.4107 10.5809V3.53094H71.602C72.3592 3.53094 73.2578 3.88094 73.2578 4.87094V9.25095Z" fill="#BBBBBB"/>
<path d="M58.9716 21.97C57.7903 21.97 57.1543 20.65 57.1543 11.97C57.1543 5.22999 57.7903 3.78999 58.9716 3.78999C60.1528 3.78999 60.8293 5.22999 60.8293 11.97C60.8596 20.68 60.2336 21.97 58.9716 21.97ZM58.9716 0.25C56.0437 0.25 53.5601 2.83999 53.5601 11.77C53.5601 22.97 56.0437 25.47 58.9716 25.47C61.8995 25.47 64.4235 22.97 64.4235 11.77C64.4538 2.83999 62.0004 0.25 58.9716 0.25Z" fill="#BBBBBB"/>
<path d="M89.7549 14.7407C89.7549 13.8207 89.8255 12.8307 89.8255 11.7407C89.8255 2.81071 87.352 0.220703 84.3736 0.220703C81.3953 0.220703 78.9722 2.81071 78.9722 11.7407C78.9722 22.9407 81.4457 25.4407 84.3736 25.4407C86.5443 25.4407 88.4121 24.1007 89.3207 19.0307H85.9587C85.6558 21.4307 85.1308 21.9407 84.3736 21.9407C83.364 21.9407 82.7178 20.9407 82.5866 14.7107L89.7549 14.7407ZM82.5664 11.7407C82.5664 5.18071 83.2126 3.74071 84.3736 3.74071C85.5347 3.74071 86.2212 5.16071 86.2313 11.7407H82.5664Z" fill="#BBBBBB"/>
<path d="M102.446 14.7407C102.496 13.8207 102.516 12.8307 102.516 11.7407C102.516 2.81071 100.043 0.220703 97.0645 0.220703C94.0862 0.220703 91.6631 2.81071 91.6631 11.7407C91.6631 22.9407 94.1366 25.4407 97.0645 25.4407C99.2352 25.4407 101.103 24.1007 102.012 19.0307H98.6395C98.3467 21.4307 97.8217 21.9407 97.0645 21.9407C96.0549 21.9407 95.4088 20.9407 95.2775 14.7107L102.446 14.7407ZM95.2472 11.7407C95.2472 5.18071 95.8934 3.74071 97.0645 3.74071C98.2357 3.74071 98.9121 5.16071 98.9323 11.7407H95.2472Z" fill="#BBBBBB"/>
<path d="M6.01731 21.9291C4.83606 21.7491 3.58414 20.4291 3.58414 11.7191C3.58414 4.96906 4.52308 3.53906 5.71443 3.53906C6.72404 3.53906 7.60241 4.46907 7.80433 8.33907H11.1765C10.6414 1.98907 8.28895 0.0390625 5.71443 0.0390625C2.77645 0.0390625 0 2.62907 0 11.5591C0 22.7591 2.77645 25.2391 5.71443 25.2391H11.3279V12.7891H6.39087V15.9191H8.10722V21.9191L6.01731 21.9291Z" fill="#BBBBBB"/>
<path d="M28.0272 0.459457L31.4397 11.6795H31.5003L35.1147 0.439453H37.6488L38.7796 25.2395H35.145L34.933 10.2395H34.8724L31.9849 19.3295H31.157L28.2998 10.4495H28.2392L28.0575 25.2595H24.4229L25.5839 0.479462L28.0272 0.459457Z" fill="#BBBBBB"/>
<path d="M19.496 25.2409H15.8412V16.0009L11.1162 0.460938H14.7205L17.7494 11.7009H17.81L20.6066 0.460938H24.221L19.496 16.0009V25.2409Z" fill="#BBBBBB"/>
<path d="M102.93 23.7701H103.173C103.354 23.7701 103.415 23.7702 103.415 23.9302C103.415 24.0902 103.334 24.1101 103.122 24.1101H102.93V23.7701ZM102.93 24.2602H103.112L103.415 24.7602H103.627L103.314 24.2602C103.393 24.2526 103.467 24.2152 103.519 24.1557C103.572 24.0962 103.6 24.0191 103.597 23.9401C103.597 23.7201 103.465 23.6202 103.203 23.6202H102.759V24.7602H102.93V24.2602ZM103.132 25.1601C103.332 25.1601 103.527 25.1015 103.693 24.9916C103.859 24.8817 103.989 24.7256 104.065 24.5428C104.141 24.3601 104.161 24.159 104.122 23.9651C104.083 23.7711 103.987 23.5929 103.846 23.453C103.705 23.3132 103.525 23.218 103.329 23.1794C103.133 23.1408 102.93 23.1606 102.746 23.2363C102.561 23.312 102.404 23.4401 102.293 23.6046C102.182 23.769 102.123 23.9624 102.123 24.1601C102.123 24.4254 102.229 24.6797 102.418 24.8673C102.608 25.0548 102.864 25.1601 103.132 25.1601V25.1601ZM103.132 25.0102C102.965 25.0161 102.8 24.9726 102.659 24.8851C102.517 24.7976 102.405 24.6701 102.337 24.5191C102.269 24.3681 102.248 24.2003 102.276 24.0374C102.305 23.8745 102.383 23.7238 102.499 23.6047C102.614 23.4856 102.764 23.4035 102.927 23.369C103.09 23.3344 103.26 23.349 103.415 23.4109C103.57 23.4727 103.703 23.579 103.796 23.7161C103.89 23.8531 103.94 24.0147 103.94 24.1802C103.944 24.2877 103.926 24.395 103.887 24.4955C103.849 24.5961 103.79 24.6878 103.714 24.7653C103.639 24.8428 103.548 24.9045 103.448 24.9465C103.348 24.9886 103.241 25.0102 103.132 25.0102V25.0102Z" fill="#BBBBBB"/>
</g>
<defs>
<clipPath id="clip0_4410_4869">
<rect width="105" height="26" fill="white"/>
</clipPath>
</defs>
</svg>
