<svg width="118" height="34" viewBox="0 0 118 34" fill="none" xmlns="http://www.w3.org/2000/svg">
<g clip-path="url(#clip0_4410_4783)">
<path d="M16.713 23.6329L11.1652 16.8792L19.2184 7.04944H14.824C13.9669 6.99809 13.1099 7.15021 12.324 7.49315C11.5381 7.83609 10.846 8.35997 10.3052 9.02131L6.0648 14.1925V0H1.8095C1.57146 -8.90807e-07 1.33575 0.0465748 1.11589 0.13706C0.896027 0.227545 0.696329 0.360158 0.528236 0.527306C0.360144 0.694455 0.226962 0.89285 0.13632 1.11113C0.0456767 1.3294 -0.000647142 1.56327 6.82876e-06 1.79933V28.2964H4.25033C4.4888 28.297 4.72504 28.2509 4.94548 28.1607C5.16591 28.0705 5.3662 27.938 5.53482 27.7708C5.70344 27.6036 5.83707 27.405 5.92802 27.1864C6.01897 26.9678 6.06546 26.7335 6.0648 26.497V19.4476L9.51477 23.6378L12.4428 27.2168C12.6949 27.5498 13.0213 27.8206 13.3964 28.0079C13.7715 28.1951 14.1853 28.2939 14.6052 28.2964H20.5706L16.713 23.6329Z" fill="#BBBBBB"/>
<path d="M27.6195 28.2964C24.3485 28.2964 22.0767 26.0534 22.0767 22.8047V1.79934C22.0767 1.56263 22.1238 1.32825 22.2153 1.10962C22.3067 0.890994 22.4408 0.692415 22.6099 0.525267C22.7789 0.358119 22.9795 0.225689 23.2002 0.135555C23.4209 0.0454203 23.6574 -0.000641759 23.8961 6.75367e-06H28.1514V21.6906C28.1527 22.1182 28.3242 22.528 28.6287 22.8308C28.9331 23.1336 29.3458 23.3049 29.777 23.3075H34.1168V26.5118C34.1168 26.7485 34.0697 26.9829 33.9782 27.2015C33.8867 27.4202 33.7526 27.6187 33.5836 27.7859C33.4145 27.953 33.2139 28.0855 32.9932 28.1756C32.7725 28.2657 32.536 28.3118 32.2973 28.3112L27.6195 28.2964Z" fill="#BBBBBB"/>
<path d="M34.9623 5.51172L34.5895 5.90117C34.5895 5.90117 33.4361 7.06456 30.1552 7.06456H14.7148C12.274 7.06456 11.1207 8.05051 10.2408 9.12025L9.74368 9.71181L9.70392 9.75125L6.63672 13.4978C7.86201 12.6213 9.33646 12.1534 10.8473 12.1619H30.1701C32.5215 12.1619 34.7684 11.4717 34.9573 9.73152C34.9621 9.65765 34.9621 9.58356 34.9573 9.50969L34.9623 5.51172Z" fill="#BBBBBB"/>
<path d="M61.1551 27.5372C60.5486 26.7879 60.2503 25.6146 60.2503 24.0174V5.28465C60.234 5.15778 60.2478 5.02889 60.2904 4.90821C60.3331 4.78753 60.4036 4.67836 60.4962 4.58938C60.5888 4.50039 60.7011 4.43403 60.8241 4.39556C60.9471 4.35708 61.0774 4.34756 61.2048 4.36773H64.0085V23.9878C64.0085 24.9738 64.3366 25.4421 65.0027 25.4421C65.4749 25.4507 65.9463 25.3976 66.4046 25.2844V27.4633C66.4133 27.6725 66.3521 27.8787 66.2306 28.0499C66.1166 28.2068 65.9544 28.3227 65.7683 28.3802C65.2912 28.5591 64.7868 28.6558 64.2769 28.6661C62.8022 28.6628 61.7615 28.2865 61.1551 27.5372Z" fill="#BBBBBB"/>
<path d="M70.3467 11.5346H73.1505V12.5452C74.3396 11.7285 75.7505 11.2885 77.197 11.2832C79.2749 11.2832 80.8574 11.9881 81.9444 13.398C83.0315 14.8079 83.5733 16.8718 83.57 19.5897C83.57 25.6401 80.8922 28.6636 75.5366 28.6603C74.7323 28.6642 73.9307 28.5682 73.1505 28.3744V33.2252C73.1505 33.7478 72.8423 34.014 72.2258 34.014H69.3873V12.4515C69.3719 12.3244 69.3864 12.1955 69.4297 12.0748C69.4731 11.9542 69.544 11.8452 69.637 11.7563C69.7299 11.6675 69.8424 11.6012 69.9656 11.5627C70.0887 11.5243 70.2192 11.5146 70.3467 11.5346V11.5346ZM78.4845 24.1546C79.3246 23.3856 79.7422 21.8672 79.7422 19.5897C79.7422 18.0122 79.4456 16.8012 78.8524 15.9565C78.5709 15.5482 78.1889 15.2179 77.7426 14.9971C77.2963 14.7762 76.8005 14.6721 76.3022 14.6945C75.7146 14.7123 75.1359 14.8411 74.5971 15.0741C74.0396 15.2782 73.5424 15.6171 73.1505 16.0601V25.0321C73.8352 25.2202 74.5427 25.3148 75.2533 25.3131C76.4412 25.3581 77.6002 24.9425 78.4845 24.1546V24.1546Z" fill="#BBBBBB"/>
<path d="M86.6618 5.8472C86.6856 5.44445 86.8122 5.0543 87.0297 4.71337C87.1268 4.5952 87.2511 4.50178 87.392 4.4409C87.533 4.38001 87.6866 4.35343 87.84 4.36336H90.8227C90.4379 5.52471 90.2695 6.7458 90.3256 7.96695V12.522C90.9467 12.1419 91.6152 11.8436 92.314 11.6346C93.0556 11.4038 93.8285 11.2874 94.6057 11.2896C96.3887 11.2896 97.7856 11.7365 98.7964 12.6304C99.8072 13.5243 100.304 14.9096 100.288 16.7861V27.5279C100.304 27.6352 100.294 27.7446 100.26 27.8475C100.225 27.9503 100.167 28.0438 100.09 28.1205C100.013 28.1971 99.9183 28.2548 99.8146 28.2888C99.7108 28.3229 99.6005 28.3324 99.4923 28.3167H96.5097V17.6981C96.5692 16.8924 96.3802 16.0878 95.9678 15.3911C95.7638 15.129 95.4966 14.9222 95.1908 14.7895C94.885 14.6568 94.5504 14.6026 94.218 14.6319C93.5422 14.6285 92.8705 14.7351 92.2295 14.9474C91.5468 15.186 90.8905 15.4932 90.2709 15.8643V27.4934C90.2709 28.0406 89.9527 28.3117 89.3164 28.3117H86.5127V8.15428C86.5191 7.3831 86.5689 6.61288 86.6618 5.8472V5.8472Z" fill="#BBBBBB"/>
<path d="M105.08 27.4131C104.046 26.58 103.534 25.3426 103.534 23.701C103.534 21.486 104.298 19.9742 105.826 19.1657C107.354 18.3573 109.382 17.9497 111.911 17.9432H113.059V17.2826C113.059 16.1652 112.804 15.411 112.293 15.0199C111.783 14.6288 110.935 14.4349 109.748 14.4382C109.059 14.4425 108.37 14.5002 107.69 14.6107C107.018 14.7066 106.353 14.85 105.702 15.0396C105.586 15.0705 105.468 15.0903 105.349 15.0987C105.011 15.0987 104.852 14.9114 104.852 14.5318V12.1311C106.704 11.5471 108.639 11.2592 110.583 11.2782C112.472 11.2782 113.974 11.6825 115.057 12.4959C116.141 13.3093 116.713 14.7537 116.713 16.8389V24.7264C116.695 24.9323 116.745 25.1383 116.857 25.313C116.921 25.377 116.999 25.4257 117.086 25.4556C117.172 25.4855 117.263 25.4957 117.354 25.4856C117.57 25.4773 117.785 25.4459 117.995 25.3919V27.3095C117.998 27.5139 117.943 27.7148 117.835 27.8892C117.728 28.0637 117.573 28.2045 117.389 28.2955C116.931 28.539 116.417 28.6596 115.897 28.6455C115.314 28.6525 114.739 28.5099 114.227 28.2314C113.748 27.9828 113.38 27.5663 113.193 27.0631C112.685 27.5933 112.048 27.9854 111.344 28.2018C110.6 28.4815 109.813 28.6316 109.017 28.6455C107.6 28.7056 106.206 28.2694 105.08 27.4131V27.4131ZM111.592 25.1996C112.13 25.0579 112.636 24.8171 113.084 24.4898V20.6348H112.224C110.292 20.6348 108.966 20.8813 108.247 21.3742C107.898 21.6146 107.617 21.9398 107.43 22.3187C107.244 22.6976 107.159 23.1175 107.183 23.5383C107.183 24.8234 108.084 25.4659 109.887 25.4659C110.466 25.4596 111.04 25.3699 111.592 25.1996V25.1996Z" fill="#BBBBBB"/>
<path d="M42.5034 23.6971C42.5034 18.8364 46.6444 17.9491 50.8798 17.9491H52.0281V17.2836C52.0281 14.9469 50.9742 14.4441 48.7124 14.4441C47.3435 14.4718 45.9837 14.6722 44.6659 15.0406C44.1688 15.1687 43.8059 15.0751 43.8059 14.5476V12.1468C45.66 11.5612 47.5967 11.2733 49.5426 11.294C52.8235 11.294 55.6919 12.2799 55.6919 16.8498V24.7964C55.6919 25.1119 55.7167 25.4126 56.0448 25.4915C56.2623 25.5301 56.4859 25.5148 56.696 25.4471V27.3105C56.696 28.1683 56.01 28.6416 54.8666 28.6416C53.7233 28.6416 52.57 28.1486 52.1574 27.0591C51.2974 28.0451 49.3189 28.6416 47.9816 28.6416C44.989 28.6613 42.5034 27.1429 42.5034 23.6971ZM52.0281 24.4908V20.6358H51.1681C47.057 20.6358 46.1324 21.8041 46.1324 23.5393C46.1324 24.9295 47.1862 25.4668 48.8416 25.4668C49.9778 25.4613 51.0867 25.1216 52.0281 24.4908V24.4908Z" fill="#BBBBBB"/>
</g>
<defs>
<clipPath id="clip0_4410_4783">
<rect width="118" height="34" fill="white"/>
</clipPath>
</defs>
</svg>
