<svg width="192" height="26" viewBox="0 0 192 26" fill="none" xmlns="http://www.w3.org/2000/svg">
<g clip-path="url(#clip0_4410_4803)">
<path d="M73.7408 22.3325V14.8297H65.5522V22.3325H61.0449V3.67188H65.5522V10.7791H73.7408V3.67188H78.0225H78.2546V22.3325H73.7408Z" fill="#BBBBBB"/>
<path d="M87.8196 22.3325V15.866L80.0322 3.67188H85.352L90.0682 11.0603L94.791 3.67188H99.7028H100.121L92.3268 15.866V22.3325H87.8196Z" fill="#BBBBBB"/>
<path d="M114.631 3.67188V17.3502C114.633 17.4746 114.61 17.5982 114.563 17.7135C114.515 17.8287 114.444 17.9334 114.355 18.021C114.265 18.1087 114.159 18.1776 114.041 18.2235C113.924 18.2695 113.799 18.2916 113.673 18.2885H106.432V3.67188H101.922V22.339H115.251C115.77 22.3803 116.292 22.3101 116.781 22.1333C117.269 21.9565 117.713 21.6772 118.082 21.3148C118.451 20.9524 118.735 20.5155 118.916 20.0342C119.096 19.553 119.169 19.0388 119.128 18.5272V3.67188H114.631Z" fill="#BBBBBB"/>
<path d="M136.653 3.67038H123.32V22.3375H127.828V7.71112H135.064C135.19 7.70847 135.315 7.73079 135.431 7.77676C135.548 7.82273 135.654 7.89139 135.743 7.97866C135.832 8.06593 135.903 8.17 135.95 8.28468C135.998 8.39935 136.021 8.52228 136.019 8.64611V22.3375H140.523V7.48227C140.566 6.97074 140.495 6.45617 140.316 5.97435C140.136 5.49252 139.853 5.055 139.484 4.69222C139.116 4.32944 138.672 4.05011 138.183 3.87364C137.694 3.69718 137.172 3.62781 136.653 3.67038" fill="#BBBBBB"/>
<path d="M157.405 8.67658V17.3236C157.408 17.4501 157.386 17.5761 157.339 17.6938C157.292 17.8116 157.221 17.9187 157.131 18.0088C157.041 18.0989 156.933 18.1701 156.814 18.2181C156.695 18.2661 156.568 18.2899 156.44 18.288H149.216V7.71217H156.413C156.544 7.70476 156.676 7.72451 156.799 7.77013C156.922 7.81576 157.034 7.88626 157.127 7.97709C157.221 8.06793 157.294 8.17709 157.343 8.29756C157.391 8.41803 157.413 8.54713 157.408 8.67658M158.045 3.67142H144.712V22.3386H158.045C158.563 22.3783 159.084 22.307 159.572 22.1295C160.059 21.9521 160.502 21.6726 160.87 21.3105C161.238 20.9483 161.521 20.512 161.702 20.0315C161.882 19.5509 161.955 19.0376 161.915 18.5267V7.48332C161.956 6.97217 161.884 6.45834 161.704 5.9773C161.524 5.49625 161.24 5.05945 160.872 4.69704C160.504 4.33463 160.061 4.05525 159.573 3.87818C159.085 3.70111 158.563 3.63057 158.045 3.67142" fill="#BBBBBB"/>
<path d="M178.594 7.71245V12.5313H170.399V8.6736C170.398 8.54913 170.422 8.42573 170.47 8.31053C170.518 8.19532 170.588 8.09061 170.678 8.00244C170.767 7.91427 170.873 7.84441 170.989 7.79688C171.106 7.74935 171.231 7.72509 171.357 7.72552L178.594 7.71245ZM169.779 3.67171C169.26 3.63029 168.738 3.70053 168.249 3.87757C167.76 4.05461 167.316 4.33422 166.948 4.69705C166.579 5.05988 166.295 5.49727 166.115 5.97897C165.935 6.46067 165.863 6.97517 165.905 7.48688V22.3389H170.406V16.5622H178.601V22.3389H183.108V3.67171H169.779Z" fill="#BBBBBB"/>
<path d="M192 3.67188H187.49V22.3325H192V3.67188Z" fill="#BBBBBB"/>
<path d="M16.3308 2.97824C16.8681 2.8769 17.223 2.8769 17.3523 3.00766C17.397 3.06483 17.4212 3.13495 17.4212 3.20709C17.4212 3.27923 17.397 3.34934 17.3523 3.40651C17.2847 3.51412 17.2093 3.61682 17.1268 3.71381C12.5731 9.00666 9.09074 16.8103 8.10572 19.0693C8.03275 19.2197 7.95647 19.3799 7.89677 19.4779C7.85928 19.5624 7.79952 19.6355 7.72371 19.6895C7.64789 19.7436 7.55877 19.7766 7.46562 19.7852C7.27143 19.7817 7.08291 19.7202 6.92501 19.6087C3.9003 17.7616 2.10271 15.4732 2.10271 12.9951C2.10271 8.51301 7.95647 4.65861 16.3308 2.97824M21.0039 6.34879C21.4384 5.36803 22.1746 3.27574 23.876 2.42575C24.4164 2.18039 25.0025 2.04793 25.5973 2.03671H25.8395C30.2042 2.00348 34.5505 2.5982 38.7409 3.80208C38.7708 3.80208 38.8537 3.84132 38.8802 3.85112C39.2119 3.96555 39.3976 4.11919 39.3976 4.31207C39.3932 4.39151 39.3721 4.46917 39.3356 4.54009C39.299 4.61102 39.2479 4.67366 39.1854 4.724C39.1323 4.7763 39.056 4.84169 38.9499 4.92669C38.0975 5.63284 35.5172 7.47013 30.6584 9.30089C28.6961 10.0967 26.6734 10.7394 24.609 11.2232C23.2824 11.4978 18.4402 12.2236 21.0039 6.35533M43.6628 6.52533C43.701 6.44099 43.7614 6.3683 43.8379 6.31482C43.9143 6.26135 44.0038 6.22905 44.0972 6.2213C44.2903 6.21917 44.4788 6.27882 44.6345 6.39129C47.6625 8.22859 49.4568 10.517 49.4568 13.0016C49.4568 17.487 43.603 21.3348 35.232 23.025C34.6947 23.1296 34.3398 23.1231 34.2138 22.9923C34.1676 22.9346 34.1424 22.8632 34.1424 22.7896C34.1424 22.7161 34.1676 22.6447 34.2138 22.5869C34.2798 22.4793 34.3553 22.3775 34.4393 22.2829C38.9996 16.9901 42.4721 9.18647 43.4571 6.93398C43.5301 6.78033 43.6064 6.62341 43.6628 6.52533M30.6352 19.625C30.2074 20.6058 29.4678 22.7046 27.7664 23.5481C27.2256 23.7924 26.6398 23.9248 26.0451 23.9371C25.9157 23.9371 25.8262 23.9371 25.7864 23.9371C21.4279 23.9648 17.0885 23.3667 12.9048 22.1619L12.7622 22.1096C12.4305 21.9952 12.2448 21.8383 12.2448 21.6519C12.2487 21.572 12.2697 21.4937 12.3062 21.4221C12.3428 21.3506 12.3942 21.2875 12.4571 21.2368C12.5309 21.1653 12.6084 21.0977 12.6892 21.0341C13.5449 20.3312 16.1252 18.4906 20.9807 16.6599C22.9488 15.8695 24.9771 15.2333 27.0467 14.7572C28.3733 14.4826 33.2089 13.7568 30.6452 19.625M25.7831 26C40.0245 26 51.5662 20.1808 51.5662 12.9984C51.5662 5.81591 40.0245 0 25.7831 0C11.5417 0 0 5.81918 0 12.9984C0 20.1775 11.5417 26 25.7831 26Z" fill="#BBBBBB"/>
</g>
<defs>
<clipPath id="clip0_4410_4803">
<rect width="192" height="26" fill="white"/>
</clipPath>
</defs>
</svg>
